<?xml version="1.0" encoding="utf-8"?>
<!-- Generator: Adobe Illustrator 25.4.1, SVG Export Plug-In . SVG Version: 6.00 Build 0)  -->
<svg version="1.1" id="Layer_1" xmlns="http://www.w3.org/2000/svg" xmlns:xlink="http://www.w3.org/1999/xlink" x="0px" y="0px"
	 viewBox="0 0 506.9 100.8" style="enable-background:new 0 0 506.9 100.8;" xml:space="preserve">
<style type="text/css">
	.st0{clip-path:url(#SVGID_00000116219663743707787990000016248472180803726489_);}
	.st1{fill:#322DC3;}
	.st2{enable-background:new    ;}
	.st3{fill:#FBFBFD;}
</style>
<g id="Group_166">
	<g id="Group_128">
		<g>
			<defs>
				<rect id="SVGID_1_" x="-1325.2" y="-1006.3" width="1983.9" height="748.7"/>
			</defs>
			<clipPath id="SVGID_00000101783320938117672740000009641842566360961420_">
				<use xlink:href="#SVGID_1_"  style="overflow:visible;"/>
			</clipPath>
			<g style="clip-path:url(#SVGID_00000101783320938117672740000009641842566360961420_);">
				<g id="Group_127">
					<g id="Group_126">
						<path id="Path_13631" class="st1" d="M11.9-6.8c-0.6-0.1-1.2,0.5-1.6,1.2C9-3.5,8.2-1,5.6-0.3C5.1-0.1,4.5-0.1,4-0.1
							C2.1-0.3,1-1.8-0.4-3.2C-0.5-3.4-0.8-3.5-1-3.5c-0.4,0-0.8,0.2-1.1,0.5C-2.5-2.4-2.5-1.7-2.2-1c0.7,1.6,1.6,3,2.8,4.2
							c0.7,0.8,2.1,1.5,0.7,3C0.7,6.9,0,7.7-0.6,7.6c-0.5,0-0.9-0.4-1.3-1.3c-0.2-0.5-0.6-0.9-1.1-1c-0.1,0-0.3,0-0.4,0.1
							c-0.9,0.3-1,1.3-1,2.3c0,0.9,0.1,1.8,0.3,2.7c0.3,1.6-0.3,2.4-1.6,2.7c-0.9,0.2-1.9,0.4-2.8,0.6c-2.7,0.2-4.3,1.9-5.2,4.9
							c-0.5,1.8-0.6,4-2.4,5.1c-1.1-3.1-1.2-3.2-2.3-3.5c-3.8-0.7-6.1-3-8-7.8c0.4-0.3,0.9-0.4,1.4-0.4c0.9,0.1,1.8,0.6,2.6,0.7h0.3
							c5.7,0.4,10.4-4.7,10.4-11.4c0.1-0.7-0.2-1.4-0.8-1.8c-0.1-0.1-0.3-0.1-0.5-0.1c-0.5,0-1,0.3-1.2,0.7c-0.4,0.6-0.7,1.3-1,1.9
							c-1.6,2.7-2.7,4-4.1,3.8c-1-0.1-2-0.8-3.4-2S-25,2-25.6,1.9C-26.5,1.9-26.9,3-28,5.7c-0.1,0.2-0.5,0.3-1,0.6
							c-0.4-0.4-0.8-0.9-1.2-1.3C-30.5,4.4-31,4.1-31.6,4c-0.3,0-0.5,0-0.7,0.2c-1.1,0.6-0.9,1.7-0.8,2.8c0.3,3.8,1.3,7,4.1,9.2
							c0.9,0.7,2.2,1.3,2.3,3.2c-2.3,1.4-4.6,3-5.9,5.5c-0.7,1.3-1.3,1.8-1.9,1.8c-0.7-0.2-1.3-0.6-1.7-1.1c-0.5-0.5-1-0.9-1.5-1.3
							c-0.3-0.2-0.6-0.4-1-0.4c-0.4,0-0.9,0.2-1.1,0.5c-0.6,0.7-0.9,1.7-0.6,2.5c0.8,2.1,1.9,3.8,4.3,4.1s4.2,2.4,5.4,4.6
							c0.9,1.6-0.7,3.4-1.4,5.1c-0.2,0.3-0.3,0.6-0.4,1c0.4,4.6-2.5,6-5.5,7.2c-2.4,0.9-4.8,1.6-3.7,5.6c0.2,0.8-0.3,1.3-0.9,1.8
							c-1.3,1-1.4,2.5-1.3,4c0.2,3.7-1.2,5.8-4.3,7c-0.7,0.3-1.5,0.7-2.1,1.2c-1.3,1-2.3,2.3-2.3,3.5c0.1,5.3-3.3,8.8-4.5,13.3
							c-0.5,1.9-1.4,3.3-3.2,3.8c-0.2,0.1-0.5,0.1-0.8,0.1c-1.3-0.1-1.5-1.7-2.1-2.8s-1.2-1.9-2.3-2c-0.3,0-0.5,0-0.8,0.1
							c-1.2,0.4-1.7,1.7-2.1,2.9c-1.7,5.3,0.5,10.4,5.3,10.9c2.5,0.3,4,1.7,5.1,3.8c0.6,1.2,1.2,2.8-1.1,3.1
							c-2.8,0.3-3.7,2.5-3.9,5.4c-0.1,1.5-0.3,2.9-0.4,4.4c-0.2,2.2,0.1,3.1,1.2,3.2c0.6,0,1.1-0.1,1.6-0.2c3.1-0.8,5-3.2,6.2-6.4
							c0.4-1.2,0.9-2.1,1.8-2c0.4,0,0.7,0.1,1,0.3c0.3,0.2,0.6,0.3,1,0.3c0.3,0,0.5,0,0.8-0.1c0.9-0.4,1.9-0.6,2.9-0.6
							c2.5,0.2,4.2,2.4,6.1,5.2c-0.8-0.1-1.3-0.1-1.7-0.2h-0.4c-0.5,0-1-0.1-1.3,0.5c-0.4,0.6-0.2,1.4,0.5,1.8
							c0.9,0.6,1.8,1.6,2.6,1.6h0.2c0.2,0,0.4,0,0.7,0c1.5,0.1,2.3,1.2,3.3,2.2c7,7,12.5,15.2,14.3,26.3c0.5,3.3,0.3,7.1,1.8,9.8
							s1.7,5.2,1.9,8.1c0.2,3.7-0.9,7.3,0,10.9c0.7,2.9,0.4,5.8,0.2,8.8c-0.5,10.1-3.2,20.1-3.8,30.1c-0.7,12.5-5.6,23.2-11,33.6
							c-1.1,2.1-2.2,4.1-3.4,6l13.5,1c2.3-4.7,3.8-9.9,6.8-14.1c-1.7,4.9-2.9,10.1-6,14.2l3.1,0.2c0.2-0.5,0.5-1,0.7-1.5
							c2-4.2,3.8-8.4,5.5-12.8c3.3-8.3,5.6-17,6.8-25.9c0.8-6.9,1.9-13.8,3.1-20.7c0.3,6,0.8,12-1,18c-2.3,8-3.1,16.3-5.2,24.3
							c-1.6,6.4-3.6,12.7-5.9,18.9l2.6,0.2c0.7-2,1.4-4.1,2-6.2c1.5-5.3,3.8-10.3,5-15.7c0.4-2,1.1-3.9,1.5-5.9
							c4.1-18.9,4.9-37.9,3.6-56.9l-0.1-2.1c-0.1-0.8,0-1.9-0.9-2.3h-0.1c-1.2-0.1-1,1.8-2.1,2.1c-1.2-1.7-0.6-4.6-3.1-5.6
							c-1.1-0.4-0.7-2.6-0.8-4c-0.5-6.3-0.1-12.8-1.6-19c-0.9-3.6-1.3-7.4-3.9-10.1c-0.6-0.6-0.6-2-0.9-3l0,0H-14v-0.3
							c-0.4-0.8-0.9-1.6-1.2-2.4c-0.9-2,0.4-1.8,1.4-1.9v-0.2l0.1,0.2l0,0c0-4.2-2.6-7.2-3.6-11.9c2.7,1.9,3.8,4.5,5.1,6.7l0.5,0.8
							l0,0c0.5,1,1.4,1.7,2.5,1.9c-0.7-1.7-1.4-3.2-2.2-4.8l0,0c-2.2-4.3-4.8-8.4-7.4-12.4c-0.7-1.2-1.5-2.3-2.2-3.5
							c-5.5-9-11.4-17.8-18.6-25.1c-0.5-0.5-0.9-1-1.2-1.6l-0.2-0.4l0,0c0-0.1,0-0.3,0-0.4c0-0.2,0.1-0.5,0.2-0.7
							c0.2-0.4,0.6-0.7,1.1-0.7c0.2,0,0.4,0.1,0.5,0.2c0.9,0.6,1.8,1.3,2.6,2c0.3,0.3,0.5,0.5,0.8,0.8c6.7,7.3,13.4,14.8,17.3,24.8
							c0.1,0.3,0.3,0.9,0.5,0.9c0.3,0.1,0.7,0.2,1,0.4l0.1,0.1c0.3,0.1,0.6,0.3,0.8,0.5c2.9,2.1,3.9,6.5,6.8,8.7
							c-0.3,3.4,0.6,6.7,2.7,9.4c2.5,3.4,3,7.3,3.7,11.3c0,0.9,0.3,1.8,0.8,2.5c1.2-0.7,0.5-1.8,0.6-2.8c0.2-3-1.1-6,0.7-9.1
							c0.5-0.9-0.3-2.1-0.5-3.1c-1.1-4.3-2.1-8.7-3.1-13.1c-0.6-1.7-0.6-3.5,0-5.2c3.8,5.5,4.9,12.1,7.3,18
							c-1.2-11.8-4.3-22.7-6.9-34c6.9,9,10.6,20.1,14,31.5c1-3.6-1-6.7-0.7-10.9c2.7,6,4.2,11.9,3.8,18c-0.5,8.4,0.8,16.8-0.1,25.2
							c1.7,3.6-0.6,8.3,1.7,11.8c0.1-7.5,0.2-15.1,0.4-22.6c2.8,5.9,3.8,12.4,4.9,18.7c1.6,9.7,1.4,19.5,0.8,29.4
							c-0.1,1.3-0.2,2.6-0.4,3.9c0.1,0.4,0.2,0.9,0.1,1.3c-0.1,0.5-0.2,0.9-0.3,1.3v0.1l-0.1,0.3c-0.3,1.5-0.1,2.3,1.1,2.4h0.1
							c0.1-0.4,0.2-0.9,0.4-1.3c0.4-1.2,0.8-2.3,1.3-3.4c0.8-5,1.2-10.1,1.2-15.2c0-9.6-0.1-19.4-2.1-28.7
							c-1.4-6.5-1.5-13.7-4.7-19.1c-2.3-4-2.9-8.1-3.5-12.5c-0.2-1.8-0.6-3.6-0.7-5.4c-0.1-1.3-0.5-2.7,0.4-4
							c1.7,0.9,0.7,3.7,2.6,4.2c1.3-1.4-0.9-3.4,1-5c1.3,4,2.4,7.7,3.6,11.4c0.3,1,0.6,2.3,1.2,2.8c2.6,2.1,2.9,5.2,3.5,8.4
							c0.5,2.7,1,5.3,1.5,7.9c1.8,9.9,4.8,19.5,4.3,30c-0.1,1.7,0.1,3.4,0.6,5c0.7-3,2.1-5.5,1.7-8.4c-0.9-7.7-1.5-15.6-2.7-23.2
							c-0.8-5.6-2.5-11.1-5-16.1c-2.5-4.8-4.4-9.8-5.7-15c-2.1-8.1-4.8-16.1-8.8-23.3C7.2,75,3,67.3-1.2,59.6
							c-0.8-1.4-2.1-2.6-0.9-5.4c3.6,4.1,4.8,9.4,7.4,13.7s4.8,9.3,8.1,13.1c-1.6-7.5-6.7-13.1-7.9-20.9c5.8,7.6,9.4,16.7,13.2,26.4
							c0-6-2.8-10.2-4.3-15.5c1.8,0.5,1.8,2.5,3.1,2.6c0.2,0,0.3,0,0.5,0c0.3-2.3-0.8-3.9-1.5-5.7s-1.6-3.2-1.9-4.9
							c-1-5.8-3.3-10.8-5.7-15.9c-3-6.4-6-12.8-9-19.1c-3-1.7-3.1-1.8-1.9-5.2c0.6-1.5,0.9-3.1,0.9-4.8c-0.1-1.1-0.3-2.4,0.6-3
							c2.7-1.8,4-5.1,6.1-7.6c1.6,0.9,2.6,2.5,4.1,2.9c1.2,0.4,1.1,1.6,0.9,2.7c-0.2,0.9-0.5,1-1,1c-0.3,0-0.6-0.1-0.9-0.2l-0.4-0.1
							c-2-0.2-2.1,1.4-1.9,3.3c6.2,2,9.6,7.4,12.1,13.8c2.6,1.6,3.4,4.5,4.1,7.6l0.7,1.4c1,0.8,1.9,1.9,2.6,3
							c2.9,6.9,5.8,13.9,7,21.6c1.1,6.6,1.2,6.6,5.3,12.1c-0.2-12.2-2.5-24.4-6.8-35.9c-1.1-3-2.9-5.7-2.9-9.2
							c5.7,6.4,7.3,15.5,10.6,23.6C38.7,50.8,38,46.3,37,42c-2-8.9-6.6-16.2-10.7-23.8c-1.5-2.5-3.2-4.7-5.2-6.8
							c-0.5-0.6-1.2-1-1.9-1.2c-0.4,0-0.7,0.1-1,0.4c-1.1,1.2-0.1,2.3,0.6,3.2c0.5,0.5,1.4,0.9,0.5,2.2c-2.6-0.5-3.1-3.4-4.8-5.1
							C18.7,8.3,26.2,1,27.3-1.4c-0.4-0.3-0.9-0.4-1.4-0.5c-0.8,0-1.6,0.1-2.3,0.4c-0.7,0.3-1.5,0.4-2.3,0.4c-0.4,0-0.8-0.1-1.1-0.4
							c-0.4-0.2-0.8-0.4-1.2-0.5c-0.8-0.1-1.2,0.6-1.6,1.8C16.9,1.4,16.5,3,15.1,4c-0.5,0.4-1.1,0.6-1.7,0.6
							c-0.8-0.1-1.2-0.9-1.3-2.5c-0.2-2,0.1-4.1,0.8-6c0.4-1.1,0.5-2.3-0.6-2.8C12.2-6.7,12.1-6.7,11.9-6.8 M19.1,24.6
							c-0.2,0-0.3-0.1-0.4-0.3c-0.3-0.5-0.6-1.1-0.9-1.6c0.2-0.3,0.4-0.5,0.5-0.5c0.1,0,0.2,0.1,0.3,0.2c0.3,0.6,0.6,1.2,0.7,1.8
							C19.3,24.5,19.2,24.6,19.1,24.6 M28.4,31.3c-1.4-0.4-1.9-1.9-2.5-3.1C27.4,28.4,28,29.7,28.4,31.3 M-11.6,28.8
							c-0.5-0.1-0.9-0.5-1-1c-0.3-1.1,0.7-1.6,1.3-2c0.5-0.3,0.8-0.5,1.1-0.5c0.5,0,0.9,0.6,2.1,2l-2.6,1.3
							C-11,28.7-11.3,28.8-11.6,28.8 M-22.6,38.6c-2.8-2.3-5.3-5-7.5-8c2.9-1.4,6-0.7,7.9-3.9c0.2-0.4,0.6-0.6,1-0.6
							c0.5,0.1,1,0.4,1.5,0.7c2.5,2,4.5,4.5,5.8,7.4c-0.3,0.2-0.7,0.6-0.8,0.5l0,0c-1.8-1.6-2.8-2.5-3.6-2.6c-1-0.1-1.6,1.3-2.9,4.7
							C-21.5,37.4-21.6,38.2-22.6,38.6 M29.2,44.8c-0.1-0.3-0.2-0.8-0.3-1.3s0.1-0.7,0.3-0.7l0.1,0.1c0.3,0.3,0.6,0.7,0.7,1.2
							C30.1,44.4,29.9,44.7,29.2,44.8 M-27.1,45.5c0.5-2.8,0.8-4,1.5-4c0.6,0,1.5,0.9,3.1,2.3h-0.2C-24.9,43.6-25.9,44.8-27.1,45.5
							 M-13.9,56c-2-1.3-2.7-3.9-4.2-5.8C-16.2,51.7-14.4,53.2-13.9,56 M2.9,55.9c-0.1,0-0.2-0.1-0.3-0.2c-0.3-0.4-0.5-0.9-0.6-1.4
							C2,54.1,2.1,54,2.3,54c0.2,0,0.4,0.1,0.5,0.2c0.2,0.4,0.3,0.8,0.4,1.2C3.2,55.7,3,55.8,2.9,55.9L2.9,55.9 M-5.1,90.8
							c-4.9-8.1-9.5-16.3-14.6-24.1c-2.7-4-5.9-7.7-9.5-10.8c-0.7-0.7-2.4-1.1-1.5-2.8c0.3-0.5,0.6-0.7,1-0.7c0.6,0,1.2,1,1.7,1.4
							c7.7,5.8,12.9,14.2,17.5,23.1C-8.2,81.1-5.8,85.5-5.1,90.8 M-11,61c-1.5-2.1-3.3-2.5-2.8-4.8C-12,56.7-12,58.6-11,61
							 M-10.8,92.8C-15.5,86.2-19.6,79.5-24,73l0,0c-2.9-4.3-6-8.4-9.4-12.3C-26.9,62.2-11.6,84.3-10.8,92.8 M-38.5,65
							c-0.1,0-0.2,0-0.3-0.1c-0.3-0.5-0.2-1,0.1-1.5c0.1-0.3,0.3-0.4,0.6-0.4c0.2,0,0.4,0.2,0.5,0.3c0.1,0.3,0.1,0.7,0,1
							C-37.8,64.8-38.1,65.1-38.5,65 M-47.8,77.7c-0.2,0-0.4-0.2-0.4-0.4c0,0,0-0.1,0-0.2c0.1-0.5,0.3-0.9,0.6-1.3
							c0.1-0.1,0.2-0.1,0.4-0.1c0.3,0,0.4,0.3,0.3,0.8c-0.2,0.4-0.4,0.8-0.7,1.2C-47.6,77.7-47.8,77.7-47.8,77.7 M-26.6,104
							c-0.9-0.2-1.6-0.7-2-1.5c-2-2.9-4.3-5.6-6.1-8.7c-2.8-4.7-5.8-9.2-8.8-13.7l0.8-1l17.9,24.5C-25.4,103.8-26.1,104-26.6,104
							 M-16.2,93.1c-1-0.9-1.9-1.9-2.6-3c-0.8-1.1-1.4-2.3-2-3.5l0,0c-0.3-0.6-0.5-1.1-0.8-1.7l-0.1-0.2c-0.3-0.6-0.5-1.2-0.8-1.8
							c0.4,0.5,0.9,1,1.3,1.5l0.2,0.2c0.4,0.5,0.8,1,1.2,1.5C-18.1,88.1-16.9,90.5-16.2,93.1 M-48,86.3c-0.7,0-1.2-0.4-1.1-1.7
							c0.1-0.8,0.3-1.8,1.2-1.8h0.2c1.2,0.2,2.1,1.2,2.2,2.4c-0.3,1.3-1.2,1-1.9,1C-47.6,86.3-47.8,86.3-48,86.3 M-51.7,102.5
							c-0.8-0.6-1.2-0.7-1.3-1c-0.8-2.1-3.8-3.4-3-5.5c1.2-2.9,2.6-6.4,6-8.1C-49.2,93-49.3,97.7-51.7,102.5 M-9.3,109
							c-1-2.4-2.1-4.7-3.1-7.1c-0.3-0.8-0.6-1.8,0.1-2.4c0.2-0.2,0.5-0.3,0.8-0.3c0.5,0,0.9,0.5,1.1,1.1c1.5,2.8,3.1,5.7,4.4,8.7
							c0.7,1.5,1.4,3.3-0.4,4.9C-8.2,113-8.4,110.7-9.3,109L-9.3,109 M-22.4,121c-0.8-1.6-1.7-3.1-2.5-4.7l0.5-0.4l2.7,4.4
							L-22.4,121 M-7.6,203.9c-1.9-6.3,0-12.5,1.1-18.8C-5.3,191.4-7.4,197.6-7.6,203.9 M-14.1,235.8c2.3-8.9,4-17.9,5.5-26.8
							C-9.2,218.2-11.1,227.2-14.1,235.8"/>
						<path id="Path_13635" class="st1" d="M6.5,17.1l0.1,0.1v-0.1L6.5,17.1"/>
						<path id="Path_13636" class="st1" d="M18.7,30.9l0.1,0.2L18.7,30.9L18.7,30.9"/>
						<path id="Path_13637" class="st1" d="M-0.1,27.9L0,28.1h0L-0.1,27.9z"/>
						<path id="Path_13638" class="st1" d="M-100.3-237.7h-0.4c-1.2-0.1-2.4-0.1-3.5,0c-4.4,0.3-8.7,0-13.1-0.1l0,0l-1.9-0.1h-0.3
							c-1.5,0-3-0.1-4.5-0.2h-0.1h-0.5h-0.6l-4.2-0.4l-0.9-0.1l-0.8-0.1h-0.1c-2.2-0.2-4.3-0.3-6.5-0.2h-0.7c-2.1,0.1-4.3,0.1-6.4,0
							h-0.1c-0.7,0-1.3-0.1-2-0.3l-0.3-0.1h-0.1h-0.1c-0.7-0.1-1.4-0.3-2-0.6c-0.4-0.1-0.8-0.3-1.2-0.4l-0.3-0.1
							c-1.1-0.3-2.2-0.5-3.3-0.6h-0.1c-1.2-0.1-2.4-0.1-3.6,0c-1.2,0-2.3,0.1-3.5,0.1c-1,0.1-2,0.1-3,0h-0.3
							c-1.1-0.1-2.1-0.2-3.2-0.3c-9.8-0.8-19.6-0.1-29.4,0.5c-11.7,0.7-23.1,4.4-34.6,6.5c-4.3,0.8-8.6,1.7-12.9,2.8l-2.4,0.6
							c-3.1,0.8-6.2,1.6-9.3,2.4c-16.5,4.6-32.9,9.5-49,15.9c-1.8,0.7-3.5,1.5-5.3,2.3c-3.4,1.6-6.9,3.2-10.3,4.7l-5.6,2.4
							c-3,1.2-5.9,2.5-8.9,3.8c-2.4,1.1-4.8,2.2-7.1,3.4c-1.2,0.6-2.4,1.2-3.6,1.9s-2.1,1.1-3.1,1.7c-0.6,0.4-1.2,0.7-1.8,1
							c-1.6,0.9-3.1,1.9-4.7,2.9c-3.8,2.6-7.7,4.8-11.6,7.1c-4.9,2.7-9.7,5.8-14.2,9.1c-3.5,2.7-6.9,5.3-10.3,8
							c-1,0.8-2.1,1.6-3.1,2.5c-1.5,1.3-3.1,2.5-4.6,3.8c-2.2,1.9-4.3,3.7-6.5,5.7c-1,1-1.9,2-2.7,3.2c-0.6,0.9-1.3,1.8-2,2.6
							c-0.9,1.2-2,2.3-3.3,3.1c-2.2,1.4-4.1,3.1-5.8,5c-1.1,1.2-2.1,2.4-3,3.6c-0.5,0.6-1,1.3-1.5,2c-0.8,1.1-1.6,2.1-2.5,3.1
							c-1.4,1.6-2.9,3.1-4.5,4.5c-0.2,0.2-0.4,0.3-0.7,0.5c-0.4,0.3-0.8,0.6-1.2,0.9s-0.7,0.5-1,0.7c-1.5,1-2.9,2.3-4.1,3.7
							c-2,2.4-3.8,5.2-5.6,7.9c-8.9,12.5-16.9,25.7-23.8,39.4c-4.6,9.2-10.1,17.9-13.4,27.9c-2,6.2-3.8,12.5-6,18.5
							c-0.2,0.6-0.5,1.2-0.7,1.8l-0.2,0.5c-0.8,1.9-1.5,3.9-2.2,5.8c-0.3,0.9-0.6,1.9-1,2.8c-1.5,4.2-2.8,8.4-4,12.7
							c-0.7,2.4-1.2,4.8-1.8,7.2c-1.1,4.9-2.1,9.9-2.9,14.9c-0.1,0.5-0.2,1.1-0.3,1.6c-0.1,0.5-0.2,1-0.3,1.5
							c-0.3,1.1-0.7,2.2-1.1,3.2v0.1c-2.1,6.3-4.1,12.5-3.6,19.3c0,0.3,0,0.7,0.1,1v0.1c0,0.2,0,0.4,0,0.5c0.1,1.3,0,2.6-0.4,3.8
							c-0.8,3.2,0.1,5.5,2,7.8c0.5-4,1.8-7.8,3.8-11.3c0.4-1,0.5-2.1,0.4-3.2c0.6-9.7,2.1-19.3,4.5-28.7c3-11.9,6.5-23.7,9.9-35.6
							c5.6-19.6,13.8-37.8,23.4-55.2c2.7-4.8,5.4-9.7,8.2-14.4c3.9-6.7,7.9-13.2,12.1-19.6c2.1-3.2,4.3-6.3,6.5-9.3
							c1.5-1.9,3-3.8,4.5-5.6l0,0l0.6-0.7c1.4-1.6,2.9-3.1,4.4-4.5l0-0.1l0.1-0.1h0.1l0,0c1-1,2-2.5,3.5-2.4h0.1h0.2h0.1h0.2
							c0.5,1.2-0.1,1.9-0.5,2.7c-2.6,5.8-7.1,9.6-10.6,14.4c-1,1.3-2.6,2.8-2.4,4.1c0.7,3.5-1.5,5.4-2.9,7.5
							c-4,6.1-8.4,11.9-12.6,17.8c-5,7.1-9.9,14.5-13.5,22.6c-5.9,13.5-11.9,27-17,40.8c-4.7,12.4-8,25.2-9.8,38.4
							c-1.2,9.3-2.5,18.6-5.5,27.6c-0.3,0.9-0.5,1.8-0.6,2.7c-0.1,0.8,0.2,1.5,0.9,1.6l0,0c0.5,0,0.9-0.3,1.2-0.7
							c0.6-1.3,1.1-2.7,1.5-4.1c2.7-8.8,3.7-18,5-27.1c1.3-8.9,3.1-17.7,5.5-26.4c1.3-4.8,4.4-7.9,5.9-12.3c1.8-5.3,4.9-10.1,5.4-16
							c0.1-0.5,0.4-1,0.8-1.3c3.1-2.1,3.2-6.3,5-9.4c0.3-0.7,0.4-1.4,0.2-2.1c-0.5-2.3,0.3-5.6,1.7-5.7c2.7-0.1,2.9-2.5,3.8-4.2
							c1.2-2.4,2.5-4.8,3.9-7.1c0.7-1.2,1.9-2.5,1.6-3.9s-0.1-1.5,1-1.9c1.6-0.6,3.5-1.2,3.2-4.1c-0.1-0.5,0.7-1.2,1.1-1.8
							c6.7-10.2,12.9-20.8,20.1-30.6c0.8-1.1,1.4-2.5,0.1-3.2c-2-1.2-0.6-2.5,0-3.3c2.2-2.7,4.6-5.2,6.9-7.8
							c4.6-5.2,8.7-11.2,14.1-15.5c10.1-8,20-16.6,30.4-24.1c5.9-4.2,12.1-8,18.6-11.3c-2.5,3.1-5.6,5.8-8.9,7.9
							c-8,5.6-15.8,11.4-22.9,18.7c-8.3,8.6-17.6,15.8-25.3,25.3c-2.2,2.7-3.9,5.7-5.1,9c2.7-2.9,5.1-6.2,7.7-9.1
							c10.7-12,22.6-22.3,34.3-33c3.3-3,7.1-5.1,10.7-7.6c0.5-0.4,1-0.6,1.6-0.7c0.2,0,0.4,0.2,0.5,0.4c0.4,1.2,0.9,1.6,1.4,1.7
							c0.8,0.1,1.6-1.1,2.2-1.7c7.6-7.8,17.2-12,25-19.7c3.5-3.5,9-3.5,11.5-9.1l0.4-0.2c3.8-2,7.5-4.1,11.4-5.9
							c8.3-3.9,16.9-6.9,25.4-9.9c10.9-3.8,21.6-8.5,32.8-9.6c6.4-0.6,12.4-2.6,18.6-4.4c8.1-2.5,16.4-4.3,24.8-5.3
							c7.7-0.8,15.5-1.8,23.2-3.2c1.3-0.3,2.7-0.5,4-0.7c0.4-0.1,0.8-0.1,1.2-0.2c5.1-0.8,10.1-1.4,15.2-1.8
							c2.9-0.2,5.9-0.4,8.8-0.5c1.7-0.1,3.3-0.1,5-0.1c2,0,4,0,6,0.1h0.4c3.4,0.1,6.8,0.3,10.2,0.5h0.1l1.1,0.1l1.1,0.1
							c12.5,1.1,24.8,3.2,37.1,5.4c6.4,1.1,12.9,2.2,19.1,4.6c0.9,0.3,2,0.3,2.6,1.5c-0.6,0.5-1.4,0.7-2.2,0.6
							c-0.5,0-0.9-0.1-1.3-0.2c-9.6-0.8-19.2-2.6-28.8-3.4c-2.6-0.2-5.2-0.3-7.8-0.3h-0.1c-0.4,0-0.8-0.2-1.3-0.3
							c-6.2-0.5-12.3-1.3-18.5-1.8c-3.4-0.3-6.7-0.4-10.1-0.4c-2.6,0-5.2,1.1-7,3c0.9,0.1,1.7,0.3,2.6,0.3c1.5,0.2,3.1-0.1,4.4-0.9
							c0.7-0.4,1.5-0.6,2.2-0.5c0.5,0.1,1,0.1,1.4,0.3c10,2.7,20.5,2.2,30.6,4.6c2.2,0.5,4.4,0.8,6.6,1c1.2,0.1,2.5,0.2,3.7,0.2
							s2.5,0.1,3.7,0.2c2,0.1,4,0.4,6,0.8c4.4,1,9,1.7,13.3,2.9c6.2,1.8,12.8,1.3,19,3.1c11.2,3.2,22.4,6.3,33.7,9.5
							c9.2,2.6,18.4,5.5,27,10.4c1,0.6,2,0.9,3,1.4s2,1,3,1.5s1.9,1.1,2.9,1.6c0.8,0.4,1.7,0.9,2.5,1.3s2,1.1,3,1.5
							c0.5,0.2,1,0.4,1.5,0.5c0.4,0,0.6-0.2,1-0.9s0.5-0.9,0.9-0.9c0.2,0,0.4,0.1,0.6,0.2c0.8,0.2,1.5,0.5,2.2,0.8
							c10.6,5.1,21.4,9.8,31.5,15.9c4.6,2.8,9.4,4.9,14.2,7.4l0.4-1c-6.4-3.7-13-7.1-19.1-11.8c0.4-0.3,0.9-0.5,1.5-0.5
							c0.6,0.1,1.1,0.3,1.6,0.6c6.3,2.9,12.7,5.8,19,8.8c1.6,0.8,3.4,1.4,4.5,2.7c5,5.9,11.8,8.3,18,11.9c2.6,1.5,5.5,2.4,6.8,5.8
							c-0.4-0.6-1-1-1.7-1.2c-0.6,0-1.1,0.2-1.6,0.6c0.5,0.6,1.1,1.1,1.7,1.5c6.1,2.6,11.5,6.9,17.3,10.2
							c6.2,3.4,11.9,7.7,17.6,11.8c0.8,0.5,1.5,1.5,2.4,1.5c0.2,0,0.4,0,0.6-0.1c0.5-0.2,1-0.2,1.6-0.2c1.7,0.1,3.1,1.4,4.4,2.4
							c7.7,5.6,15.7,10.4,22.8,17c2.9,2.7,6.4,4.2,9.5,6.3c1.7,1.1,3.6,2.9,5.9,3.1c0.5,0,1,0,1.4-0.1
							c-30.3-22.9-61.8-43.7-93.5-63.8c0.1-0.3,0.4-0.5,0.8-0.4c0.2,0,0.4,0.1,0.6,0.1c0.2,0.1,0.4,0.1,0.6,0.1
							c0.3,0,0.6-0.1,0.6-0.9c0-1-0.3-1.8,0.2-1.8c0.3,0.1,0.6,0.2,0.9,0.4c3.4,2.2,7.2,3.3,10.7,5.2c1.8,0.8,3.4,2,4.7,3.4
							c2.8,3.5,6.4,5.5,10.1,7.5c2.5,1.3,5.1,2.6,7.6,4.1c7.6,4.7,14.8,9.8,21.8,15.3c3.2,2.7,6.6,5.1,10.2,7.3
							c7.2,4.4,14.3,9.2,21.2,14.1c5.1,3.6,10.1,7.6,15.1,11.4c5.9,4.5,12.4,8.1,17.8,13.4c3.2,3.2,6.7,6.3,10.3,9
							c2.6,1.9,5.5,3.3,8,5.4c8.5,7.5,18,13.2,26.4,20.8c4.8,4.3,9.8,8.3,14.7,12.5c0.9-0.3,1.8-0.5,2.7-0.9
							c2.2-0.7,4.5-1.3,6.8-1.7c-0.6-0.5-1.3-1-2-1.5c-5.8-4.2-11.7-8.2-17.3-12.8c-2.5-2-4.9-4.2-7.2-6.5l-0.5-0.4
							c-1-1.1-2.3-1.7-3.8-2h-0.1c-0.5,0-1,0-1.5,0.1h-0.1h-0.1c-0.2,0-0.4,0.1-0.6,0.1h-0.1c-0.9-0.2-1.6-0.8-1.9-1.6
							c-0.3-0.6-0.6-1.2-1-1.7l0,0c-1.7-2.4-4-4.3-6.5-5.8c-0.1,0-0.1-0.1-0.2-0.1h-0.1c-0.2,0-0.4,0.2-0.5,0.5
							c0.3,1.5,2.1,1.5,2.2,3.2c-4.1-1.4-7.3-4.7-10.7-7.4c-1.4-1.2-3-2.2-4.6-3.1l-0.4-0.2c-2.7-1.5-4.7-4-7.1-5.9
							c-0.4-0.4-1-0.7-1-1.6V-80c0-0.6,0-1.1,0-1.4v-0.3c0-0.3-0.2-0.7-0.5-0.8l-3.1-2.1c-0.8-0.6-1.6-1.1-2.4-1.7
							c-1.1-0.9-2.3-1.7-3.4-2.6c-2.7-2.1-5.3-4.2-8-6.3c-0.8-0.7-1.6-1.3-2.5-1.9c-1.9-1.4-3.9-2.8-5.9-4.1c-2.3-1.5-4.6-3-6.8-4.6
							c-1.7-1.2-3.4-2.4-5-3.6c-5.9-4.3-11.6-8.7-17.6-12.8c-0.4-0.3-0.9-0.6-1.3-0.9c-2.9-2-5.8-4.4-9-5.5
							c-3.4-1.2-6.6-2.8-9.5-4.8c-2.4-1.6-4.6-3.2-6.9-4.9c-1-0.8-2.1-1.5-3.1-2.2c-4.4-3-8.8-6.1-13.2-8.9
							c-1.8-1.1-3.5-2.2-5.3-3.3c-1-0.6-2-1.2-3-1.8c-3.9-2.3-7.8-4.5-11.8-6.7c-4.8-2.6-9.7-5.2-14.5-7.8c-2.5-1.3-5.1-2.7-7.6-4
							c-5.9-3.2-11.8-6.3-17.8-9.4c-1.1-0.6-2.2-1.1-3.2-1.7c-0.9-0.4-1.8-0.9-2.6-1.3l-2.3-1.1c-4.2-2.1-8.5-4.2-12.8-6.1
							c-1.5-0.7-3.1-1.4-4.6-2.1l-2.5-1.2c-4.9-2.4-9.7-5.1-14.5-7.7c-1-0.6-2-1.1-3-1.7l-3.4-1.8l-3.3-1.8L3-209.5
							c-1.1-0.6-2.1-1.1-3.3-1.5c-0.6-0.2-1.3-0.4-2-0.5h-0.1c-4-0.7-8-1.7-11.8-3.1l-2.5-0.9l-1.9-0.7c-1.2-0.5-2.4-0.9-3.7-1.4
							l-2.2-0.8c-3.2-1.2-6.4-2.3-9.5-3.4c-4.2-1.4-8.4-2.8-12.6-4.1l-0.5-0.2c-4-1.3-8.2-1.1-12.2-1.8c-0.6-0.1-1.2-0.2-1.7-0.3
							l0,0l-6-1.4l-2.4-0.5c-4.6-1.1-9.2-2.1-13.7-3.3l-1.3-0.3c-2.7-0.7-5.4-1.5-8.1-2.3h-0.1c-0.8-0.3-1.7-0.5-2.5-0.7
							C-96.9-237.3-98.6-237.5-100.3-237.7 M31-184.1c-2.8-0.6-5.6-1.7-8.1-3.1c-8.9-5-18.5-8.2-27.9-12c-7.2-2.8-14.5-5.2-22-7.2
							c-1.7-0.4-3.3-1.1-4.9-1.9c-11.6-6.3-24-9.7-36.6-12.4c-1.9-0.4-4.1-0.4-4.9-3.1c0.3-0.4,0.8-0.6,1.3-0.5
							c0.5,0.1,1,0.2,1.5,0.4c2.8,0.6,5.6,1.1,8.4,1.7c3.1,0.6,6.3,1.3,9.4,2c1.6,0.3,3.2,0.6,4.7,1c1.5,0.4,3,1,4.4,1.8
							c0.5,0.2,1,1,1.5,1h0.1c0.2-0.1,0.5-0.1,0.8-0.2h0.2l0.5-0.1h0.2h0.4h0.1h0.2c0.2,0,0.3,0,0.5,0.1h0.1c0.2,0,0.3,0.1,0.5,0.1
							h0.1c0.2,0.1,0.4,0.1,0.5,0.2l0,0c2,0.9,3.7,2.7,5.8,3.6l0,0c0.6,0.4,1.3,0.6,1.9,0.8c0.2,0,0.3,0,0.5,0l0.5-0.2l0,0
							c0.2-0.1,0.3-0.3,0.5-0.5c0.2-0.3,0.6-0.6,1-0.6c0.3,0,0.5,0.2,0.6,0.4c0.3,0.4,0.7,0.8,1.1,1.2l0.1,0.1
							c3.5,3.2,8.2,3.3,12.1,5.6c0.4,0.2,0.8,0.4,1.3,0.4c0.2,0,0.4,0,0.5-0.1c0.8-0.2,1.6-0.3,2.5-0.3c2.9,0.2,5.1,2.3,7.6,4
							c3.2,2.1,6.6,3.8,10.2,5.1c4.7,1.7,9,4.3,13.8,6c-1.2-2.8-4.1-2.8-6-5.2c3.3,0.8,6.4,1.9,9.4,3.4c8,4.1,16.4,7.6,24.4,11.9
							c5.9,3.1,12.4,4.7,17.7,9.4c0.6,0.6,1.2,1,1.2,2c-8.4-3.7-16.8-7.3-25.1-11.2c-5.1-2.4-10.1-5.4-15.1-8.2
							c-0.7-0.6-1.5-0.9-2.4-1.1c-0.4,0-0.7,0-1.1,0.2c1.5,2.3,3.9,3,6,5.3 M-232.8-230c1.1-1.7,2.7-1.7,4.2-2
							c3.4-0.7,6.8-1.2,10.2-1.8c0.2,0,0.3,0,0.5,0c0.5,0,0.9,0.3,1.3,1.4C-222.2-231.4-227.4-230.1-232.8-230 M-244.2-227.8
							c-0.3,0-0.6,0-0.8-0.1l0.5-0.3c0.2-0.1,0.3-0.2,0.5-0.3c0.9-0.5,1.8-0.9,2.8-1.2c1.8-0.5,3.7-0.7,5.6-0.5c0.3,0,0.7,0,1,0.1
							c0.5,0.1,1,0.1,1.4,0.2c-0.9,0.3-1.7,0.6-2.6,0.8C-238.5-228.1-241.3-227.7-244.2-227.8 M-254.8-224.8c0.8-1.1,1.9-2,3.2-2.5
							c0.3-0.1,0.7-0.3,1-0.4h0.1c0.3-0.1,0.7-0.2,1-0.2h0.1c0.4,0,0.7-0.1,1.1-0.1h0.1c0.4,0,0.8,0,1.2,0h0.2l1.1,0.1
							c-1.9,1.8-4.3,1.5-6.4,2.3C-252.9-225.2-254-225.6-254.8-224.8 M-258.3-224.3c-0.2,0-0.5-0.1-0.7-0.2c0.4-0.5,1-0.8,1.7-0.8
							c0.7,0.1,1.3,0.5,1.8,0.9c-0.2-0.1-0.4-0.2-0.6-0.2c-0.4,0-0.7,0.1-1.1,0.1C-257.5-224.3-257.9-224.3-258.3-224.3
							 M-255.3-224.3L-255.3-224.3 M-266.1-222.9c0.6,0,1.2-0.2,1.8-0.5c0.6-0.3,1.3-0.5,2-0.5c0.3,0,0.5,0.1,0.8,0.2
							c-0.9,0.9-2,1.3-3.3,1.3c-0.7-0.1-1.4-0.3-2-0.7l0,0C-266.5-223-266.3-222.9-266.1-222.9 M-287.4-215c1-2.6,2.8-3,4.5-3.5
							c5.4-1.6,10.7-3.1,16.1-4.6c0,0.9-0.2,1.9-1.1,2.1C-274.2-219.1-280.4-216.2-287.4-215 M42.7-178.5c-3-0.2-4.4-2.4-6.5-3
							c0.5-0.1,0.9-0.1,1.4-0.1C39.4-181.4,41-180.4,42.7-178.5L42.7-178.5 M71.7-168l-2.9-1c0.2,0,0.4,0,0.6,0
							C70.2-168.8,71-168.5,71.7-168 M-343.5-190.8c-0.7-0.1-1.5-0.2-2.2-0.5c4.9-3.3,9.3-6.1,14.8-7.2c-1.9,3.1-1.9,3.1-6.8,5.6
							C-341.1-191.2-342.2-190.7-343.5-190.8 M-380.2-167.9c1.6-4.8,16.1-13.7,26.1-16.3C-362.2-177.6-370.9-172.6-380.2-167.9
							 M99.3-146.5c0.2,0,0.4,0,0.7,0c0.3,0,0.6,0,0.8,0c0.8,0,1.5,0.4,2,1c-0.3,0.1-0.6,0.2-0.9,0.2c-0.5-0.1-1-0.3-1.4-0.6
							C100.1-146.2,99.7-146.4,99.3-146.5 M99-146.5L99-146.5 M-385.3-165.4c-0.3,0-0.4-0.5-0.1-0.7c0.3-0.3,0.7-0.6,1.2-0.7h0.1
							c0.3,0,0.3,0.4,0,1C-384.5-165.6-384.9-165.5-385.3-165.4L-385.3-165.4 M-392.6-155.3c0.6-1.3,1.4-2.3,2-2.2
							c0.1,0,0.3,0.1,0.4,0.2c0.9,0.9-0.6,1.2-1,1.7C-391.4-155.4-391.8-155.5-392.6-155.3 M-399.1-148.7c0.8-2.3,0.8-2.3,3.5-4.1
							C-396.3-150.6-397.7-149.9-399.1-148.7"/>
						<path id="Path_13653" class="st1" d="M66.6,103.6L66.6,103.6L66.6,103.6L66.6,103.6L66.6,103.6L66.6,103.6z"/>
						<path id="Path_13655" class="st1" d="M66.6,103.7c0,0.5,0.1,1,0.1,1.5l0.6-0.9C67.1,104.1,66.8,103.9,66.6,103.7"/>
						<path id="Path_13660" class="st1" d="M64-9.7c-1.5,0-2.8,0.8-3.4,2.1c-0.5,1-0.9,2-1.1,3.1c-0.3,1.4-1.6,2.3-3,2.1h-0.1
							c-1.4-0.1-1.4-1.5-1.2-2.8c0.5-3.1-1.5-3.7-3.2-4.5c-0.2-0.1-0.5-0.2-0.8-0.2c-1.4-0.1-2.2,1.4-3.1,2.6s-1.4,2.5-2.3,3.6
							c-0.7,1-1.3,1.4-1.9,1.4S42.8-3,42.4-4.2s-0.5-2.5-0.8-3.7c-0.1-0.6-0.6-1-1.2-1c-0.1,0-0.2,0-0.3,0c-0.7,0.2-1.2,0.9-1,1.6
							l0,0c0.2,2.1-1.4,4.1-0.2,6.3c0.7,1.3,1.1,3.2-0.7,4.3c-0.6,0.4-1.3,0.6-2,0.5c-0.9-0.1-1.7-0.6-2.3-1.3
							c-0.9-1-1.6-2.2-2.4-3.3c-0.1-0.2-0.4-0.3-0.6-0.4c-0.3,0-0.5,0.1-0.6,0.3c-0.3,0.4-0.5,0.9-0.5,1.4c0.2,3.1,3,6.3,5.6,6.5
							c0.6,0.1,1.2-0.1,1.8-0.4c3.7-2.2,8-2.3,11.5-5.2c1-1,2.3-1.5,3.7-1.5c1.6,0.1,3,1.5,4.2,3.8c0.5,0.9,1,1.8,1.6,2.6
							c5,6.3,8.1,13.9,10.8,21.8c0.9,2.7,1.9,5.3,2.9,8C71,22.3,63.8,12,57.6,1.1c2.5-1.8,5.5-2.8,8.6-2.7c2.7,0.3,5.2,1.5,7,3.5
							c1.8,1.8,4.1,3,6.7,3.4h0.3c3.1,0.2,7.4-3.3,8.2-6.8C88.7-2.3,88.6-3.3,88-4c-0.2-0.2-0.5-0.4-0.8-0.4c-0.5,0-1,0.2-1.3,0.6
							c-0.5,0.5-1,1-1.5,1.4c-1.8,1.4-3.3,2-4.6,1.9c-1.6-0.1-3-1.2-4.6-3.3c-0.2-0.3-0.4-0.5-0.6-0.8c-0.8-0.9-1.6-1.9-2.5-2
							c-0.7-0.1-1.4,0.4-2.4,1.6c-0.4,0.6-1.1,1-1.8,1c-1.3-0.3-2.2-1.4-2.2-2.7c-0.2-1.2,0.2-2.8-1.2-3L64-9.7"/>
						<path id="Path_13676" class="st1" d="M142.8,11.9c1.2,4.8,0.1,8.6-0.5,12.4c-0.2,1.4-0.2,2.7,0.1,4.1c2.8-2.2,5.6-4.3,8.5-6.3
							c-0.5-1.6-1.6-3.2-1.2-5.3c0-0.6-0.4-1.1-1-1.2c-0.1,0-0.2,0-0.2,0c-0.3,0.1-0.6,0.2-0.9,0.1
							C145.7,15.6,145.2,13.1,142.8,11.9"/>
						<path id="Path_13697" class="st1" d="M37.8,9.1c-0.6,0-1.1,0.2-1.5,0.7c-0.6,0.7-0.7,1.7-0.3,2.5c0.4,0.8,1,1.4,1.4,2.1
							c3.5,5.2,5.9,11.1,7.2,17.2c0.9,5.5,1.6,11.1,1.9,16.7c0.1,1.6,0,4,1.5,4.1c2.3,0.2,2.6,2.3,3.5,3.7
							c5.8,9.4,10,19.8,12.3,30.6c0.3,1.2,0,3,1.7,3.2c-0.4-7.8-2.4-15.5-5.9-22.5c-2.2-4.5-4.7-8.9-6.9-13.4
							c-1.7-3.4-3.7-6.7-4.2-10.7c-0.7-6.3-2-12.5-3.1-18.7c-0.8-4.3-2.3-8.5-4.3-12.4c-0.6-1.2-1.5-2.2-2.7-2.8
							C38.3,9.2,38,9.1,37.8,9.1"/>
						<path id="Path_13698" class="st1" d="M65.6,89.9L65.6,89.9l0.1,0l0,0L65.6,89.9z"/>
						<path id="Path_13703" class="st1" d="M178.6-4c-0.9,0-1.7,0.3-2.4,0.8c-4.3,2.5-6.9,6.5-8.1,11.8c-0.2,0.7-0.3,1.5-0.3,2.3
							l2.1-1.3c0.1-0.3,0.1-0.6,0.2-0.9c0.9-3.3,2.7-6.2,5.2-8.6c0.8-0.8,1.9-1.3,3-1.2c0.6,0.1,1.2,0.2,1.7,0.3
							c0.6,0.2,1.2,0.3,1.8,0.3h0.1C180.6-2.8,179.8-3.9,178.6-4"/>
						<path id="Path_13709" class="st1" d="M128.5,5.7c-0.8,0-1.6,0.3-2.2,0.8c-3.4,2.9-3.9,7.1-3.7,11.4c0.2,3.5,3.2,7.2,6.2,7.9
							h0.3c3,0.2,5.1-1.4,7.1-4.6c1.7-2.9,2.1-4.6-0.4-6.5c-0.4-0.3-0.5-1.3-0.7-1.9c-0.8-2.9-3.3-4.1-4.9-6.2
							C129.8,6.1,129.2,5.8,128.5,5.7 M129,18.5c-1.3-0.1-1.8-1.3-1.9-2.7c-0.1-1.6-0.4-3.3,0.7-4.7c0.4-0.3,0.8-0.4,1.3-0.3l0,0
							c0.6,0,0.7,0.7,0.7,1.2c0.1,2.1,0.2,4.3,0.3,6.4C129.7,18.4,129.3,18.5,129,18.5"/>
						<path id="Path_13716" class="st1" d="M87.8-21.2c-1.7,0.5-3.2,1.6-4.4,2.9c-1.6,1.6-1.2,3.8-0.9,5.7c0.1,1,0.9,1.7,1.9,1.7
							c0.4,0,0.8,0,1.2-0.1C86.1-11,86.5-11,87-11c0.9,0.1,1.8,0.4,2.6,1c1.1,0.8,2.3,1.3,3.6,1.5c1.2,0.1,2.5-0.3,3.5-1
							c0.4-0.3,0.8-0.5,1.3-0.4c0.8,0.1,1.2,1.2,1.4,2.6c0.4,2.4-0.7,4.2-1.5,6.2c-1.8,4.5-0.9,7.4,2.8,9.4c1,0.5,2,0.9,3.1,1
							c1.5-0.1,2.9,0.8,3.5,2.2c0.2,0.6,0.6,1.1,1.1,1.1c0.3,0,0.5-0.1,0.7-0.3c0.9-0.6,1.4-1.7,1.1-2.8c-0.5-2-1.2-4-1.8-5.8
							c-0.1,0-0.2-0.1-0.4-0.1c-1.2-0.1-1.8,1.1-2.8,1.5c-0.6,0.2-1.2,0.3-1.8,0.3c-1.4-0.2-2.5-1.2-2.9-2.5
							c-0.9-2.1,0.5-2.9,1.8-3.8c0.6-0.6,1.2-1.2,1.7-1.9c-2.8-1.2-2.8-4-3.4-6.6c-0.5-2.1-1-3-2-3.1c-0.8,0-1.7,0.3-2.4,0.7
							c-0.9,0.5-1.9,0.8-2.9,0.9c-0.6,0-1.1-0.3-1.5-0.7c-1.8-1.9-4.2-2-6.2-2.9C85.8-17,88.3-18.3,87.8-21.2"/>
						<path id="Path_13730" class="st1" d="M39.4,108.6c-0.5,0-1.1,0.4-1.7,1.2c-1.2,1.6-0.6,7.4,0.9,8.3l0.5-0.1
							c0.3-0.1,0.7-0.2,1-0.2c1.2,0.1,1.4,1.6,1.7,2.8c0.8,3.3,1.6,6.6,2.1,10c0.4,2.7,0.6,5.4,0.7,8.1c0.6-0.7,1.4-1.3,2.2-1.9
							c0-8.8-3.2-16.8-5.3-25c-0.2-0.7-0.5-1.4-0.8-2C40.3,109,39.8,108.6,39.4,108.6"/>
						<path id="Path_13745" class="st1" d="M123.1,40.6c-2.2-0.2-2.3,2.8-2.6,4.7c-0.1,1.1-0.3,2.1-0.5,3.2c1.6-1.3,3.1-2.6,4.6-3.9
							c0.2-1.7,0.4-3.6-1.2-3.9C123.4,40.6,123.2,40.6,123.1,40.6"/>
						<path id="Path_13748" class="st1" d="M42.5,45.4v0.2l0.1-0.1L42.5,45.4z"/>
						<path id="Path_13749" class="st1" d="M26.8,8c-0.6,0-1.2,0.3-1.5,0.8c-0.9,1-1,2.4-0.2,3.5c0.3,0.4,0.7,0.7,1,1.1
							c5.6,6.8,9,15.2,12.7,23.5c1.3,2.8,0.9,6.8,3.7,8.6c0.1-0.7,0.1-1.3,0.1-2C41.2,31.9,36.4,22,31.6,12.3
							c-0.8-1.7-2.1-3-3.7-3.9C27.5,8.2,27.2,8.1,26.8,8"/>
						<path id="Path_13751" class="st1" d="M117,33.4c-1-0.1-1.7,0.9-2.1,2c-0.3,0.8-0.5,1.8-0.4,2.7c0.1,5.3-0.2,10.5-0.9,15.7
							c1.1-1,2.3-1.9,3.4-2.8c0.8-4.8,1.2-9.7,1.3-14.6c0-1.1,0.3-2.4-0.8-2.8C117.4,33.5,117.2,33.5,117,33.4"/>
						<path id="Path_13787" class="st1" d="M100.5,11.8c-0.2,0-0.4,0-0.6,0.1c-1.4,0.4-1.7,1.6-1.4,3c0.1,0.3,0.1,0.7,0.2,1
							c3.8,10.6,2.8,22.4,5.6,33.3c1.6-4.3,1.3-8.9,0.4-13.3c-0.7-3.5-1.1-7.1-1-10.8c0-4-0.6-7.9-1.8-11.7
							C101.7,12.5,101.3,11.8,100.5,11.8"/>
						<path id="Path_13793" class="st1" d="M46.9,12.3c-0.8,0-1.1,0.6-1.3,1.3c-0.2,1.1-0.1,2.2,0.2,3.2c2.3,8.7,3.9,17.5,4.9,26.3
							c0.1,0.8,0.2,1.8,1,1.9c0.1,0,0.2,0,0.3,0c1-0.2,1-1.3,0.9-2.2c-0.7-7.1-1.2-14.1-2.1-21.2c-0.3-2.8-1.2-5.6-2.5-8.1
							C48,13,47.5,12.5,46.9,12.3"/>
						<path id="Path_13801" class="st1" d="M68.1,79.6c-0.8,2.1-0.3,4.1,0.3,6.1c1.2,4.2,2,8.5,2.6,12.8c0.5-0.7,1-1.4,1.6-2.2
							C71.8,90.6,71,84.7,68.1,79.6"/>
						<path id="Path_13802" class="st1" d="M68.2,79.4L68,79.5l0.1,0.1L68.2,79.4z"/>
						<path id="Path_13804" class="st1" d="M6.6,17.2c-1.7,0.2-2.9,0.9-1.6,3.1C5.5,21,6.1,21.5,6.8,22c7.3,6.2,12.7,14.2,16.5,23.7
							c0.9,2.3,1.9,4.5,2.8,6.8c0.2-4.7-2-8.4-2.7-12.6l-0.7-1.4c-1.6-2.3-3.5-4.3-4.1-7.5C14,27,9.9,22.4,6.6,17.2"/>
						<path id="Path_13805" class="st1" d="M18.7,30.9L18.7,30.9V31l0.1,0.1L18.7,30.9z"/>
						<path id="Path_13806" class="st1" d="M6.5,17.1L6.5,17.1l0.1,0.1l0,0L6.5,17.1z"/>
						<path id="Path_13832" class="st1" d="M94.3,12.3h-0.2c-1.5,0-1.7,1.2-1.5,2.7c1.1,8.1,3.8,15.7,4.7,24c0.3-0.5,0.5-1,0.7-1.6
							c0-6.3-0.3-12.6-1.1-18.9c-0.2-1.4-0.5-2.8-0.8-4.2C95.7,13.2,95.2,12.4,94.3,12.3"/>
						<path id="Path_13835" class="st1" d="M109.7,23.1c-1.9,1.1-2.8,3.4-2,5.5c1,3,0.6,6.1,0.6,9.1c0,3.9,0.1,7.8,0.2,11.7
							C111.6,42.2,111.9,27.2,109.7,23.1"/>
						<path id="Path_13850" class="st1" d="M55.3,18.9c-1,0.7-1.4,2-0.9,3.1c1,3.1,1,6.4,1.4,9.6c0.3,2.7,0.4,5.4,0.6,8.1
							c0,0.7,0.2,1.4,0.9,1.4h0.2c0.8-0.1,1-0.8,1.1-1.5c0.5-5,0.3-10.1-0.7-15.1C57.5,22.5,57.2,20.3,55.3,18.9"/>
						<path id="Path_13853" class="st1" d="M85.8,10.3c-0.3,0-0.6,0.1-0.9,0.3c-0.8,0.5-1,1.5-0.7,2.4c0.7,1.8,1.7,3.3,2.5,5.1
							c1.8,4,3.4,8.1,5.3,12.1c0.2-6.2-1.5-11.7-3.7-16.9c-0.5-0.9-1.1-1.7-1.8-2.4C86.4,10.5,86.1,10.3,85.8,10.3"/>
						<path id="Path_13861" class="st1" d="M115.1-9.8c-0.1,0-0.2,0-0.3,0.1c-1.2,4.4-0.5,6.2,2.8,7.4c0.2,0.1,0.4,0.1,0.6,0.1h0.3
							h0.4c0.5,0,1,0.3,1.3,0.7c1.8,3.1,4.4,3.5,7.1,3.8l0.8,0.1l0.8,0.1c0.8,0,1.5,0.1,2.2,0.3c-1-1-2.2-1.8-3.5-2.3
							c-3-1-5.2-2.5-3.9-7.1c-1.1,0.2-1.5,0.1-1.7,0.3c-2.1,1.4-3.3,2.2-4.2,2.2c-1-0.1-1.4-1.6-2.3-5.1
							C115.4-9.7,115.2-9.8,115.1-9.8"/>
						<path id="Path_13864" class="st1" d="M29,80.8c-0.2,0-0.4,0-0.6,0.2c-0.6,0.4-0.9,1.2-0.7,1.9c0,0.7,0.2,1.4,0.3,2.1
							c1.7,6.9,4.7,13.2,6.7,19.9c0.1,0.3,0.3,0.6,0.7,0.6c0.2,0,0.4,0,0.6-0.1c1-3.1-1.4-5.2-1.7-7.9c-0.7-5.4-3.6-9.8-4.3-15.2
							C29.9,81.6,29.6,80.8,29,80.8"/>
						<path id="Path_13893" class="st1" d="M107.8,57.4c-0.1,0.7-0.3,1.3-0.4,2l0.4-0.3C107.8,58.5,107.8,58,107.8,57.4"/>
						<path id="Path_13935" class="st1" d="M-0.1,27.9L0,28.1v-0.2L-0.1,27.9z"/>
						<path id="Path_13936" class="st1" d="M1.6,25.6c-0.9-0.1-1.4,0.9-1.5,2.3c1.7,0.3,2.2,2.2,3,3.5c1.6,2.9,3.7,5.6,6.1,7.9
							c-1.7-4-3.3-8-5-11.9c-0.3-0.6-0.8-1.1-1.4-1.4C2.5,25.8,2,25.7,1.6,25.6"/>
						<path id="Path_13992" class="st1" d="M80.4,12.7c1.5,5.7,2.6,11.5,4.5,17.1C84.2,23.8,84.1,17.5,80.4,12.7"/>
						<path id="Path_14003" class="st1" d="M118.9,5.4c-0.5,0-0.9-0.1-1.4-0.1c-0.9-0.1-1.7,0.5-1.9,1.4c0,0.2,0,0.3,0,0.5
							c0,0.6,0.4,1,0.9,1.1c0,0,0,0,0,0c0.3,0,0.6-0.1,0.8-0.2c0.4-0.2,0.9-0.4,1.4-0.4c0.9,0.1,0.9,1.2,0.5,2.7
							c-0.3,0.9,0,1.9,0.8,2.5c1-1.8,3-2.8,2.2-5.2C121.6,5.9,120.3,5.5,118.9,5.4"/>
						<path id="Path_14013" class="st1" d="M103.7,54.7c-1,3.4-1.6,6.9-1.8,10.5c0.6-0.6,1.2-1.2,1.8-1.8
							C104.1,60.4,104.1,57.5,103.7,54.7"/>
						<path id="Path_14017" class="st1" d="M72.2,9c0.3,5.7,3.3,9.9,5.1,14.7C76.9,18.1,74.3,13.7,72.2,9"/>
						<path id="Path_14018" class="st1" d="M61.8,28.8c-2.2,4.4-0.5,7.9,0.2,11.4C63,36.5,64,32.8,61.8,28.8"/>
						<path id="Path_14034" class="st1" d="M1.5,21.4c2.6,2.9,4.7,6.5,8,8.3C7.6,26,5.9,22,1.5,21.4"/>
						<path id="Path_14063" class="st1" d="M65.6,90.1c-1.2,2.3-0.5,4.5,0,6.6c0.7,2.2,1,4.5,0.9,6.7C68.3,98.7,66.9,94.5,65.6,90.1
							"/>
						<path id="Path_14064" class="st1" d="M65.7,89.9L65.6,90v0.1L65.7,89.9z"/>
						<path id="Path_14065" class="st1" d="M66.6,103.5L66.6,103.5v0.2l0,0v-0.1V103.5z"/>
						<path id="Path_14081" class="st1" d="M68,79.2l0.1,0.3l0.1-0.1L68,79.2z"/>
						<path id="Path_14082" class="st1" d="M64.6,68.6L64.6,68.6L64.6,68.6L64.6,68.6l0.1,0.2L64.6,68.6z"/>
						<path id="Path_14083" class="st1" d="M64.7,68.8c0.9,3.5,0.9,7.6,3.3,10.3C67.4,75.4,67.7,71.3,64.7,68.8"/>
						<path id="Path_14086" class="st1" d="M78.3,81.7l0.2,7.3l0.6-0.7C79.3,86.1,79,83.8,78.3,81.7"/>
						<path id="Path_14104" class="st1" d="M78.5,30.1l0.8,8.4C79.2,35.6,80.6,32.5,78.5,30.1"/>
						<path id="Path_14106" class="st1" d="M79.2,44.8c0.5,2.8-1.7,6,0.7,8.4C79.3,50.4,80.8,47.3,79.2,44.8"/>
						<path id="Path_14122" class="st1" d="M42.6,45.7c-0.9,2.3-0.8,4.8,0.3,7C43.7,50.4,43.6,47.9,42.6,45.7"/>
						<path id="Path_14123" class="st1" d="M42.6,45.5l-0.1,0.1l0,0.1L42.6,45.5z"/>
						<path id="Path_14199" class="st1" d="M85.8,33.5c-0.2,0.3-0.5,0.5-0.6,0.8c-0.2,0.6,0.1,1.3,0.6,1.7h0.1
							c0.2,0,0.4-0.4,0.3-1.2C86.2,34.6,86,34,85.8,33.5"/>
						<path id="Path_14200" class="st1" d="M86.4,39.4c-0.2,0-0.3,0.1-0.4,0.5c-0.2,0.6-0.1,1.3,0.3,1.9c0.1,0.2,0.2,0.3,0.3,0.3
							s0.2-0.1,0.4-0.3c0.3-0.6,0.2-1.4-0.1-2C86.7,39.5,86.5,39.3,86.4,39.4"/>
						<path id="Path_14201" class="st1" d="M64.3,64.7c-0.6,1.6,0.3,2.5,0.3,3.7C65.2,67.2,65.1,65.8,64.3,64.7"/>
						<path id="Path_14202" class="st1" d="M64.6,68.4L64.6,68.4l-0.1,0.2l0.1-0.1V68.4z M64.5,68.6L64.5,68.6"/>
						<path id="Path_14204" class="st1" d="M79.9,53.2L79.9,53.2c-0.2,1.4-1.7,2.6-0.5,4.3C79.6,55.9,79.7,54.6,79.9,53.2L79.9,53.2
							"/>
						<path id="Path_14257" class="st1" d="M454.2-49.3L454.2-49.3h-0.4h-0.5c-5.5-0.4-11-0.4-16.5-0.4h-1.5c-1.7,0-3.4,0-5.1-0.1
							l-5.5-0.2l-3.9-0.1c-7.5-0.1-14.9-0.2-22.4-0.2h-6h-1.6l-4.4,0.1c-2.3,0-4.6,0.1-7,0.1c-2.9,0.1-6,1-8.9,0.9h-0.2
							c-2-0.1-3.8-1-5.2-2.3l-0.1-0.1l0,0h-0.1l-0.1-0.1l-0.1-0.1c-0.1,0-0.2-0.1-0.2-0.1h-0.1c-0.2,0-0.3,0-0.5,0.1l-0.7,0.2
							l-0.4,0.1h-0.1l0,0l-1,0.2c-4.3,1-8.5,1.7-12.8,2.4c-1.5,0.2-2.9,0.5-4.4,0.8c-2,0.4-3.9,0.7-5.9,1.2c-1.6,0.4-3.1,0.7-4.7,1
							l-3.1,0.6l-4.5,0.8c-6.9,1.3-13.7,2.6-20.4,5.3c-4.8,1.9-9.8,1.3-14.6,2.9v-0.1c-1.2,0.5-2.4,0.9-3.6,1.3
							c-1.8,0.6-3.6,1-5.4,1.4l-3.1,0.6c-2.3,0.4-4.6,1-6.8,1.7c-0.9,0.3-1.8,0.6-2.7,0.9c-1.7,0.5-3.4,1.1-5.1,1.5
							c-1,0.3-2,0.6-2.9,0.8c-3.7,1-7.4,2-11.1,2.9c-0.6,0.2-1.3,0.3-1.9,0.5c-2.8,0.7-5.7,1.4-8.5,2.2l-2.1,0.5
							c-4,1.1-8,2.2-12,3.5c-4.6,1.5-9.3,2.4-13.6,5.2c-5.4,3.6-10.7,7.6-16.7,10.1c-8.9,3.6-17.5,7.8-25.8,12.7l-2.1,1.3l-0.9,0.6
							c-5.4,3.5-10.8,6.9-16.1,10.6c-2.9,2-5.7,4.1-8.5,6.3c-4.1,3.2-7.9,6.6-11.5,10.3c-2,2.1-4.1,4-6.2,5.8
							c-1.5,1.3-3.1,2.6-4.6,3.9l-3,2.5c-1.1,0.9-2.2,1.9-3.4,2.8c-2,1.7-4,3.4-5.8,5.2l-0.4,0.3c-1.2,1.2-2.3,2.3-3.4,3.6l-0.3,0.3
							c-0.6,0.6-1.2,1.2-1.8,1.9c-3.6,3.7-7.4,7.2-10.3,11.7c-1,1.6-2.4,3-4.1,4c-3.2,1.8-5.8,4.6-8.2,7.4l-0.6,0.7
							c-0.9,1-1.7,2.1-2.6,3.1c-1.2,1.4-2.3,2.8-3.4,4.3c-0.5,0.7-1.1,1.4-1.6,2.2c-1.3,1.9-2.6,3.8-3.8,5.8l-0.6,0.9
							c-1.7,2.8-3.3,5.6-4.8,8.5c-1.1,2-2.3,3.7-0.4,6c1,1.2,0,2.7-0.8,3.9c-0.5,0.8-0.9,1.6-1.2,2.4c-0.6,1.3-1,2.6-1.1,4
							c0.4,0.2,0.9,0.3,1.3,0.4c1.7,0.1,2.7-1.3,3.5-3.1c0.9-2.3,1.9-4.5,3-6.6c8.8-14.6,19.6-26.9,31.3-38.2
							c9.9-9.7,20.6-18.3,30.4-28.2c12.3-12.5,25.3-23.8,40.5-31.1c1.5-0.7,2.6-2.2,4-3c2.7-1.7,4.9-5.2,8.1-4.9
							c0.8,0.1,1.6,0.3,2.2,0.7c0.1,0,0.1,0,0.2,0.1c0.5,0,0.9-0.2,1.2-0.5c1.4-2.2,3.4-3,5.4-3.9c1.8-0.9,3.5-2.2,5.2-3.3
							s4-3,5.4-2.9c0.1,0,0.3,0,0.4,0.1c0.3,0.2,0.7,0.3,1,0.3c2.1,0.2,2-3.2,3.9-3.4c7.6-0.7,13.7-8,21.5-8.2c1,0,1.9-1,2.9-1.5
							c1.8-1.1,3.9-1.6,6.1-1.6c0.2,0,0.4,0,0.6,0.1c-11.5,5.4-21.4,13.6-31.3,22.1s-19.8,16.7-29.1,26.9c0.3,0.1,0.5,0.1,0.8,0.1
							c1.1,0.1,2.2-0.5,2.8-1.5c6-7.7,13.9-12.6,20.6-19.3c9.7-9.7,21.1-16.7,32.6-23.1c0.8-0.6,1.8-0.9,2.8-1
							c0.6,0.1,1.1,0.3,1.5,0.6l-8,7.5c-1.6,1.5-3.7,2.6-3,5.9c0.3,1.3-3.5,4.3-4.8,4.2c-0.1,0-0.2,0-0.2-0.1c0-1.2,1.9-1.5,1-3.4
							c-4.7,3.9-8.8,8.6-13,13s-10.4,6.5-13.7,13c0.5,0.2,1.1,0.4,1.7,0.5c1.2,0.1,2.3-0.4,3-1.4c3.7-4.4,8.2-7.4,12.3-11
							c6.5-5.7,13.5-10.7,21.1-14.9c0.8-0.5,1.3-1.3,1.4-2.2c-0.3,0.1-0.6,0.2-0.9,0.3c-0.5,0.2-1.1,0.3-1.7,0.4
							c-0.3,0-0.6-0.2-0.7-0.6c-0.7-1.5,0.5-2.3,1.5-2.7c2.6-1,5-2.5,7-4.5C247.7-6.6,256-11,264.4-15c1.1-0.7,2.4-1,3.7-1
							c0.6,0.1,1.2,0.2,1.8,0.5c0.6,0.3,1.2,0.4,1.8,0.5c2,0.2,3.3-1.3,4-4.3c0.5-2.2,1.7-2.5,3-3c7-2.3,14.1-4.6,21.4-4.2
							c1.4,0.1,2.8,0,4.2-0.2c4.4-0.8,8.8-1.5,13.2-2c0.9-0.2,1.8-0.3,2.7-0.4c0.7,0,1.3,0.4,1.7,0.9c-0.4,1.4-1.3,1.3-2.2,1.6
							c-5.7,2-11.5,3.5-16.4,7.9c1.3,0.2,2.7,0,3.9-0.5c11.4-5.5,23-10.2,35.1-12.1c5.2-0.9,10.6-2.5,15.7-2.2
							c5.4,0.3,10-1.5,14.7-4.1c3-1.8,6.2-3,9.6-3.6c0.4-0.1,0.7-0.1,1.1-0.1c2.1,0.2,0.8,2.5,0.8,4.1c4.2-1.1,8.1-2,12-3.1
							c0.8-0.2,1.6-0.3,2.5-0.3c1.1,0.1,2.1,0.6,2.9,1.3c0.5,0.5,1.1,0.8,1.8,0.9c1.3,0.1,2.2-1.1,2.2-3.2c0-1.2,0.4-1.7,0.8-1.7
							c0.2,0,0.4,0.2,0.5,0.4c0.4,0.8,1.2,1.3,2,1.4c0.9,0,1.8-0.2,2.7-0.5c1.9-0.5,3.9-0.6,5.8-1.2c1.5-0.5,3-0.9,4.6-1.2
							c3-0.5,6-0.8,9-0.8c1.5,0,3.1,0,4.6,0.1c3.8,0.1,7.6,0.4,11.4,0.3c0.5,0,1,0,1.5,0c0.9,0.1,1.8,0.2,2.6,0.3
							c1,0.2,2.1,0.3,3.2,0.4c1.7,0.2,3.4,0,5-0.6l0.4-0.1c0.1,0,0.2-0.1,0.4-0.1c0.1,0,0.3,0.1,0.4,0.2c0.4,0.4,0.6,1,0.4,1.5
							c-5.7,3-11.8,3.8-17.9,4.7c-1.4,0.2-2.8-0.2-4.1,0.9c-6.5,4.9-13.5,9.2-20.9,12.6c-1.4,0.6-2.6,1.4-1.8,4
							c2.2-1.4,4.4-2,6.5-3.4c3.1-2.2,6.5-5.1,9.9-4.8c0.1,0,0.3,0,0.4,0c0.3,0,0.6,0.1,0.9,0.1c4.9,0.4,8.9-2.1,13.2-4
							c1-0.5,2-0.9,3-1.3c0.5-0.1,0.9-0.2,1.4-0.2c1.2,0.1,2.2,1,2.5,2.1c-3.2,2.9-6.5,5.4-9.2,8.8c0.3,0.2,0.6,0.3,1,0.4
							c1,0.1,1.5-0.9,2.1-1.4c4.4-3.9,9.5-6,14.3-8.8c2.8-1.6,5.8-0.3,8.3-1.7c5.4-3,10.9-3.3,16.4-3.9c1.6-0.2,3.4,0.1,4.7-0.8
							c1.7-1.2,3.8-1.7,5.9-1.4c0.6,0,1.2,0.1,1.8,0.2c10.8,1.5,21.5,3.7,31.9,6.7c0.8-0.9,2-1.5,3.2-1.6c0.3,0,0.6,0,0.9,0
							c0.4,0,0.8,0.1,1.1,0.2c0.4,0.1,0.8,0.2,1.2,0.3l2.8,0.7l1.7,0.4c0.4,0.1,0.8,0.2,1.2,0.3c4.3,1,8.5,2.1,12.8,3.1
							c2.3,0.3,4.4,1.4,6,3l-9.8,3.8c-2.7,1-4.8,3.1-6.5,6.9c0.1,0,0.3,0.1,0.4,0.1c0.8,0,1.5-0.3,2.1-0.9c3.3-2.2,6.6-4.2,10.3-3.9
							c0.6,0,1.2,0.2,1.8,0.3c0.2,0.1,0.4,0.1,0.6,0.1c0.8,0.1,1.5-0.4,1.7-1.1c0.4-1.1,1.4-1.8,2.5-1.9c3.3-0.2,6.5-0.3,10.2-0.4
							c-3.7,3.4-3.8,2.9-7.3,4.1s-7,2.6-9.1,6.7c2.4-0.7,4.6-2,6.8-2.9c1.6-0.8,3.3-1.2,5-1.3c0.9,0.1,1.8,0.4,2.5,0.9
							c-1.8,2.6-4.6,1.6-5.9,3.7c-1.7,2.7-6.3,3-5.4,8c-1.9,2.1-4.2,3.7-6.8,4.7c-10.6,3.7-17.3,11.5-19,24.4
							c-0.3,2.2-1.7,4.6-0.1,7.3c1.8-3.1,2.1-6.2,2.6-9.2c0.4-2.4,0.6-5,1.9-7.1c4.8-8,10.7-14.1,19.6-14.3c1,0,1.8-0.5,2.3-1.4
							c1.5-2.8,4.6-4.4,7.8-4.1c0.4,0,0.8,0.1,1.1,0.1h0.2c1.2-0.1,2.3-0.3,3.4-0.7c4.2-0.8,8.4-2.2,12.6-2.3c1,0,2.6-0.8,4-0.7
							s2.1,0.9,2.3,3.6c0,0.2,0.1,0.3,0.3,0.4c0.4,0,1.1-0.5,1.5-0.5c2.8-0.5,5.6-1,8.4-1.4c0.9-0.2,1.8-0.2,2.7-0.2
							c1,0.1,2,0.5,2.7,1.2c0.3,2.2-2.2,2.3-2.4,4.2c0.1,0,0.2,0,0.3,0c1.7,0.1,2.7-0.9,4-1.5c3.3-1.8,7.1-2.6,10.9-2.4
							c0.9,0.1,1.8,0.2,2.6,0.4c0.5,0.1,0.8,0.6,0.9,1.2c0,1.9-2.6,1.5-2.4,3.6c0.3,0.1,0.5,0.2,0.8,0.3c0.1,0,0.1,0,0.2,0
							c2.4-1.4,5.1-2.1,7.8-2c2.7,0.3,5.2,1.5,7,3.6c0.6,0.5,1.2,0.8,1.9,1l2.7,1l1.4-14.1l-2.9-1l-2.4-0.8l-2.8-1
							c-1.2-0.4-2.4-0.8-3.6-1.2c-8.6-3-17.2-5.9-25.9-8.8c-7.5-2.5-15-5-22.7-6.9l-0.3-0.1c-4-1-8.1-1.9-12.2-2.5l-3.6-0.5
							l-0.5-0.1c-5.7-0.8-11.4-1.6-17-2.4c-1.4-0.2-2.8-0.4-4.1-0.6c-1-0.2-1.9-0.3-2.9-0.5l-0.7-0.1c-0.5-0.1-0.9-0.2-1.4-0.2
							c-1.4-0.2-2.7-0.5-4.1-0.8c-4.2-0.9-8.4-1.9-12.6-2.6c-1.4-0.3-2.8-0.5-4.3-0.7c-2.7-0.4-5.4-0.7-8.1-1
							c-17.1-2-34.2-2.9-51.2-5.7c-1.6-0.3-3.3-0.5-4.9-0.6c-0.5-0.1-0.9-0.1-1.4-0.1l-1.3-0.1L454.2-49.3 M295.3-30.5
							c1.3-1.7,3.3-2.7,5.4-2.9c5-0.7,10-2,15.1-2.5c5.9-0.5,11.8-1,17.5-4.3c6.3-3.6,13.4-4,20.3-4.6c7.1-0.6,14.2-1,21.4-1.5h0.7
							h0.2c1.4-0.1,2.9-0.2,4.4-0.1c1,0.1,1.9,0.3,2.9,0.7l0,0c-8,0.9-15.7,3.3-23.4,5.7c-8.7,2.7-17.4,2.8-26.1,4
							c-8.4,1.2-16.9,1.9-25.2,4.1C304.1-31,299.7-30.5,295.3-30.5 M363.3-36c2.2-2.3,3.9-2.8,6.9-2.8C367.6-37,366-36.2,363.3-36
							 M580.1-19c-1.2-0.1-2.3-0.3-3.4-0.6c1.9-1.7,4.3-2.5,6.8-2.4c1.6,0.2,3.3,0.6,4.7,1.4C585.6-19.4,582.9-18.8,580.1-19
							 M324-39.2l-0.5,0c0.2-0.6,0.5-1.1,1-1.4c0.4-0.2,0.8-0.4,1.3-0.4c0.8,0,1.5-0.1,2.3-0.3C326.5-39.3,325.3-39,324-39.2
							 M609.2-15.4c-0.9,0-1.8-0.3-2.5-0.9c-0.6-0.8-0.6-1.2-0.2-1.1h0.1c1.5,0.4,3.1,0.9,4.6,1.4l1.4,0.4h-0.3
							C611.3-15.5,610.3-15.4,609.2-15.4 M584.4-12.5c3.8-1.2,7.5-2.4,11.3-3.3c0.7-0.2,1.5-0.2,2.3-0.1c2,0.2,3.7,1.3,4.8,2.9
							c-2.4,0.7-5,1-7.5,0.7c-0.8-0.1-1.6-0.1-2.4-0.2s-1.6-0.2-2.4-0.2C588.5-13.1,586.4-12.9,584.4-12.5 M332.3-32.1
							c-1.2-0.2-2.4-0.6-3.5-1.2c1.4-0.7,3-1,4.6-1c0.8,0.1,1.6,0.3,2.3,0.6C334.9-32.7,333.6-32.1,332.3-32.1 M242.2-16.6
							c-0.4,0-0.7-0.1-1.1-0.2c13.5-8.9,28.5-10.2,43.1-13.7c-1.2,2.1-3,2.7-4.8,3.3c-6.7,2.2-13.4,4.3-20.1,6.5
							c-1.6,0.7-3.3,1-5,1.1c-0.2,0-0.5-0.1-0.7-0.1c-0.3-0.1-0.5-0.1-0.8-0.1c-1.5,0-3,0.4-4.3,1.1
							C246.5-17.9,244.5-16.4,242.2-16.6 M185.3,7.5c-0.4,0-0.7-0.1-1.1-0.2c0.9-2,2-2.7,3.7-2.6c0.2,0,0.4,0,0.6,0.1
							C187.8,6.9,186.8,7.6,185.3,7.5 M138.3,37.1c1.9-2.8,4.2-4.7,7.2-4.8C143.7,35,140.7,35.6,138.3,37.1 M78.7,97.4
							c1-5.4,5.2-8.2,8.2-11.7s6-6.6,8.9-10.1c4.6-5.2,9.5-10.2,14.8-14.7c0.6-0.7,1.5-1.1,2.5-1.1h0.2c-0.2,1.5-1,2.9-2.2,3.9
							c-9.3,8.8-18,18.2-26.2,28C83,93.8,81.2,96.2,78.7,97.4 M76.9,99.6c-0.1-0.3-0.4-0.7-0.4-0.8c0.3-0.5,0.6-0.9,1.1-1.2
							c0.1-0.1,0.2-0.1,0.4-0.1l0.5,0.1c-0.1,0.3-0.2,0.7-0.3,1C77.8,98.9,77.4,99.3,76.9,99.6"/>
						<path id="Path_14260" class="st1" d="M235.2,6.9l-0.1,0.2h0.1L235.2,6.9L235.2,6.9z"/>
						<path id="Path_14261" class="st1" d="M359.2,108.3c-0.8,0-1.6,0.5-2,1.2c-2.8,3.8-3.5,12.3-1.2,17c1.8,3.7,4.3,5.8,7.6,6
							c1.2,0.1,2.3,0,3.4-0.3c0.3-0.1,0.7-0.2,1-0.3c0.2,0,0.5,0,0.8,0c2,0.1,1.2,2.8,1.8,4.2c0.7,1.8-0.1,3.9-1.5,3.9
							c-2-0.1-4.2,0.5-6.2,0.4c-2.1-0.1-3.9-1.3-4.9-3.2c-1.5-2.5-4.7-3.1-7.3-4.2c-0.3-0.1-0.6-0.2-0.9-0.2
							c-1.1-0.2-2.1,0.5-2.3,1.6c0,0,0,0,0,0.1c0,0.2,0,0.4,0,0.5c0.2,4.4-3.5,7.3-3.1,11.6c-0.1,0.8-0.5,1.5-1.1,2
							c-2.5,1.6-3.5,5.5-6.7,6.1c-0.8,0.2-1.3,0.9-1.3,1.8c0,1.5,1.7,2.8,0.4,4.6c-0.5,0.6-0.8,0.9-1.1,0.9s-0.6-0.6-0.9-1.1
							s-0.6-1.1-1-1.1c-0.2,0-0.4,0-0.5,0.2c-1.1,0.6-2.3,1.6-3.7,1.5c-0.6-0.1-1.1-0.3-1.6-0.6c1.5-3.4-0.4-6.3-1.5-9
							c-0.5-1.2-1.2-1.7-2-1.8c-0.9,0-1.8,0.3-2.7,0.8c-0.9,0.5-1.8,0.7-2.8,0.8h-0.3c0-6.2-0.1-12.1,6.4-14.3
							c-0.5-1-1.5-1.7-2.6-1.9c-0.5,0-1.1,0.2-1.5,0.5c-2.9,2.4-5.8,4.7-6.1,9.7c-0.5,6.6,0.8,13.2,3.9,19.1
							c1.4,2.4,3.9,3.9,6.6,4.1c1.1,0.1,2.2-0.1,3.2-0.4c1.2-0.4,2.1-1.9,3.7-1.8h0.4c-1.2,3.6,0.6,4.1,2.7,4.3h0.5h0.1
							c1.7,0.1,2.5,1.6,2.6,3.2c0.1,1.8-1.5,2.7-2.7,3.5c-0.5,0.2-1,0.3-1.6,0.3h-0.5l-0.6-0.1c-0.2,0-0.4-0.1-0.6-0.1
							c-0.1,0-0.3,0-0.5,0c-1.1,0-2.3,0.2-2.3,1.8c-0.1,1,0.5,1.8,1.5,2h0.1c0.2,0,0.4,0,0.6-0.1c0.8-0.3,1.7-0.4,2.5-0.4
							c2,0.2,3.7,1.4,5.5,2.9c1.1,0.8,2.4,1.3,3.7,1.4c0.9,0.1,1.8,0,2.7-0.3c1.8-0.5,3.6-0.7,5.5-0.5c1.1,0.1,2.3,0.3,3.4,0.4
							c3.8,0.5,7.6,1.3,11.4,2.4c1,0.4,2,0.7,3.1,0.9c0.8,0.1,1.5-0.2,2-0.8c0.7-1.1,2-1.7,3.3-1.6c0.9,0.1,1.8,0.4,2.6,0.8
							c3.1,1.3,6.1,2.9,9,4.7c7.6,4.8,13.9,11.7,19.7,19c4.1,4.8,7.6,10.1,10.4,15.7c0.5,1.1,1.9,2.4,0.7,3.8
							c-0.2,0.3-0.6,0.5-1,0.5c-0.8-0.1-1.3-1.3-1.9-1.9c-0.8-0.8-1.4-1.8-2.1-2.6c-4-4.7-7.2-10.3-11.8-14.3s-9.2-7.8-13.9-11.6
							c-10.3-8.2-22.2-11.4-34.6-12.4h-0.2c-1.6-0.1-3.2-0.1-4.8-0.1s-3.2,0-4.8-0.1c-1.8-0.1-3.6-0.4-5.3-1
							c-0.5-0.2-1.1-0.3-1.6-0.3c-1.8-0.3-3.5,0.8-4,2.5c-1,2.8-2.8,6.3,0.5,8.8c0,0.1,0.1,0.1,0,0.1h-0.1c-0.1,0-0.2,0,0.1,0.5
							c-2.8,0.6-5.7,0.7-8.6,0.5c-2.5-0.2-5-0.6-7.5-1.1c2.8-3,5.7-2.9,8.1-4.1c2.3-1.1,3.9-3.3,4.2-5.8c0.3-1.4,0.9-3.1-0.7-3.7
							c-0.2-0.1-0.3-0.1-0.5-0.1c-1.1-0.1-1.7,1.1-2.2,2.4c-1.6,4-2.3,5.1-4.8,5c-0.7-0.1-1.3-0.2-2-0.3c-0.3-0.1-0.6-0.1-0.9-0.1
							c-1.8-0.1-2.4,0.9-2.7,3c-0.3,2.6-1.5,3.9-3.9,4.3c-1.6,0.2-5.1-0.4-2.8,4.1c0.4,0.7,0,1.2-0.6,1.5c-0.3,0.2-0.7,0.3-1,0.4
							c-0.2,0.1-0.4,0.2-0.6,0.2c-4.3,1.6-8.1,4.7-12.2,6.4c0,0.6,0.2,1.2,0.7,1.7c0.4,0.4,0.8,0.6,0.8,1.1c0,1.2-1.1,1.5-1.9,1.8
							c-1.2,0.5-2.5,0.9-3.8,1.3c-0.3,0.1-0.6,0.2-0.9,0.3c-2.3,0.6-4.3,2-5.5,4c0.3,0.4,0.7,0.7,1.1,0.8h0.1c0.3,0,0.7-0.1,0.9-0.3
							c4.8-3,10.2-3.9,14.7-7.6c1.3-1.1,2.9-1.7,4.5-1.9c9.5-1.1,19-2.8,28.6-2.5c0.4,0,0.8,0,1.2,0.1c1.1,0.1,2.2,0.2,3.3,0.4
							s2.2,0.3,3.3,0.4c0.4,0,0.8,0.1,1.2,0.1c0.8,0,1.5,0.1,2.3,0.1c1.5,0.1,3,0.3,4.4,0.5c1.8,0.3,3.5,0.6,5.3,1.1
							c7.7,1.9,15,5.1,22.2,8.7c1.6,0.9,3,2,4.3,3.4c3.2,3.3,6.5,6.7,9.7,10c0.4,0.4,0.8,0.9,1.2,1.3c1.2,1.3,2.5,2.6,3.7,3.9
							c0.7,0.8,1.4,1.5,2.1,2.3c1.2,1.3,2.3,2.7,3.4,4c1.4,1.7,2.7,3.6,3.9,5.4c0.4,0.6,0.7,1.1,1,1.7c1.6,2.8,2.9,5.8,3.9,8.9
							c0.1,0.4,0.2,0.7,0.3,1.1c0.2,0.8,0.4,1.7,0.6,2.6c0.4,1.9,0.8,3.8,1.2,5.7l0.9,4.5c1,4.6,1.9,9.3,2.6,14v0.2l10.8,0.9v-0.2
							c-0.3-2.2-0.3-4.5-0.5-6.7s-0.3-4.3-0.5-7.3c2.3,4.5,2.6,6.8,2.5,14.2l4.5,0.4c-1.7-1.7-1.6-4-1.8-6.1
							c-0.7-6.6-2.3-13.1-4.8-19.2c-0.5-1.2-0.9-2.5-1.6-2.5c-0.4,0-1,0.4-1.9,1.6c-0.3,0.4-0.7,0.7-1.2,0.7
							c-0.8-0.2-1.5-0.7-1.8-1.5c-1.4-2.5-2.9-5.1-3.5-8.1c-2-10.7-8.3-18.1-14.4-25.3c-2.8-3.4-6.8-5.9-9.9-9.3
							c-0.6-0.6-1.3-1.5-2-1.6h-0.1c-0.3,0-0.6,0-0.9,0c-0.5,0-0.9-0.1-1.4-0.2c-1.7-0.6-3.2-1.6-4.4-2.9c-0.8-0.9-1.6-1.9-2.4-2.9
							c-0.9-1.3-2.3-2-3.9-2.1h-0.3l-0.8-0.1c-1.7,0-3.4-0.7-4.6-1.8c-0.1-0.1-0.2-0.1-0.3-0.1c-0.4,0-0.8,0.9-1,3.1
							c-4.5-3.9-10.3-2.7-15.1-5.8c1.4-1.9,2.8-0.1,3.8-1.5c-0.1-0.3-0.2-0.7-0.4-0.9c-1.2-0.9-2.6-1.5-4.2-1.7
							c-0.8-0.1-1.6,0-2.4,0.2c-1.7,0.5-3.5,0.6-5.2,0.5c-1.5-0.1-3-0.4-4.6-0.7c-1.5-0.3-3.1-0.5-4.7-0.7l-0.7-0.1
							c1.5-2,3.1-1.6,4.7-1.7s2.8,0.2,3.3-2.1c0.2-1.2,1.5-1.2,2.3-1.2c4.9,0.4,9.9-0.6,14.8-0.3c2,0.1,3.9,0.5,5.7,1.2
							c2.5,0.9,4.9,1.9,7.3,3.2c5.7,3.5,12.3,4.1,17.9,8.1c6.1,4.4,11,10.4,16.5,15.4c0.7,0.6,1.2,1.5,1.4,2.5
							c0.6,5.9,4.2,9.6,6.8,14c2.1,3.6,4.7,6.9,5.9,11.8c1.9-1.1,3.6-2.5,5.1-4.2c1,1.5,3.1,3-0.4,4.5c-1.2,0.5-1.3,2.2-0.6,3.7
							c3.7,7.8,5.4,16.4,6.8,25.1c0.6,3,0.3,6.1-0.8,9l3.6,0.3c0-1.2,0-2.3,0.1-3.5c0.6,1.1,1,2.3,1.3,3.6l2.8,0.2
							c-0.6-5.5-1.6-11-2.9-16.4c-1.4-5.4-2.2-11.1-3.7-16.5c-2.5-8.8-4.2-18.1-8.4-26c-8.2-15.6-19.7-27.8-31.8-39
							c-3.9-3.8-8.5-6.8-13.6-8.7c-0.7-0.3-2.8-0.4-1.5-2c1.5-2,0.6-2.2-0.7-2.8c-3.7-1.5-7.6-1.6-11.4-2.4
							c-2.5-0.5-5.3-0.3-7.8-2.5c2.1-0.7,4.2-1,6.4-0.8c1.3,0.1,2.6,0.3,4,0.6c6.2,1.4,12.6,1.4,18.7,3.4c0.2,0.1,0.5,0.1,0.7,0.2
							c0.5,0.1,1-0.3,1.1-0.7c0.4-0.8,0-1.8-0.8-2.1c0,0,0,0,0,0c-0.1,0-0.2-0.1-0.3-0.1c-0.5-0.2-1-0.3-1.5-0.4
							c-5.4-1-10.7-2.1-16.1-2.8c-4.6-0.6-8.8-2.4-13.1-3.8c3.6-1.2,7.5-1.7,11.3-1.6c1.9,0.1,3.7,0.6,5.5,1.4
							c0.5,0.2,1,0.4,1.6,0.5c0.2,0,0.3,0,0.4-0.1c0.9-1.2,2.5-1.9,4-1.7c0.6,0.1,1.2,0.1,1.8,0.3c0.6,0.1,1.2,0.2,1.8,0.3h0.2
							c-1.7-2.4-4-3.1-6.3-3.7c-7.7-1.9-15.4-3.8-23.1-5.7c-1.4-0.2-2.7-1-3.4-2.2c2.7-0.3,5.5-0.3,8.3-0.1
							c12,0.9,22.6,6.5,33.5,12.9c-0.8-2.7-2.7-5-5.2-6.2c-3.2-1.9-6.6-3.5-10.1-4.8c-3.7-1-7.2-3-10-5.6c0.7-0.5,1-0.9,1.2-0.9
							c1.6,0,3.1,0.1,4.7,0.2c7.1,0.5,13.8,2.4,19.9,7c0.7,0.5,1.4,1.4,2.1,1.4h0.1c0.4,0,0.8,0,1.2,0c3.9,0.3,6.2,3.9,9.1,6.1
							c1.6,1.3,2.9,2.3,5.2,2.4h0.2h0.5c3.7,0.2,7.2,1.7,9.9,4.2c0.4,0.4,0.8,1.4,1.5,1.4c0.4,0,0.7-0.1,1-0.4
							c-2.6-3.6-5.5-6.6-9.3-7.6c-3.5-1-6.6-3-9-5.7c-2.8-2.8-6.1-5.2-9.6-7c-5.1-2.9-10-6.3-15.4-8.8c-0.8-0.4-2.1-0.5-1.7-2.5
							c11,1.9,19.2,10.5,29,15.1c-5.7-6.4-12.9-10.4-19-16c11,4.3,19.8,12.4,28.5,20.9c-2.3-6.7-6.8-10.9-11.3-15.2
							c0.2,0,0.5,0,0.7,0c3.5,0.3,5.7,3.2,8.3,5.1c3,2.1,5.2,5.7,8.5,7.2c1.1-1.8-1.3-2.5-0.3-4.1c3.4,1.6,5.4,5.1,8.2,7.4
							c0.9-1.6-0.5-3.9,1.4-4s2.5-0.6,1.9-2.8c-0.3-1,0.7-1.1,1.4-1.2h0.3c0.3,0,0.7,0.1,1,0.2c0.3,0.1,0.7,0.2,1,0.2
							c0.4,0,0.9-0.1,1.3-0.3c-2.3-2.9-3.8-6.3-4.4-10c3.3,2.7,6.1,5.8,8.5,9.4c0.5,0.7,1.3,1.7,1.9,1.8c0.2,0,0.4-0.1,0.5-0.3
							c0.5-0.9,1-1.2,1.5-1.2c0.5,0.1,1,0.3,1.3,0.7c0.4,0.3,0.8,0.6,1.3,0.7c0.3,0,0.6-0.1,0.8-0.3c-0.2-2.4-0.4-4.8-0.6-7
							c0.2-0.1,0.4-0.2,0.6-0.2c0.4,0.1,0.7,0.3,1,0.6c0.3,0.3,0.6,0.5,1,0.6c0.3,0,0.5-0.1,0.7-0.2c-0.8-3.9-4.7-4.4-6.2-8.1
							c0.4-0.1,0.9-0.1,1.4-0.1c1.6,0.1,2.6,1.1,3.7,2c4.6,3.6,8.9,7.9,13.8,10.6c5.4,3,9.3,7.4,13.1,12.3c0.6,0.8,1.2,2.2,2,2.2
							c0.1,0,0.2,0,0.3,0c0.5-0.2,1.1-0.4,1.7-0.3c2,0.2,2.5,2.6,3.7,4.2c0.6,0.9,0.9,2.3,2.1,2.4c0.2,0,0.4,0,0.6-0.1
							c-0.1-1.2-0.2-2.3-0.2-3.4h0.1c0.9,0.1,1.2,0.9,1.6,1.7c1.9,4.1,3.5,8.3,4.9,12.6c0.7,2.2,1.2,4.8,3.7,7.1
							c-0.9-7.1-3.3-12.4-4.4-18.3c3,3.8,4.6,8.5,6.6,12.9s2.3,9.7,5.4,13.3c-0.4-6.3-2.6-11.8-4.6-17.3c-1.9-5.5-4.3-10.9-7.2-15.9
							c-2.8-4.7-6.2-9-8.7-15.2c1.9,0.8,3.5,2.1,4.7,3.7c5.7,8.3,11.4,16.6,14.2,27c0.8,2.7,1.6,5.3,2.4,8c0.4,1.4,0.9,2.5,2.3,2.6
							h0.1c-1-3.8-2-7.7-3-11.5c-0.9-3.5-2.3-6.8-0.4-10.7c0.5-1-1.6-2.5-0.4-4.3c1.8,0.7,1.6,3.5,3.9,3.6
							c-1-8.7-6.7-14.1-10.3-21.8c3.9,2.4,5.5,6.3,8.2,8.7c0.8-0.8,0.9-1.5,0.6-2c-2.8-5-6-9.8-9.4-14.3c-0.3-0.5-0.8-0.8-1.4-0.9
							c-0.4,0-0.8,0.1-1,0.5c-1,1.3-1.8,1.8-2.5,1.7c-1.3-0.1-2.3-1.9-3.4-2.9s-2-3.1-3-3.2c-0.2,0-0.4,0.1-0.5,0.1
							c-0.7,0.6-1.6,0.9-2.6,0.8c-1.9-0.1-3.1-2.3-4.6-3.5c-3.6-2.8-8.4-2.5-11.7-6c-0.1-0.1-0.2-0.1-0.3-0.1
							c-0.4,0-0.9,0.1-1.2,0.4c-0.7,0.7-0.3,1.5,0.2,2s1.1,0.9,1.7,1.4s1.2,1,1,1.9c-0.1,0.7-0.7,1.1-1.4,1.1
							c-0.3,0-0.6-0.1-0.8-0.2c-1.8-1-3.7-1.6-5.7-1.9c-1.9-0.1-3.8,0.4-5.3,1.6c-0.1,0.1-0.2,0.1-0.4,0.1c-0.7-0.2-1.4-0.5-2-0.9
							c-0.8-0.4-1.7-0.7-2.6-0.9c-1.1-0.1-1.5,0.9-2.7,3.7c-1.4-0.9-2.7-1.7-3.1-4c2.7-2.3,6.4-3.8,7-8.6c-1.2-1.3-4.4,0.2-3.7-3.7
							c0.3-1.6-0.9-2-2.1-2.2h-0.5c-4.2-0.1-5.4,1.3-5.4,6.8c0,0.7-0.1,1.3-0.7,1.4c-0.2,0.1-0.4,0.1-0.7,0.1
							c-0.3,0-0.6-0.1-0.8-0.3c-0.7-0.6-1.2-1.4-1.6-2.3c-0.7-2.3-1.9-3.4-3.6-3.5c-0.8,0-1.6,0.1-2.4,0.3
							c-0.4,9.7,6.6,12.9,11.6,17.9c-2.7-0.4-4.4-2.4-6.4-3.9c-1.6-1.2-3-2.4-5-2.5c-0.7,0-1.5,0-2.2,0.2c-0.9,0.2-1.9,0.3-2.9,0.2
							c-1.9-0.1-3.7-0.9-5-2.3c-1-1-2-2.3-3.2-2.3c-0.8-0.1-1.8,0.5-2.8,2.1c-0.3,0.4-0.8,0.7-1.3,0.6c-0.8-0.1-1.5-0.3-2.2-0.6
							c-2.4-0.7-4.6-1.9-6.6-3.5c-0.5-0.4-1.3-1.2-1.8-1.2c-0.2,0-0.3,0.1-0.4,0.2c-0.9,1.4-1.8,1.8-2.5,1.7
							c-1.1-0.1-2.2-1.1-3.3-1.7c-0.3-0.2-0.7-0.3-1-0.3c-0.6-0.1-1.2,0.3-1.4,0.8c-0.9,1.7-2.3,1.8-3.7,2.2c-1,0.3-2.3,0.8-2,2.4
							s-0.2,1.9-0.8,1.9c-0.3,0-0.6-0.1-0.8-0.2c-1.6-0.6-3.4-0.7-3.8-3.4c-0.5-3.2,1.8-2.4,3-3.2c0.8-0.5,1.7-1.1,1.7-2.2
							c0-1.2-0.8-2.2-2-2.5c-0.5-0.1-0.9-0.2-1.4-0.3c-3.2-0.2-5.8,2.1-5.4,6.2c0.3,2.2-0.5,4.5-2.1,6c-0.5,0.5-1.1,0.8-1.8,0.8
							c-0.4,0-0.8-0.2-1.1-0.4c-0.9-0.6-1.1-1.7-0.6-2.6l0,0c0.9-1.9,0-2.7-1.3-3.2c-1-0.5-1.2-1.2-0.6-2.3s1.5-2.2,0.6-3.3
							c-0.2-0.3-0.6-0.6-1-0.6c-0.8-0.1-1.5,0.7-2.3,1.1c-1.9,1.2-4.1,1.9-6.3,1.8c-2.4-0.2-3.2-2.2-1.9-7.2c0.6-2,0.4-4.1-0.5-5.9
							C360.6,109.1,359.9,108.5,359.2,108.3 M404.3,139.7l-11.2-7.8c0.3,0,0.5,0,0.7,0C397.3,132.2,399.6,133.9,404.3,139.7
							 M483.3,148.6c-0.1,0-0.3-0.1-0.4-0.3l-0.8-1.4c0.3,0,0.5,0.2,0.7,0.3c0.3,0.4,0.6,0.7,0.9,1.1
							C483.7,148.5,483.5,148.6,483.3,148.6 M428.7,150.7l-6-5.6C426.2,145.6,426.9,146.2,428.7,150.7 M484.8,166.5
							c-1.2-5.1-5.3-7.9-7.5-13.8c2.8,3.1,5.3,6.4,7.4,10C485.3,163.9,485.4,165.3,484.8,166.5 M368.4,148.3
							c-2.6-0.2-5.1-0.6-7.6-1.1c-0.9-0.2-1.9-0.4-1.8-1.6c0-0.9,0.8-1.6,1.6-1.6h0.1h0.3c5.1,1.3,10.6,1.1,15.1,4.6
							C373.5,148.6,370.9,148.5,368.4,148.3 M488.4,170c-1.4-0.8-1.5-3.3-3.4-3.4c0.3,0,0.6,0,0.9,0
							C487.5,166.7,488.4,167.8,488.4,170 M344.4,161.5c-0.4,0-0.7-0.2-1-0.5c-0.2-0.3-0.2-0.7-0.1-1c0.3-0.4,0.9-0.7,1.4-0.6
							c0.5,0.1,0.9,0.2,1.4,0.4c0.1,0,0.2,0.2,0.7,0.7c-0.5,0.4-0.7,0.8-1,0.9C345.3,161.5,344.9,161.6,344.4,161.5 M344.8,174.2
							c-1.1-0.1-2.3-0.4-3.3-0.8c3.3-2.1,5.7-1.4,8.6-1.6C348.3,173.7,346.6,174.3,344.8,174.2 M350.9,180.5c-2-0.2-3.9-0.9-5.6-2
							c1.7-0.3,3.5-0.3,5.2-0.2c2,0.2,4,0.6,6,1.1C354.8,180.2,352.8,180.6,350.9,180.5 M420.9,245.6c-0.6-0.1-1.1-0.5-1.4-1.1
							c-1.7-2.7-3-5.5-3.9-8.5c2.4,2.2,3.6,5.8,6.4,7.4C422,245,421.5,245.7,420.9,245.6 M425.7,247.8c-1.4-1.2-2.6-2.7-3.6-4.3
							c0.2-0.7,0.5-1,0.9-1c0.2,0,0.5,0.2,0.6,0.3C424.9,244.1,425.7,245.9,425.7,247.8"/>
						<path id="Path_14271" class="st1" d="M503.2,113c-2-0.2-3.6,1.5-3.7,4.3c-0.1,3.5-1.3,6.8-1.5,10.2c2.1,1.7,3.5,4.3,5.1,6.6
							c9.7,13.4,17.3,28.1,22.5,43.8c1.7,5.1,5,9.1,6.8,14.3c-0.6-5.3-1.7-10.6-3.5-15.6c-5.2-14-10.2-28.2-17.5-40.9
							c-1.2-2.1-2.2-4-4.5-4.5s-3.5-2.4-3.9-5.2c0.8-0.5,1.6-1,2.4-1.4c2.5-1.3,4.1-4,4.1-6.8c0-2.7-2.7-2.9-4.2-4
							C504.6,113.3,503.9,113,503.2,113"/>
						<path id="Path_14273" class="st1" d="M393.9,87.2c-0.2,0-0.4,0-0.6,0.1c-1,0.4-1.4,1.5-1.1,2.5c0.8,4.1,1.1,8.4,3.4,12
							c2,3,3.9,4.6,6.4,4.8c1.8,0,3.5-0.4,5.1-1.2c1.7-0.8,3.2-1.9,4.9-2.7c0.8-0.5,1.7-0.8,2.6-0.8c1,0.1,1.5,1.1,1.8,3.2
							c0.4,3.1,2.1,5,3.4,7.3c0.4,1,1.3,1.7,2.4,1.9c0.8,0,1.6-0.3,2.2-0.8c3.5-2.6,6.3-6.1,7.9-10.2c-2.8-0.2-3.7,2.3-5.1,3.7
							c-0.7,0.7-1.2,1.6-2.2,1.5c-0.2,0-0.3,0-0.5-0.1c-6.2-1.9-7.2-4.9-3.8-12c0.2-0.8,0.4-1.6,0.5-2.4c-4.1,2.2-8.6,0-12.1,3.9
							c-0.4,0.5-1.1,0.8-1.8,0.8c-0.6-0.1-1.1-0.3-1.6-0.6c-4-2.3-8.6-3.7-10.3-9.3C395,88,394.6,87.3,393.9,87.2"/>
						<path id="Path_14275" class="st1" d="M241.1,92.7c-2,1.6-3.6,3.7-4.5,6.1c-1,2.4-2.2,4.8-3.6,7c-2.8,5.2-5.7,10.3-7.4,16
							c-2.4,8.1-6.4,15.3-8.9,23.3c-3,9.4-5.6,19-4.8,29c0.3,4.3,0,8.6-0.8,12.8c-1.3,7.1-1.3,14.3-1.5,21.5
							c-0.1,2.5,0.6,4.6,3.7,5.6c-1-2.9-1.3-6-0.9-9c0.9-7.5,0.1-15.2,2-22.7c0.3-1.6,0.3-3.3,0.1-4.9c-1.5-11.9,0.8-23.3,4.8-34.4
							c1.8-5,4.2-9.7,6.2-14.6c5-11.6,9.4-23.5,15.8-34.2C241.3,94,241.1,93.5,241.1,92.7"/>
						<path id="Path_14276" class="st1" d="M345.2,100.8c-0.1,0-0.1,0-0.2,0c-2.2,0-4.1,1.3-5.9,2.8c-6,5.4-10.2,12-10.4,19.5
							c-1.2,8.1-0.4,11.7,3.2,16.7c1,1.3,2,2.3,3.2,2.4c0.8,0,1.6-0.2,2.3-0.7c2.7-1.6,3.7-3.7,3.6-7s-2-3.7-4.2-4
							c-3.5-0.5-4.2-1.4-3.1-5.4c1-3.8,2.2-7.5,3.3-11.2c0.7-2.3,1.8-4,3.9-4.8c1.4-0.5,2.6-1.4,3.9-1.9s-1.3-2.9,1.2-3
							c0.7,0,1-1.2,0.7-2.1C346.5,101.4,345.9,100.9,345.2,100.8"/>
						<path id="Path_14283" class="st1" d="M513.5,108.2c-0.5,0-1,0-1.5,0.2c-0.3,2.2-0.6,4.6-0.9,7c-1.1,10.2,3.2,17,11.8,18.5
							l0.8,0.1c2.7,0.2,4.4-1.1,5-3.8c0.5-2-2.2-7.5-3.9-7.8h-0.2c-0.7-0.1-1.1,0.5-1.6,1.1c-1.4,1.5-2.2,2.3-2.9,2.2
							s-1.2-1.1-1.9-3.1c-0.9-2.6-1.7-5.4-0.4-8.3c1.5-3.4,0.4-5-2.5-5.4C514.8,108.8,514.4,108.3,513.5,108.2"/>
						<path id="Path_14285" class="st1" d="M486.7,105.4c-0.4,0-0.8,0-1.2,0c-3.1,0.3-6.4,2.2-9.3,4c-3.2,2-3,8.9-0.1,11.1
							c0.4,0.3,0.8,0.5,1.3,0.6c0.9,0.1,1.6-0.7,2.2-1.9c0.8-1.7,1.8-2.3,3-2.2c0.5,0.1,1,0.2,1.5,0.4c0.6,0.3,1.3,0.5,2.2,0.8
							c3.2-0.5,6.2-2,8.5-4.3c1-0.8,1.1-2.3,0.3-3.2l0,0C492.8,108.2,490,105.7,486.7,105.4"/>
						<path id="Path_14286" class="st1" d="M253.4,86.4c-2.4,0.9-2.9,2.8-3.6,4.8c-1.7,5.4-4,10.6-6.9,15.5c-3.1,4.8-6.4,9.8-7.1,16
							c-0.8,7.2-3.9,13.6-4.9,20.9c-0.9,6-1.7,12.2-3,18.2c-0.3,1.6-0.7,3.6,0.7,4.4c1.2-0.3,1.2-1,1.3-1.6
							c2-12.4,3.9-24.7,7.4-36.8c1.9-6.6,3.9-12.8,7.2-18.6C248.8,102.3,251.4,94.7,253.4,86.4"/>
						<path id="Path_14287" class="st1" d="M374.5,95.4c-1.3-0.1-1.8,1.5-2.4,2.6c-3.9,6.6,0.5,16.1,8.8,17c0.2,0,0.4,0.1,0.7,0.1
							c3.8,0.3,7.6-1.9,10.8-6.1c0.8-1,1.4-2,0.7-3.3c-1-1.7-2.1-3.3-4-3.4h0c-1.9-0.2-2.8,1.4-3.4,3.3c-0.3,0.8-0.6,1.5-1,2.2
							c-1,1.9-2.1,2.8-3.1,2.7s-1.7-0.9-2.4-2.5c-1.3-2.8-2.8-5.6-2.5-9.1c0.1-1.5-0.1-3-1.6-3.4C374.8,95.4,374.7,95.4,374.5,95.4"
							/>
						<path id="Path_14290" class="st1" d="M104.5,100c-1.3,0.3-1.6,1.3-2,2.2c-2.9,6.2-5.4,12.7-9.1,18.4
							c-5.8,9.2-10.9,18.8-15.2,28.8c-1.8,4-3,8.4-5.9,11.8c-0.6,0.8-1.1,1.7-1.3,2.7c-0.1,0.6,0.1,1.1,0.5,1.6
							c0.1,0.2,0.3,0.2,0.5,0.3c0.4,0,0.7-0.2,0.9-0.5c2.2-3.8,5.3-6.9,6.5-11.4c0.4-2,1.1-3.9,2-5.8c4.8-7.8,8.1-16.8,13.4-24.3
							c1.3-1.6,2.2-3.4,2.6-5.4c0.6-3.6,2.4-6.5,3.7-9.6C102.2,105.9,104.6,103.6,104.5,100"/>
						<path id="Path_14294" class="st1" d="M578.2,105.6c-0.1,0-0.3,0-0.4,0c-0.8,0.3-1.2,1.1-0.9,1.9c0.9,4.7,1,9.2-2.3,12.8
							c0.3,0.5,0.4,0.8,0.5,0.8c0.3,0.2,0.6,0.4,0.9,0.4c3.1,0.5,3.7,1.3,2.8,4.2c-0.8,2.4-1.4,5.2-4.5,5.2
							c-3.5,0.8-5.9,4.1-5.4,7.7c0.4,2.1,1.1,4,3,4.4c0.2,0,0.4,0.1,0.6,0.1c2.2,0.2,3.9-1.5,4.5-3.6c1.9-5.8,4.4-11.7,3.6-17.8
							c-0.5-4-0.7-8-1.1-12c0-1-0.1-2-0.3-3C579,106.3,578.8,105.6,578.2,105.6"/>
						<path id="Path_14295" class="st1" d="M429.2-19.9c-10.6-0.8-36.6,25-39.8,38.8c6.2-6.9,10.9-15.4,17.8-21.4
							S420.1-15.8,429.2-19.9L429.2-19.9"/>
						<path id="Path_14298" class="st1" d="M385.5,25.1c-0.6,0.8-1.1,1.7-1.2,2.8c-3,9.8-2.8,19.9-3.3,29.9
							c-0.3,6.8,3.7,11.5,6.6,16.6l1.3-0.8c-0.7-2-1.5-3.9-2.5-5.7c-3.8-6-3.5-13.3-2.8-19.9s1.1-13.5,2.8-20.1
							C386.6,26.9,387.2,25.3,385.5,25.1"/>
						<path id="Path_14300" class="st1" d="M183,58c-5.1,5.6-11.9,7.5-17.5,12.2c-5.6,4.5-10.7,9.7-15.1,15.5
							c6.3-5,12.7-9.8,19-14.9c4-3.2,8.6-5.1,12.3-9C182.8,60.6,183.5,59.6,183,58"/>
						<path id="Path_14302" class="st1" d="M417.5,77.7c-2.4-0.2-4.9,0.7-7.4,1.7c-0.7,0.3-1.2,1-1.3,1.8c-0.4,2,0.1,4,1.5,5.5
							c0.4,0.6,1.1,1,1.9,1.1c0.7,0,1.4-0.1,2-0.5c3.1-1.7,6.2-3.1,9.2-6.2C422,79.1,419.9,77.9,417.5,77.7"/>
						<path id="Path_14305" class="st1" d="M499.3,93.9c-0.8,0-1.4,0.6-1.6,1.3c-0.2,0.6-0.3,1.3-0.5,1.9c-0.2,2.6-0.5,4.7,0.3,6.6
							c0.9,2.2,0.6,5.9,3.3,6.1h0.2c2.8,0.1,4.6-2.8,6.3-5.3c0.2-0.3,0.4-0.7,0.5-1.1c0.4-1.2,0.7-2.4-0.3-3.3
							c-0.2-0.2-0.5-0.3-0.7-0.3c-0.6,0.1-1.2,0.4-1.6,0.8c-0.7,0.7-1.2,2-2.2,1.9c-0.3,0-0.6-0.2-0.8-0.4c-1.3-1-1.9-2.6-1.6-4.2
							c0.2-0.8,0.2-1.6,0.2-2.4C500.8,94.6,500.2,94,499.3,93.9L499.3,93.9"/>
						<path id="Path_14307" class="st1" d="M469.3,112.1c-0.4,0-0.8,0.1-1.1,0.4c-1,0.8-2.2,1.2-3.5,1.2c-1.1-0.1-2.1-0.5-2.9-1.2
							c-0.6-0.5-1.3-0.9-2-1c-0.7,0-1.4,0.4-1.7,1.1c-1.2,2.2-3.1,4.2-1.9,7.2c0.5,1.3,1.3,2.1,2.2,2.2c0.5,0,1-0.1,1.5-0.3
							c4.2-2,7.8-4.9,10.7-8.5C470.5,112.6,470,112.2,469.3,112.1"/>
						<path id="Path_14308" class="st1" d="M601.9,102.9c-1.5,0.1-3,0.8-3.9,2.1c-1.4,1.7-3.7,3-2.8,6.1c0.7,2.3,3.1,4.8,4.8,4.9
							c0.2,0,0.3,0,0.5,0c2.4-0.6,2.4-3.2,3.3-5.2c0.2-0.7,0.4-1.3,0.5-2c0.1-2,0.3-4.7-1.6-5.6C602.5,103.1,602.2,103,601.9,102.9"
							/>
						<path id="Path_14310" class="st1" d="M357.5,85c-1.5-0.1-5.5,3.3-6.3,5.3c-1.1,2.9-0.6,6.4,1.2,7.8c0.6,0.5,1.3,0.8,2,0.8
							c1.3,0,2.5-0.5,3.4-1.4c0.4-0.3,0.8-1.1,0.1-1.4c-2.8-1.2-0.9-2.8-0.1-4.2c0.8-1.4,1.2-3.1,1.1-4.7
							C358.9,86.2,358.6,85.2,357.5,85L357.5,85"/>
						<path id="Path_14312" class="st1" d="M395.2,27.8L395.2,27.8"/>
						<path id="Path_14313" class="st1" d="M412.6,3.5c-0.3,0-0.6,0.1-0.8,0.3c-5,5.6-10.5,10.8-14.2,17.9c-1,1.9-0.4,4.6-2.5,6
							c0.3,0.1,0.6,0.2,0.9,0.2c1.6,0.1,2.3-1.5,3.1-3.1c1.5-3.2,3.6-6.2,6-8.8c3.3-3.6,6.1-7.7,8.3-12.1
							C413.2,3.7,412.9,3.5,412.6,3.5"/>
						<path id="Path_14315" class="st1" d="M557.2,111.2c-3.1,0-5.7,2.1-6.4,5.1c-0.3,2.4,2.4,5.8,4.8,6h0.1
							c2.3,0.1,5.4-3.3,5.8-6.4c0.4-2.9-0.9-4.3-4.2-4.7L557.2,111.2 M557.3,118.2h-0.3c-0.9-0.2-1.5-1.2-1.2-2.1c0,0,0-0.1,0-0.1
							c0.2-1,0.8-1.6,1.7-1.6h0.2c0.9,0.2,1.4,1.1,1.2,1.9c0,0,0,0,0,0.1c0,0,0,0.1,0,0.1C558.7,117.6,558.1,118.3,557.3,118.2"/>
						<path id="Path_14316" class="st1" d="M264,29.8c-0.5,0-0.9,0.2-1.2,0.5c-3.9,4-8.4,7.2-11.7,12c-1.9,2.8-4,5.3-6,7.9
							c-1.8,2.3-4.3,4.2-4.6,7.8c8.2-9.2,15.2-19.8,25.2-27.2C265.3,30.3,264.7,29.9,264,29.8"/>
						<path id="Path_14319" class="st1" d="M378.9,15c-7.7,8-11.5,18.1-14.8,28.5c1.6-0.2,2.1-1.8,2.8-3.2c3.4-6.9,6.5-13.9,11-20
							C378.9,19,379.9,17.5,378.9,15"/>
						<path id="Path_14320" class="st1" d="M364.1,43.5H364l0.1,0.1L364.1,43.5z"/>
						<path id="Path_14321" class="st1" d="M610.8,83.1c-1-0.1-1.9,1-2.8,3.2c-0.6,1.5-0.7,3-2.2,4.1c-1.8,1.3-0.7,3,0.1,4.2
							c0.4,0.6,1,1,1.7,1.1c0.8,0,1.5-0.3,2-0.9c1.9-1.7,2.3-5.3,5.3-5.7c0.1,0,0.3-0.7,0.4-1c0-1.5-1.4-1.7-2-2.6
							C612.4,84,611.5,83.2,610.8,83.1"/>
						<path id="Path_14322" class="st1" d="M462.2,93.6c-2.1-0.2-2.4,1.9-3.2,3.6c-0.5,0.9-1.1,1.7-1.5,2.6c-0.9,2,0,6,1.6,7
							c0.5,0.3,1,0.5,1.5,0.5c1.9,0,3.6-1.1,4.4-2.8c0.5-1,0.9-2.1,1.2-3.2c0.1-0.5,0.1-1,0.2-1.4c-0.1-2.7-0.3-5.1-3.2-6
							C462.9,93.7,462.5,93.6,462.2,93.6 M461.3,104c-0.8-0.1-1.4-0.9-1.3-1.7c0,0,0,0,0,0c0-0.1,0-0.2,0.1-0.3
							c0.3-1.6,1.1-3.3,2.6-3.6c0.1,0,0.2,0,0.4,0c0.8,0.1,0.9,1.2,0.8,2.3c-0.2,1.5-0.4,3.3-2.3,3.4L461.3,104"/>
						<path id="Path_14330" class="st1" d="M454.5,38.3c-1.1,0-2.2,0.6-2.8,1.5c-0.7,0.8-0.7,2,0,2.7c0.1,0.1,0.3,0.2,0.4,0.3
							c2.1,1.4,1.6,2.7-0.1,4.1c-0.6,0.5-1.4,0.9-1.6,1.5c-0.6,1.9-0.5,3.8,1.2,4.8c0.2,0.1,0.4,0.2,0.7,0.2c1,0.1,1.8-1,2.3-2.1
							c0.8-1.7,1.2-3.5,1.1-5.4c0.1-1.6,0.3-3.3,0.4-4.9C456.1,39.7,455.9,38.4,454.5,38.3L454.5,38.3"/>
						<path id="Path_14331" class="st1" d="M428.6-3c-6.9,2.1-11.4,10.6-10.2,19.5c1.6-3.2,2.1-6.9,4-10.1S427.3,1.1,428.6-3"/>
						<path id="Path_14332" class="st1" d="M597.5,74.7c-2.3,0-4.1,1.8-4.1,4.1c0,0.2,0,0.3,0,0.5c0.1,2,0.1,4.7,2.3,5.4h0.2
							c1.8,0.2,4.8-4.2,4.9-7.1c0.1-2-1.2-2.6-3.2-2.8L597.5,74.7"/>
						<path id="Path_14336" class="st1" d="M448.4,95.3c-0.9-0.1-1.5,1-2.2,1.8s-1.8,1.4-2.5,2.2c-1.4,1.5-1.4,3.9,0.1,5.4
							c0.4,0.4,0.9,0.7,1.5,0.8c1.1-0.1,2.1-0.7,2.6-1.7c0.8-1.3,1.4-2.7,2-4.1c0.3-1.7,0.7-3.2-0.6-4.1
							C449,95.4,448.7,95.3,448.4,95.3"/>
						<path id="Path_14340" class="st1" d="M393,45.5c-1.1,3.5-0.9,5.1,1.9,15.1c0.7,3.1,2.7,5.7,5.4,7.3
							C396.8,60.9,395.6,53,393,45.5"/>
						<path id="Path_14345" class="st1" d="M300.4,2.7c-5.5,2.1-11.3,3.9-16.5,8.9C290.4,10.3,295.2,5.6,300.4,2.7"/>
						<path id="Path_14346" class="st1" d="M305.2,0.7c-1.7,0.4-3.3,1.1-4.8,2C302,2,303.6,1.4,305.2,0.7"/>
						<path id="Path_14347" class="st1" d="M583.5,0.2c-5.1-0.4-9.8,3.5-13.1,10.7c3.5,0,4.2-4.1,6.5-5.7c2.5-1.8,5.6-2.2,8.2-4.7
							C584.5,0.3,584,0.2,583.5,0.2"/>
						<path id="Path_14349" class="st1" d="M263.6,2.9v0.2l0.1,0L263.6,2.9z"/>
						<path id="Path_14350" class="st1" d="M263.5,3.1C257,5.2,251.3,9.4,247.3,15c5.5-2.5,10.2-6.5,15.2-10.1
							C263.1,4.5,263.4,3.8,263.5,3.1"/>
						<path id="Path_14351" class="st1" d="M543.2,35.5c-3.9,2.5-6.6,9.4-5.4,13.5c0.1,0.5,0.7,1.1,1,1.2l0,0c0.8,0,1.4-0.7,1.5-1.4
							C541.3,44.4,542.2,40.1,543.2,35.5"/>
						<path id="Path_14353" class="st1" d="M258,96.7c-1.1,0.2-2.1,1-2.3,2.2c-1.2,6.5-4.9,11.5-7.4,17.3c-0.5,1.1-0.9,2.3,0.7,3.3
							c1.6-2.4,2.9-5.1,3.9-7.9L258,96.7"/>
						<path id="Path_14354" class="st1" d="M258.1,96.5l0,0.2h0.1L258.1,96.5z"/>
						<path id="Path_14360" class="st1" d="M370.1,81.3c-2.3-0.1-2.4,2.9-3.4,2.8c-0.1,0-0.3-0.1-0.4-0.2c-0.5-0.4-1.2-0.7-1.8-0.8
							c-1.7-0.1-1.7,2.7-2.4,4c-0.4,0.9-0.2,2,0.6,2.7c0.3,0.3,0.7,0.4,1.1,0.5c0.5,0,1-0.1,1.4-0.4C367.8,87.9,369.2,85,370.1,81.3
							"/>
						<path id="Path_14361" class="st1" d="M211.9,36.1c-4.4,3.5-7.5,8.6-11.7,12.3c-0.7,0.6-0.3,1.8,0.5,2.4c0.5-0.1,1.1,0,1.4-0.3
							C205.5,45.9,208.1,40.5,211.9,36.1"/>
						<path id="Path_14362" class="st1" d="M200.7,50.8h-0.1l0.2,0.1L200.7,50.8z"/>
						<path id="Path_14365" class="st1" d="M465.3,69.7c-1.7,1.6-2.5,3.8-2.3,6.1c0.1,1.5,0.8,2.8,2.1,3h0.3
							c1.5,0.1,2.4-1.2,3.2-2.6c1-1.8,0.2-2.6-1.3-2.9C465.5,73,467,70.6,465.3,69.7"/>
						<path id="Path_14366" class="st1" d="M141.3,50.2L141.3,50.2L141.3,50.2L141.3,50.2z"/>
						<path id="Path_14367" class="st1" d="M140,49.9c-1.3,0-2.6,0.6-3.5,1.6c-3.9,3.7-7.8,7.3-11.6,11.1c-0.6,0.6-2,1.3-0.9,3.2
							c5.6-5.4,10.8-11.5,17.3-15.6C140.9,50.1,140.4,49.9,140,49.9"/>
						<path id="Path_14371" class="st1" d="M433.8,88.8c-0.2,0-0.4,0-0.6,0c-1.7,0.2-3.5,0.6-5.2,0.7c-1.2,0.1-2.1,0.2-2.2,1.9
							c-0.2,1.2,0.4,2.3,1.5,2.8c0.1,0,0.3,0.1,0.4,0.1c1.8,0.1,6.4-2.3,7-4c0-0.2,0.1-0.4,0.1-0.6C434.7,89,434.3,88.8,433.8,88.8"
							/>
						<path id="Path_14373" class="st1" d="M406.9,111l-4.2,1.1c-1.1,0.2-1.8,1.2-1.6,2.3c0,0.1,0,0.2,0.1,0.3c0.1,1.1,1,2,2.2,2.1
							h0.1c1.4,0.1,2.4-1.5,3.8-1.6c1.1-0.1,2.7,0.5,2.6-1.8C409.8,111.7,408.6,111.1,406.9,111"/>
						<path id="Path_14374" class="st1" d="M445.9,62.2c-0.2,0-0.4,0-0.6,0.1c-1.4,0.5-3.4,4-3.1,5.4c0.3,1.5,1.5,2.6,3,2.7
							c0.5,0,1.1,0,1.6-0.2c0.5-0.2,1-0.7,1.1-1.2c0.2-0.8,0-1-0.4-1.1c-0.3,0-0.6,0-0.9,0.1c-0.2,0-0.4,0-0.6,0c-0.5,0-1-0.4-1-0.9
							l0,0c-0.1-1,0.7-1.3,1.4-1.5c0.6-0.1,1-0.4,1.2-1c0.1-0.6-0.1-1.2-0.5-1.6C446.9,62.6,446.5,62.4,445.9,62.2"/>
						<path id="Path_14377" class="st1" d="M480.5,84.4c-0.6,0-1.1,0.4-1.3,1.8c-0.3,1.9-0.6,4.3,1.4,5.2c0.2,0.1,0.3,0.1,0.5,0.1
							c1.4,0.1,3.1-1.8,3.6-4c0.4-1.8-0.2-2.4-1.1-2.4c-0.5,0-0.9,0-1.4,0.1C481.7,84.8,481.1,84.5,480.5,84.4"/>
						<path id="Path_14381" class="st1" d="M258.1,96.3l-0.1,0.2l0,0l0.1,0.1L258.1,96.3z"/>
						<path id="Path_14382" class="st1" d="M265.7,76.6c-3.2,6.8-7.3,12.3-7.6,19.7c1.6-3.1,2.6-6.6,4.5-9.7
							C266.3,80.7,266.3,80.3,265.7,76.6"/>
						<path id="Path_14385" class="st1" d="M474.5,90.6h-0.2c-1.3-0.2-2.5,0.7-2.7,1.9c0,0.1,0,0.2,0,0.3c-0.2,2.1,1.1,5.3,2.2,5.4
							c0,0,0.1,0,0.1,0c2-0.2,1.8-2.2,2-4.1C476.3,92.8,476.9,90.8,474.5,90.6"/>
						<path id="Path_14386" class="st1" d="M114,104.1c-2.8,3.5-5.3,7.1-5.2,12.1C111.7,112.7,113.1,108.6,114,104.1"/>
						<path id="Path_14389" class="st1" d="M612.9,51.1c-0.4,0-0.7,0-1.1,0c-1.4,0.2-2,1.7-2.2,3.1c-0.2,0.8,0.1,1.6,0.7,2.1
							c0.2,0.2,0.5,0.3,0.8,0.3c0.8-0.1,1.6-0.4,2.1-1c1.2-1.1,2-2.5,2.5-4.1C614.6,51.4,613.7,51.1,612.9,51.1"/>
						<path id="Path_14392" class="st1" d="M470.9,60c-1.8,0.1-2.8,1.6-3.8,3c-0.8,1-0.6,2.4,0.3,3.2c0.3,0.3,0.7,0.4,1.1,0.5
							c0.4,0,0.9-0.1,1.2-0.3c1.9-1.1,2.3-3,2.1-5.2C471.8,60.6,471.5,60.1,470.9,60"/>
						<path id="Path_14394" class="st1" d="M452.7,78.1c-1.3-0.1-1.8,1.7-2,3c-0.3,1.8,0.2,3.2,2.1,3.7c1.5-0.1,2.8-1.4,2.8-2.9
							c0.1-1.7-1-3.3-2.7-3.7H452.7"/>
						<path id="Path_14395" class="st1" d="M126.3,71.1c-2.9,3-6,5.8-7.6,10.2C122.3,78.9,124.1,74.9,126.3,71.1"/>
						<path id="Path_14397" class="st1" d="M566.2,93H566c-1.7,0.1-3.6,0.6-4.3,2.9c-0.4,0.9,0,2,0.9,2.5c0,0,0,0,0,0
							c0.2,0.1,0.3,0.1,0.5,0.2h0.4c1.8,0.1,2.9-1.1,3.5-3.3C567,94.3,567.1,93,566.2,93"/>
						<path id="Path_14400" class="st1" d="M530.9,50.3c-1.6,2.8-0.6,5.5-0.6,8.1c0,0.6,0.4,1,1,1c0,0,0,0,0.1,0
							c0.2,0,0.4,0,0.6-0.1C532.5,54.3,532.5,54.3,530.9,50.3"/>
						<path id="Path_14405" class="st1" d="M567.5,14.6c-1.9,0.3-2.8,1.7-3.4,3.1s-2.2,3.4-0.8,4.3c0.2,0.2,0.5,0.3,0.7,0.3
							c1.1,0.1,1.3-2,1.6-3.1C566,17.7,568,17.1,567.5,14.6"/>
						<path id="Path_14409" class="st1" d="M273.9-3.2c-4.1,0.2-7,3.1-10,6C267.5,1.5,271.3,0.6,273.9-3.2"/>
						<path id="Path_14410" class="st1" d="M263.9,2.8l-0.4,0.1l0.1,0.1L263.9,2.8z"/>
						<path id="Path_14411" class="st1" d="M541.5,58.5c1.6,2.3,1,5.3,3.3,7.6C545.3,59.7,545.3,59.7,541.5,58.5"/>
						<path id="Path_14412" class="st1" d="M432.8,71.6c-0.7,0-1.3,0.5-1.4,1.2c0,0.1,0,0.1,0,0.2c0,1.8,0.7,3.1,2.6,3.2l0,0
							c0.8-0.3,2.1-0.7,1.9-2.2C435.7,72.3,434.2,71.8,432.8,71.6L432.8,71.6"/>
						<path id="Path_14414" class="st1" d="M616.9,39.9c-1.5,0.3-2.7,1.7-2.7,3.3c-0.1,1.1,0.2,2.2,1.2,2.3h0.1
							c1.8,0.1,2.2-1.6,2.5-3.2C618.1,41.2,618,40.3,616.9,39.9"/>
						<path id="Path_14415" class="st1" d="M416,59.8c-0.9,0-1.7,0.1-2.5,0.3c1.4,1.9,2.3,3.2,3.3,4.5c0.3,0.4,0.8,0.8,1.3,0.9
							c0.4,0,0.7-0.2,1-0.4c0.8-0.9,0.4-1.9,0-2.8C418.6,60.9,417.4,59.9,416,59.8"/>
						<path id="Path_14420" class="st1" d="M561.5,35.4c-0.1,0-0.2,0-0.3,0c-1.1,0.2-1,1.5-1.2,2.4c0,1.6-0.2,3.3,1.2,4.3
							c0.1,0,0.2,0.1,0.3,0.1c0.2,0,0.5-0.1,0.7-0.2c1.4-1.4,0.5-3,0.4-4.5C562.4,36.6,562.4,35.4,561.5,35.4"/>
						<path id="Path_14425" class="st1" d="M626.6,46.1c-1,1.6-1.7,3.1-0.1,4.7c0.3,0.3,0.8,0.6,1.2,0.6c0.5,0,0.9-0.2,1.1-0.6
							c1-1.8-0.5-2.9-1.1-4.2C627.7,46.3,627.2,46.3,626.6,46.1"/>
						<path id="Path_14430" class="st1" d="M411.5,45.2c-2,1.9-3.4,3.1-4.1,5.1c-0.1,0.6,0,1.2,0.3,1.6c0.1,0.1,0.3,0.2,0.5,0.2
							c0.4,0,0.7-0.2,0.8-0.5C409.8,49.9,411.5,48.7,411.5,45.2"/>
						<path id="Path_14432" class="st1" d="M222.8,24.9c-3.5,0.9-3.5,0.9-4.4,4.6L222.8,24.9"/>
						<path id="Path_14434" class="st1" d="M395.2,27.9c0.4,1.6-0.3,3.1-0.6,4.7s-1.6,3.2,0,4.8C396.2,31.8,396.3,31.8,395.2,27.9"
							/>
						<path id="Path_14435" class="st1" d="M395.1,27.8L395.1,27.8v0.1V27.8L395.1,27.8L395.1,27.8z"/>
						<path id="Path_14436" class="st1" d="M130.5,106.6c-1.9,1.1-3.2,3-3.7,5.1C128.9,110.8,130.3,108.8,130.5,106.6"/>
						<path id="Path_14437" class="st1" d="M466,16.7c-1-0.1-1.3,1.4-1.6,2.4s-0.3,2,0.6,2.4c1.1,0.1,1.7-0.8,1.9-1.7
							c0.3-1.2,0.4-2.7-0.7-3C466.2,16.7,466.1,16.7,466,16.7"/>
						<path id="Path_14438" class="st1" d="M617.1,59.2c-0.1,0-0.1,0-0.2,0c-1.5,0.1-1.3,2.1-1.8,3.3s-0.1,1.6,0.7,1.8
							c0.1,0,0.3,0.1,0.4,0.1c1.3,0.1,1.6-1.2,1.9-2.5S618.1,59.3,617.1,59.2"/>
						<path id="Path_14440" class="st1" d="M629.9,91.2L629.9,91.2c-1,0.1-1.6,0.9-1.5,1.8c0,0.1,0,0.1,0,0.2
							c0.1,1.1,0.3,2.4,1.6,2.6l0,0c1.2,0.1,1.2-1.2,1.3-2.1C631.4,92.5,631.2,91.4,629.9,91.2"/>
						<path id="Path_14443" class="st1" d="M472-2.8c-1.6,0.8-2.8,1.3-3.9,1.9c-0.6,0.2-0.9,0.8-0.7,1.4c0.1,0.6,0.6,1,1.1,1.1
							c0.2,0,0.3,0,0.5,0C470.6,1.2,472,0.5,472-2.8"/>
						<path id="Path_14447" class="st1" d="M577.2,38.9c-1.2-0.1-1.6,1.2-1.9,2.4c-0.3,0.7,0,1.6,0.6,2c1.3,0,1.7-1.2,2.2-2.3
							c0.3-0.8,0.4-1.8-0.3-2.1C577.6,38.9,577.4,38.9,577.2,38.9"/>
						<path id="Path_14450" class="st1" d="M616.7,18c-0.1,0-0.2,0-0.2,0c-1.2,0.4-1.9,1.7-2.4,3c-0.2,0.5,0.1,1.3,0.6,1.3l0,0
							c1.6,0.1,2.5-1,2.8-2.6C617.4,18.9,617.2,18,616.7,18"/>
						<path id="Path_14451" class="st1" d="M107.1,83.5l-0.1,0.1h0.2L107.1,83.5z"/>
						<path id="Path_14452" class="st1" d="M106.7,83.6c-2.8-0.2-2.7,3.1-3.8,4.8c1.7-1.2,3.1-2.9,4.1-4.8L106.7,83.6"/>
						<path id="Path_14453" class="st1" d="M584.2,80.8c-0.1,0-0.2,0-0.3,0c-1,0.2-1.2,1.4-0.9,2.4s0.4,2,1.7,2.3
							c0.5-0.7,0.7-1.7,0.3-2.6C584.8,82.1,585.1,80.8,584.2,80.8"/>
						<path id="Path_14454" class="st1" d="M589.4,16.4c-0.2,0-0.3,0-0.5,0c-1.2,0-2.2,0.7-2.6,1.8c0.6,0.3,1.3,0.5,2,0.6
							c1,0.1,2-0.5,2.5-1.4C590.6,16.9,590.1,16.5,589.4,16.4"/>
						<path id="Path_14457" class="st1" d="M473.5,52.5L473.5,52.5c-0.8-0.1-1.3,0.7-1.3,1.6c-0.1,0.7,0.3,1.3,1,1.5h0.2
							c0.8-0.1,1.4-0.7,1.4-1.5C474.9,53.2,474.3,52.5,473.5,52.5L473.5,52.5"/>
						<path id="Path_14458" class="st1" d="M153.3,41l-2.4,1.8C151.9,42.5,152.7,41.8,153.3,41"/>
						<path id="Path_14461" class="st1" d="M359,64.3c-0.7,0-1.2,0.4-1.3,1.3c-0.1,0.8,0.4,1.5,1.1,1.6c0,0,0,0,0,0h0.2
							c0.7,0,1.4-0.5,1.5-1.2c0.1-0.8-0.5-1.5-1.3-1.7L359,64.3"/>
						<path id="Path_14462" class="st1" d="M407.2,69c-0.8,0.1-1.8,0.2-1.8,1.5c0,0.9,0.8,1.2,1.5,1.2c0.7,0.1,1.4-0.4,1.5-1.1
							c0,0,0,0,0,0c0,0,0-0.1,0-0.1C408.6,69.6,408,69.1,407.2,69"/>
						<path id="Path_14464" class="st1" d="M534.3,62.2c-0.7-0.1-0.9,1-1,1.7c-0.1,1.1-0.7,2.6,0.9,2.8l0,0c0.7,0,1.1-0.8,1.2-1.8
							S535.7,62.5,534.3,62.2L534.3,62.2"/>
						<path id="Path_14465" class="st1" d="M144.5,44.9c-2.1,1.3-3.9,2.2-3.2,5.2C141.9,48.1,144.4,47.9,144.5,44.9"/>
						<path id="Path_14466" class="st1" d="M141.4,50.1L141.4,50.1v0.1l0.1,0.1L141.4,50.1z"/>
						<path id="Path_14467" class="st1" d="M301.5,23.3c-0.9,0.6-2.5,1.8-2.3,1.9c0.2,0.1,0.4,0.2,0.6,0.2
							C300.6,25.5,301,24.1,301.5,23.3"/>
						<path id="Path_14468" class="st1" d="M533.2,40.3c-0.4,0-0.7,0.4-0.8,0.9c-0.2,0.5-0.1,1.1,0.3,1.5h0.2c0.5,0,0.8-0.3,0.9-0.9
							s0-1.3-0.3-1.5C533.3,40.3,533.2,40.3,533.2,40.3"/>
						<path id="Path_14472" class="st1" d="M145.2,89.8L145.2,89.8c-0.9,0.3-1.6,1-1.9,1.9c-0.2,0.5-0.1,1,0.3,1
							c0.1,0,0.3,0,0.4-0.1c0.9-0.4,1.5-1.2,1.8-2.1C145.5,90.2,145.3,89.7,145.2,89.8"/>
						<path id="Path_14473" class="st1" d="M581.9,93.4c-0.7-0.1-1.3,0.4-1.4,1.1l0,0c-0.3,0.8,0.1,1.7,0.9,2.1
							c0.1,0,0.2,0.1,0.2,0.1h0.2c0.5,0,0.9-0.4,1-0.9c0.3-1,0.2-1.9-0.7-2.4L581.9,93.4"/>
						<path id="Path_14479" class="st1" d="M599.8,98.8h-0.2c-0.6,0-1.1,0.5-1.1,1.1c-0.1,0.9-0.1,1.7,0.7,1.9c0.1,0,0.2,0,0.3,0.1
							c0.7,0,0.8-0.9,1.1-1.6C600.4,99.8,600.6,98.9,599.8,98.8"/>
						<path id="Path_14480" class="st1" d="M107.2,83.3l-0.1,0.2l0,0l0.1,0.2L107.2,83.3z"/>
						<path id="Path_14481" class="st1" d="M109.8,79.8c-1.5,0.5-2.6,1.9-2.6,3.5C107.9,82.2,109.3,81.6,109.8,79.8"/>
						<path id="Path_14482" class="st1" d="M165.2,29.5c-0.1,0-0.2,0-0.3,0c-0.3,0.2-0.6,0.4-0.9,0.6c-0.4,0.4-0.4,0.7,0,0.9
							c0.5-0.3,0.9-0.6,1.3-1C165.6,29.7,165.5,29.4,165.2,29.5"/>
						<path id="Path_14484" class="st1" d="M450.3,16.1c-0.5,0-1,0.2-1.3,0.6c-0.3,0.6-0.1,1.3,0.5,1.6c0.1,0.1,0.2,0.1,0.3,0.1
							c0.1,0,0.3,0.1,0.4,0.1c0.5,0,1-0.1,1.3-0.9c0.1-0.7-0.3-1.3-0.9-1.5C450.5,16.2,450.4,16.2,450.3,16.1L450.3,16.1"/>
						<path id="Path_14485" class="st1" d="M457,11.2L457,11.2c-1,0.1-1.5,1-1.9,2c0,0.1,0.3,0.5,0.6,0.8c0.9-0.3,1.6-1.1,1.8-2
							C457.5,11.6,457.3,11.4,457,11.2"/>
						<path id="Path_14488" class="st1" d="M237.3,5.9c-0.4,0-0.7,0.3-1.1,0.5s-0.6,0.4-0.9,0.6c0.2,0.2,0.5,0.3,0.8,0.4l0,0
							c0.5,0,1-0.1,1.5-0.3c0.3-0.2,0.4-0.6,0.2-0.9c0-0.1-0.1-0.1-0.1-0.2C237.5,6,237.4,6,237.3,5.9"/>
						<path id="Path_14489" class="st1" d="M235.2,7l0.1,0.1h0.1L235.2,7z"/>
						<path id="Path_14490" class="st1" d="M181.9,71.7c-0.2,0-0.3,0.1-0.4,0.2c-0.3,0.3-0.4,0.6-0.5,1c-0.1,0.4,0,0.6,0.4,0.6
							c0.1,0,0.2,0,0.3,0c0.3-0.4,0.5-0.9,0.6-1.4C182.2,72,182.1,71.8,181.9,71.7C181.9,71.8,181.9,71.8,181.9,71.7L181.9,71.7"/>
						<path id="Path_14492" class="st1" d="M291.2,31.8c-0.7,0-1.3,0.5-1.5,1.2c-0.1,0.3-0.1,0.7,0.1,1h0.1c0.7,0.1,1-0.7,1.5-1.2
							c0.3-0.4,0.2-0.9-0.1-1H291.2"/>
						<path id="Path_14493" class="st1" d="M352.3,49.9c-0.1,0-0.2,0-0.3,0c-0.6,0.2-0.9,0.8-0.7,1.4l0,0c0.2,0.5,0.5,0.9,0.8,1.3
							l0.6-1.5C352.7,50.5,352.7,49.9,352.3,49.9"/>
						<path id="Path_14496" class="st1" d="M550,67.8c-0.3,0-0.6,0.2-0.7,0.4c-0.3,0.5-0.1,1.1,0.3,1.5c0.1,0.2,0.3,0.3,0.5,0.3
							c0.2,0,0.4-0.1,0.6-0.4c0.3-0.5,0.1-1.1-0.3-1.5C550.4,67.9,550.2,67.8,550,67.8"/>
						<path id="Path_14497" class="st1" d="M364,43.5v0.3l0.1-0.1l0,0L364,43.5z"/>
						<path id="Path_14498" class="st1" d="M364,43.8L364,43.8c-0.5,1.1-1.7,2-0.8,3.6C364,46.4,364.3,45.1,364,43.8"/>
						<path id="Path_14500" class="st1" d="M600.6,68.3c-0.1,0-0.2,0-0.3,0c-0.6,0.2-0.9,0.7-0.8,1.3c0,0.7,0.2,1.4,0.8,1.4
							c0.1,0,0.2,0,0.4,0c0.4-0.1,0.7-0.8,0.9-1.2C601.4,69,601.2,68.3,600.6,68.3"/>
						<path id="Path_14501" class="st1" d="M200.6,50.8l0.1,0.2l0.1-0.1L200.6,50.8z"/>
						<path id="Path_14502" class="st1" d="M200.7,51L200.7,51c-0.7,0.5-1.4,1-1.1,2.2c0,0.1,0.2,0.1,0.3,0.1c0.2,0,0.4,0,0.5-0.1
							c0.7-0.4,0.9-1.2,0.5-1.9C200.9,51.2,200.8,51.1,200.7,51"/>
						<path id="Path_14503" class="st1" d="M581.5,21.7c0,0-0.1,0-0.2,0c-0.3,0.4-0.6,0.8-0.8,1.2c-0.2,0.4,0,0.9,0.3,1
							c0.1,0.1,0.2,0.1,0.3,0.1h0.1c0.6,0,0.8-0.6,0.9-1.2S582.3,21.8,581.5,21.7"/>
					</g>
				</g>
			</g>
		</g>
	</g>
</g>
<g id="Check_out_the_new_OH-WAKE_magazine_created_by_Ocean_Heroes_for_Ocean_Heroes">
	<g class="st2">
		<path class="st3" d="M8.2,30.6h4.4v6.9c0,3.2-1,6.4-5.4,6.4h-1c-4.6,0-5.6-3.3-5.6-6.3V19.5c0-3,1.3-6,5.4-6h1
			c5,0,5.5,3.3,5.5,6.2v5.3H8.2v-5.2c0-1.3-0.4-2-1.5-2c-1.1,0-1.4,0.6-1.4,2v17.7c0,1.3,0.4,2,1.4,2c1.1,0,1.5-0.8,1.5-2V30.6z"/>
		<path class="st3" d="M15,13.8h4.3v10.7c0.8-1.3,1.9-2.6,3.6-2.6H23c2.3,0,2.9,2,2.9,3.3v18.3h-4.3V27.5c0-1-0.3-1.6-1.1-1.6
			c-0.9,0-1.2,0.6-1.2,1.8v16H15V13.8z"/>
		<path class="st3" d="M38.7,27.2v6.2h-6.4v5c0,1,0.3,1.6,1.2,1.6c0.7,0,1.1-0.6,1.1-1.6v-3.6h4.1v3.8c0,3.8-2,5.4-5,5.4H33
			c-2.8,0-4.7-1.7-4.7-5.4V27c0-2.9,1.4-5.2,4.9-5.2h0.8C37.3,21.8,38.7,23.7,38.7,27.2z M32.4,29.8h2.4v-2.7c0-1-0.2-1.7-1.2-1.7
			c-1.1,0-1.2,0.8-1.2,1.7V29.8z"/>
		<path class="st3" d="M51.5,34v4.8c0,2.5-1.3,5.2-4.8,5.2h-0.8c-3.4,0-5-2.4-5-5.2V27c0-3.3,1.6-5.3,5.1-5.3h0.8
			c3.6,0,4.7,2,4.7,4.7v3.8h-4.1v-2.9c0-1.1-0.1-1.8-1.1-1.8c-1,0-1.1,0.7-1.1,1.8v11c0,1,0.2,1.6,1,1.6c0.8,0,1.1-0.6,1.1-1.6V34
			H51.5z"/>
		<path class="st3" d="M61.3,22.1h4.3l-4,9.2l4.3,12.3h-4.4l-3.4-10v10h-4.3V13.8H58v16.1L61.3,22.1z"/>
		<path class="st3" d="M72.2,27.3c0-3.6,1.9-5.6,5.1-5.6h0.8c3.2,0,5.1,1.9,5.1,5.4v11.2c0,2.9-1.8,5.6-5.1,5.6h-0.8
			c-3.7,0-5.1-2.7-5.1-5.6V27.3z M76.6,38.2c0,1,0.4,1.7,1.2,1.7c0.8,0,1.2-0.7,1.2-1.7V27.4c0-1.2-0.4-1.6-1.2-1.6
			c-0.7,0-1.2,0.4-1.2,1.6V38.2z"/>
		<path class="st3" d="M96.3,43.6h-4.1V41c-0.7,1.2-1.8,2.6-3.6,2.6h-0.1c-1.7,0-2.8-1.8-2.8-3.6v-18h4.3v16.1c0,0.8,0.3,1.4,1,1.4
			c0.9,0,1.1-0.6,1.1-1.6v-16h4.3V43.6z"/>
		<path class="st3" d="M103.2,43.6c-1.4,0-2.6-0.7-2.6-2.6V26.2h-2.4v-4.1h2.4V15h4.3v7.1h2.5v4.1h-2.5v12.3c0,0.7,0.1,1,0.8,1h1.7
			v4.1H103.2z"/>
		<path class="st3" d="M119,43.6c-1.4,0-2.6-0.7-2.6-2.6V26.2H114v-4.1h2.4V15h4.3v7.1h2.5v4.1h-2.5v12.3c0,0.7,0.1,1,0.8,1h1.7v4.1
			H119z"/>
		<path class="st3" d="M125.2,13.8h4.3v10.7c0.8-1.3,1.9-2.6,3.6-2.6h0.2c2.3,0,2.9,2,2.9,3.3v18.3h-4.3V27.5c0-1-0.3-1.6-1.1-1.6
			c-0.9,0-1.2,0.6-1.2,1.8v16h-4.3V13.8z"/>
		<path class="st3" d="M149,27.2v6.2h-6.4v5c0,1,0.3,1.6,1.2,1.6c0.7,0,1.1-0.6,1.1-1.6v-3.6h4.1v3.8c0,3.8-2,5.4-5,5.4h-0.8
			c-2.8,0-4.7-1.7-4.7-5.4V27c0-2.9,1.4-5.2,4.9-5.2h0.8C147.5,21.8,149,23.7,149,27.2z M142.6,29.8h2.4v-2.7c0-1-0.2-1.7-1.2-1.7
			c-1.1,0-1.2,0.8-1.2,1.7V29.8z"/>
		<path class="st3" d="M156.3,22.1h4.2v2.5c0.6-1.2,2-2.6,3.6-2.6h0.2c2.2,0,2.9,2,2.9,3.3v18.3h-4.3V27.5c0-1-0.3-1.6-1.1-1.6
			c-0.9,0-1.2,0.6-1.2,1.8v16h-4.3V22.1z"/>
		<path class="st3" d="M180,27.2v6.2h-6.4v5c0,1,0.3,1.6,1.2,1.6c0.7,0,1.1-0.6,1.1-1.6v-3.6h4.1v3.8c0,3.8-2,5.4-5,5.4h-0.8
			c-2.8,0-4.7-1.7-4.7-5.4V27c0-2.9,1.4-5.2,4.9-5.2h0.8C178.6,21.8,180,23.7,180,27.2z M173.7,29.8h2.4v-2.7c0-1-0.2-1.7-1.2-1.7
			c-1.1,0-1.2,0.8-1.2,1.7V29.8z"/>
		<path class="st3" d="M184.7,43.6l-3.3-21.5h4.3l1.6,13.4l1.6-13.4h3.8l1.6,13.4l1.6-13.4h4l-3.3,21.5h-4.3l-1.6-12.2l-1.6,12.2
			H184.7z"/>
		<path class="st3" d="M218.9,37c0,4.2-1.4,7-5.8,7h-0.8c-4.3,0-5.8-2.8-5.8-7V20.4c0-4.1,1.6-6.8,5.8-6.8h0.8
			c4.4,0,5.8,2.7,5.8,6.8V37z M214.3,20.2c0-1.6-0.5-2.3-1.6-2.3c-1.2,0-1.6,0.8-1.6,2.3v17.1c0,1.3,0.4,2.3,1.6,2.3
			c1.2,0,1.5-1,1.5-2.3V20.2z"/>
		<path class="st3" d="M226,43.6h-4.5V13.8h4.5v11.9h3.1V13.8h4.5v29.8h-4.5V30.5H226V43.6z"/>
		<path class="st3" d="M241.6,29.7v3.9H236v-3.9H241.6z"/>
		<path class="st3" d="M255,13.8l2,19.3l2.1-19.3h4.2l-3.8,29.8h-4.8l-1.9-17.3l-1.9,17.3h-5l-3.7-29.8h4.6l2,19.2l2-19.2H255z"/>
		<path class="st3" d="M270.9,38h-3.3l-0.6,5.6h-4l3.6-29.8h5.4l3.9,29.8h-4.4L270.9,38z M268.1,33.6h2.4l-1.2-11L268.1,33.6z"/>
		<path class="st3" d="M282.1,43.6h-4.5V13.8h4.5v11.9l3.6-11.9h4.4l-4.2,13.8l4.6,15.9h-4.6l-3.8-12.9V43.6z"/>
		<path class="st3" d="M302.4,13.8v4.3h-5.8V26h4.5v4.5h-4.5v8.6h6v4.5h-10.5V13.8H302.4z"/>
		<path class="st3" d="M309.8,22.1h4.2v2.4c0.5-0.8,1.8-2.6,3.5-2.6h0.2c1.7,0,2.5,1.2,2.8,2.5c0.6-1,1.9-2.5,3.6-2.5h0.2
			c1.9,0,2.7,1.3,2.7,3.2v18.4h-4.3v-16c0-1.1-0.2-1.8-1.1-1.8c-0.8,0-1.1,0.5-1.1,1.4v16.3h-4.3v-16c0-1.1-0.2-1.8-1.1-1.8
			c-0.9,0-1.1,0.6-1.1,1.8v16h-4.3V22.1z"/>
		<path class="st3" d="M329.2,35.3c0-2.1,0.5-3.4,2-4.3c1-0.6,3.1-1.6,3.7-1.9c0.4-0.2,0.5-0.4,0.5-0.9v-1.4c0-1.1-0.3-1.4-1-1.4
			h-0.1c-0.8,0-1.1,0.4-1.1,1.4V29h-3.8v-3c0-1.6,0.5-4.1,4.5-4.1h0.8c4.1,0,4.8,2,4.8,4.2V39c0,0.5,0.1,0.7,0.7,0.7h0.8v4H337
			c-0.9,0-1.4-0.6-1.4-2.4c-0.5,1-1.7,2.6-3.5,2.6H332c-1.7,0-2.7-1.6-2.7-3.4V35.3z M335.5,32.7c-0.5,0.3-1.1,0.6-1.5,1.1
			c-0.4,0.4-0.6,0.9-0.6,1.7v3c0,0.9,0.3,1.4,1,1.4c0.7,0,1.1-0.6,1.1-1.6V32.7z"/>
		<path class="st3" d="M349.2,41c-0.6,1.4-1.8,2.8-3.5,2.8c-1.7,0-3.1-1.6-3.1-4V26.9c0-3.1,1.1-5,3.2-5c1.8,0,2.8,1.2,3.6,2.6v-2.5
			h4.2v25c0,1.6-0.4,4.3-5,4.3h-1c-3.9,0-4.8-1.8-4.8-3.7v-3.1h4.1v1.9c0,0.8,0.3,1.2,1.1,1.2h0.2c0.9,0,1.1-0.4,1.1-1.2V41z
			 M349.2,27.3c0-0.9-0.3-1.6-1.2-1.6c-0.8,0-1.1,0.6-1.1,1.6v10.9c0,1,0.4,1.6,1.2,1.6c0.8,0,1.2-0.6,1.2-1.6V27.3z"/>
		<path class="st3" d="M355.7,35.3c0-2.1,0.5-3.4,2-4.3c1-0.6,3.1-1.6,3.7-1.9c0.4-0.2,0.5-0.4,0.5-0.9v-1.4c0-1.1-0.3-1.4-1-1.4
			h-0.1c-0.8,0-1.1,0.4-1.1,1.4V29H356v-3c0-1.6,0.5-4.1,4.5-4.1h0.8c4.1,0,4.8,2,4.8,4.2V39c0,0.5,0.1,0.7,0.7,0.7h0.8v4h-4.1
			c-0.9,0-1.4-0.6-1.4-2.4c-0.5,1-1.7,2.6-3.5,2.6h-0.1c-1.7,0-2.7-1.6-2.7-3.4V35.3z M362,32.7c-0.5,0.3-1.1,0.6-1.5,1.1
			c-0.4,0.4-0.6,0.9-0.6,1.7v3c0,0.9,0.3,1.4,1,1.4c0.7,0,1.1-0.6,1.1-1.6V32.7z"/>
		<path class="st3" d="M378.1,22.1v3.6l-5,14h5.3v3.9H369v-3.8l4.8-13.9h-4.4v-3.8H378.1z"/>
		<path class="st3" d="M384.6,20.9h-4.3v-4.6h4.3V20.9z M384.6,43.6h-4.3V22.1h4.3V43.6z"/>
		<path class="st3" d="M387.1,22.1h4.2v2.5c0.6-1.2,2-2.6,3.6-2.6h0.2c2.2,0,2.9,2,2.9,3.3v18.3h-4.3V27.5c0-1-0.3-1.6-1.1-1.6
			c-0.9,0-1.2,0.6-1.2,1.8v16h-4.3V22.1z"/>
		<path class="st3" d="M410.8,27.2v6.2h-6.4v5c0,1,0.3,1.6,1.2,1.6c0.7,0,1.1-0.6,1.1-1.6v-3.6h4.1v3.8c0,3.8-2,5.4-5,5.4H405
			c-2.8,0-4.7-1.7-4.7-5.4V27c0-2.9,1.4-5.2,4.9-5.2h0.8C409.3,21.8,410.8,23.7,410.8,27.2z M404.4,29.8h2.4v-2.7
			c0-1-0.2-1.7-1.2-1.7c-1.1,0-1.2,0.8-1.2,1.7V29.8z"/>
		<path class="st3" d="M428.6,34v4.8c0,2.5-1.3,5.2-4.8,5.2H423c-3.4,0-5-2.4-5-5.2V27c0-3.3,1.6-5.3,5.1-5.3h0.8
			c3.6,0,4.7,2,4.7,4.7v3.8h-4.1v-2.9c0-1.1-0.1-1.8-1.1-1.8c-1,0-1.1,0.7-1.1,1.8v11c0,1,0.2,1.6,1,1.6c0.8,0,1.1-0.6,1.1-1.6V34
			H428.6z"/>
		<path class="st3" d="M435.1,24.8c0.4-0.8,1.3-2.8,3.3-2.8h0.2c1.5,0,2.2,1,2.2,2.4v7.8h-4.2v-4.8c0-0.9,0-1.3-0.7-1.3
			c-0.7,0-0.7,0.5-0.7,1.3v16.2h-4.3V22.1h4.2V24.8z"/>
		<path class="st3" d="M453.3,27.2v6.2h-6.4v5c0,1,0.3,1.6,1.2,1.6c0.7,0,1.1-0.6,1.1-1.6v-3.6h4.1v3.8c0,3.8-2,5.4-5,5.4h-0.8
			c-2.8,0-4.7-1.7-4.7-5.4V27c0-2.9,1.4-5.2,4.9-5.2h0.8C451.8,21.8,453.3,23.7,453.3,27.2z M446.9,29.8h2.4v-2.7
			c0-1-0.2-1.7-1.2-1.7c-1.1,0-1.2,0.8-1.2,1.7V29.8z"/>
		<path class="st3" d="M455.3,35.3c0-2.1,0.5-3.4,2-4.3c1-0.6,3.1-1.6,3.7-1.9c0.4-0.2,0.5-0.4,0.5-0.9v-1.4c0-1.1-0.3-1.4-1-1.4
			h-0.1c-0.8,0-1.1,0.4-1.1,1.4V29h-3.8v-3c0-1.6,0.5-4.1,4.5-4.1h0.8c4.1,0,4.8,2,4.8,4.2V39c0,0.5,0.1,0.7,0.7,0.7h0.8v4h-4.1
			c-0.9,0-1.4-0.6-1.4-2.4c-0.5,1-1.7,2.6-3.5,2.6h-0.1c-1.7,0-2.7-1.6-2.7-3.4V35.3z M461.6,32.7c-0.5,0.3-1.1,0.6-1.5,1.1
			c-0.4,0.4-0.6,0.9-0.6,1.7v3c0,0.9,0.3,1.4,1,1.4c0.7,0,1.1-0.6,1.1-1.6V32.7z"/>
		<path class="st3" d="M472.6,43.6c-1.4,0-2.6-0.7-2.6-2.6V26.2h-2.4v-4.1h2.4V15h4.3v7.1h2.5v4.1h-2.5v12.3c0,0.7,0.1,1,0.8,1h1.7
			v4.1H472.6z"/>
		<path class="st3" d="M489.2,27.2v6.2h-6.4v5c0,1,0.3,1.6,1.2,1.6c0.7,0,1.1-0.6,1.1-1.6v-3.6h4.1v3.8c0,3.8-2,5.4-5,5.4h-0.8
			c-2.8,0-4.7-1.7-4.7-5.4V27c0-2.9,1.4-5.2,4.9-5.2h0.8C487.7,21.8,489.2,23.7,489.2,27.2z M482.8,29.8h2.4v-2.7
			c0-1-0.2-1.7-1.2-1.7c-1.1,0-1.2,0.8-1.2,1.7V29.8z"/>
		<path class="st3" d="M502.3,13.8v29.8H498v-2.4c-0.3,0.9-1.4,2.6-3.3,2.6h0c-1.9,0-3.2-1.8-3.2-4.6V26.1c0-2,0.9-4.2,3.1-4.2h0.1
			c1.9,0,3,1.6,3.4,2.4V13.8H502.3z M498,27.7c0-1.1-0.3-1.9-1.2-1.9c-0.7,0-1.1,0.5-1.1,1.7v10.6c0,1.1,0.3,1.7,1.1,1.7
			c0.9,0,1.2-0.7,1.2-2V27.7z"/>
	</g>
	<g class="st2">
		<path class="st3" d="M5,55.8v10.6C5.4,65.8,6.6,64,8.6,64h0.1c1.9,0,3,1.6,3,3.7V81c0,2.6-1.4,4.8-3.9,4.8H7.7
			c-2.1,0-3.4-2.1-3.8-3c-0.3,1-0.5,2.3-0.5,2.9H0.7V55.8H5z M5,80.2c0,1,0.4,1.6,1.2,1.6c0.8,0,1.1-0.6,1.1-1.6V69.6
			c0-0.9-0.2-1.6-1.2-1.6C5.3,68,5,68.7,5,69.6V80.2z"/>
		<path class="st3" d="M13.1,64.1h4.2L19,77.2l1.6-13.2h4.1l-4.3,25.8c-0.4,2.1-1.1,3.2-2.6,3.2h-4V89h1.8c0.7,0,0.9-0.4,1-1.1
			l0.1-0.9c0.1-0.9,0-1.4-0.1-2.1L13.1,64.1z"/>
		<path class="st3" d="M43.6,79c0,4.2-1.4,7-5.8,7h-0.8c-4.3,0-5.8-2.8-5.8-7V62.4c0-4.1,1.6-6.8,5.8-6.8h0.8c4.4,0,5.8,2.7,5.8,6.8
			V79z M39,62.2c0-1.6-0.5-2.3-1.6-2.3c-1.2,0-1.6,0.8-1.6,2.3v17.1c0,1.3,0.4,2.3,1.6,2.3c1.2,0,1.5-1,1.5-2.3V62.2z"/>
		<path class="st3" d="M56.6,76v4.8c0,2.5-1.3,5.2-4.8,5.2h-0.8c-3.4,0-5-2.4-5-5.2V69c0-3.3,1.6-5.3,5.1-5.3h0.8
			c3.6,0,4.7,2,4.7,4.7v3.8h-4.1v-2.9c0-1.1-0.1-1.8-1.1-1.8c-1,0-1.1,0.7-1.1,1.8v11c0,1,0.2,1.6,1,1.6c0.8,0,1.1-0.6,1.1-1.6V76
			H56.6z"/>
		<path class="st3" d="M69.2,69.2v6.2h-6.4v5c0,1,0.3,1.6,1.2,1.6c0.7,0,1.1-0.6,1.1-1.6v-3.6h4.1v3.8c0,3.8-2,5.4-5,5.4h-0.8
			c-2.8,0-4.7-1.7-4.7-5.4V69c0-2.9,1.4-5.2,4.9-5.2h0.8C67.7,63.8,69.2,65.7,69.2,69.2z M62.8,71.8h2.4v-2.7c0-1-0.2-1.7-1.2-1.7
			c-1.1,0-1.2,0.8-1.2,1.7V71.8z"/>
		<path class="st3" d="M71.2,77.3c0-2.1,0.5-3.4,2-4.3c1-0.6,3.1-1.6,3.7-1.9c0.4-0.2,0.5-0.4,0.5-0.9v-1.4c0-1.1-0.3-1.4-1-1.4
			h-0.1c-0.8,0-1.1,0.4-1.1,1.4V71h-3.8v-3c0-1.6,0.5-4.1,4.5-4.1h0.8c4.1,0,4.8,2,4.8,4.2V81c0,0.5,0.1,0.7,0.7,0.7h0.8v4H79
			c-0.9,0-1.4-0.6-1.4-2.4c-0.5,1-1.7,2.6-3.5,2.6H74c-1.7,0-2.7-1.6-2.7-3.4V77.3z M77.5,74.7C77,75,76.4,75.4,76,75.8
			c-0.4,0.4-0.6,0.9-0.6,1.7v3c0,0.9,0.3,1.4,1,1.4c0.7,0,1.1-0.6,1.1-1.6V74.7z"/>
		<path class="st3" d="M84.7,64.1h4.2v2.5c0.6-1.2,2-2.6,3.6-2.6h0.2c2.2,0,2.9,2,2.9,3.3v18.3h-4.3V69.5c0-1-0.3-1.6-1.1-1.6
			c-0.9,0-1.2,0.6-1.2,1.8v16h-4.3V64.1z"/>
		<path class="st3" d="M107.8,85.6h-4.5V55.8h4.5v11.9h3.1V55.8h4.5v29.8h-4.5V72.5h-3.1V85.6z"/>
		<path class="st3" d="M128.3,69.2v6.2h-6.4v5c0,1,0.3,1.6,1.2,1.6c0.7,0,1.1-0.6,1.1-1.6v-3.6h4.1v3.8c0,3.8-2,5.4-5,5.4h-0.8
			c-2.8,0-4.7-1.7-4.7-5.4V69c0-2.9,1.4-5.2,4.9-5.2h0.8C126.8,63.8,128.3,65.7,128.3,69.2z M121.9,71.8h2.4v-2.7
			c0-1-0.2-1.7-1.2-1.7c-1.1,0-1.2,0.8-1.2,1.7V71.8z"/>
		<path class="st3" d="M134.8,66.8C135.1,66,136,64,138,64h0.2c1.5,0,2.2,1,2.2,2.4v7.8h-4.2v-4.8c0-0.9,0-1.3-0.7-1.3
			c-0.7,0-0.7,0.5-0.7,1.3v16.2h-4.3V64.1h4.2V66.8z"/>
		<path class="st3" d="M142.5,69.3c0-3.6,1.9-5.6,5.1-5.6h0.8c3.2,0,5.1,1.9,5.1,5.4v11.2c0,2.9-1.8,5.6-5.1,5.6h-0.8
			c-3.7,0-5.1-2.7-5.1-5.6V69.3z M146.8,80.2c0,1,0.4,1.7,1.2,1.7c0.8,0,1.2-0.7,1.2-1.7V69.4c0-1.2-0.4-1.6-1.2-1.6
			c-0.7,0-1.2,0.4-1.2,1.6V80.2z"/>
		<path class="st3" d="M166.2,69.2v6.2h-6.4v5c0,1,0.3,1.6,1.2,1.6c0.7,0,1.1-0.6,1.1-1.6v-3.6h4.1v3.8c0,3.8-2,5.4-5,5.4h-0.8
			c-2.8,0-4.7-1.7-4.7-5.4V69c0-2.9,1.4-5.2,4.9-5.2h0.8C164.8,63.8,166.2,65.7,166.2,69.2z M159.8,71.8h2.4v-2.7
			c0-1-0.2-1.7-1.2-1.7c-1.1,0-1.2,0.8-1.2,1.7V71.8z"/>
		<path class="st3" d="M178.2,70.9h-3.8v-2.6c0-0.8-0.3-1.2-1-1.2c-0.8,0-0.9,0.5-0.9,1.3v0.4c0,1.1,0.2,1.5,1,2.4l2.6,3.1
			c2,2.4,2.4,3.8,2.4,5.9v0.6c0,2.6-1.3,5.2-4.8,5.2h-0.8c-3.4,0-4.6-2-4.6-4.4v-3.9h4v3.1c0,1.1,0.4,1.5,1.1,1.5c0.7,0,1-0.5,1-1.5
			v-0.4c0-0.9-0.1-1.9-1.2-3.1l-2.5-2.9c-1.7-2-2.1-3.5-2.1-5.6v-0.6c0-2.7,1.4-4.5,4.6-4.5h0.8c3.4,0,4.4,1.8,4.4,3.9V70.9z"/>
		<path class="st3" d="M194.6,59.8h-1.9c-0.7,0-0.9,0.3-0.9,1v3.2h2.8v4.1h-2.8v17.4h-4.3V68.2H185v-4.1h2.6v-5.5
			c0-1.2,0.6-2.8,3-2.8h4V59.8z"/>
		<path class="st3" d="M196.3,69.3c0-3.6,1.9-5.6,5.1-5.6h0.8c3.2,0,5.1,1.9,5.1,5.4v11.2c0,2.9-1.8,5.6-5.1,5.6h-0.8
			c-3.7,0-5.1-2.7-5.1-5.6V69.3z M200.6,80.2c0,1,0.4,1.7,1.2,1.7c0.8,0,1.2-0.7,1.2-1.7V69.4c0-1.2-0.4-1.6-1.2-1.6
			c-0.7,0-1.2,0.4-1.2,1.6V80.2z"/>
		<path class="st3" d="M213.8,66.8c0.4-0.8,1.3-2.8,3.3-2.8h0.2c1.5,0,2.2,1,2.2,2.4v7.8h-4.2v-4.8c0-0.9,0-1.3-0.7-1.3
			c-0.7,0-0.7,0.5-0.7,1.3v16.2h-4.3V64.1h4.2V66.8z"/>
		<path class="st3" d="M239.1,79c0,4.2-1.4,7-5.8,7h-0.8c-4.3,0-5.8-2.8-5.8-7V62.4c0-4.1,1.6-6.8,5.8-6.8h0.8
			c4.4,0,5.8,2.7,5.8,6.8V79z M234.5,62.2c0-1.6-0.5-2.3-1.6-2.3c-1.2,0-1.6,0.8-1.6,2.3v17.1c0,1.3,0.4,2.3,1.6,2.3
			c1.2,0,1.5-1,1.5-2.3V62.2z"/>
		<path class="st3" d="M252,76v4.8c0,2.5-1.3,5.2-4.8,5.2h-0.8c-3.4,0-5-2.4-5-5.2V69c0-3.3,1.6-5.3,5.1-5.3h0.8
			c3.6,0,4.7,2,4.7,4.7v3.8h-4.1v-2.9c0-1.1-0.1-1.8-1.1-1.8c-1,0-1.1,0.7-1.1,1.8v11c0,1,0.2,1.6,1,1.6c0.8,0,1.1-0.6,1.1-1.6V76
			H252z"/>
		<path class="st3" d="M264.6,69.2v6.2h-6.4v5c0,1,0.3,1.6,1.2,1.6c0.7,0,1.1-0.6,1.1-1.6v-3.6h4.1v3.8c0,3.8-2,5.4-5,5.4h-0.8
			c-2.8,0-4.7-1.7-4.7-5.4V69c0-2.9,1.4-5.2,4.9-5.2h0.8C263.2,63.8,264.6,65.7,264.6,69.2z M258.3,71.8h2.4v-2.7
			c0-1-0.2-1.7-1.2-1.7c-1.1,0-1.2,0.8-1.2,1.7V71.8z"/>
		<path class="st3" d="M266.7,77.3c0-2.1,0.5-3.4,2-4.3c1-0.6,3.1-1.6,3.7-1.9c0.4-0.2,0.5-0.4,0.5-0.9v-1.4c0-1.1-0.3-1.4-1-1.4
			h-0.1c-0.8,0-1.1,0.4-1.1,1.4V71H267v-3c0-1.6,0.5-4.1,4.5-4.1h0.8c4.1,0,4.8,2,4.8,4.2V81c0,0.5,0.1,0.7,0.7,0.7h0.8v4h-4.1
			c-0.9,0-1.4-0.6-1.4-2.4c-0.5,1-1.7,2.6-3.5,2.6h-0.1c-1.7,0-2.7-1.6-2.7-3.4V77.3z M273,74.7c-0.5,0.3-1.1,0.6-1.5,1.1
			c-0.4,0.4-0.6,0.9-0.6,1.7v3c0,0.9,0.3,1.4,1,1.4c0.7,0,1.1-0.6,1.1-1.6V74.7z"/>
		<path class="st3" d="M280.2,64.1h4.2v2.5c0.6-1.2,2-2.6,3.6-2.6h0.2c2.2,0,2.9,2,2.9,3.3v18.3h-4.3V69.5c0-1-0.3-1.6-1.1-1.6
			c-0.9,0-1.2,0.6-1.2,1.8v16h-4.3V64.1z"/>
		<path class="st3" d="M303.2,85.6h-4.5V55.8h4.5v11.9h3.1V55.8h4.5v29.8h-4.5V72.5h-3.1V85.6z"/>
		<path class="st3" d="M323.7,69.2v6.2h-6.4v5c0,1,0.3,1.6,1.2,1.6c0.7,0,1.1-0.6,1.1-1.6v-3.6h4.1v3.8c0,3.8-2,5.4-5,5.4H318
			c-2.8,0-4.7-1.7-4.7-5.4V69c0-2.9,1.4-5.2,4.9-5.2h0.8C322.3,63.8,323.7,65.7,323.7,69.2z M317.4,71.8h2.4v-2.7
			c0-1-0.2-1.7-1.2-1.7c-1.1,0-1.2,0.8-1.2,1.7V71.8z"/>
		<path class="st3" d="M330.2,66.8c0.4-0.8,1.3-2.8,3.3-2.8h0.2c1.5,0,2.2,1,2.2,2.4v7.8h-4.2v-4.8c0-0.9,0-1.3-0.7-1.3
			c-0.7,0-0.7,0.5-0.7,1.3v16.2H326V64.1h4.2V66.8z"/>
		<path class="st3" d="M337.9,69.3c0-3.6,1.9-5.6,5.1-5.6h0.8c3.2,0,5.1,1.9,5.1,5.4v11.2c0,2.9-1.8,5.6-5.1,5.6h-0.8
			c-3.7,0-5.1-2.7-5.1-5.6V69.3z M342.3,80.2c0,1,0.4,1.7,1.2,1.7c0.8,0,1.2-0.7,1.2-1.7V69.4c0-1.2-0.4-1.6-1.2-1.6
			c-0.7,0-1.2,0.4-1.2,1.6V80.2z"/>
		<path class="st3" d="M361.7,69.2v6.2h-6.4v5c0,1,0.3,1.6,1.2,1.6c0.7,0,1.1-0.6,1.1-1.6v-3.6h4.1v3.8c0,3.8-2,5.4-5,5.4h-0.8
			c-2.8,0-4.7-1.7-4.7-5.4V69c0-2.9,1.4-5.2,4.9-5.2h0.8C360.2,63.8,361.7,65.7,361.7,69.2z M355.3,71.8h2.4v-2.7
			c0-1-0.2-1.7-1.2-1.7c-1.1,0-1.2,0.8-1.2,1.7V71.8z"/>
		<path class="st3" d="M373.6,70.9h-3.8v-2.6c0-0.8-0.3-1.2-1-1.2c-0.8,0-0.9,0.5-0.9,1.3v0.4c0,1.1,0.2,1.5,1,2.4l2.6,3.1
			c2,2.4,2.4,3.8,2.4,5.9v0.6c0,2.6-1.3,5.2-4.8,5.2h-0.8c-3.4,0-4.6-2-4.6-4.4v-3.9h4v3.1c0,1.1,0.4,1.5,1.1,1.5c0.7,0,1-0.5,1-1.5
			v-0.4c0-0.9-0.1-1.9-1.2-3.1l-2.5-2.9c-1.7-2-2.1-3.5-2.1-5.6v-0.6c0-2.7,1.4-4.5,4.6-4.5h0.8c3.4,0,4.4,1.8,4.4,3.9V70.9z"/>
	</g>
</g>
</svg>
