<svg id="Layer_1" data-name="Layer 1" xmlns="http://www.w3.org/2000/svg" viewBox="0 0 358.05 74.83"><defs><style>.cls-1{fill:none;stroke:#fff;stroke-miterlimit:10;stroke-width:2px;}.cls-2,.cls-3,.cls-6{isolation:isolate;}.cls-3{font-size:14.75px;fill:#fff;}.cls-3,.cls-6{font-family:DrukText-Medium, Druk Text;font-weight:500;}.cls-4{letter-spacing:0em;}.cls-5{letter-spacing:-0.01em;}.cls-6{font-size:17.29px;fill:#fbfbfc;}.cls-7{letter-spacing:0em;}.cls-8{letter-spacing:0em;}.cls-9{letter-spacing:-0.03em;}.cls-10{letter-spacing:-0.02em;}.cls-11{letter-spacing:0em;}.cls-12{letter-spacing:-0.01em;}.cls-13{letter-spacing:-0.01em;}</style></defs><g id="Group_116" data-name="Group 116"><g id="Group_115" data-name="Group 115"><path id="Path_9827" data-name="Path 9827" class="cls-1" d="M259.51,47.62c-.47,1.76-7.78,3.37-7.23,5.06s8.18.69,9.57,2.21c1.21,1.33-2.55,6.88-.76,8.08,1.58,1.06,7.41-3.11,9.39-2.18,1.78.84.64,7.28,2.71,8,1.89.66,6.17-4.68,8.28-4.14s2.43,7.08,4.56,7.48,5.12-5.54,7.27-5.28,3.66,6.75,5.81,6.89c2.35.15,4.63-6.1,6.94-6.08s5.28,6.29,7.56,6.16,3.5-6.63,5.74-6.9,6.39,5.58,8.57,5.16S330,65,332.1,64.4c2.26-.65,7.6,4.48,9.56,3.67,2.16-.9-.08-7.31,1.64-8.38,2-1.21,9,2.07,10.32.66,1.48-1.59-4.3-6.13-3.82-7.93s7.78-3.37,7.22-5.07-8.18-.69-9.56-2.2c-1.22-1.34,2.54-6.88.75-8.09-1.58-1.05-7.41,3.12-9.39,2.18-1.78-.83-.64-7.28-2.71-8-1.89-.66-6.17,4.68-8.28,4.13s-2.43-7.08-4.56-7.47-5.12,5.54-7.26,5.28-3.67-6.75-5.81-6.89c-2.36-.16-4.64,6.09-6.94,6.08s-5.29-6.29-7.57-6.17-3.5,6.64-5.74,6.91-6.39-5.59-8.57-5.16-2.08,7.08-4.17,7.68c-2.26.65-7.61-4.48-9.56-3.67-2.16.89.07,7.31-1.65,8.38-1.95,1.21-9-2.07-10.32-.67C254.21,41.28,260,45.82,259.51,47.62Z"/></g><g id="ohwake.org" class="cls-2"><text class="cls-3" transform="translate(271.6 53.89)">o<tspan class="cls-4" x="6.77" y="0">hw</tspan><tspan x="22.95" y="0">a</tspan><tspan class="cls-5" x="29.52" y="0">k</tspan><tspan x="36.01" y="0">e.org</tspan></text></g></g><g id="Check_out_the_new_OH-WAKE_magazine_created_by_Ocean_Heroes_for_Ocean_Heroes" data-name="Check out the new OH-WAKE magazine created by Ocean Heroes for Ocean Heroes" class="cls-2"><text class="cls-6" transform="translate(0 16.82)">Check out the new OH-WAKE magazine created</text><text class="cls-6" transform="translate(0 55.39)">by Ocean Heroes for Ocean Heroes</text></g></svg>