<svg id="Layer_1" data-name="Layer 1" xmlns="http://www.w3.org/2000/svg" viewBox="0 0 114.01 114.19"><defs><style>.cls-1{fill:#2f12d4;}.cls-2{fill:#fff;}</style></defs><path class="cls-1" d="M139.58,113.19a26.24,26.24,0,0,1-7.19-1,31.48,31.48,0,0,1-3.31-1.16,21,21,0,0,1-2.86-1.45,21.79,21.79,0,0,1-2.1-1.42l-.24-.19a17.79,17.79,0,0,1-2.45,1.18,23.34,23.34,0,0,1-4.07,1.19c-.76.16-1.55.28-2.33.38l-1.21.13c-.39,0-.78.07-1.2.09-.75,0-1.49.07-2.22.07-.9,0-1.76,0-2.55-.11a22.75,22.75,0,0,1-4.14-.69L103,110c-.72.28-1.42.52-2.13.74A31.85,31.85,0,0,1,94.26,112c-1,.09-1.86.13-2.7.13-.38,0-.75,0-1.13,0-.62,0-1.29,0-2-.12s-1.36-.13-1.94-.21c-1.43-.17-2.81-.47-3.86-.7s-2.42-.61-3.65-1-2.29-.77-3.33-1.18c-1.19-.48-2.12-.87-2.91-1.25-1.64-.75-3-1.49-4-2l-.22-.12c-.48-.27-.85-.5-1.11-.67l-.37.18c-1,.45-2.27,1-3.68,1.51-1.14.4-2.45.79-4.22,1.25-1.4.36-2.91.67-4.61.95s-3.15.43-4.84.56c-1.36.09-2.87.15-4.39.15h-.46c-1.66,0-3.24-.11-4.71-.24-1.83-.19-3.17-.36-4.38-.57-1.45-.23-2.77-.51-3.88-.76s-2.07-.52-3.26-.88c-1-.31-1.8-.59-2.47-.84-.46-.16-.87-.32-1.2-.45l-.43-.17c-.4.16-.82.32-1.26.47a25.18,25.18,0,0,1-7.49,1.45l-.92,0a20.81,20.81,0,0,1-3.43-.29A15.87,15.87,0,0,1,7,105.7a11.75,11.75,0,0,1-3.77-3.1,10.38,10.38,0,0,1-2.08-4.4,4.59,4.59,0,0,1-.12-.79l0-.32v-.21a6.92,6.92,0,0,1,0-1.11A9.07,9.07,0,0,1,1.5,93.6a11.06,11.06,0,0,1,2-3.48A12.27,12.27,0,0,1,6,87.9a14.25,14.25,0,0,1,2.14-1.23l1-.41c.3-.41.64-.84,1.08-1.36l.21-.23a20.78,20.78,0,0,1,1.77-1.73,23.39,23.39,0,0,1,2.17-1.7l1.16-.75,1.21-.68.38-.21.06-.16c.06-.13.11-.27.17-.42.14-.35.31-.79.55-1.28l.6-1.14a12.14,12.14,0,0,1,.82-1.37l.9-1.35,1.18-1.5c.26-.36.59-.7.89-1l.44-.48.7-.78.81-.79a45.91,45.91,0,0,1,3.45-3l.65-.49c.42-.33.86-.66,1.3-1l2-1.37,2.18-1.29c.61-.33,1.2-.63,1.78-.93l.49-.24c.53-.26,1-.48,1.56-.7.26-.11.52-.21.77-.33.53-.22,1.06-.41,1.59-.59l.8-.28a31.32,31.32,0,0,1,4.75-1.14,19.23,19.23,0,0,1,.53-2.07c.17-.53.35-1.05.58-1.6.13-.37.33-.79.53-1.22l.22-.46.26-.49c.24-.44.48-.88.78-1.33a15.32,15.32,0,0,1,1-1.39l.2-.27.4-.48a12.74,12.74,0,0,1,1.08-1.15l.69-.65.55-.44a8.34,8.34,0,0,1-1.32-1,7.51,7.51,0,0,1-1.28-1.64,8,8,0,0,1-.85-2,10.39,10.39,0,0,1-.38-2.07,9.38,9.38,0,0,1,.53-4.2,11.27,11.27,0,0,1,1.7-3.11c.16-.22.33-.42.5-.62a14.2,14.2,0,0,1-3.93-5.09l-.15-.38c-.1-.27-.21-.54-.29-.82l-.09-.35c-.08-.32-.17-.65-.22-.94l-.11-1a.93.93,0,0,1,0-.34v-.36a8.53,8.53,0,0,1,0-.88A10.59,10.59,0,0,1,48.09,17a13.25,13.25,0,0,1,3-3.21c.31-.23.62-.46,1-.69a1.31,1.31,0,0,1,.12-.27,17.27,17.27,0,0,1,3.13-4.07,23.9,23.9,0,0,1,3.92-2.95,31.15,31.15,0,0,1,4.33-2.1A37.41,37.41,0,0,1,68,2.27a42.49,42.49,0,0,1,4.59-.9c.69-.1,1.5-.2,2.34-.26l.53-.05,1.83,0,2.27,0,2.38.21a23,23,0,0,1,3.48.53L86.59,2a9.79,9.79,0,0,1,1.57.43l.74.22c.28.1.52.17.75.24a10.56,10.56,0,0,1,1.59.58l2.08.89a12,12,0,0,1,1.43.73l.68.37a25.8,25.8,0,0,1,3,1.9l1,.66.54.43A35.72,35.72,0,0,1,103,11.16l.81.78.82.92.51.57a12.57,12.57,0,0,1,1.06,1.29l.46.6c.32.42.64.84.93,1.28l.42.66c.29.45.58.9.85,1.36l.37.71c.25.48.5,1,.73,1.46l.33.79a14.32,14.32,0,0,1,.58,1.6c.06.24.12.44.17.64a10.19,10.19,0,0,1,.4,1.95l.06.47c.44,0,.88.05,1.31.09l.67.07.54.08c.59.09,1.2.18,1.81.33l1.07.26,1.13.37a13.8,13.8,0,0,1,1.55.6l.57.25.6.31a12.19,12.19,0,0,1,1.54.89,15.13,15.13,0,0,1,1.76,1.31,7.41,7.41,0,0,1,.69.62c.08.08.16.17.25.25l.08.08a6.82,6.82,0,0,1,.8.87l.71.88.64,1a4.8,4.8,0,0,1,.3.48,10.59,10.59,0,0,1,2.37-.69c.34-.05.68-.09,1-.11h1.08a12.25,12.25,0,0,1,4.64,1.22,11.7,11.7,0,0,1,2.14,1.28,12.89,12.89,0,0,1,1.86,1.68c.2.23.37.45.54.66l.26.33.65,1,.53,1.07c.1.23.18.47.26.71l.11.3a4.71,4.71,0,0,1,.2.76l.06.28a5.68,5.68,0,0,1,.18,1.07,9.67,9.67,0,0,1,.09,1.7,11.38,11.38,0,0,1-.1,1.29s0,.08,0,.11c.25.19.47.37.69.56a12.21,12.21,0,0,1,1.52,1.63,14.07,14.07,0,0,1,1.29,2,15.83,15.83,0,0,1,1.58,4.58,13.29,13.29,0,0,1,.24,2.33,11.61,11.61,0,0,1-.18,2.32A9.63,9.63,0,0,1,148,63.1a22.57,22.57,0,0,1,2.83.58,26.83,26.83,0,0,1,4.09,1.51,27.3,27.3,0,0,1,6.76,4.41l.46.42c.3.28.6.55.87.83l1.14,1.22,1,1.25c.22.31.41.58.58.84l.24.37a5.44,5.44,0,0,1,.48.82l.17.32a6.67,6.67,0,0,1,.53,1.15l.09.24c.09.22.16.42.22.6l0,.1.17.76a11.33,11.33,0,0,1,1.91,1.66,13.44,13.44,0,0,1,2.7,4.47,12,12,0,0,1,.6,5.85,15,15,0,0,1-2.15,5.78,22.25,22.25,0,0,1-4,4.67,25.1,25.1,0,0,1-9.56,5.23l0,0A24.55,24.55,0,0,1,153.4,109a29.59,29.59,0,0,1-5.92,2.78,26.78,26.78,0,0,1-3.61,1,23,23,0,0,1-3.87.42Z"/><path class="cls-2" d="M79.51,2l2.33.21A32.75,32.75,0,0,1,86.41,3a21.61,21.61,0,0,1,2.22.64,19.36,19.36,0,0,1,2.18.75l2.12.91c.71.29,1.36.72,2,1.07a36.07,36.07,0,0,1,3.88,2.5,40,40,0,0,1,3.48,3l.83.8.77.86c.49.59,1,1.13,1.49,1.77s1,1.22,1.38,1.86.85,1.31,1.24,2,.72,1.38,1.06,2.09.63,1.45.85,2.23a14.2,14.2,0,0,1,.53,2.4l.08.63,0,.31v.4l.08,0a4.89,4.89,0,0,0,.54,0h.15c.65,0,1.38.1,2.07.15s1.46.21,2.18.39l1.07.26,1.06.35c.7.21,1.37.54,2,.82a18.49,18.49,0,0,1,1.94,1.09,16.48,16.48,0,0,1,1.78,1.33c.3.23.54.51.82.77a8.36,8.36,0,0,1,.76.81l.7.87.61.94a6.3,6.3,0,0,1,.55,1c0,.1.09.19.14.29l.27-.15a9.85,9.85,0,0,1,2.71-.88,7,7,0,0,1,.93-.1h1a11.09,11.09,0,0,1,2.14.34,12,12,0,0,1,4.11,2A12.17,12.17,0,0,1,140,39c.25.29.48.6.71.89l.6,1,.47,1c.14.33.24.66.36,1a6.89,6.89,0,0,1,.23.95,4,4,0,0,1,.15.89,8.91,8.91,0,0,1,.09,1.58,12.1,12.1,0,0,1-.09,1.21c0,.3-.08.53-.11.7a9.37,9.37,0,0,1,1.11.85,11.28,11.28,0,0,1,1.41,1.5,14.19,14.19,0,0,1,2.67,6.11,12.8,12.8,0,0,1,.22,2.19,11,11,0,0,1-.16,2.11,8.91,8.91,0,0,1-.54,1.85,7.58,7.58,0,0,1-.61,1.21,21.93,21.93,0,0,1,4.11.72,27,27,0,0,1,3.93,1.44,28.48,28.48,0,0,1,3.53,2,27.65,27.65,0,0,1,3,2.29c.44.41.88.8,1.28,1.2l1.12,1.2.95,1.19c.28.39.53.79.78,1.15a12.09,12.09,0,0,1,.61,1.08,5.59,5.59,0,0,1,.44,1c.12.31.23.58.31.82l.15.67c.05.25.08.41.1.49a10.28,10.28,0,0,1,2.07,1.72,12.55,12.55,0,0,1,2.5,4.14,10.94,10.94,0,0,1,.55,5.36,14.2,14.2,0,0,1-2,5.41,20.64,20.64,0,0,1-3.8,4.44,23.19,23.19,0,0,1-4.8,3.28,23.71,23.71,0,0,1-4.61,1.81c-.06.06-.1.11-.17.17a23.54,23.54,0,0,1-3.6,2.68,30.44,30.44,0,0,1-5.74,2.69,25.91,25.91,0,0,1-3.47,1,23.13,23.13,0,0,1-3.7.4h-.4a25.08,25.08,0,0,1-6.91-1,29.4,29.4,0,0,1-3.21-1.12,21.56,21.56,0,0,1-2.72-1.38,19.9,19.9,0,0,1-2.12-1.45c-.24-.18-.45-.35-.65-.53l-.31.19a16.35,16.35,0,0,1-2.59,1.28,23.63,23.63,0,0,1-3.9,1.14c-.73.15-1.49.27-2.26.37-.39.05-.77.09-1.18.12s-.76.07-1.17.09c-.72,0-1.45.07-2.16.07s-1.67,0-2.46-.11a21.39,21.39,0,0,1-4-.65l-1-.28c-.69.29-1.48.57-2.36.84A30.87,30.87,0,0,1,94.19,111c-.83.08-1.73.13-2.63.13-.36,0-.72,0-1.07,0-.64,0-1.27,0-1.91-.11s-1.27-.12-1.91-.21a36.09,36.09,0,0,1-3.76-.69c-1.23-.28-2.43-.61-3.58-1s-2.24-.76-3.26-1.16-2-.81-2.85-1.22c-1.75-.8-3.14-1.58-4.13-2.12s-1.5-.92-1.5-.92l0,0-.86.43a36.93,36.93,0,0,1-3.58,1.46c-1.29.46-2.69.86-4.14,1.23s-3,.68-4.52.93-3.14.42-4.76.55c-1.39.1-2.87.15-4.29.15h-.47c-1.58,0-3.13-.1-4.63-.24s-2.94-.32-4.31-.55-2.64-.49-3.82-.75-2.25-.59-3.19-.87-1.75-.57-2.41-.82-1.18-.45-1.54-.58l-.45-.18c-.49.21-1,.41-1.58.61a24.29,24.29,0,0,1-7.18,1.39l-.89,0a19.46,19.46,0,0,1-3.28-.28,14.75,14.75,0,0,1-4.16-1.38A10.65,10.65,0,0,1,4,102a9.39,9.39,0,0,1-1.88-4A6.89,6.89,0,0,1,2,97a5.91,5.91,0,0,1,0-1.12,8.47,8.47,0,0,1,.42-2,10.21,10.21,0,0,1,1.82-3.14,11.46,11.46,0,0,1,2.24-2,12.07,12.07,0,0,1,2-1.15c.5-.22.9-.38,1.19-.48.36-.53.77-1,1.2-1.56a23,23,0,0,1,1.86-1.83,21,21,0,0,1,2.11-1.65L16,81.33l1.16-.65c.22-.13.45-.24.67-.35,0-.09.11-.26.21-.52s.36-1,.69-1.63c.17-.34.37-.71.59-1.11a8.78,8.78,0,0,1,.74-1.26L21,74.43,22.11,73c.38-.51.85-1,1.3-1.48l.7-.77.76-.74a41.72,41.72,0,0,1,3.38-3c.62-.47,1.25-1,1.9-1.43l2-1.35L34.3,63c.73-.4,1.47-.76,2.21-1.14s1.53-.67,2.29-1,1.55-.57,2.32-.85a29.26,29.26,0,0,1,4.73-1.12l.53-.09c0-.08,0-.17,0-.28A18.56,18.56,0,0,1,47,56.16c.15-.48.32-1,.54-1.52S48,53.56,48.3,53a18.84,18.84,0,0,1,1-1.67,18.41,18.41,0,0,1,1.15-1.63,15.8,15.8,0,0,1,1.35-1.48l.71-.68.75-.6a9.7,9.7,0,0,1,1-.71A7.15,7.15,0,0,1,53,45.6a6.86,6.86,0,0,1-1.28-1,6.76,6.76,0,0,1-1.12-1.43,7.17,7.17,0,0,1-.75-1.75,10.45,10.45,0,0,1-.35-1.88,8.45,8.45,0,0,1,0-2A8.35,8.35,0,0,1,50,35.8,10.76,10.76,0,0,1,51.53,33a11.35,11.35,0,0,1,1.19-1.34A14.36,14.36,0,0,1,50.78,30a12.28,12.28,0,0,1-2.56-3.72c-.14-.36-.29-.71-.4-1.09s-.22-.8-.28-1.17l-.06-.52,0-.26,0-.13c0-.16,0-.13,0-.2,0-.39,0-.78,0-1.16a9.52,9.52,0,0,1,1.48-4.16,11.83,11.83,0,0,1,2.74-3,13.44,13.44,0,0,1,1.21-.86,1.36,1.36,0,0,1,.13-.42l0-.08A16.48,16.48,0,0,1,56,9.49a23.14,23.14,0,0,1,3.75-2.82,31.89,31.89,0,0,1,4.16-2,35.86,35.86,0,0,1,4.37-1.41,39.85,39.85,0,0,1,4.48-.88c.76-.1,1.51-.2,2.27-.25l.29,0h.91l1.1,0,2.22,0m.08-2h-.11L77.27,0l-1.11,0H75.1l-.28,0C74,.18,73.1.29,72.45.38a41.74,41.74,0,0,0-4.73.93,38.49,38.49,0,0,0-4.58,1.48,32,32,0,0,0-4.42,2.15h0l0,0A24.4,24.4,0,0,0,54.59,8a18.31,18.31,0,0,0-3.28,4.24l-.05.09,0,.09c-.27.18-.53.37-.77.56a13.79,13.79,0,0,0-3.2,3.46,11.46,11.46,0,0,0-1.78,5.05,8.12,8.12,0,0,0,0,1c0,.11,0,.22,0,.33v.09h0a3,3,0,0,0,0,.4v.13l0,.26.06.52v.1c.06.36.15.7.23,1l.07.28,0,.05v0c.1.34.22.64.32.9l.12.31,0,.06,0,.05a14.23,14.23,0,0,0,3,4.33l.49.48a12.51,12.51,0,0,0-1.77,3.3,10.15,10.15,0,0,0-.54,2.22,10.44,10.44,0,0,0,0,2.38A11.54,11.54,0,0,0,47.93,42a8.88,8.88,0,0,0,.94,2.19,8.63,8.63,0,0,0,1.45,1.84c.13.13.27.26.4.37l-.28.27,0,0A11.69,11.69,0,0,0,49.25,48l-.34.39,0,.06,0,.07-.2.27a17.49,17.49,0,0,0-1,1.48c-.32.47-.57.95-.8,1.36l-.22.42,0,.06,0,.08-.21.44c-.2.42-.4.85-.57,1.3-.26.62-.45,1.21-.59,1.64S44.8,56.6,44.7,57a33.51,33.51,0,0,0-4.2,1.06h-.07c-.25.1-.51.18-.77.27-.53.19-1.08.38-1.64.61l-.8.35c-.51.22-1,.44-1.57.7l-.58.29c-.58.29-1.16.58-1.73.89l0,0,0,0-1.19.7-.94.55,0,0,0,0-1.43,1-.59.4,0,0h0c-.45.32-.88.65-1.31,1l-.63.48,0,0,0,0a43.75,43.75,0,0,0-3.54,3.13l-.7.68,0,0-.05,0,0,0-.3.34-.39.43-.44.48a13.84,13.84,0,0,0-1,1.13l-.63.79-.48.61-.05.07-.05.06-.46.69-.45.67a11.45,11.45,0,0,0-.87,1.48l-.11.2-.47.88,0,0,0,0c-.25.53-.44,1-.57,1.35l-.09.23-.12.07L15,79.59l0,0-.05,0-1.13.73,0,0,0,0a22.47,22.47,0,0,0-2.28,1.79c-.68.58-1.28,1.21-1.82,1.77l-.17.18,0,0,0,.05c-.37.44-.67.82-.94,1.18l-.73.31h0a15.53,15.53,0,0,0-2.3,1.33,13.22,13.22,0,0,0-2.61,2.36A12.27,12.27,0,0,0,.57,93.23l0,0v0a10.34,10.34,0,0,0-.5,2.4,8.35,8.35,0,0,0,0,1.21v.26l0,.1c0,.08,0,.16,0,.23a5.44,5.44,0,0,0,.15.93,11.45,11.45,0,0,0,2.26,4.78,12.51,12.51,0,0,0,4.11,3.37,16.62,16.62,0,0,0,4.71,1.57,21.59,21.59,0,0,0,3.65.31c.33,0,.65,0,1,0A25.75,25.75,0,0,0,23.66,107c.32-.11.62-.22.94-.35l0,0c.34.14.77.31,1.28.48s1.35.48,2.47.83,2.28.67,3.33.91,2.51.55,4,.78c1.23.21,2.59.38,4.41.57,1.52.14,3.13.23,4.8.25h.51c1.53,0,3.06-.06,4.43-.16,1.74-.13,3.35-.31,4.93-.56,1.74-.28,3.28-.6,4.71-1,1.81-.47,3.14-.86,4.31-1.28A39.36,39.36,0,0,0,67.44,106l.65.39.22.11c1,.56,2.37,1.31,4.08,2.1.77.37,1.72.77,3,1.26,1,.42,2.19.82,3.38,1.2s2.51.74,3.74,1a37.81,37.81,0,0,0,4,.73c.61.08,1.29.16,2,.21s1.33.11,2,.12c.38,0,.77,0,1.15,0,.87,0,1.81,0,2.8-.13a33.33,33.33,0,0,0,6.82-1.32c.65-.2,1.28-.41,1.91-.65l.27.07.1,0a24.26,24.26,0,0,0,4.33.72c.79.07,1.68.11,2.61.11.72,0,1.49,0,2.28-.07.42,0,.83-.06,1.23-.09s.84-.08,1.26-.14c.79-.1,1.6-.23,2.4-.39a24.75,24.75,0,0,0,4.22-1.24,17,17,0,0,0,2-.92,20.53,20.53,0,0,0,1.92,1.29,23,23,0,0,0,2.95,1.49,27.72,27.72,0,0,0,3.46,1.21,26.83,26.83,0,0,0,7.45,1.06H140a22.78,22.78,0,0,0,4.08-.44,25.72,25.72,0,0,0,3.71-1,30.88,30.88,0,0,0,6.13-2.88,26.26,26.26,0,0,0,3.75-2.76,26.07,26.07,0,0,0,9.74-5.4,22.9,22.9,0,0,0,4.15-4.85,16.16,16.16,0,0,0,2.3-6.19,13.13,13.13,0,0,0-.65-6.34,14.65,14.65,0,0,0-2.9-4.8,11.53,11.53,0,0,0-1.76-1.57l-.07-.33v-.06l0-.09,0-.1c-.06-.2-.14-.41-.23-.65l-.1-.24a8.37,8.37,0,0,0-.59-1.29,2.29,2.29,0,0,1-.14-.27,8,8,0,0,0-.56-1l-.22-.33c-.18-.28-.37-.57-.58-.85l0,0,0,0-.53-.67L165,71.5l-.05,0-.05-.06-.52-.56-.6-.64,0,0,0,0c-.28-.28-.58-.56-.89-.84l-.43-.41,0,0,0,0a31.15,31.15,0,0,0-3.21-2.45,30,30,0,0,0-3.78-2.11,27.82,27.82,0,0,0-4.25-1.56c-.6-.16-1.19-.3-1.77-.41.1-.36.18-.72.25-1.08a13.62,13.62,0,0,0,.19-2.5,15.62,15.62,0,0,0-.25-2.52,16.93,16.93,0,0,0-.65-2.48,14.85,14.85,0,0,0-1-2.36,15,15,0,0,0-1.38-2.13,13.42,13.42,0,0,0-1.67-1.79l-.28-.24c0-.32,0-.64,0-1a9.7,9.7,0,0,0-.1-1.83,6.54,6.54,0,0,0-.2-1.2c0-.07,0-.15-.05-.22a5.24,5.24,0,0,0-.26-.94l-.08-.24c-.09-.26-.18-.52-.29-.78l0,0,0-.05-.47-1,0-.1-.06-.1-.35-.54-.25-.4-.06-.09-.07-.09-.21-.27c-.18-.23-.36-.46-.56-.68l0,0v0a13.84,13.84,0,0,0-2-1.82,12.78,12.78,0,0,0-2.31-1.38,13.76,13.76,0,0,0-2.46-.91,14.26,14.26,0,0,0-2.53-.4h-1.18c-.46,0-.85.08-1.15.12a12.43,12.43,0,0,0-1.82.46l-.48-.74-.06-.09-.06-.08-.68-.84a7.66,7.66,0,0,0-.88-1l-.07-.07-.25-.25a8,8,0,0,0-.71-.64l-.07-.06a16.47,16.47,0,0,0-1.87-1.38,14.18,14.18,0,0,0-1.58-.92l-.5-.26-.09-.05-.1,0-.56-.24a14.74,14.74,0,0,0-1.68-.65l-1-.33-.08,0-.08,0-1.07-.26c-.64-.16-1.27-.26-1.88-.35l-.46-.07-.08,0h-.08l-.64-.06-.53-.05a11.78,11.78,0,0,0-.38-1.73c-.06-.2-.11-.39-.16-.59v-.06a15.88,15.88,0,0,0-.63-1.71l-.28-.69,0-.08,0-.07c-.25-.51-.5-1-.76-1.5l-.33-.64,0-.06,0-.05c-.27-.47-.57-.93-.86-1.38l-.41-.64v0l0,0c-.31-.48-.65-.91-1-1.33l-.45-.59a13.56,13.56,0,0,0-1.12-1.36c-.15-.18-.31-.35-.47-.53v0l0,0-.77-.86-.05-.06,0,0-.81-.78a35.37,35.37,0,0,0-3.17-2.79l-.46-.37L100,7.22l-.07,0L99,6.53a24.62,24.62,0,0,0-3.16-2l-.62-.34a14.88,14.88,0,0,0-1.55-.79l-2.07-.89a12.07,12.07,0,0,0-1.69-.61l-.66-.2-.06,0-.06,0c-.23-.06-.46-.14-.68-.21A12.13,12.13,0,0,0,86.74,1L85.61.76A23.41,23.41,0,0,0,82,.21L79.69,0Z"/><path class="cls-2" d="M55.07,14.45a13.93,13.93,0,0,1,2.53-3.22A20.87,20.87,0,0,1,61,8.78,28.56,28.56,0,0,1,64.78,7,35.1,35.1,0,0,1,68.86,5.7a37.21,37.21,0,0,1,4.21-.8c.7-.09,1.41-.17,2.13-.22l.46,0h1.66l2.22,0,2.08.21a30.45,30.45,0,0,1,4.16.72,18.2,18.2,0,0,1,2,.61,15.27,15.27,0,0,1,2,.7l2,.85c.65.28,1.24.68,1.86,1A33.29,33.29,0,0,1,97.17,11a37,37,0,0,1,3.17,2.83l.75.75.68.81a20.71,20.71,0,0,1,1.33,1.64c.4.58.83,1.14,1.2,1.74l1.07,1.81.91,1.86c.24.64.52,1.28.73,1.92a12.3,12.3,0,0,1,.48,1.9c0,.3.13.68.12.9l0,1.11v0a1.47,1.47,0,0,0,1.51,1.43l.17,0a2.56,2.56,0,0,0,.94-.46l.12-.07,0,0s0,0,0,0h0l.07,0a1.45,1.45,0,0,1,.26-.07,3.27,3.27,0,0,1,.53,0,17.18,17.18,0,0,1,2,0,16.9,16.9,0,0,1,2,.29l1,.23,1,.31a16.21,16.21,0,0,1,1.89.76,16.89,16.89,0,0,1,1.75,1,14.45,14.45,0,0,1,1.63,1.19c.27.2.49.46.74.68a6.69,6.69,0,0,1,.69.72l.66.77.57.82a5.78,5.78,0,0,1,.52.86c.15.3.33.59.46.89a14.23,14.23,0,0,1,.66,1.9,12.24,12.24,0,0,1,.37,2c0,.18,0,.31.06.5s0,.36,0,.51c0,.32,0,.67,0,1a9.39,9.39,0,0,1-.36,2,7.85,7.85,0,0,1-.8,1.8q-.27.42-.57.81a2.43,2.43,0,0,0-.54.88v0a.34.34,0,0,0,.22.42.31.31,0,0,0,.19,0,1.91,1.91,0,0,0,.94-.65A8.53,8.53,0,0,0,128,45.76a10.31,10.31,0,0,0,.47-2.19,10.69,10.69,0,0,0,.06-1.13,6.93,6.93,0,0,0,0-1.11,12.64,12.64,0,0,0-.35-2.19,14.2,14.2,0,0,0-.66-2.13c-.14-.35-.32-.67-.48-1a6.3,6.3,0,0,0-.55-1l-.61-.94-.7-.87a8.36,8.36,0,0,0-.76-.81c-.28-.26-.52-.54-.82-.77a16.48,16.48,0,0,0-1.78-1.33,18.49,18.49,0,0,0-1.94-1.09c-.68-.28-1.35-.61-2-.82L116.7,28l-1.07-.26c-.72-.17-1.45-.27-2.18-.39a22,22,0,0,0-2.22-.15,4.89,4.89,0,0,1-.54,0l-.26-.06-.07,0h-.11l-.15,0a3.35,3.35,0,0,0-1.18-.26l1.69,1.45V26.79l0-.31-.08-.63a14.2,14.2,0,0,0-.53-2.4c-.22-.78-.56-1.48-.85-2.23s-.7-1.4-1.06-2.09-.83-1.32-1.24-2-.92-1.24-1.38-1.86-1-1.18-1.49-1.77l-.77-.86-.83-.8a40,40,0,0,0-3.48-3A36.07,36.07,0,0,0,95,6.33c-.68-.35-1.33-.78-2-1.07l-2.12-.91a19.36,19.36,0,0,0-2.18-.75A21.61,21.61,0,0,0,86.41,3a32.75,32.75,0,0,0-4.57-.75L79.51,2,77.29,2l-1.1,0h-.91l-.29,0c-.76.05-1.52.15-2.27.25a39.85,39.85,0,0,0-4.48.88,35.31,35.31,0,0,0-4.37,1.41,31.89,31.89,0,0,0-4.16,2A23.14,23.14,0,0,0,56,9.49a16.48,16.48,0,0,0-2.89,3.74l0,.08a1.17,1.17,0,0,0,.47,1.59A1.18,1.18,0,0,0,55.07,14.45Z"/><path class="cls-2" d="M127.23,38l.23-.12a6.18,6.18,0,0,1,.61-.29,10.19,10.19,0,0,1,2.31-.73c.24,0,.5-.09.76-.11l.87,0a10,10,0,0,1,1.75.24,10.1,10.1,0,0,1,1.85.63,10.36,10.36,0,0,1,1.77,1A10.22,10.22,0,0,1,138.92,40c.22.25.42.51.64.76l.54.8.43.83c.13.28.23.57.34.84a8.37,8.37,0,0,1,.23.82,3.58,3.58,0,0,1,.15.78,8.1,8.1,0,0,1,.13,1.4,8.68,8.68,0,0,1,0,1.09,8,8,0,0,1-.14.94.56.56,0,0,0,.43.67.55.55,0,0,0,.66-.41v0a9,9,0,0,0,.19-1,12.1,12.1,0,0,0,.09-1.21,8.91,8.91,0,0,0-.09-1.58,4,4,0,0,0-.15-.89,6.89,6.89,0,0,0-.23-.95c-.12-.31-.22-.64-.36-1l-.47-1-.6-1c-.23-.29-.46-.6-.71-.89a12.17,12.17,0,0,0-1.72-1.56,12,12,0,0,0-4.11-2,11.09,11.09,0,0,0-2.14-.34c-.34,0-.57,0-1,0a7,7,0,0,0-.93.1,9.85,9.85,0,0,0-2.71.88c-.31.16-.55.29-.71.39l-.22.13a.79.79,0,0,0-.27,1.09A.8.8,0,0,0,127.23,38Z"/><path class="cls-2" d="M138.31,47.33l.95.28c.27.13.6.23,1,.43l.57.31.61.42a10.21,10.21,0,0,1,2.37,2.5,12.23,12.23,0,0,1,1,1.7,16.12,16.12,0,0,1,.72,1.9,12.39,12.39,0,0,1,.43,2,11.71,11.71,0,0,1,.14,1.95,9,9,0,0,1-.17,1.75,8.3,8.3,0,0,1-.47,1.48A7.41,7.41,0,0,1,144.17,64c-.38.43-.62.65-.62.65A.94.94,0,0,0,144.82,66l0,0s.29-.27.74-.79a9.26,9.26,0,0,0,1.49-2.47,8.91,8.91,0,0,0,.54-1.85,11,11,0,0,0,.16-2.11,12.9,12.9,0,0,0-.22-2.19,14,14,0,0,0-2.67-6.11,11.28,11.28,0,0,0-1.41-1.5,10.1,10.1,0,0,0-1.48-1.1l-.72-.39-.68-.28a8.83,8.83,0,0,0-1.17-.34l-1-.15a.32.32,0,0,0-.37.27A.34.34,0,0,0,138.31,47.33Z"/><path class="cls-2" d="M122.37,74.15l1-.34a20.5,20.5,0,0,1,2.71-.67c.57-.1,1.18-.17,1.81-.28s1.3-.23,2-.29,1.39-.09,2.16-.1a12.72,12.72,0,0,1,2.13.15,7.08,7.08,0,0,1,2,.59,4.7,4.7,0,0,1,1.58,1.11,5.71,5.71,0,0,1,1,1.52,8.39,8.39,0,0,1,.58,1.63l.17.77c0,.25.07.49.1.71s0,.27,0,.29,0,.21,0,.31,0,.4,0,.57c0,.68,0,1.06,0,1.06a.49.49,0,0,0,1,0s0-.38.07-1.06l0-.56,0-.32c0-.13,0-.26,0-.4s0-.51,0-.79-.08-.56-.13-.87a10.26,10.26,0,0,0-.55-1.94,6.8,6.8,0,0,0-1.23-2,6.23,6.23,0,0,0-2-1.54,8.39,8.39,0,0,0-2.41-.78,13.72,13.72,0,0,0-2.47-.2,19.62,19.62,0,0,0-2.31.19,18.14,18.14,0,0,0-2.13.45,10.34,10.34,0,0,0-1.81.71c-1.08.52-2,1-2.54,1.34l-.92.56a.08.08,0,0,0,0,.11A.07.07,0,0,0,122.37,74.15Z"/><path class="cls-2" d="M131.52,72.24l.35-.33a12.17,12.17,0,0,1,1-.85c.43-.34.94-.76,1.58-1.18a19,19,0,0,1,8.26-3q.44-.06.87-.09l.22,0h.2s.08,0-.07,0h1.46a5.56,5.56,0,0,1,.93,0c.58.08,1.15.08,1.76.21s1.22.2,1.81.38a23.72,23.72,0,0,1,3.52,1.25,27.06,27.06,0,0,1,3.19,1.74,28.83,28.83,0,0,1,2.76,2c.4.36.81.7,1.17,1l1,1,.87,1c.25.33.47.66.69,1a9.78,9.78,0,0,1,.53.88,3.51,3.51,0,0,1,.37.76c.1.23.19.43.26.61s.08.33.11.45l.09.38.06.22a1.18,1.18,0,0,0,2.29-.53l-.12-.56-.15-.67c-.08-.24-.19-.51-.31-.82a5.59,5.59,0,0,0-.44-1,12.09,12.09,0,0,0-.61-1.08c-.25-.36-.5-.76-.78-1.15l-.95-1.19-1.12-1.2c-.4-.4-.84-.79-1.28-1.2a27.65,27.65,0,0,0-3-2.29,28.48,28.48,0,0,0-3.53-2,27,27,0,0,0-3.93-1.44,22.39,22.39,0,0,0-4.23-.73,6,6,0,0,0-1,0l-1,0h-.81l-.25,0c-.34,0-.68.07-1,.12a19,19,0,0,0-6.85,2.37,17.58,17.58,0,0,0-2.38,1.65,16.6,16.6,0,0,0-1.62,1.52c-.43.48-.74.85-.92,1.09l-.3.38a.87.87,0,0,0,.16,1.22A.87.87,0,0,0,131.52,72.24Z"/><path class="cls-2" d="M160.07,79.64a5,5,0,0,1,.57-.19,5.18,5.18,0,0,1,1.68-.19,6.78,6.78,0,0,1,1.19.14l.66.18.69.28a8.44,8.44,0,0,1,2.77,2.1,10.87,10.87,0,0,1,2.09,3.6,9.38,9.38,0,0,1,.39,4.59,12.76,12.76,0,0,1-1.83,4.61,19.58,19.58,0,0,1-3.51,3.95,20.9,20.9,0,0,1-4.44,2.92,23.16,23.16,0,0,1-4.84,1.77,26,26,0,0,1-4.78.6,24,24,0,0,1-4.27-.34,24.46,24.46,0,0,1-3.52-.93c-1-.36-1.92-.68-2.65-1s-1.29-.6-1.69-.78a4.14,4.14,0,0,0-.65-.21h0a.37.37,0,0,0-.44.3.36.36,0,0,0,.05.27,3.61,3.61,0,0,0,.45.56,13.11,13.11,0,0,0,1.54,1.23,12.69,12.69,0,0,0,2.69,1.51,20.54,20.54,0,0,0,3.84,1.16,22.09,22.09,0,0,0,4.74.41,25.09,25.09,0,0,0,5.22-.7,26.06,26.06,0,0,0,5.27-2,23.19,23.19,0,0,0,4.8-3.28,20.64,20.64,0,0,0,3.8-4.44,14.2,14.2,0,0,0,2-5.41,10.94,10.94,0,0,0-.55-5.36,12.55,12.55,0,0,0-2.5-4.14,10,10,0,0,0-3.35-2.41l-.85-.32-.82-.21a8,8,0,0,0-1.5-.13,6.6,6.6,0,0,0-2.08.29l-.53.18-.16.07a.7.7,0,0,0,.36,1.34Z"/><path class="cls-2" d="M157.11,103.68l-.32.31c-.2.19-.5.49-.89.81a22.43,22.43,0,0,1-3.54,2.45,28,28,0,0,1-5.59,2.39,23.76,23.76,0,0,1-3.33.78,21.22,21.22,0,0,1-3.5.23,23.76,23.76,0,0,1-6.74-1.19,30.06,30.06,0,0,1-5.44-2.49c-.77-.44-1.47-.84-2.06-1.23s-1.13-.73-1.54-1-.75-.54-1-.7l-.35-.25,0,0a.68.68,0,0,0-.89,1l.31.33c.21.2.48.54.89.9a17.37,17.37,0,0,0,1.51,1.28,19.9,19.9,0,0,0,2.12,1.45,21.56,21.56,0,0,0,2.72,1.38,29.4,29.4,0,0,0,3.21,1.12,25.22,25.22,0,0,0,7.31,1,23.13,23.13,0,0,0,3.7-.4,25.91,25.91,0,0,0,3.47-1,30.44,30.44,0,0,0,5.74-2.69,23.54,23.54,0,0,0,3.6-2.68c.42-.37.7-.67.9-.88l.3-.31a.41.41,0,0,0,0-.58A.42.42,0,0,0,157.11,103.68Z"/><path class="cls-2" d="M124.08,105.43l-.26.11c-.17.07-.41.18-.71.28-.6.23-1.49.52-2.55.82a30.73,30.73,0,0,1-8.07,1c-3,0-5.94-.37-8.22-.4l-1.55-.06a8.79,8.79,0,0,0-1.23.07,8.57,8.57,0,0,1-1.07,0,.33.33,0,0,0-.35.31.34.34,0,0,0,.22.33s.37.13,1,.43a7.62,7.62,0,0,0,1.15.49l1.54.42a21.39,21.39,0,0,0,4,.65,30.84,30.84,0,0,0,4.62,0c.41,0,.79,0,1.17-.09s.79-.07,1.18-.12c.77-.1,1.53-.22,2.26-.37a23.63,23.63,0,0,0,3.9-1.14,16.35,16.35,0,0,0,2.59-1.28c.31-.18.52-.32.67-.42l.23-.16a.51.51,0,0,0,.15-.71A.52.52,0,0,0,124.08,105.43Z"/><path class="cls-2" d="M100.07,60.28v-.12c0-.09,0-.17,0-.36a8.93,8.93,0,0,0-.18-1.29,8.83,8.83,0,0,0-.67-2,9.71,9.71,0,0,0-1.47-2.25,11.82,11.82,0,0,0-2.4-2.1,12.93,12.93,0,0,0-3.24-1.54,11,11,0,0,0-3.89-.56,7.57,7.57,0,0,0-1,.13,7.69,7.69,0,0,0-1,.22c-.64.15-1.26.37-1.89.57a25.74,25.74,0,0,0-3.61,1.57,22.13,22.13,0,0,0-3.23,2.05,17.49,17.49,0,0,0-2.63,2.51,13.35,13.35,0,0,0-1.81,2.76c-.11.23-.23.45-.34.67s-.16.46-.23.68c-.15.45-.31.87-.41,1.27a8.68,8.68,0,0,0-.19,2.15c.08.59.15,1,.19,1.37a1.89,1.89,0,0,0,.11.47.48.48,0,0,0,.63.24.43.43,0,0,0,.23-.23l0-.07A2.14,2.14,0,0,0,73.2,66l.22-1.22a7.21,7.21,0,0,1,.23-.84c.08-.3.14-.63.2-1s.25-.69.37-1.07c.07-.19.13-.39.21-.58l.31-.57a12.54,12.54,0,0,1,1.59-2.36,15.68,15.68,0,0,1,2.35-2.23,19.89,19.89,0,0,1,2.93-1.95,25,25,0,0,1,3.31-1.54c.58-.2,1.16-.41,1.75-.56.29-.09.58-.17.85-.23l.41-.1.46-.07a9.72,9.72,0,0,1,3.4.09,10.83,10.83,0,0,1,5.39,3,9.25,9.25,0,0,1,1.49,2,6.82,6.82,0,0,1,.71,1.79,7.63,7.63,0,0,1,.23,1.26l0,.43a.21.21,0,0,0,.23.2A.21.21,0,0,0,100.07,60.28Z"/><path class="cls-2" d="M71.8,59.2a1.28,1.28,0,0,0,.11-.44v-.22l0-.12,0-.16a.82.82,0,0,0-.05-.22c0-.1-.08-.21-.13-.33a3.82,3.82,0,0,0-.86-1.12,7.21,7.21,0,0,0-1.31-1,14.14,14.14,0,0,0-8.15-1.83c-.36,0-.74.07-1.14.13s-.75.12-1.11.21a16.88,16.88,0,0,0-2.12.62,17.83,17.83,0,0,0-3.5,1.72,18.07,18.07,0,0,0-2.21,1.64c-.5.44-.77.71-.77.71h0a.78.78,0,0,0,0,1.11.79.79,0,0,0,1.11,0s.24-.24.7-.64a16.32,16.32,0,0,1,2-1.49,17.67,17.67,0,0,1,3.2-1.57,15.89,15.89,0,0,1,1.92-.56,14.72,14.72,0,0,1,2-.32,12.62,12.62,0,0,1,2,0,14,14,0,0,1,2,.29,11.27,11.27,0,0,1,3.27,1.22,7.47,7.47,0,0,1,1.1.77,3.1,3.1,0,0,1,.57.66.35.35,0,0,0,.05.08s0,.12,0,.17l0,.17h0s0-.17,0-.09h0s0,0,0,.06a.66.66,0,0,0,1.22.5Z"/><path class="cls-2" d="M61.4,62.82a.69.69,0,0,0,.06-.17.71.71,0,0,0-.11-.53A3.78,3.78,0,0,0,60,61a19.61,19.61,0,0,0-5.66-1.93,27.69,27.69,0,0,0-4-.49,14,14,0,0,0-2.23,0c-.74.08-1.46.08-2.25.24A29.26,29.26,0,0,0,41.12,60c-.77.28-1.56.53-2.32.85s-1.54.64-2.29,1S35,62.59,34.3,63l-2.13,1.26-2,1.35c-.65.47-1.28,1-1.9,1.43a41.72,41.72,0,0,0-3.38,3l-.76.74-.7.77c-.45.51-.92,1-1.3,1.48L21,74.43l-.92,1.38a8.78,8.78,0,0,0-.74,1.26c-.22.4-.42.77-.59,1.11-.33.68-.53,1.26-.69,1.63l-.23.59a1.45,1.45,0,1,0,2.69,1.08v0l.07-.17s.06-.18.18-.5.28-.81.55-1.41c.14-.3.31-.63.49-1a10,10,0,0,1,.62-1.14c.25-.4.51-.82.78-1.27l1-1.34a15.83,15.83,0,0,1,1.15-1.41l.63-.73.69-.71a39.83,39.83,0,0,1,3.12-2.88c.58-.46,1.16-.94,1.77-1.39l1.88-1.34,2-1.24,2.07-1.14c.7-.36,1.42-.68,2.13-1s1.45-.58,2.17-.88,1.46-.48,2.18-.73,1.43-.35,2.13-.54,1.47-.24,2.19-.36a17.18,17.18,0,0,1,2-.17,26.18,26.18,0,0,1,3.82.14,22,22,0,0,1,5.6,1.28,3.67,3.67,0,0,1,1.31.79.36.36,0,0,1,.09.39.14.14,0,1,0,.25.11Z"/><path class="cls-2" d="M10.36,86.88,9.89,87a13,13,0,0,0-1.37.54,12.07,12.07,0,0,0-2,1.15,11.46,11.46,0,0,0-2.24,2A10.21,10.21,0,0,0,2.45,93.9a8.47,8.47,0,0,0-.42,2A5.91,5.91,0,0,0,2,97a6.89,6.89,0,0,0,.14,1A9.48,9.48,0,0,0,4,102a10.75,10.75,0,0,0,3.46,2.82,14.75,14.75,0,0,0,4.16,1.38,19.77,19.77,0,0,0,4.17.26A24.29,24.29,0,0,0,23,105.06a24.39,24.39,0,0,0,4.67-2.15,16,16,0,0,0,1.6-1.12h0a.88.88,0,0,0,.11-1.25.87.87,0,0,0-1.07-.23l-1.65.82a37.12,37.12,0,0,1-4.37,2,21.86,21.86,0,0,1-6.57,1.32,18.17,18.17,0,0,1-3.74-.2,12.41,12.41,0,0,1-3.58-1.16,9,9,0,0,1-2.88-2.28A7.71,7.71,0,0,1,4,97.68a5.36,5.36,0,0,1-.14-.89,4.8,4.8,0,0,1,0-.76,6.73,6.73,0,0,1,.3-1.56,8.23,8.23,0,0,1,1.46-2.6A9.94,9.94,0,0,1,7.49,90.1a11.76,11.76,0,0,1,1.72-1,12.27,12.27,0,0,1,1.21-.5l.47-.17a.8.8,0,0,0-.53-1.52Z"/><path class="cls-2" d="M28.5,78.82l-.31-.1c-.21-.06-.5-.13-.9-.21a11.3,11.3,0,0,0-1.43-.18,8.42,8.42,0,0,0-.88,0h-.29l-.22,0-.47,0a12.74,12.74,0,0,0-2.19.41,23.28,23.28,0,0,0-2.31.78c-.39.15-.78.33-1.17.52s-.79.36-1.17.58L16,81.33l-1.12.73a21,21,0,0,0-2.11,1.65,24.75,24.75,0,0,0-1.86,1.83,18.88,18.88,0,0,0-1.49,2L9.09,88l-.27.51c-.16.34-.35.65-.48,1a7.86,7.86,0,0,0-.56,1.87c0,.29-.09.57-.12.82s0,.49,0,.71,0,.4,0,.57v.11c0,.1,0,.09,0,.13l0,.16.08.31a.81.81,0,0,0,1,.57A.8.8,0,0,0,9.45,94l0-.31v-.17s0-.09,0-.06v-.1a2.41,2.41,0,0,0,.07-.43l.06-.53c.06-.19.13-.39.18-.61a10.58,10.58,0,0,1,.5-1.46c.11-.26.27-.53.41-.8l.23-.43.28-.41A14.2,14.2,0,0,1,12.55,87a17.36,17.36,0,0,1,1.68-1.63,21.76,21.76,0,0,1,1.91-1.5l1-.69,1-.62c.35-.22.71-.38,1.06-.56a9.88,9.88,0,0,1,1.05-.49,18,18,0,0,1,2.06-.76c.33-.1.63-.16.94-.24l.44-.11.49-.08.85-.13.77-.06c.49,0,.92,0,1.27,0s.64,0,.82,0h.31a.68.68,0,0,0,.72-.65A.67.67,0,0,0,28.5,78.82Z"/><path class="cls-2" d="M61.88,11.93l-.51-.12a8.56,8.56,0,0,0-1.47-.16,10.43,10.43,0,0,0-2.3.19,12,12,0,0,0-2.87.91,13.32,13.32,0,0,0-3,1.84,11.83,11.83,0,0,0-2.74,3,9.52,9.52,0,0,0-1.48,4.16c0,.38,0,.77,0,1.16,0,.07,0,0,0,.2l0,.13,0,.26.06.52c.06.36.18.78.28,1.17s.26.73.4,1.09A12.28,12.28,0,0,0,50.78,30a14.07,14.07,0,0,0,3.47,2.6A17.27,17.27,0,0,0,58,34.09c.62.14,1.22.31,1.81.41s1.17.18,1.72.21l1.59.09,1.43,0a7.94,7.94,0,0,0,2.3-.33,13.7,13.7,0,0,0,1.4-.55,1.41,1.41,0,0,0,.46-.34.61.61,0,0,0-.09-.84.57.57,0,0,0-.13-.08h0a1.81,1.81,0,0,0-.53-.12c-.33,0-.8,0-1.4,0s-1.29,0-2.11.06l-1.29,0-1.43-.08a24.38,24.38,0,0,1-3.15-.53,17.16,17.16,0,0,1-3.3-1.26,12.16,12.16,0,0,1-3.07-2.15,10.31,10.31,0,0,1-2.26-3.06c-.11-.29-.25-.58-.35-.87s-.16-.54-.23-.86l-.08-.52,0-.26,0-.12v-.06c0-.31,0-.62,0-.92a7.91,7.91,0,0,1,1.13-3.44,10.79,10.79,0,0,1,2.28-2.68A12.61,12.61,0,0,1,55.3,14c.44-.24.9-.39,1.32-.57s.85-.31,1.23-.39a16.55,16.55,0,0,1,2.08-.4,13.63,13.63,0,0,1,1.86-.07.31.31,0,0,0,.33-.29.3.3,0,0,0-.21-.31Z"/><path class="cls-2" d="M53.69,30.74l-.16.13c-.1.1-.25.21-.46.41A11.55,11.55,0,0,0,51.53,33,10.49,10.49,0,0,0,50,35.8a8.35,8.35,0,0,0-.44,1.82,8.45,8.45,0,0,0,0,2,10.45,10.45,0,0,0,.35,1.88,7.17,7.17,0,0,0,.75,1.75,6.76,6.76,0,0,0,1.12,1.43,6.86,6.86,0,0,0,1.28,1,8.54,8.54,0,0,0,2.11.93c.53.16.83.23.83.23h0a.81.81,0,0,0,1-.6.82.82,0,0,0-.56-.95s-.26-.08-.71-.25c-.22-.08-.48-.2-.77-.33a10.24,10.24,0,0,1-.93-.53,5.24,5.24,0,0,1-.95-.78,4.84,4.84,0,0,1-.82-1,5.56,5.56,0,0,1-.56-1.34,7.58,7.58,0,0,1-.26-1.55,6.54,6.54,0,0,1,0-1.53,7.17,7.17,0,0,1,.32-1.46A8.72,8.72,0,0,1,52.93,34a11.64,11.64,0,0,1,1.28-1.49c.15-.16.32-.3.41-.39l.16-.14a.82.82,0,0,0,0-1.16A.81.81,0,0,0,53.69,30.74Z"/><path class="cls-2" d="M59.29,44.1l-.85.24a6,6,0,0,0-1,.3c-.39.15-.83.31-1.3.51s-.94.47-1.44.76a16.59,16.59,0,0,0-1.5,1l-.75.6-.71.68a14.64,14.64,0,0,0-1.35,1.48,18.41,18.41,0,0,0-1.15,1.63,18.84,18.84,0,0,0-1,1.67c-.26.57-.54,1.11-.74,1.65s-.39,1-.54,1.52a18.56,18.56,0,0,0-.59,2.35c-.09.59-.15.93-.15.93a1,1,0,0,0,1.95.29v-.08l.1-.82a18.55,18.55,0,0,1,.48-2.14,13.89,13.89,0,0,1,.45-1.39c.17-.5.41-1,.63-1.53s.51-1,.84-1.54a17.91,17.91,0,0,1,1-1.51,14,14,0,0,1,1.18-1.36l.62-.63.66-.55a13.73,13.73,0,0,1,1.32-1c.44-.27.88-.5,1.27-.72L57.91,46a8.42,8.42,0,0,1,.93-.31l.84-.26a.7.7,0,0,0,.47-.87A.71.71,0,0,0,59.29,44.1Z"/><path class="cls-2" d="M99.26,58.38l.71.21c.23.06.45.17.74.27s.59.28.93.44.7.39,1,.65.72.53,1.09.83l.53.5c.17.17.34.36.51.54a11.92,11.92,0,0,1,.92,1.2,10.2,10.2,0,0,1,.77,1.31,11.11,11.11,0,0,1,.57,1.35,12.12,12.12,0,0,1,.37,1.33c.08.43.15.84.19,1.23a11.29,11.29,0,0,1,0,1.87c0,.45-.08.71-.08.71a.3.3,0,0,0,.24.35.31.31,0,0,0,.34-.21h0a6.65,6.65,0,0,0,.19-.74,9.64,9.64,0,0,0,.21-2,13.49,13.49,0,0,0-.08-1.36,10.63,10.63,0,0,0-.3-1.49,10.48,10.48,0,0,0-.56-1.53,11.79,11.79,0,0,0-.81-1.48,13.64,13.64,0,0,0-1-1.35l-.56-.6-.6-.55a11.18,11.18,0,0,0-1.21-.93c-.39-.28-.81-.49-1.17-.7s-.73-.36-1.07-.48a8.2,8.2,0,0,0-.85-.3l-.71-.2a.6.6,0,0,0-.74.41A.61.61,0,0,0,99.26,58.38Z"/><path class="cls-2" d="M106.32,107.1s-.57.28-1.58.69a26.9,26.9,0,0,1-4.31,1.33,28,28,0,0,1-6.29.62c-.59,0-1.2,0-1.78,0s-1.18,0-1.78-.12-1.21-.11-1.82-.2-1.22-.17-1.82-.28a48.3,48.3,0,0,1-7-1.82q-1.65-.56-3.12-1.17c-1-.4-1.9-.81-2.73-1.22-1.68-.78-3-1.54-4-2.07s-1.46-.85-1.46-.85l0,0a1,1,0,0,0-1.06,1.78s.53.36,1.5.92,2.38,1.32,4.13,2.12c.87.41,1.83.81,2.85,1.22s2.12.79,3.26,1.16,2.35.69,3.58,1a36.09,36.09,0,0,0,3.76.69c.64.09,1.27.17,1.91.21s1.27.1,1.91.11a25.07,25.07,0,0,0,3.7-.1,30.87,30.87,0,0,0,6.42-1.24,26.24,26.24,0,0,0,4.27-1.7c1-.5,1.53-.82,1.53-.82h0a.1.1,0,0,0,0-.14A.09.09,0,0,0,106.32,107.1Z"/><path class="cls-2" d="M73.43,99.94l-.51.25c-.33.16-.81.42-1.43.69s-1.38.62-2.26,1-1.89.73-3,1.1c-2.22.71-4.81,1.51-7.65,2.13-1.42.3-2.9.55-4.4.77s-3.06.34-4.58.43-3.09.08-4.62,0-3-.17-4.44-.34a47.46,47.46,0,0,1-7.72-1.57c-1.1-.33-2.1-.65-3-1s-1.64-.61-2.25-.86c-1.24-.51-1.93-.83-1.93-.83h0a1.44,1.44,0,1,0-1.22,2.6l.08,0,.54.22c.36.13.87.35,1.54.58s1.48.52,2.41.82,2,.59,3.19.87,2.46.53,3.82.75,2.81.4,4.31.55,3,.22,4.63.24,3.21,0,4.76-.14,3.2-.3,4.76-.55,3.07-.55,4.52-.93,2.85-.77,4.14-1.23a36.93,36.93,0,0,0,3.58-1.46c1.08-.51,2-1,2.9-1.47s1.58-.89,2.17-1.26,1-.66,1.36-.86l.47-.31a.17.17,0,0,0-.17-.29Z"/><path class="cls-2" d="M117.39,100.87s-.71,0-2,0l-2.21.05c-.85,0-1.83.07-2.87.06s-2.18,0-3.38,0-2.47-.11-3.77-.18-2.66-.2-4-.37-2.75-.35-4.12-.57S92.33,99.3,91,99s-2.66-.6-3.91-1-2.46-.73-3.6-1.06-2.22-.72-3.19-1.1-1.87-.69-2.65-1-1.46-.61-2-.86l-1.76-.76,0,0a.79.79,0,0,0-.67,1.43l1.75.89c.55.3,1.25.58,2,.93s1.71.71,2.71,1.1,2.09.75,3.25,1.15,2.41.74,3.7,1,2.65.63,4,.92,2.77.51,4.18.71,2.82.37,4.22.48,2.76.21,4.09.27,2.62.07,3.84,0,2.37,0,3.43-.1,2-.11,2.88-.19,1.61-.19,2.23-.28c1.22-.19,1.91-.35,1.91-.35a.22.22,0,0,0,.16-.25A.2.2,0,0,0,117.39,100.87Z"/><path class="cls-2" d="M80.21,91.85s-.56.2-1.51.51a25.21,25.21,0,0,1-4,.88,40.4,40.4,0,0,1-5.88.18c-1.1,0-2.23,0-3.4,0a26.88,26.88,0,0,0-3.56.31c-2.33.35-4.58.65-6.75.76l-5.91.3c-1.73.09-3.18.16-4.19.17a10.88,10.88,0,0,0-1.61.13.29.29,0,0,0-.24.34.3.3,0,0,0,.19.23,8.24,8.24,0,0,0,1.59.38c.51.08,1.13.14,1.85.22s1.53.15,2.41.18,1.85.06,2.86,0,2.08-.13,3.19-.23,2.23-.23,3.39-.4,2.32-.37,3.46-.56a25.54,25.54,0,0,1,3.37-.37c1.13,0,2.25-.07,3.35-.09a42.36,42.36,0,0,0,6-.43A13.33,13.33,0,0,0,79,93.09a8.62,8.62,0,0,0,1-.63,3.68,3.68,0,0,0,.34-.26h0a.19.19,0,0,0,0-.28A.23.23,0,0,0,80.21,91.85Z"/><path class="cls-2" d="M38.22,96.06l-.73.25c-.46.16-1.12.36-1.91.56a19,19,0,0,1-2.74.46c-.53,0-1,.08-1.57.08s-1.06,0-1.62,0A26.67,26.67,0,0,1,26.48,97l-2.77-.49c-.82-.15-1.5-.32-2-.43a3.45,3.45,0,0,0-.77-.12.25.25,0,0,0-.27.25.25.25,0,0,0,.09.2,3.33,3.33,0,0,0,.67.43c.45.23,1.1.53,1.9.86a16,16,0,0,0,2.84.86,20.56,20.56,0,0,0,3.4.38,14.56,14.56,0,0,0,1.75,0c.54,0,1.15-.12,1.67-.21a14.55,14.55,0,0,0,2.89-.77A10.46,10.46,0,0,0,37.81,97a7.08,7.08,0,0,0,.66-.43h0a.28.28,0,0,0,.05-.39A.29.29,0,0,0,38.22,96.06Z"/><path class="cls-2" d="M135,100.06s-1.23-.53-3.11-1.25l-3.19-1.23c-1.15-.48-2.38-1-3.59-1.51-.59-.28-1.19-.55-1.76-.86s-1.12-.61-1.66-.9c-1-.62-2-1.2-2.84-1.77-.41-.27-.77-.54-1.08-.79a9,9,0,0,1-.79-.67c-.43-.39-.69-.59-.69-.59l0,0a.29.29,0,0,0-.41,0,.29.29,0,0,0,0,.35s.2.28.58.74c.19.24.44.51.73.81s.61.65,1,1a14.05,14.05,0,0,0,1.27,1.08A18.46,18.46,0,0,0,121,95.56a38.29,38.29,0,0,0,3.55,1.87c1.24.56,2.5,1.09,3.69,1.51s2.3.83,3.25,1.14l3.18,1a.57.57,0,0,0,.4-1.06Z"/><path class="cls-2" d="M115.11,95.55s-.86.14-2.16.27-3,.27-4.76.3-3.47-.07-4.78-.11l-2.18-.1a.17.17,0,0,0,0,.34h0a19.59,19.59,0,0,0,2.17.41,28.16,28.16,0,0,0,4.85.31c.89,0,1.77,0,2.6-.13s1.59-.19,2.25-.29c1.31-.23,2.16-.46,2.16-.46h0a.28.28,0,0,0-.11-.54Z"/><path class="cls-2" d="M26.26,98.68l-.11.43a2,2,0,0,1-.14.43,3.14,3.14,0,0,1-.24.5,6.27,6.27,0,0,1-2.17,2.24c-.25.15-.5.3-.76.43a4.5,4.5,0,0,0-.75.41,11.82,11.82,0,0,1-1.37.74,8.32,8.32,0,0,1-1,.43l-.41.15,0,0a.57.57,0,0,0-.29.75.55.55,0,0,0,.49.34s.18,0,.48,0a9.48,9.48,0,0,0,1.27-.14A11.38,11.38,0,0,0,23,105a3.81,3.81,0,0,0,.92-.47,10.68,10.68,0,0,0,.87-.63,9.44,9.44,0,0,0,.81-.72,8.84,8.84,0,0,0,.71-.8,7,7,0,0,0,.95-1.64,4.68,4.68,0,0,0,.26-.74,3.27,3.27,0,0,0,.13-.57l.06-.44a.72.72,0,0,0-.6-.82A.74.74,0,0,0,26.26,98.68Z"/><path class="cls-2" d="M22.48,98l-.11.38a3.55,3.55,0,0,1-.37.88,4.57,4.57,0,0,1-.32.55,7.1,7.1,0,0,1-.43.57,9,9,0,0,1-1.15,1.06,12.61,12.61,0,0,1-2.62,1.44c-.37.18-.69.3-.91.41a3.68,3.68,0,0,0-.35.17h0a.5.5,0,0,0-.2.69.52.52,0,0,0,.49.26A6.71,6.71,0,0,0,18,104a10.28,10.28,0,0,0,2.89-1.69,6.78,6.78,0,0,0,2-2.73,5.31,5.31,0,0,0,.3-1.1l0-.4a.37.37,0,0,0-.33-.42A.37.37,0,0,0,22.48,98Z"/><path class="cls-2" d="M19.23,98.83l-1.09.7c-.31.22-.7.44-1.1.68s-.85.46-1.29.69l-1.29.65c-.42.19-.81.37-1.15.51l-1.15.46a.43.43,0,0,0-.24.56.42.42,0,0,0,.39.27,2.58,2.58,0,0,0,.37,0,5.69,5.69,0,0,0,1-.14,8.58,8.58,0,0,0,2.77-1.12,9.49,9.49,0,0,0,1.26-1,10.19,10.19,0,0,0,1-1,7.31,7.31,0,0,0,.82-1h0a.21.21,0,0,0-.06-.28A.2.2,0,0,0,19.23,98.83Z"/><path class="cls-2" d="M15.09,97.86l-.24.17-.6.38c-.25.16-.56.32-.89.49s-.7.31-1,.5c-.68.4-1.34.88-1.86,1.23-.26.18-.48.32-.63.44a1.43,1.43,0,0,0-.22.21.27.27,0,0,0,0,.39.26.26,0,0,0,.16.07,1.17,1.17,0,0,0,.3,0,5.21,5.21,0,0,0,.78-.13,8.64,8.64,0,0,0,2.27-.72A10.13,10.13,0,0,0,15,99.34a6.5,6.5,0,0,0,.52-.6l.18-.24a.45.45,0,0,0-.09-.63A.49.49,0,0,0,15.09,97.86Z"/><path class="cls-2" d="M9.8,97.88a.49.49,0,0,0-.09.1s-.06.06-.08.06l-.08.06a6.61,6.61,0,0,1-.68.49,8.07,8.07,0,0,0-.91.63,2.71,2.71,0,0,0-.4.41.39.39,0,0,0,.08.54.4.4,0,0,0,.36.06H8s.16-.06.42-.13.62-.16,1-.32a2.36,2.36,0,0,0,1.27-1,1.32,1.32,0,0,0,.09-.19.93.93,0,0,0,0-.13.66.66,0,0,0-.55-.75A.7.7,0,0,0,9.8,97.88Z"/><path class="cls-2" d="M68,96l-.28.51c-.18.32-.43.76-.78,1.27a18.93,18.93,0,0,1-2.87,3.46,14.36,14.36,0,0,1-3.65,2.46q-.41.19-.75.33a4.48,4.48,0,0,1-.59.22l-.53.19h0a.43.43,0,0,0-.24.55.43.43,0,0,0,.42.26l.61-.07a8.82,8.82,0,0,0,2.55-.84,9.25,9.25,0,0,0,1-.6,15.36,15.36,0,0,0,2-1.66,15,15,0,0,0,1.66-2,16.73,16.73,0,0,0,1.16-1.89,15.4,15.4,0,0,0,.88-2v0a.32.32,0,0,0-.2-.4A.33.33,0,0,0,68,96Z"/><path class="cls-2" d="M62.63,96.22l-.41.48c-.26.3-.61.71-1.07,1.2a27.35,27.35,0,0,1-3.63,3.2c-1.42,1-2.91,2-4,2.63-.57.34-1,.63-1.36.84s-.52.34-.52.34h0a.64.64,0,0,0-.13.88.61.61,0,0,0,.64.23l.62-.16a11.84,11.84,0,0,0,1.58-.62,17.93,17.93,0,0,0,2.08-1.19,20.84,20.84,0,0,0,2.18-1.68,27.21,27.21,0,0,0,1.94-1.93c.58-.66,1.1-1.29,1.5-1.85a14.21,14.21,0,0,0,.94-1.4l.32-.54a.39.39,0,0,0-.14-.52A.37.37,0,0,0,62.63,96.22Z"/><path class="cls-2" d="M54.91,97.49a12.1,12.1,0,0,0-1.63,1.37,35.63,35.63,0,0,1-3.38,3c-.32.23-.64.47-1,.68s-.67.38-1,.58-.59.42-.89.59-.55.37-.81.53c-.5.33-1,.58-1.26.78a3,3,0,0,0-.49.37h0a.31.31,0,0,0,0,.44.24.24,0,0,0,.15.09,3.71,3.71,0,0,0,.63.06,3,3,0,0,0,.71-.06,7.14,7.14,0,0,0,.91-.17,8.26,8.26,0,0,0,1.05-.32,9,9,0,0,0,1.11-.5,20.59,20.59,0,0,0,2.08-1.6,23.21,23.21,0,0,0,3.22-3.53,8.45,8.45,0,0,0,1.11-1.85v0a.36.36,0,0,0-.2-.46A.38.38,0,0,0,54.91,97.49Z"/><path class="cls-2" d="M47.63,98.15s-.4.42-1,1c-.3.29-.67.61-1.07,1a12.23,12.23,0,0,0-1.22,1.09c-.78.81-1.59,1.61-2.17,2.25-.29.31-.54.58-.7.78a2.49,2.49,0,0,0-.22.34.19.19,0,0,0,.09.26.22.22,0,0,0,.16,0,2,2,0,0,0,.36-.19c.21-.13.49-.34.83-.59.7-.5,1.62-1.17,2.52-1.89a7.61,7.61,0,0,0,1.19-1.22c.35-.42.67-.82.93-1.17s.47-.67.59-.88l.2-.33a.31.31,0,0,0-.1-.44A.32.32,0,0,0,47.63,98.15Z"/><path class="cls-2" d="M43.33,98.29s-.47.39-1.1,1-1.5,1.32-2.33,2.09l-1.23,1.12c-.4.36-.77.7-1.11,1s-.61.5-.81.66a2.32,2.32,0,0,0-.3.26h0a.39.39,0,0,0,.05.54.37.37,0,0,0,.33.08,2,2,0,0,0,.39-.14l1-.49A15.07,15.07,0,0,0,41,102.54,12.79,12.79,0,0,0,43.15,100c.25-.37.44-.72.56-.94l.17-.38h0a.37.37,0,0,0-.19-.47A.35.35,0,0,0,43.33,98.29Z"/><path class="cls-2" d="M37.53,99.2l-.14.12a3.27,3.27,0,0,1-.32.25c-.27.22-.66.45-1.07.74a6.76,6.76,0,0,0-1.14.93,2.55,2.55,0,0,0-.45.59.48.48,0,0,0,.21.63.46.46,0,0,0,.41,0h0s.23-.1.55-.27a8.42,8.42,0,0,0,1.21-.71,4.27,4.27,0,0,0,1.13-1.11,2.3,2.3,0,0,0,.27-.49l.06-.18a.47.47,0,0,0-.32-.58A.48.48,0,0,0,37.53,99.2Z"/><path class="cls-2" d="M98.59,104.2l-.24.3a5.14,5.14,0,0,1-.67.71,8.3,8.3,0,0,1-2.52,1.52c-.5.2-1,.42-1.45.65l-1.26.62a12.87,12.87,0,0,0-1.21.68.14.14,0,0,0,0,.19.14.14,0,0,0,.16,0s.51-.19,1.29-.45L94,108a7.77,7.77,0,0,0,1.48-.67,8.66,8.66,0,0,0,2.39-2,5.24,5.24,0,0,0,.56-.83Z"/><path class="cls-2" d="M95.28,102.9l-.41.18a10.13,10.13,0,0,0-1,.57c-.41.25-.87.56-1.35.89l-1.51,1c-.51.33-1,.65-1.49.93-.25.12-.47.26-.7.37s-.43.21-.64.29a9.29,9.29,0,0,1-1,.4l-.39.14,0,0a.51.51,0,0,0-.27.67.5.5,0,0,0,.45.3,4.17,4.17,0,0,0,.47,0,5.8,5.8,0,0,0,1.22-.19,9.51,9.51,0,0,0,3.26-1.66c.52-.4,1-.84,1.43-1.24s.83-.79,1.17-1.12c.65-.66,1.08-1.15,1.08-1.15a.25.25,0,0,0,0-.35.24.24,0,0,0-.24,0Z"/><path class="cls-2" d="M90.85,101.85a12.9,12.9,0,0,0-1.18.88c-.34.28-.72.62-1.13,1l-1.25,1.11c-.43.36-.84.73-1.24,1.06s-.81.58-1.17.79-.67.38-.89.48l-.35.17h0a.24.24,0,0,0-.11.31.23.23,0,0,0,.23.13l.41,0a5.32,5.32,0,0,0,1.07-.28,8.61,8.61,0,0,0,2.84-1.73,21.57,21.57,0,0,0,2.15-2.42c.54-.68.89-1.15.89-1.15a.17.17,0,0,0,0-.26.18.18,0,0,0-.21,0Z"/><path class="cls-2" d="M85.15,102.42l-.23.11a4.18,4.18,0,0,0-.58.39,13.11,13.11,0,0,0-1.41,1.32,8.78,8.78,0,0,1-1.25,1.22,4.63,4.63,0,0,1-.51.3,1.23,1.23,0,0,0-.2.13h0a.24.24,0,0,0-.06.33.24.24,0,0,0,.14.09,2.36,2.36,0,0,0,1,0,4.3,4.3,0,0,0,1.92-1,10.88,10.88,0,0,0,1.29-1.48c.17-.2.25-.35.36-.48a2,2,0,0,0,.15-.2.49.49,0,0,0-.58-.71Z"/><path class="cls-2" d="M83.12,99.36s-.51.42-1.24,1-1.76,1.32-2.82,2-2.06,1.41-2.83,2-1.29,1-1.29,1a.43.43,0,0,0-.06.6.41.41,0,0,0,.45.14,11.52,11.52,0,0,0,1.53-.59,16.84,16.84,0,0,0,3.1-1.82,22.5,22.5,0,0,0,2.65-2.46c.32-.37.59-.69.76-.92l.26-.36a.34.34,0,0,0-.07-.49A.35.35,0,0,0,83.12,99.36Z"/><path class="cls-2" d="M78.07,99.27a1.13,1.13,0,0,0-.14.15c-.1.12-.17.15-.3.29a11.08,11.08,0,0,1-1.08.85c-.45.31-1,.65-1.31,1a5.53,5.53,0,0,0-.57.54.52.52,0,0,0,0,.74.51.51,0,0,0,.55.09h0l.64-.28a15.56,15.56,0,0,0,1.45-.71,4.31,4.31,0,0,0,1.4-1.18,2.39,2.39,0,0,0,.33-.56,1.94,1.94,0,0,0,.07-.19.69.69,0,0,0-.47-.84A.67.67,0,0,0,78.07,99.27Z"/><path class="cls-2" d="M121,102.49l-.62,1a17.86,17.86,0,0,1-1.48,2A9.84,9.84,0,0,1,117.1,107c-.26.2-.49.34-.65.45l-.25.17h0a.38.38,0,0,0-.07.54.38.38,0,0,0,.36.15,4.26,4.26,0,0,0,1.17-.45,6.91,6.91,0,0,0,2-1.82,12.56,12.56,0,0,0,1.38-2.25c.3-.65.46-1.09.46-1.09h0a.29.29,0,0,0-.18-.37A.29.29,0,0,0,121,102.49Z"/><path class="cls-2" d="M116.61,102.58l-.24.26c-.15.18-.33.39-.59.66s-.53.58-.84.89-.7.61-1,.92l-1.06.88c-.34.28-.64.59-.91.84s-.52.44-.68.59a1.82,1.82,0,0,0-.25.28v0a.32.32,0,0,0,.09.45l.15.06a2.26,2.26,0,0,0,.39,0,5.41,5.41,0,0,0,1-.25,5.48,5.48,0,0,0,1.28-.55,6.8,6.8,0,0,0,1.25-1,8.8,8.8,0,0,0,1-1.22,10.33,10.33,0,0,0,.73-1.18,6.47,6.47,0,0,0,.49-1.24h0a.42.42,0,0,0-.31-.51A.41.41,0,0,0,116.61,102.58Z"/><path class="cls-2" d="M111.86,102.74s-.31.24-.76.63l-.75.66c-.27.24-.57.48-.84.75s-.47.59-.7.86-.45.51-.65.7c-.39.4-.68.65-.68.65a.27.27,0,0,0,0,.38.28.28,0,0,0,.32.07h0a7.8,7.8,0,0,0,.89-.48c.26-.16.54-.37.84-.59a10.32,10.32,0,0,0,.91-.75c.26-.3.47-.63.69-.92l.58-.8c.34-.46.59-.77.59-.77a.28.28,0,0,0-.05-.39.27.27,0,0,0-.35,0Z"/><path class="cls-2" d="M107.44,103.12l-.13.2a2,2,0,0,1-.33.42,4.89,4.89,0,0,1-1.36,1c-.28.17-.53.4-.79.59a9,9,0,0,0-.7.61,3.85,3.85,0,0,0-.46.49l-.16.21a.44.44,0,0,0,.07.62.45.45,0,0,0,.52,0l0,0a7.1,7.1,0,0,1,.68-.4l.75-.38a7.53,7.53,0,0,0,.91-.5,5.2,5.2,0,0,0,1.35-1.63,2.52,2.52,0,0,0,.25-.68l.05-.23a.38.38,0,0,0-.29-.44A.36.36,0,0,0,107.44,103.12Z"/><path class="cls-2" d="M150.48,105.21l-.15.28a5.86,5.86,0,0,1-.43.67,8.31,8.31,0,0,1-1.62,1.74,11.77,11.77,0,0,1-2,1.22l-1,.46a.34.34,0,0,0-.17.46.33.33,0,0,0,.33.19h0a4.87,4.87,0,0,0,1.17-.27,6.77,6.77,0,0,0,2.28-1.36,7,7,0,0,0,1.64-2.08,5.7,5.7,0,0,0,.45-1.1v0a.26.26,0,0,0-.19-.31A.26.26,0,0,0,150.48,105.21Z"/><path class="cls-2" d="M145.35,105.09s-.3.46-.75,1.08a9.82,9.82,0,0,1-2,1.94c-.4.29-.8.55-1.16.8s-.72.47-1.05.64a4.84,4.84,0,0,1-.82.37,2,2,0,0,0-.32.14h0a.35.35,0,0,0,.1.64,2.25,2.25,0,0,0,.4,0,5.57,5.57,0,0,0,1-.09,3.89,3.89,0,0,0,.7-.16,3.83,3.83,0,0,0,.74-.3,5,5,0,0,0,.7-.47,6,6,0,0,0,.64-.59,10,10,0,0,0,1.62-2.62,6.5,6.5,0,0,0,.35-.94l.1-.35a.16.16,0,0,0-.28-.13Z"/><path class="cls-2" d="M141.34,103.4a3.19,3.19,0,0,0-.15.38,1.85,1.85,0,0,1-.17.39c-.06.14-.12.29-.21.46a3.14,3.14,0,0,1-.3.52,6.31,6.31,0,0,1-.41.53c-.17.17-.33.34-.52.51s-.38.33-.56.51l-2.28,1.83c-.33.26-.61.46-.81.61a2.44,2.44,0,0,0-.3.24.44.44,0,0,0,0,.62.48.48,0,0,0,.39.12,2.51,2.51,0,0,0,.38-.12l1-.39a11.67,11.67,0,0,0,1.36-.65,7.5,7.5,0,0,0,1.39-1.07,6.55,6.55,0,0,0,1.11-1.43,5.87,5.87,0,0,0,.35-.78,3.75,3.75,0,0,0,.22-.73,3,3,0,0,0,.07-.65,1.61,1.61,0,0,0,0-.48,3.67,3.67,0,0,0-.1-.4.2.2,0,0,0-.26-.12A.17.17,0,0,0,141.34,103.4Z"/><path class="cls-2" d="M137.92,103a12.62,12.62,0,0,0-1,1c-.28.3-.61.65-.95,1s-.73.72-1.06,1.11l-1,1.07a6.1,6.1,0,0,1-1,.85,3.93,3.93,0,0,1-.44.28,2.18,2.18,0,0,1-.36.22l-.33.19h0a.2.2,0,0,0-.07.28.2.2,0,0,0,.17.11h.41a4.14,4.14,0,0,0,1.06-.17,6.63,6.63,0,0,0,1.45-.58,5.69,5.69,0,0,0,.71-.5,5.39,5.39,0,0,0,.65-.61,8.06,8.06,0,0,0,1-1.38c.27-.46.5-.88.7-1.24l.64-1.22a.36.36,0,0,0-.16-.49.35.35,0,0,0-.4,0Z"/><path class="cls-2" d="M134.51,102.05s-.28.33-.69.73a12.31,12.31,0,0,1-1.69,1.39,6,6,0,0,0-.87.79l-.76.73c-.23.22-.41.4-.55.52a1.35,1.35,0,0,0-.19.23.41.41,0,0,0,.14.55.4.4,0,0,0,.26.05,1.49,1.49,0,0,0,.29-.09l.7-.33c.29-.14.62-.31,1-.52a4.26,4.26,0,0,0,1-.73,14.4,14.4,0,0,0,1.53-1.88,7.36,7.36,0,0,0,.54-.94l0,0a.44.44,0,0,0-.22-.58A.44.44,0,0,0,134.51,102.05Z"/><path class="cls-2" d="M130.45,101.16s-.24.19-.55.47-.67.69-1,1.07a6.13,6.13,0,0,0-.49.54c-.15.19-.28.38-.41.53s-.49.46-.49.48a.28.28,0,0,0-.18.36.29.29,0,0,0,.37.18.63.63,0,0,0,.22,0,2.67,2.67,0,0,0,.59-.1,3.66,3.66,0,0,0,.81-.27,3,3,0,0,0,.75-.57,5.94,5.94,0,0,0,1.33-2v0a.6.6,0,0,0-.35-.77A.62.62,0,0,0,130.45,101.16Z"/><path class="cls-2" d="M126.52,99.57l-.42.42c-.25.24-.58.57-.94.88l-1,.85-.47.4a.21.21,0,0,0,0,.3.2.2,0,0,0,.23.06,4.83,4.83,0,0,0,.59-.23,6.72,6.72,0,0,0,1.21-.72,5.5,5.5,0,0,0,1-1,3.55,3.55,0,0,0,.34-.55v0a.33.33,0,0,0-.17-.44A.34.34,0,0,0,126.52,99.57Z"/><path class="cls-2" d="M122.88,97.89l-.09.07-.19.13c-.17.11-.42.25-.68.43a4.63,4.63,0,0,0-.75.58,1.71,1.71,0,0,0-.26.37.22.22,0,0,0,.11.31.23.23,0,0,0,.25,0,1.37,1.37,0,0,1,.28-.18,4.29,4.29,0,0,1,.73-.33,3.55,3.55,0,0,0,.82-.45,1.07,1.07,0,0,0,.24-.23l.08-.08a.41.41,0,0,0,0-.56A.42.42,0,0,0,122.88,97.89Z"/><path class="cls-2" d="M120.16,96.2l-.08,0a1.19,1.19,0,0,0-.25.11,2.56,2.56,0,0,0-.63.5c-.19.21-.37.41-.49.57l-.18.27a.49.49,0,0,0,.68.69h0l.27-.18c.15-.11.34-.26.54-.38l.51-.33c.07,0,.09-.07.15-.11l.07-.05a.66.66,0,0,0,.14-.9A.65.65,0,0,0,120.16,96.2Z"/><path class="cls-2" d="M44.87,66.12l-.83,0a17.44,17.44,0,0,0-2.2,0c-.46,0-1,.08-1.47.16s-1.06.19-1.62.29a25.35,25.35,0,0,0-3.45,1c-.56.23-1.14.45-1.68.72s-1.07.56-1.57.84A19.59,19.59,0,0,0,29.47,71a9.66,9.66,0,0,0-1.55,1.62c-.32.44-.49.7-.49.7a.43.43,0,0,0,.14.6.44.44,0,0,0,.49,0l0,0s.24-.18.63-.51c.18-.18.43-.37.7-.59s.57-.49.92-.75.7-.56,1.1-.86.85-.57,1.31-.87.94-.57,1.46-.82,1-.52,1.55-.77A28.75,28.75,0,0,1,39,67.57c.53-.13,1-.29,1.54-.38s1-.21,1.4-.28.83-.14,1.19-.18.66-.09.93-.11l.82-.07a.21.21,0,0,0,.19-.23A.21.21,0,0,0,44.87,66.12Z"/><path class="cls-2" d="M37.76,72.76l-.28-.07a1.79,1.79,0,0,0-.36,0,1.91,1.91,0,0,0-.43,0,5,5,0,0,0-2.31.72,13.46,13.46,0,0,0-1.85,1.3l-.78.62a.3.3,0,0,0,0,.43.31.31,0,0,0,.3.1,4.91,4.91,0,0,0,1-.41,19.1,19.1,0,0,0,1.9-1.16,6.42,6.42,0,0,1,1.86-.86c.12,0,.28,0,.4-.08a1.2,1.2,0,0,1,.28,0l.29,0a.23.23,0,0,0,0-.46Z"/><path class="cls-2" d="M27.35,81.84a5,5,0,0,0-.46-.31A6.19,6.19,0,0,0,25.54,81a9.51,9.51,0,0,0-1-.25L24,80.62l-.29,0-.27,0c-.34,0-.8,0-1.19,0s-.81.07-1.21.13a12.61,12.61,0,0,0-4.15,1.43,10.69,10.69,0,0,0-1.64,1.08h0a.61.61,0,0,0-.07.88.63.63,0,0,0,.62.2s.75-.19,1.81-.54l1.79-.59c.65-.21,1.34-.41,2-.61a10.34,10.34,0,0,1,1-.24,8.64,8.64,0,0,1,1-.15l.49-.06.47,0a6.46,6.46,0,0,1,.87,0c.55,0,1,.05,1.34.08l.53,0a.19.19,0,0,0,.21-.18.18.18,0,0,0-.07-.17Z"/><path class="cls-2" d="M19,86.25a17.55,17.55,0,0,0-2.84,1.26,5.62,5.62,0,0,0-1,.64c-.28.26-.53.5-.74.72-.4.45-.64.78-.64.78h0a.48.48,0,0,0,.76.58,8.17,8.17,0,0,1,.62-.63,7.87,7.87,0,0,1,.72-.59c.27-.2.53-.46.81-.69a17.47,17.47,0,0,1,2.48-1.66.23.23,0,0,0,.1-.32.25.25,0,0,0-.28-.11Z"/><path class="cls-2" d="M61.75,47.73s-.22,0-.6,0a6.49,6.49,0,0,0-1.61.26,10.13,10.13,0,0,0-1,.32c-.37.12-.74.29-1.14.46a12.79,12.79,0,0,0-1.15.61c-.39.22-.76.49-1.13.75A13.16,13.16,0,0,0,53.14,52a10.25,10.25,0,0,0-.71,1,8.51,8.51,0,0,0-.53,1,13.2,13.2,0,0,0-.62,1.5,3.31,3.31,0,0,0-.16.6.47.47,0,0,0,.41.5.48.48,0,0,0,.38-.14l0,0a2.17,2.17,0,0,0,.33-.48,9.76,9.76,0,0,1,.84-1.21q.28-.36.63-.75c.22-.26.49-.52.73-.8s.53-.54.82-.8.6-.52.9-.78a23.1,23.1,0,0,1,1.94-1.33c.34-.17.65-.37,1-.5a9.52,9.52,0,0,1,.89-.4l1.38-.57a5.48,5.48,0,0,0,.55-.25.41.41,0,0,0,.17-.54A.42.42,0,0,0,61.75,47.73Z"/><path class="cls-2" d="M61.48,51.49l-.12,0a1.56,1.56,0,0,0-.44,0,3.3,3.3,0,0,0-1.13.36c-.36.18-.65.37-.87.48a3,3,0,0,1-.35.19h0a.54.54,0,0,0,.2,1,3.67,3.67,0,0,0,.55,0,8.25,8.25,0,0,0,1-.25l.83-.2c.11,0,.13,0,.24-.07l.13,0A.78.78,0,0,0,62,52,.79.79,0,0,0,61.48,51.49Z"/><path class="cls-2" d="M62.84,37.38l-.29-.22a4.78,4.78,0,0,0-.85-.52,7.15,7.15,0,0,0-3-.73,5.54,5.54,0,0,0-3,.8,4.09,4.09,0,0,0-.81.62,2.3,2.3,0,0,0-.26.28v0a.27.27,0,0,0,.05.36A.26.26,0,0,0,55,38a11.53,11.53,0,0,1,1.16-.47,10.69,10.69,0,0,1,2.6-.51,7.86,7.86,0,0,1,2.72.2,8,8,0,0,1,1.22.38.13.13,0,0,0,.17-.07A.13.13,0,0,0,62.84,37.38Z"/><path class="cls-2" d="M59.92,39.18l-.54,0a7.93,7.93,0,0,0-1.21.09,4.65,4.65,0,0,0-1.17.34,3.19,3.19,0,0,0-.49.25h0a.23.23,0,0,0,.19.41l.5-.13,1.1-.26c.8-.15,1.64-.24,1.64-.24a.21.21,0,0,0,.19-.23.21.21,0,0,0-.19-.2Z"/><path class="cls-2" d="M60.36,15.19l-.67.13c-.21,0-.47.14-.76.22s-.61.24-1,.38a11.37,11.37,0,0,0-1.08.57c-.38.22-.76.47-1.16.75a11.92,11.92,0,0,0-1.14.93,8,8,0,0,0-1.07,1.11,9.47,9.47,0,0,0-.91,1.27l-.36.69-.29.7a6.71,6.71,0,0,0-.36,1.4,5.74,5.74,0,0,0,0,1.3A7.09,7.09,0,0,0,52,26.5a2.72,2.72,0,0,0,.31.65.35.35,0,0,0,.48.07.33.33,0,0,0,.13-.26v0s0-.06,0-.17l-.08-.47a6.49,6.49,0,0,1,0-1.65c.06-.33.09-.68.19-1.05a8.76,8.76,0,0,1,.3-1.14l.24-.59.3-.58a8.79,8.79,0,0,1,.72-1.15c.27-.36.55-.73.86-1.07s.63-.65,1-.95.66-.56,1-.8.66-.44.95-.65c.61-.38,1.11-.69,1.48-.89l.6-.34a.13.13,0,0,0,0-.18A.14.14,0,0,0,60.36,15.19Z"/><path class="cls-2" d="M58.38,19.48l-.29.24c-.19.16-.46.4-.76.7a9.44,9.44,0,0,0-1.81,2.63,4.67,4.67,0,0,0-.38,1.75,4.16,4.16,0,0,0,.27,1.57,3.48,3.48,0,0,0,.52,1,1.56,1.56,0,0,0,.29.29h0a.26.26,0,0,0,.38-.07.29.29,0,0,0,0-.2L56.6,27a5.35,5.35,0,0,1-.12-.88,5.29,5.29,0,0,1,.13-1.2A10.83,10.83,0,0,1,57,23.6a9.53,9.53,0,0,1,1.2-2.5c.21-.33.4-.6.53-.78l.22-.3a.4.4,0,0,0-.07-.55A.39.39,0,0,0,58.38,19.48Z"/><path class="cls-2" d="M60,23.58l-.37.5a9.88,9.88,0,0,0-.78,1.28A3.36,3.36,0,0,0,58.45,27v.23h0v0l0,.12.07.21a1,1,0,0,0,.06.17.62.62,0,0,0,.82.31.6.6,0,0,0,.35-.44,1.08,1.08,0,0,0,0-.18l0-.21v-.15h0c0,.15,0,0,0,.08h0v-.07A6.6,6.6,0,0,1,60.26,26c.22-.45.45-.9.62-1.24l.19-.47.06-.17a.65.65,0,0,0-.41-.81A.66.66,0,0,0,60,23.58Z"/><path class="cls-2" d="M62.93,26.48l-.08.05a1,1,0,0,0-.24.25,1.63,1.63,0,0,0-.25.92,4,4,0,0,0,.11.76l.09.32h0a.23.23,0,0,0,.27.17.26.26,0,0,0,.17-.18l.06-.32a3.78,3.78,0,0,1,.14-.65.84.84,0,0,1,.25-.39l.07-.08.06-.06a.52.52,0,0,0-.65-.8Z"/><path class="cls-2" d="M87.28,54.74l-.79.1a12.41,12.41,0,0,0-2,.56c-.42.13-.84.33-1.31.52s-.93.43-1.41.7-1,.54-1.47.86a13.93,13.93,0,0,0-1.42,1,15.12,15.12,0,0,0-1.3,1.23,11.6,11.6,0,0,0-1.07,1.38,7.87,7.87,0,0,0-.78,1.45,6.59,6.59,0,0,0-.52,2.66c0,.37,0,.7,0,1,.07.5.13.78.13.78a.28.28,0,0,0,.33.22.3.3,0,0,0,.22-.25s0-.28,0-.78c0-.23.09-.51.14-.83a9.2,9.2,0,0,1,.31-1,5.37,5.37,0,0,1,.24-.57,5.18,5.18,0,0,1,.26-.6,10.71,10.71,0,0,1,.73-1.23,10.51,10.51,0,0,1,1-1.2,13.62,13.62,0,0,1,1.16-1.11c.41-.35.84-.69,1.28-1a15.13,15.13,0,0,1,1.32-.88,27.42,27.42,0,0,1,2.52-1.33l1.83-.88c.45-.22.71-.37.71-.37a.19.19,0,0,0,.07-.27A.19.19,0,0,0,87.28,54.74Z"/><path class="cls-2" d="M84.69,60.38l-.37.1a5.24,5.24,0,0,0-1,.42,6,6,0,0,0-1.22.9A6.86,6.86,0,0,0,81,63.14a6.68,6.68,0,0,0-1,3,6.58,6.58,0,0,0,0,1,1.83,1.83,0,0,0,0,.39.15.15,0,0,0,.18.11.14.14,0,0,0,.09-.08h0a1.91,1.91,0,0,0,.11-.36,8.85,8.85,0,0,1,.27-.94A15.89,15.89,0,0,1,82,63.74a8.24,8.24,0,0,1,1.84-2.1,5.51,5.51,0,0,1,.76-.55l.32-.21A.27.27,0,0,0,85,60.5.26.26,0,0,0,84.69,60.38Z"/><path class="cls-2" d="M85.21,64.73a5.87,5.87,0,0,0-.39.48,5.22,5.22,0,0,0-.6,1.23,3.57,3.57,0,0,0-.17,1.36,1,1,0,0,0,0,.26l0,.19,0,.15a.18.18,0,0,0,.21.14.16.16,0,0,0,.14-.16l0-.16V68c0-.08,0-.13,0-.22a6.31,6.31,0,0,1,.28-1.17,4.61,4.61,0,0,1,.52-1.09c.17-.27.31-.46.31-.46a.28.28,0,0,0,0-.4.29.29,0,0,0-.38,0Z"/><path class="cls-2" d="M88.11,66.44l0,.06-.09.22a2.23,2.23,0,0,0-.1.66,4.92,4.92,0,0,0,.08.86h0a.16.16,0,0,0,.19.13.15.15,0,0,0,.13-.14,5.24,5.24,0,0,1,.16-.79,1.5,1.5,0,0,1,.2-.42,1.35,1.35,0,0,1,.09-.11l.05-.06a.4.4,0,0,0-.62-.52A.21.21,0,0,0,88.11,66.44Z"/><path class="cls-2" d="M34.47,97.5l-.31.06a3.36,3.36,0,0,0-.78.38c-.14.1-.3.2-.45.33a2.91,2.91,0,0,0-.43.43c-.26.32-.5.68-.73,1a16.23,16.23,0,0,1-1.25,1.79,6.33,6.33,0,0,1-.47.5l-.19.18h0a.51.51,0,0,0,0,.72.52.52,0,0,0,.59.11,6.06,6.06,0,0,0,.95-.62,13.91,13.91,0,0,0,1.73-1.66l.79-.88a9.75,9.75,0,0,0,.58-.79c.16-.24.24-.41.37-.59l.16-.27a.51.51,0,0,0-.23-.68A.46.46,0,0,0,34.47,97.5Z"/><path class="cls-2" d="M52.6,95.44l-.1.1a2.76,2.76,0,0,0-.23.31c-.16.27-.33.63-.51,1a5.46,5.46,0,0,1-.52.83l-.2.25A.59.59,0,0,0,51,98l0,.07a.45.45,0,0,0,.18.61.45.45,0,0,0,.34,0,2,2,0,0,0,.51-.24,5.83,5.83,0,0,0,.95-.78c.3-.31.58-.6.77-.81l.19-.26.07-.12a.86.86,0,0,0-1.34-1Z"/><path class="cls-2" d="M59.72,95.14s0,.13-.06.33a2.76,2.76,0,0,1-.21.76,7.9,7.9,0,0,1-.48.87l-.25.44a.54.54,0,0,0,.2.72.52.52,0,0,0,.61-.05v0l.37-.31a7.39,7.39,0,0,0,.81-.84,3.42,3.42,0,0,0,.64-1.2,2.72,2.72,0,0,0,0-.3.75.75,0,0,0,0-.2l0-.13a.84.84,0,0,0-1.66-.09Z"/><path class="cls-2" d="M120.34,34.82l-.06-.15c-.06-.09-.1-.23-.22-.41a6.16,6.16,0,0,0-.46-.64,5.93,5.93,0,0,0-.71-.71,8.28,8.28,0,0,0-2.12-1.33,8.55,8.55,0,0,0-2.78-.64,9.61,9.61,0,0,0-1.42,0,9.51,9.51,0,0,0-1.38.21,10.84,10.84,0,0,0-2.3.78,7.41,7.41,0,0,0-1.44.91,4.48,4.48,0,0,0-.46.45.29.29,0,0,0,0,.43.31.31,0,0,0,.29.06l.58-.17c.36-.12.87-.26,1.47-.42a11.25,11.25,0,0,1,2.09-.31c.38,0,.77,0,1.16,0s.8,0,1.21.09a11.12,11.12,0,0,1,4.11,1.29c.51.31.93.6,1.21.8l.48.37a.49.49,0,0,0,.68-.09.48.48,0,0,0,.06-.49Z"/><path class="cls-2" d="M115.84,35.7l0,0a.28.28,0,0,0,0-.08,2,2,0,0,0-.39-.32,2.11,2.11,0,0,0-1.27-.24l-.46.07-.22,0-.1,0h-.44a.58.58,0,0,0-.1,1.14l.39.08.93.07c.25,0,.35.12.38.17l.05,0,0,0,0,0a.81.81,0,0,0,1.23-1Z"/><path class="cls-2" d="M146.44,69.91a1.79,1.79,0,0,0-.27-.25,4.57,4.57,0,0,0-.86-.52,4.3,4.3,0,0,0-1.39-.34,5.21,5.21,0,0,0-.79,0,5.4,5.4,0,0,0-.82.11A8.49,8.49,0,0,0,139.64,70a9,9,0,0,0-1.06.74h0a.21.21,0,0,0,0,.3.2.2,0,0,0,.21.06s.5-.12,1.22-.35,1.64-.55,2.55-.75c.23-.05.47-.08.68-.11a5,5,0,0,1,.66-.05A4.51,4.51,0,0,1,145,70a4.12,4.12,0,0,1,.79.25l.3.14a.27.27,0,0,0,.34-.42Z"/><path class="cls-2" d="M145.11,72.43l-.16-.08a2.93,2.93,0,0,0-.45-.15l-.32,0-.35,0-.38,0-.38,0a3.86,3.86,0,0,0-1.29.51,2.76,2.76,0,0,0-.5.39.25.25,0,0,0,0,.36.28.28,0,0,0,.17.07,5.6,5.6,0,0,0,.59,0c.35,0,.78-.09,1.2-.14l.31,0,.29,0,.28,0h.79a.43.43,0,0,0,.41-.45.42.42,0,0,0-.19-.33Z"/><path class="cls-2" d="M144.4,75.5a2.51,2.51,0,0,0-.3,0h-.17l-.19,0a1.25,1.25,0,0,0-.37.09,9.77,9.77,0,0,0-.91.36h0a.09.09,0,0,0,0,.13.09.09,0,0,0,.09,0l.31,0,.65-.14.33,0,.15,0h.11a1.83,1.83,0,0,0,.31,0,.18.18,0,0,0,.18-.19A.19.19,0,0,0,144.4,75.5Z"/><path class="cls-2" d="M104.11,66.34l-.06.51c0,.17,0,.36,0,.59l0,.34c0,.12,0,.26,0,.4-.06.55-.16,1.15-.28,1.82a20,20,0,0,1-.52,2c-.12.33-.22.67-.35,1s-.26.63-.39.93a15.29,15.29,0,0,1-.85,1.59c-.29.44-.54.8-.73,1l-.29.4,0,0a.4.4,0,0,0,.08.57.42.42,0,0,0,.52,0l.4-.35a9.42,9.42,0,0,0,1-1,11,11,0,0,0,1.9-3.8,11.38,11.38,0,0,0,.24-1.13,11,11,0,0,0,.13-1.1,11.87,11.87,0,0,0,0-2l0-.4-.06-.38c0-.22-.06-.42-.09-.58-.07-.32-.1-.5-.1-.5a.19.19,0,0,0-.37,0Z"/><path class="cls-2" d="M106,74.53l-.06.23a3.65,3.65,0,0,1-.17.55A7.7,7.7,0,0,1,105,76.9a17.19,17.19,0,0,1-1,1.49c-.31.4-.51.69-.51.69a.36.36,0,0,0,.08.5.36.36,0,0,0,.41,0h0a8.34,8.34,0,0,0,.69-.58,7.73,7.73,0,0,0,1.28-1.54,5.55,5.55,0,0,0,.77-1.91,3.53,3.53,0,0,0,.08-.69v-.24a.4.4,0,0,0-.39-.38A.38.38,0,0,0,106,74.53Z"/><path class="cls-2" d="M77.35,49s-.09-.1-.26-.26a5,5,0,0,0-.81-.62,6.84,6.84,0,0,0-1.3-.61,9.73,9.73,0,0,0-1.57-.38,15.94,15.94,0,0,0-3-.18c-.8,0-1.33.07-1.33.07a.27.27,0,0,0-.23.29.28.28,0,0,0,.2.23s.53.11,1.32.19c.4,0,.86.09,1.35.12l1.51.16a9.37,9.37,0,0,1,2.67.72,3.94,3.94,0,0,1,.79.43l.3.2a.24.24,0,0,0,.31-.36Z"/><path class="cls-2" d="M73.82,46.15l-.34-.25a7.93,7.93,0,0,0-1-.58,12.32,12.32,0,0,0-3.26-1.09,8.29,8.29,0,0,0-1.84-.14,7.16,7.16,0,0,0-1.59.25l-1.09.3a1.76,1.76,0,0,0-.4.17.32.32,0,0,0,.09.58,1.62,1.62,0,0,0,.41.06c.26,0,.63,0,1.07.09.88.13,2,.22,3.15.28.57,0,1.14.07,1.67.15s1,.17,1.46.27l1,.25.41.1a.25.25,0,0,0,.3-.18A.24.24,0,0,0,73.82,46.15Z"/><path class="cls-2" d="M73.45,42.41a6.29,6.29,0,0,0-.7-.4,10.16,10.16,0,0,0-1.7-.64,2.17,2.17,0,0,0-1-.11,4.16,4.16,0,0,0-.46.06,3.54,3.54,0,0,0-.38.09,3.74,3.74,0,0,0-.77.27.28.28,0,0,0-.13.37.33.33,0,0,0,.15.14,4.27,4.27,0,0,0,.79.19c.12,0,.25,0,.39.06l.37.06a3.14,3.14,0,0,0,.87,0,8,8,0,0,1,1.66.06c.45.06.77.12.77.12a.16.16,0,0,0,.19-.13.18.18,0,0,0-.07-.17Z"/><path class="cls-2" d="M88.63,81.68l-.15.46A6.71,6.71,0,0,1,88,83.27a4.88,4.88,0,0,1-.42.71c-.14.25-.36.47-.54.73a12.44,12.44,0,0,1-1.41,1.4,35,35,0,0,1-3.08,2.23c-.88.58-1.46,1-1.46,1a.14.14,0,0,0,0,.2.14.14,0,0,0,.17,0s.66-.25,1.62-.72a15.63,15.63,0,0,0,3.32-2.13,10.23,10.23,0,0,0,1.46-1.57,9,9,0,0,0,.52-.86,5.25,5.25,0,0,0,.37-.81,3.89,3.89,0,0,0,.22-.72,4.18,4.18,0,0,0,.11-.56l.05-.49a.14.14,0,0,0-.12-.15A.13.13,0,0,0,88.63,81.68Z"/><path class="cls-2" d="M83.23,83.83l-.26.35a6.83,6.83,0,0,1-.71.87,13.46,13.46,0,0,1-2.55,2.23c-1,.69-2.13,1.26-2.95,1.71s-1.39.75-1.39.75a.23.23,0,0,0-.08.3.23.23,0,0,0,.25.11,10.12,10.12,0,0,0,1.52-.51,13.88,13.88,0,0,0,3.1-1.73,12.71,12.71,0,0,0,1.46-1.24A11.46,11.46,0,0,0,82.7,85.4,8.66,8.66,0,0,0,83.52,84h0a.17.17,0,0,0-.3-.17Z"/></svg>