<?xml version="1.0" encoding="utf-8"?>
<!-- Generator: Adobe Illustrator 25.4.1, SVG Export Plug-In . SVG Version: 6.00 Build 0)  -->
<svg version="1.1" id="Layer_1" xmlns="http://www.w3.org/2000/svg" xmlns:xlink="http://www.w3.org/1999/xlink" x="0px" y="0px"
	 viewBox="0 0 126.6 126.5" style="enable-background:new 0 0 126.6 126.5;" xml:space="preserve">
<style type="text/css">
	.st0{fill:#E1273A;}
	.st1{fill:#FFFFFF;}
</style>
<g id="Group_135">
	<g id="Group_114">
		<path id="Path_9826" class="st0" d="M123.6,55.7l0.4-0.6c2.8-3.6,2.1-8.8-1.6-11.6c-0.4-0.3-0.7-0.5-1.1-0.7l-0.7-0.4
			c-3.4-1.8-5.1-5.7-4.1-9.4l0,0c1.2-4.4-1.4-9-5.8-10.2c-0.4-0.1-0.9-0.2-1.3-0.2l-1.6-0.2c-3.8-0.4-6.8-3.3-7.3-7.1l-0.1-0.7
			c-0.6-4.5-4.8-7.7-9.3-7.1c0,0,0,0,0,0c-0.4,0.1-0.9,0.2-1.3,0.3L89.1,8c-3.7,1.1-7.7-0.5-9.6-3.8l0,0c-2.3-4-7.3-5.3-11.3-3.1
			c0,0,0,0,0,0c-0.4,0.2-0.7,0.5-1.1,0.7l-1.2,1c-3,2.4-7.2,2.5-10.2,0.2l-0.6-0.4c-3.6-2.8-8.8-2.1-11.6,1.6c0,0,0,0,0,0
			c-0.3,0.3-0.5,0.7-0.7,1.1L42.4,6c-1.8,3.4-5.7,5-9.4,4l0,0c-4.4-1.2-9,1.4-10.2,5.8c0,0,0,0,0,0.1c-0.1,0.4-0.2,0.8-0.2,1.3
			l-0.2,1.6c-0.4,3.8-3.3,6.8-7.1,7.3l-0.7,0.1c-4.5,0.6-7.7,4.8-7.1,9.3c0.1,0.4,0.2,0.9,0.3,1.3L8,37.5c1.1,3.7-0.5,7.6-3.8,9.5
			l0,0c-4,2.3-5.4,7.3-3.1,11.3c0,0,0,0,0,0c0.2,0.4,0.5,0.7,0.7,1.1l1,1.2c2.4,3,2.5,7.2,0.2,10.2l-0.4,0.6
			C-0.2,75,0.5,80.2,4.1,83c0.3,0.3,0.7,0.5,1.1,0.7l0.7,0.4c3.4,1.8,5.1,5.8,4.1,9.5l0,0c-1.2,4.4,1.4,9,5.8,10.2
			c0.4,0.1,0.9,0.2,1.3,0.2l1.6,0.2c3.8,0.4,6.8,3.3,7.3,7.1l0.1,0.7c0.6,4.5,4.8,7.7,9.3,7.1c0,0,0,0,0,0c0.4-0.1,0.9-0.2,1.3-0.3
			l0.8-0.2c3.7-1.1,7.6,0.5,9.5,3.8l0,0c2.3,4,7.3,5.4,11.3,3.1c0,0,0,0,0,0c0.4-0.2,0.7-0.5,1.1-0.7l1.2-1c3-2.4,7.2-2.5,10.2-0.2
			l0.6,0.4c3.6,2.8,8.8,2.1,11.6-1.6c0,0,0,0,0,0c0.3-0.4,0.5-0.7,0.7-1.1l0.4-0.7c1.8-3.4,5.7-5.1,9.5-4.1l0,0
			c4.4,1.2,9-1.4,10.2-5.8c0,0,0,0,0,0c0.1-0.4,0.2-0.8,0.2-1.3l0.2-1.6c0.4-3.8,3.3-6.8,7.1-7.3l0.7-0.1c4.5-0.6,7.7-4.8,7.1-9.3
			c0,0,0,0,0,0c-0.1-0.4-0.2-0.9-0.3-1.3l-0.2-0.8c-1.1-3.7,0.5-7.7,3.8-9.6l0,0c4-2.3,5.4-7.3,3.1-11.3c0,0,0,0,0,0
			c-0.2-0.4-0.5-0.7-0.7-1.1l-1-1.2C121.3,62.9,121.3,58.7,123.6,55.7z"/>
	</g>
	<g>
		<path class="st1" d="M16.1,55.2l4.9-1.1l0.4,2.1l-2.8,0.6l0.8,3.8l2.2-0.5l0.5,2.2L20,62.7l1.4,6.3l-2.2,0.5L16.1,55.2z"/>
		<path class="st1" d="M24.8,56.8l-2,0.4l-0.5-2.2l2-0.4L24.8,56.8z M27.2,67.7l-2,0.4l-2.2-10.3l2-0.4L27.2,67.7z"/>
		<path class="st1" d="M26.1,57.1l2-0.4l0.3,1.2c0.2-0.6,0.7-1.5,1.5-1.6l0.1,0c1.1-0.2,1.6,0.6,1.7,1.3l1.9,8.8l-2.1,0.4L29.8,59
			c-0.1-0.5-0.3-0.7-0.7-0.6c-0.4,0.1-0.5,0.4-0.4,1l1.7,7.6l-2,0.4L26.1,57.1z"/>
		<path class="st1" d="M36.8,50.7l3.1,14.2l-2,0.4l-0.3-1.2c-0.1,0.5-0.4,1.4-1.3,1.6l0,0c-0.9,0.2-1.7-0.5-2-1.8l-1.4-6.3
			c-0.2-1,0-2.1,1-2.3l0,0c0.9-0.2,1.6,0.5,1.9,0.8l-1.1-5L36.8,50.7z M36.2,57.8c-0.1-0.5-0.3-0.9-0.8-0.8
			c-0.3,0.1-0.5,0.4-0.4,0.9l1.1,5.1c0.1,0.5,0.3,0.8,0.7,0.7c0.4-0.1,0.5-0.4,0.4-1.1L36.2,57.8z"/>
		<path class="st1" d="M48.6,63l-2,0.4l-0.3-1.2c-0.2,0.6-0.6,1.4-1.5,1.6l0,0c-0.8,0.2-1.5-0.6-1.7-1.4l-1.9-8.6l2-0.4l1.7,7.7
			c0.1,0.4,0.3,0.7,0.6,0.6c0.4-0.1,0.5-0.4,0.4-0.9l-1.7-7.7l2-0.4L48.6,63z"/>
		<path class="st1" d="M52.9,54.7L51,55.1l-0.3-1.2c-0.1-0.4-0.3-0.5-0.6-0.5c-0.4,0.1-0.4,0.3-0.3,0.7l0,0.2c0.1,0.5,0.3,0.7,0.7,1
			l1.6,1.2c1.2,0.9,1.5,1.5,1.8,2.6l0.1,0.3c0.3,1.2-0.1,2.6-1.8,3l-0.4,0.1c-1.6,0.4-2.4-0.5-2.7-1.6L48.8,59l1.9-0.4l0.3,1.5
			c0.1,0.5,0.3,0.7,0.7,0.6c0.3-0.1,0.4-0.4,0.3-0.8l0-0.2c-0.1-0.4-0.2-0.9-0.9-1.4l-1.5-1.1c-1-0.8-1.4-1.5-1.6-2.4l-0.1-0.3
			c-0.3-1.3,0.2-2.3,1.8-2.6l0.4-0.1c1.6-0.4,2.3,0.4,2.5,1.4L52.9,54.7z"/>
		<path class="st1" d="M56.2,53.2c-0.4-1.7,0.3-2.9,1.9-3.2l0.4-0.1c1.5-0.3,2.6,0.4,3,2.1l1.2,5.4c0.3,1.4-0.3,2.8-1.9,3.2
			l-0.4,0.1c-1.8,0.4-2.7-0.8-3-2.1L56.2,53.2z M59.4,58c0.1,0.5,0.4,0.8,0.7,0.7c0.4-0.1,0.5-0.5,0.4-0.9l-1.1-5.2
			c-0.1-0.6-0.4-0.7-0.7-0.7c-0.3,0.1-0.5,0.3-0.4,0.9L59.4,58z"/>
		<path class="st1" d="M62,49.3l2-0.4l0.3,1.2c0.2-0.6,0.7-1.5,1.5-1.6l0.1,0c1.1-0.2,1.6,0.6,1.7,1.3l1.9,8.8L67.4,59l-1.7-7.7
			c-0.1-0.5-0.3-0.7-0.7-0.6c-0.4,0.1-0.5,0.4-0.4,1l1.7,7.6l-2,0.4L62,49.3z"/>
		<path class="st1" d="M76.2,49.7l-1.8,0.4l-0.3-1.2c-0.1-0.4-0.3-0.5-0.6-0.5c-0.4,0.1-0.4,0.3-0.3,0.7l0,0.2
			c0.1,0.5,0.3,0.7,0.7,1l1.6,1.2c1.2,0.9,1.5,1.5,1.8,2.6l0.1,0.3c0.3,1.2-0.1,2.6-1.8,3l-0.4,0.1c-1.6,0.4-2.4-0.5-2.7-1.6
			L72.1,54l1.9-0.4l0.3,1.5c0.1,0.5,0.3,0.7,0.7,0.6c0.3-0.1,0.4-0.4,0.3-0.8l0-0.2c-0.1-0.4-0.2-0.9-0.9-1.4l-1.5-1.1
			c-1-0.8-1.4-1.5-1.6-2.4l-0.1-0.3c-0.3-1.3,0.2-2.3,1.8-2.6l0.4-0.1c1.6-0.4,2.3,0.4,2.5,1.4L76.2,49.7z"/>
		<path class="st1" d="M77.1,48.7c-0.4-1.7,0.3-2.9,1.9-3.2l0.4-0.1c1.5-0.3,2.6,0.4,3,2.1l1.2,5.4c0.3,1.4-0.3,2.8-1.9,3.2
			l-0.4,0.1c-1.8,0.4-2.7-0.8-3-2.1L77.1,48.7z M80.2,53.5c0.1,0.5,0.4,0.8,0.7,0.7c0.4-0.1,0.5-0.5,0.4-0.9L80.3,48
			c-0.1-0.6-0.4-0.7-0.7-0.7c-0.3,0.1-0.5,0.3-0.4,0.9L80.2,53.5z"/>
		<path class="st1" d="M89.1,49.4l0.5,2.3c0.3,1.2-0.1,2.6-1.8,3l-0.4,0.1c-1.6,0.4-2.6-0.6-2.9-2l-1.2-5.6
			c-0.3-1.6,0.2-2.7,1.9-3.1l0.4-0.1c1.7-0.4,2.5,0.5,2.7,1.7l0.4,1.8l-2,0.4l-0.3-1.4c-0.1-0.5-0.2-0.9-0.7-0.7
			c-0.5,0.1-0.4,0.5-0.3,1l1.1,5.3c0.1,0.5,0.3,0.8,0.7,0.7c0.4-0.1,0.5-0.4,0.4-0.9l-0.5-2.1L89.1,49.4z"/>
		<path class="st1" d="M90.9,42.5l-2,0.4l-0.5-2.2l2-0.4L90.9,42.5z M93.3,53.3l-2,0.4L89,43.5l2-0.4L93.3,53.3z"/>
		<path class="st1" d="M93.5,49.2c-0.2-1-0.1-1.7,0.5-2.3c0.4-0.4,1.3-1.1,1.6-1.3c0.2-0.2,0.2-0.2,0.2-0.5l-0.1-0.7
			c-0.1-0.5-0.3-0.6-0.6-0.6l0,0c-0.4,0.1-0.5,0.3-0.4,0.8l0.2,1.1l-1.8,0.4l-0.3-1.5c-0.2-0.8-0.2-2,1.7-2.4l0.4-0.1
			c2-0.4,2.5,0.5,2.8,1.5l1.3,6.1c0.1,0.2,0.1,0.3,0.4,0.3l0.4-0.1l0.4,1.9l-2,0.4c-0.4,0.1-0.7-0.2-0.9-1c-0.1,0.5-0.6,1.4-1.4,1.6
			l-0.1,0c-0.8,0.2-1.5-0.5-1.6-1.3L93.5,49.2z M96.2,47.3c-0.2,0.2-0.5,0.4-0.6,0.7c-0.2,0.3-0.2,0.5-0.1,0.9l0.3,1.4
			c0.1,0.4,0.3,0.6,0.6,0.6s0.5-0.4,0.4-0.9L96.2,47.3z"/>
		<path class="st1" d="M102.8,51.3l-2,0.4l-3.1-14.2l2-0.4L102.8,51.3z"/>
		<path class="st1" d="M32.3,87.2c-0.2,0.7-1.2,2.5-3.4,2.9l-0.1,0c-2.2,0.5-5.1,0.2-6.5-6.5l-0.4-1.7c-1-4.8,0.1-7.6,3.4-8.3l0.2,0
			c3.2-0.7,5,1,5.8,5l0.4,1.7c0.9,4.1,0.3,5.7-1.3,6l0,0c-1.3,0.3-1.8-0.5-2-0.8C28,86.4,27.6,86.8,27,87l-0.1,0
			c-0.7,0.1-1.6-0.3-1.8-1.8l-1-6c-0.1-0.8,0.1-1.8,1-2l0.1,0c0.5-0.1,1.1,0.2,1.6,0.7l-0.2-0.9l2-0.4l1.3,7.9
			c0,0.2,0.1,0.3,0.3,0.3c0.5-0.1,0.7-1.2,0-4.3l-0.4-1.8c-0.7-3.4-2-4.3-4-3.9l-0.2,0c-2.2,0.5-3.1,2.4-2.2,6.6l0.4,1.7
			c1.2,5.7,3.5,5.7,4.7,5.4l0.1,0c1.5-0.3,2.4-1.7,2.6-2.4L32.3,87.2z M26.9,79.3c-0.1-0.4-0.2-0.6-0.5-0.5
			c-0.3,0.1-0.3,0.3-0.2,0.7l0.9,5.2c0,0.3,0.1,0.6,0.5,0.5c0.3-0.1,0.3-0.4,0.3-0.7L26.9,79.3z"/>
		<path class="st1" d="M32.4,78.4c-0.4-1.7,0.3-2.9,1.9-3.2l0.4-0.1c1.5-0.3,2.6,0.4,3,2.1l1.2,5.4c0.3,1.4-0.3,2.8-1.9,3.2
			l-0.4,0.1c-1.8,0.4-2.7-0.8-3-2.1L32.4,78.4z M35.6,83.2c0.1,0.5,0.4,0.8,0.7,0.7c0.4-0.1,0.5-0.5,0.4-0.9l-1.1-5.2
			c-0.1-0.6-0.4-0.7-0.7-0.7c-0.3,0.1-0.5,0.3-0.4,0.9L35.6,83.2z"/>
		<path class="st1" d="M44.5,79.1l0.5,2.3c0.3,1.2-0.1,2.6-1.8,3l-0.4,0.1c-1.6,0.4-2.6-0.6-2.9-2l-1.2-5.6
			c-0.3-1.6,0.2-2.7,1.9-3.1l0.4-0.1c1.7-0.4,2.5,0.5,2.7,1.8l0.4,1.8l-2,0.4l-0.3-1.4c-0.1-0.5-0.2-0.9-0.7-0.7
			c-0.5,0.1-0.4,0.5-0.3,1l1.1,5.3c0.1,0.5,0.3,0.8,0.7,0.7c0.4-0.1,0.5-0.4,0.4-0.9l-0.5-2.1L44.5,79.1z"/>
		<path class="st1" d="M49.8,74.6l0.6,3l-3,0.7l0.5,2.4c0.1,0.5,0.3,0.7,0.7,0.6c0.3-0.1,0.4-0.4,0.4-0.9l-0.4-1.7l2-0.4L51,80
			c0.4,1.8-0.4,2.8-1.8,3.1l-0.4,0.1c-1.4,0.3-2.4-0.3-2.8-2.1l-1.2-5.6c-0.3-1.4,0.1-2.6,1.8-3l0.4-0.1
			C48.6,72.2,49.4,72.9,49.8,74.6z M47,76.5l1.1-0.2L47.9,75c-0.1-0.5-0.3-0.8-0.7-0.7c-0.5,0.1-0.5,0.5-0.4,0.9L47,76.5z"/>
		<path class="st1" d="M51.6,78.3c-0.2-1-0.1-1.7,0.5-2.3c0.4-0.4,1.3-1.1,1.6-1.3c0.2-0.2,0.2-0.2,0.2-0.5l-0.1-0.7
			c-0.1-0.5-0.3-0.6-0.6-0.6l0,0c-0.4,0.1-0.5,0.3-0.4,0.8l0.2,1.1l-1.8,0.4l-0.3-1.5c-0.2-0.8-0.2-2,1.7-2.4l0.4-0.1
			c2-0.4,2.5,0.5,2.8,1.5l1.3,6.1c0.1,0.2,0.1,0.3,0.4,0.3l0.4-0.1l0.4,1.9l-2,0.4c-0.4,0.1-0.7-0.2-0.9-1c-0.1,0.5-0.6,1.4-1.4,1.6
			l-0.1,0c-0.8,0.2-1.5-0.5-1.7-1.3L51.6,78.3z M54.4,76.4c-0.2,0.2-0.5,0.4-0.6,0.7c-0.2,0.3-0.2,0.5-0.1,0.9l0.3,1.4
			c0.1,0.4,0.3,0.6,0.6,0.6c0.3-0.1,0.5-0.4,0.4-0.9L54.4,76.4z"/>
		<path class="st1" d="M56.7,70.5l2-0.4l0.3,1.2c0.2-0.6,0.7-1.5,1.5-1.6l0.1,0c1.1-0.2,1.6,0.6,1.7,1.3l1.9,8.8l-2.1,0.4l-1.7-7.7
			c-0.1-0.5-0.3-0.7-0.7-0.6c-0.4,0.1-0.5,0.4-0.4,1l1.7,7.6l-2,0.4L56.7,70.5z"/>
		<path class="st1" d="M62.2,65.2l2-0.4l1.1,5.1c0.2-0.7,0.7-1.4,1.4-1.6l0.1,0c1.1-0.2,1.6,0.6,1.7,1.3l1.9,8.8l-2.1,0.4L66.8,71
			c-0.1-0.5-0.3-0.7-0.7-0.6c-0.4,0.1-0.5,0.4-0.4,1l1.7,7.6l-2,0.4L62.2,65.2z"/>
		<path class="st1" d="M75,69.1l0.6,3l-3,0.7l0.5,2.4c0.1,0.5,0.3,0.7,0.7,0.6c0.3-0.1,0.5-0.4,0.4-0.9l-0.4-1.7l2-0.4l0.4,1.8
			c0.4,1.8-0.4,2.8-1.8,3.1l-0.4,0.1c-1.4,0.3-2.4-0.3-2.8-2.1l-1.2-5.6c-0.3-1.4,0.1-2.6,1.8-3l0.4-0.1
			C73.7,66.7,74.6,67.5,75,69.1z M72.2,71.1l1.1-0.2L73,69.5c-0.1-0.5-0.3-0.8-0.7-0.7c-0.5,0.1-0.5,0.5-0.4,0.9L72.2,71.1z"/>
		<path class="st1" d="M77.8,67.3c0.1-0.4,0.3-1.5,1.3-1.7l0.1,0c0.7-0.2,1.2,0.2,1.3,0.9l0.8,3.7l-2,0.4l-0.5-2.3
			c-0.1-0.4-0.2-0.6-0.5-0.6c-0.3,0.1-0.3,0.3-0.2,0.7l1.7,7.7l-2,0.4l-2.2-10.3l2-0.4L77.8,67.3z"/>
		<path class="st1" d="M81.8,67.7c-0.4-1.7,0.3-2.9,1.9-3.2l0.4-0.1c1.5-0.3,2.6,0.4,3,2.1l1.2,5.4c0.3,1.4-0.3,2.8-1.9,3.2
			l-0.4,0.1c-1.8,0.4-2.7-0.8-3-2.1L81.8,67.7z M85,72.5c0.1,0.5,0.4,0.8,0.7,0.7c0.4-0.1,0.5-0.5,0.4-0.9L85,67
			c-0.1-0.6-0.4-0.7-0.7-0.7c-0.3,0.1-0.5,0.3-0.4,0.9L85,72.5z"/>
		<path class="st1" d="M93.1,65.2l0.6,3l-3,0.7l0.5,2.4c0.1,0.5,0.3,0.7,0.7,0.6c0.3-0.1,0.5-0.4,0.4-0.9l-0.4-1.7l2-0.4l0.4,1.8
			c0.4,1.8-0.4,2.8-1.8,3.1l-0.4,0.1c-1.4,0.3-2.4-0.3-2.8-2.1L88,66.2c-0.3-1.4,0.1-2.6,1.8-3l0.4-0.1
			C91.8,62.8,92.7,63.5,93.1,65.2z M90.3,67.1l1.1-0.2l-0.3-1.3c-0.1-0.5-0.3-0.8-0.7-0.7c-0.5,0.1-0.5,0.5-0.4,0.9L90.3,67.1z"/>
		<path class="st1" d="M99,64.8l-1.8,0.4l-0.3-1.2c-0.1-0.4-0.3-0.5-0.6-0.5c-0.4,0.1-0.4,0.3-0.3,0.7l0,0.2c0.1,0.5,0.3,0.7,0.7,1
			l1.6,1.2c1.2,0.9,1.5,1.5,1.8,2.6l0.1,0.3c0.3,1.2-0.1,2.6-1.8,3L98,72.5c-1.6,0.4-2.4-0.5-2.7-1.6l-0.4-1.9l1.9-0.4l0.3,1.5
			c0.1,0.5,0.3,0.7,0.7,0.6c0.3-0.1,0.4-0.4,0.3-0.8l0-0.2c-0.1-0.4-0.2-0.9-0.9-1.4l-1.5-1.1c-1-0.8-1.4-1.5-1.6-2.4L94,64.5
			c-0.3-1.3,0.2-2.3,1.8-2.6l0.4-0.1c1.6-0.4,2.3,0.4,2.5,1.4L99,64.8z"/>
		<path class="st1" d="M98.5,57.3l2-0.4l1.1,5.1c0.2-0.7,0.7-1.4,1.4-1.6l0.1,0c1.1-0.2,1.6,0.6,1.7,1.3l1.9,8.8l-2.1,0.4l-1.7-7.7
			c-0.1-0.5-0.3-0.7-0.7-0.6c-0.4,0.1-0.5,0.4-0.4,1l1.7,7.6l-2,0.4L98.5,57.3z"/>
		<path class="st1" d="M111,58.8l3,13.9l-2,0.4l-1-4.8c-0.1,0.4-0.5,1.4-1.4,1.6l0,0c-1,0.2-1.7-0.7-2-1.9l-1.3-5.8
			c-0.2-1.1,0-2.4,1.2-2.7l0,0c1-0.2,1.8,0.5,2.3,1.2c0-0.4,0-1,0-1.6L111,58.8z M109.5,61.9c-0.1-0.6-0.4-0.8-0.8-0.7
			c-0.4,0.1-0.4,0.5-0.3,0.9l1.1,5.1c0.1,0.6,0.4,0.7,0.7,0.6c0.4-0.1,0.5-0.4,0.4-1L109.5,61.9z"/>
	</g>
</g>
</svg>
