<?xml version="1.0" encoding="utf-8"?>
<!-- Generator: Adobe Illustrator 25.4.1, SVG Export Plug-In . SVG Version: 6.00 Build 0)  -->
<svg version="1.1" id="Layer_1" xmlns="http://www.w3.org/2000/svg" xmlns:xlink="http://www.w3.org/1999/xlink" x="0px" y="0px"
	 viewBox="0 0 344.5 198.6" style="enable-background:new 0 0 344.5 198.6;" xml:space="preserve">
<style type="text/css">
	.st0{fill:#80CEEA;stroke:#FFFFFF;stroke-width:3.5;stroke-miterlimit:10;}
	.st1{fill:#FFFFFF;}
</style>
<g id="Group_180">
	<path id="Path_9827" class="st0" d="M21.7,126.4c-0.1,7-22.8,18.8-19.6,24.7c3.1,5.7,27.5-4,33.3,0.6c5.1,4-2.7,27.8,4.2,30.8
		c6.1,2.7,21.8-17.6,29.1-15.6c6.5,1.7,8.1,26.7,15.5,27.7c6.8,0.9,16.5-22.4,23.9-22.1c6.9,0.3,13.8,24.5,21.2,24.3
		c6.9-0.2,12.3-24.8,19.6-25.5c6.9-0.7,17.6,22.3,24.8,21.1c7.9-1.3,10.2-26.5,17.8-28.3c7.8-1.8,22.6,19.3,30,17
		c7.7-2.4,6-27.6,13.2-30.4c7.5-2.9,25.6,15.8,32.5,12.4c7.2-3.6,1-28.1,7.4-32c6.9-4.2,28.7,10.6,34.5,6.1
		c6.4-5.1-6.3-27.3-1.5-32.6c5.4-6.1,31.4,0.5,34.5-5.8c3.5-7.1-19.2-19.5-19.1-26.6s22.8-18.8,19.6-24.7c-3.1-5.7-27.5,4-33.3-0.6
		c-5.1-4,2.7-27.8-4.2-30.8c-6.1-2.7-21.8,17.6-29.1,15.7C269.3,30,267.8,5,260.4,4c-6.8-1-16.5,22.4-23.9,22.1
		c-6.9-0.3-13.8-24.5-21.2-24.3c-6.9,0.2-12.3,24.8-19.6,25.5C188.8,28,178.2,5,171,6.2c-7.9,1.3-10.2,26.5-17.8,28.3
		c-7.8,1.8-22.6-19.3-30-17c-7.7,2.4-6,27.6-13.2,30.4c-7.5,2.9-25.6-15.8-32.5-12.4c-7.2,3.5-1,28.1-7.4,32
		c-6.9,4.2-28.7-10.7-34.5-6.1c-6.4,5.1,6.3,27.3,1.5,32.6c-5.4,6.1-31.4-0.5-34.5,5.8C-1,107,21.8,119.3,21.7,126.4z"/>
	<g>
		<path class="st1" d="M76.5,82.4l10.4-2.5l1,4.4l-5.8,1.4l1.9,7.9l4.6-1.1l1.1,4.6l-4.6,1.1l3.2,13.2l-4.6,1.1L76.5,82.4z"/>
		<path class="st1" d="M95,85.6l-4.3,1l-1.1-4.6l4.3-1L95,85.6z M100.5,108.4l-4.3,1L91,87.8l4.3-1L100.5,108.4z"/>
		<path class="st1" d="M97.7,86.1l4.2-1l0.6,2.5c0.4-1.4,1.3-3.1,3-3.5l0.2,0c2.2-0.5,3.4,1.3,3.7,2.7l4.4,18.5l-4.4,1L105.7,90
			c-0.2-1-0.7-1.5-1.5-1.3c-0.9,0.2-1.1,0.9-0.8,2.1l3.9,16.1l-4.3,1L97.7,86.1z"/>
		<path class="st1" d="M120.2,72l7.2,30l-4.3,1l-0.6-2.5c-0.1,1-0.8,3-2.7,3.5l0,0c-1.9,0.5-3.7-1.1-4.4-3.8L112.2,87
			c-0.5-2.1-0.1-4.4,2.1-4.9l0.1,0c1.9-0.5,3.4,0.9,4.1,1.6L115.9,73L120.2,72z M119.2,87c-0.3-1.1-0.7-1.9-1.7-1.6
			c-0.7,0.2-1,0.8-0.7,2l2.6,10.7c0.3,1.1,0.7,1.7,1.5,1.5c0.9-0.2,1-1,0.7-2.3L119.2,87z"/>
		<path class="st1" d="M145.8,97.6l-4.2,1L141,96c-0.4,1.3-1.1,3.1-3,3.5l-0.1,0c-1.7,0.4-3.3-1.1-3.7-3l-4.3-18.1l4.3-1l3.9,16.3
			c0.2,0.8,0.6,1.4,1.4,1.2c0.9-0.2,1-0.9,0.8-1.8l-3.9-16.2l4.3-1L145.8,97.6z"/>
		<path class="st1" d="M154.4,79.8l-3.9,0.9l-0.6-2.6c-0.2-0.8-0.6-1.1-1.3-1c-0.8,0.2-0.8,0.7-0.6,1.6l0.1,0.4
			c0.3,1.1,0.6,1.4,1.6,2.2l3.4,2.5c2.6,1.9,3.3,3.2,3.9,5.4l0.1,0.6c0.6,2.6-0.1,5.5-3.6,6.4l-0.8,0.2c-3.4,0.8-5.2-0.9-5.7-3.3
			l-0.9-3.9l4-1l0.7,3.1c0.3,1.1,0.7,1.4,1.4,1.2c0.7-0.2,0.9-0.8,0.7-1.7l-0.1-0.4c-0.2-0.9-0.5-1.9-1.9-2.8l-3.2-2.3
			c-2.2-1.6-3-3-3.5-5.1l-0.1-0.6c-0.7-2.7,0.3-4.9,3.6-5.7l0.8-0.2c3.5-0.8,4.8,0.8,5.3,2.9L154.4,79.8z"/>
		<path class="st1" d="M161.4,76.5c-0.9-3.6,0.6-6.1,3.8-6.9l0.8-0.2c3.2-0.8,5.6,0.7,6.5,4.2l2.7,11.3c0.7,2.9-0.5,6-3.8,6.9
			l-0.8,0.2c-3.8,0.9-5.8-1.5-6.5-4.4L161.4,76.5z M168.4,86.4c0.3,1.1,0.8,1.6,1.6,1.4c0.8-0.2,1-1,0.8-2l-2.6-10.9
			c-0.3-1.2-0.8-1.5-1.6-1.4c-0.7,0.2-1.1,0.7-0.8,1.9L168.4,86.4z"/>
		<path class="st1" d="M173.6,68l4.2-1l0.6,2.5c0.4-1.4,1.3-3.1,3-3.5l0.2,0c2.2-0.5,3.4,1.3,3.7,2.7l4.4,18.5l-4.4,1l-3.9-16.3
			c-0.2-1-0.7-1.5-1.5-1.3c-0.9,0.2-1.1,0.9-0.8,2.1l3.9,16.1l-4.3,1L173.6,68z"/>
		<path class="st1" d="M203.6,68l-3.9,0.9l-0.6-2.6c-0.2-0.8-0.6-1.1-1.3-1c-0.8,0.2-0.8,0.7-0.6,1.6l0.1,0.4
			c0.3,1.1,0.6,1.4,1.6,2.2l3.4,2.5c2.6,1.9,3.3,3.2,3.9,5.4l0.1,0.6c0.6,2.6-0.1,5.5-3.6,6.4l-0.8,0.2c-3.4,0.8-5.2-0.9-5.7-3.3
			l-0.9-3.9l4-1l0.7,3.1c0.3,1.1,0.7,1.4,1.4,1.2c0.7-0.2,0.9-0.8,0.7-1.7l-0.1-0.4c-0.2-0.9-0.5-1.9-1.9-2.8l-3.2-2.3
			c-2.2-1.6-3-3-3.5-5.1l-0.1-0.6c-0.7-2.7,0.3-4.9,3.6-5.7l0.8-0.2c3.5-0.8,4.8,0.8,5.3,2.9L203.6,68z"/>
		<path class="st1" d="M205.4,65.9c-0.9-3.6,0.6-6.1,3.8-6.9l0.8-0.2c3.2-0.8,5.6,0.7,6.5,4.2l2.7,11.3c0.7,2.9-0.5,6-3.8,6.9
			l-0.8,0.2c-3.8,0.9-5.8-1.5-6.5-4.4L205.4,65.9z M212.4,75.9c0.3,1.1,0.8,1.6,1.6,1.4c0.8-0.2,1-1,0.8-2l-2.6-10.9
			c-0.3-1.2-0.8-1.5-1.6-1.4c-0.7,0.2-1.1,0.7-0.8,1.9L212.4,75.9z"/>
		<path class="st1" d="M231.1,66.9l1.2,4.9c0.6,2.5,0,5.5-3.6,6.4l-0.8,0.2c-3.5,0.8-5.6-1.2-6.3-4.1l-2.8-11.8
			c-0.8-3.4,0.4-5.7,3.9-6.6l0.8-0.2c3.6-0.9,5.3,0.9,5.9,3.6l0.9,3.9l-4.2,1l-0.7-2.9c-0.3-1.1-0.5-1.8-1.5-1.6c-1,0.2-0.9,1-0.7,2
			l2.7,11.1c0.2,1,0.6,1.6,1.4,1.4c0.8-0.2,1-0.9,0.7-1.9l-1.1-4.4L231.1,66.9z"/>
		<path class="st1" d="M234.5,52.1l-4.3,1l-1.1-4.6l4.3-1L234.5,52.1z M240,75l-4.3,1l-5.2-21.7l4.3-1L240,75z"/>
		<path class="st1" d="M240.3,66.1c-0.5-2.1-0.3-3.5,1-4.9c0.8-0.8,2.8-2.4,3.3-2.8c0.4-0.3,0.4-0.5,0.3-1.1l-0.3-1.4
			c-0.3-1.1-0.6-1.3-1.4-1.2l-0.1,0c-0.8,0.2-1,0.7-0.8,1.6l0.6,2.3l-3.9,0.9l-0.7-3.1c-0.4-1.6-0.5-4.2,3.6-5.2l0.8-0.2
			c4.2-1,5.4,0.8,5.9,3.1l3.1,12.9c0.1,0.5,0.3,0.7,0.9,0.5l0.8-0.2l1,4l-4.1,1c-0.9,0.2-1.6-0.3-2-2.1c-0.2,1.1-1.1,3-2.9,3.4
			l-0.1,0c-1.7,0.4-3.1-1-3.6-2.7L240.3,66.1z M246,62c-0.4,0.4-0.9,0.9-1.3,1.5c-0.3,0.6-0.4,1-0.2,1.9l0.7,3
			c0.2,0.9,0.6,1.3,1.3,1.2c0.7-0.2,0.9-0.9,0.7-1.9L246,62z"/>
		<path class="st1" d="M260.2,70.2l-4.3,1l-7.2-30l4.3-1L260.2,70.2z"/>
		<path class="st1" d="M104.9,148.3c-0.5,1.5-2.5,5.3-7.1,6.4l-0.3,0.1c-4.7,1.1-10.8,0.6-14.2-13.5l-0.9-3.6
			c-2.4-10.1-0.1-16.1,6.9-17.8l0.5-0.1c6.7-1.6,10.6,2,12.5,10.2l0.9,3.6c2.1,8.6,0.8,12.1-2.5,12.9l-0.1,0
			c-2.8,0.7-3.8-0.9-4.2-1.6c-0.6,1.9-1.4,3-2.8,3.3l-0.2,0.1c-1.4,0.3-3.4-0.6-4-3.7L87,131.9c-0.3-1.8,0.2-3.8,2.1-4.2l0.2,0
			c1.1-0.3,2.3,0.4,3.3,1.4l-0.4-1.9l4.3-1l3.1,16.8c0.1,0.4,0.2,0.7,0.7,0.6c1-0.3,1.4-2.5-0.2-9.1l-0.9-3.8c-1.7-7.1-4.4-9-8.7-8
			l-0.5,0.1c-4.6,1.1-6.5,5.3-4.3,14.1l0.8,3.5c2.9,12.1,7.7,11.9,10.2,11.3l0.3-0.1c3.2-0.8,5-3.7,5.4-5.1L104.9,148.3z
			 M93.2,131.8c-0.2-0.9-0.4-1.3-1.1-1.1c-0.6,0.1-0.7,0.7-0.5,1.5l2.1,10.9c0.1,0.6,0.3,1.3,1,1.1c0.6-0.2,0.7-0.8,0.6-1.5
			L93.2,131.8z"/>
		<path class="st1" d="M104.7,129.7c-0.9-3.6,0.6-6.1,3.8-6.9l0.8-0.2c3.2-0.8,5.6,0.7,6.5,4.2l2.7,11.3c0.7,2.9-0.5,6-3.8,6.9
			l-0.8,0.2c-3.8,0.9-5.8-1.5-6.5-4.4L104.7,129.7z M111.7,139.6c0.3,1.1,0.8,1.6,1.6,1.4c0.8-0.2,1-1,0.8-2l-2.6-10.9
			c-0.3-1.2-0.8-1.6-1.6-1.4c-0.7,0.2-1.1,0.7-0.8,1.9L111.7,139.6z"/>
		<path class="st1" d="M130.4,130.6l1.2,4.9c0.6,2.5,0,5.5-3.6,6.4l-0.8,0.2c-3.5,0.8-5.6-1.2-6.3-4.1l-2.8-11.8
			c-0.8-3.4,0.4-5.7,3.9-6.6l0.8-0.2c3.6-0.9,5.3,0.9,5.9,3.6l0.9,3.9l-4.2,1l-0.7-2.9c-0.3-1.1-0.5-1.8-1.5-1.6c-1,0.2-0.9,1-0.7,2
			l2.7,11.1c0.2,1,0.6,1.6,1.4,1.4c0.8-0.2,1-0.9,0.7-1.9l-1.1-4.4L130.4,130.6z"/>
		<path class="st1" d="M141.5,120.7l1.5,6.3l-6.4,1.5l1.2,5c0.2,1,0.7,1.5,1.6,1.3c0.7-0.2,0.9-0.9,0.7-1.8l-0.9-3.6l4.2-1l0.9,3.8
			c0.9,3.8-0.7,6-3.7,6.7l-0.8,0.2c-2.9,0.7-5.2-0.6-6.1-4.3l-2.8-11.8c-0.7-2.9,0.2-5.5,3.7-6.4l0.8-0.2
			C138.7,115.7,140.6,117.2,141.5,120.7z M135.7,125l2.4-0.6l-0.7-2.7c-0.2-1-0.6-1.7-1.6-1.5c-1.1,0.3-1,1.1-0.8,2L135.7,125z"/>
		<path class="st1" d="M145.6,128.5c-0.5-2.1-0.3-3.5,1-4.9c0.8-0.8,2.8-2.4,3.3-2.8c0.4-0.3,0.4-0.5,0.3-1.1l-0.3-1.4
			c-0.3-1.1-0.6-1.3-1.4-1.2l-0.1,0c-0.8,0.2-1,0.7-0.8,1.6l0.6,2.3l-3.9,0.9l-0.7-3.1c-0.4-1.6-0.5-4.2,3.6-5.2l0.8-0.2
			c4.2-1,5.4,0.8,5.9,3.1l3.1,12.9c0.1,0.5,0.3,0.7,0.9,0.5l0.8-0.2l1,4l-4.1,1c-0.9,0.2-1.6-0.3-2-2.1c-0.2,1.1-1.1,3-2.9,3.4
			l-0.1,0c-1.7,0.4-3.1-1-3.6-2.7L145.6,128.5z M151.3,124.3c-0.4,0.4-0.9,0.9-1.3,1.5c-0.3,0.6-0.4,1-0.1,1.9l0.7,3
			c0.2,0.9,0.6,1.3,1.3,1.2c0.7-0.2,0.9-0.9,0.7-1.9L151.3,124.3z"/>
		<path class="st1" d="M155.9,111.9l4.2-1l0.6,2.5c0.4-1.4,1.3-3.1,3-3.5l0.2,0c2.2-0.5,3.4,1.3,3.7,2.7l4.4,18.5l-4.4,1l-3.9-16.3
			c-0.2-1-0.7-1.5-1.5-1.3c-0.9,0.2-1.1,0.9-0.8,2.1l3.9,16.1l-4.3,1L155.9,111.9z"/>
		<path class="st1" d="M167.4,100.3l4.3-1l2.6,10.8c0.5-1.5,1.3-3,3-3.4l0.2,0c2.3-0.6,3.4,1.3,3.7,2.7l4.4,18.5l-4.4,1l-3.9-16.3
			c-0.2-1-0.7-1.5-1.5-1.3c-0.9,0.2-1.1,0.9-0.8,2.1l3.9,16.1l-4.3,1L167.4,100.3z"/>
		<path class="st1" d="M194.6,108l1.5,6.3l-6.4,1.5l1.2,5c0.2,1,0.7,1.5,1.6,1.3c0.7-0.2,0.9-0.9,0.7-1.8l-0.9-3.6l4.2-1l0.9,3.8
			c0.9,3.8-0.7,6-3.7,6.7l-0.8,0.2c-2.9,0.7-5.2-0.6-6.1-4.3l-2.8-11.8c-0.7-2.9,0.2-5.5,3.7-6.4l0.8-0.2
			C191.8,103,193.8,104.5,194.6,108z M188.8,112.3l2.4-0.6l-0.7-2.7c-0.2-1-0.6-1.7-1.6-1.5c-1.1,0.3-1,1.1-0.8,2L188.8,112.3z"/>
		<path class="st1" d="M200.6,104.1c0.2-0.9,0.6-3.2,2.6-3.7l0.2,0c1.5-0.4,2.5,0.5,2.9,1.9l1.9,7.9l-4.2,1l-1.2-4.8
			c-0.2-0.9-0.4-1.3-1-1.2c-0.7,0.2-0.6,0.7-0.4,1.5l3.9,16.4l-4.3,1l-5.2-21.7l4.2-1L200.6,104.1z"/>
		<path class="st1" d="M209,104.7c-0.9-3.6,0.6-6.1,3.8-6.9l0.8-0.2c3.2-0.8,5.6,0.7,6.5,4.2l2.7,11.3c0.7,2.9-0.5,6-3.8,6.9
			l-0.8,0.2c-3.8,0.9-5.8-1.5-6.5-4.4L209,104.7z M216,114.7c0.3,1.1,0.8,1.6,1.6,1.4c0.8-0.2,1-1,0.8-2l-2.6-10.9
			c-0.3-1.2-0.8-1.6-1.6-1.4c-0.7,0.2-1.1,0.7-0.8,1.9L216,114.7z"/>
		<path class="st1" d="M232.9,98.8l1.5,6.3l-6.4,1.5l1.2,5c0.2,1,0.7,1.5,1.6,1.3c0.7-0.2,0.9-0.9,0.7-1.8l-0.9-3.6l4.2-1l0.9,3.8
			c0.9,3.8-0.7,6-3.7,6.7l-0.8,0.2c-2.9,0.7-5.2-0.6-6.1-4.3l-2.8-11.8c-0.7-2.9,0.2-5.5,3.7-6.4l0.8-0.2
			C230.1,93.8,232,95.3,232.9,98.8z M227.1,103.1l2.4-0.6l-0.7-2.7c-0.2-1-0.6-1.7-1.6-1.5c-1.1,0.3-1,1.1-0.8,2L227.1,103.1z"/>
		<path class="st1" d="M245.4,97.7l-3.9,0.9l-0.6-2.6c-0.2-0.8-0.6-1.1-1.3-1c-0.8,0.2-0.8,0.7-0.6,1.6l0.1,0.4
			c0.3,1.1,0.6,1.4,1.6,2.2l3.4,2.5c2.6,1.9,3.3,3.2,3.9,5.4l0.1,0.6c0.6,2.6-0.1,5.5-3.6,6.4l-0.8,0.2c-3.4,0.8-5.2-0.9-5.7-3.3
			l-0.9-3.9l4-1l0.7,3.1c0.3,1.1,0.7,1.4,1.4,1.2c0.7-0.2,0.9-0.8,0.7-1.7l-0.1-0.4c-0.2-0.9-0.5-1.9-1.9-2.8l-3.2-2.3
			c-2.2-1.6-3-3-3.5-5.1l-0.1-0.6c-0.7-2.7,0.3-4.9,3.6-5.7l0.8-0.2c3.5-0.8,4.8,0.8,5.3,2.9L245.4,97.7z"/>
		<path class="st1" d="M244,82l4.3-1l2.6,10.8c0.5-1.5,1.3-3,3-3.4l0.2,0c2.3-0.6,3.4,1.3,3.7,2.7l4.4,18.5l-4.4,1L254,94.1
			c-0.2-1-0.7-1.5-1.5-1.3c-0.9,0.2-1.1,0.9-0.8,2.1l3.9,16.1l-4.3,1L244,82z"/>
		<path class="st1" d="M270.5,84.4l7,29.3l-4.3,1l-2.4-10.1c-0.1,0.8-0.9,3-2.9,3.4l-0.1,0c-2.1,0.5-3.7-1.4-4.3-4l-2.9-12.3
			c-0.6-2.4-0.2-5.2,2.5-5.8l0.1,0c2.1-0.5,3.7,1,4.9,2.5c0.1-0.9,0.1-2.1-0.1-3.5L270.5,84.4z M267.6,91.1c-0.3-1.3-1-1.6-1.7-1.5
			c-0.8,0.2-0.9,1-0.7,2l2.6,10.8c0.3,1.2,0.9,1.5,1.6,1.3c0.8-0.2,1-0.9,0.7-2.1L267.6,91.1z"/>
	</g>
</g>
</svg>
