<svg id="Layer_1" data-name="Layer 1" xmlns="http://www.w3.org/2000/svg" viewBox="0 0 332.81 112.75"><defs><style>.cls-1{fill:#fff;}</style></defs><g id="Group_150" data-name="Group 150"><path id="Path_9754" data-name="Path 9754" class="cls-1" d="M17.78,16.76c-.9,3.93-3.09,6.06-6.87,6.06h-.6c-3.83,0-5.21-2.13-4.31-6.06Q7.25,11.38,8.81,6c1.12-3.81,3.61-6,7.44-6h.6c4,0,4.87,2.19,3.76,6Q19,11.37,17.78,16.76ZM16.57,6c.55-1.86.05-2.55-1.12-2.55S13.37,4.17,12.82,6Q11.25,11.42,10,16.79c-.39,1.68.07,2.52,1.32,2.52s2-.84,2.43-2.52Q15,11.42,16.57,6Z"/><path id="Path_9755" data-name="Path 9755" class="cls-1" d="M28.39,16.91q.42-1.82.87-3.63h3.86c-.32,1.28-.62,2.56-.92,3.84-.71,3.09-2.62,5.7-6.49,5.7H25c-3.8,0-5-2.28-4.17-5.73q1.3-5.67,3-11.36C24.84,2.17,27.15,0,30.84,0h.72c4,0,4.73,2,3.63,5.67-.27.9-.52,1.8-.77,2.7H30.55q.35-1.26.72-2.52c.46-1.56.27-2.4-1.05-2.4s-2,.81-2.46,2.4q-1.61,5.51-2.88,11c-.36,1.59-.06,2.43,1.2,2.43S28,18.41,28.39,16.91Z"/><path id="Path_9756" data-name="Path 9756" class="cls-1" d="M49.78.24C49.4,1.4,49,2.56,48.68,3.72H42.77c-.56,1.84-1.1,3.68-1.6,5.52h4.92c-.33,1.19-.64,2.38-.94,3.56H40.23q-.78,3.09-1.46,6.18h6.09q-.39,1.79-.75,3.57h-10A192.5,192.5,0,0,1,40,.24Z"/><path id="Path_9757" data-name="Path 9757" class="cls-1" d="M54.81,18.44H50.73c-.51,1.37-1,2.74-1.49,4.11H45.73A223.94,223.94,0,0,1,55.32.24h5a179.14,179.14,0,0,0-1.85,22.31H54.6Q54.69,20.49,54.81,18.44ZM52,15.11h3c.13-1.66.29-3.33.46-5a50.24,50.24,0,0,1,.83-5.34C55.83,6,55.1,7.71,54.1,10.11c-.71,1.67-1.4,3.33-2.06,5Z"/><path id="Path_9758" data-name="Path 9758" class="cls-1" d="M70.86,14.78a56.69,56.69,0,0,1,1.37-5.9q1.2-4.32,2.6-8.64h3.45a193,193,0,0,0-5.84,22.31H69c-.5-3.51-.89-7-1.19-10.52a29.62,29.62,0,0,1-.14-4.8c-.23,1.22-.6,2.84-1.4,6s-1.48,6.21-2.1,9.32H60.68A193,193,0,0,1,66.52.24h3.9q0,4.92.26,9.84C70.79,12.23,70.86,13.52,70.86,14.78Z"/><path id="Path_9759" data-name="Path 9759" class="cls-1" d="M86.08.24h4c-1,3-1.85,5.9-2.65,8.85h3.68Q92.31,4.66,93.75.24h4A193,193,0,0,0,91.9,22.55h-4c.64-3.24,1.38-6.48,2.2-9.72H86.42q-1.23,4.86-2.2,9.72h-4A193.07,193.07,0,0,1,86.08.24Z"/><path id="Path_9760" data-name="Path 9760" class="cls-1" d="M110.84.24c-.38,1.16-.75,2.32-1.1,3.48h-5.91c-.56,1.84-1.1,3.68-1.6,5.52h4.92c-.33,1.19-.64,2.38-.94,3.56h-4.92q-.78,3.09-1.46,6.18h6.09q-.39,1.79-.75,3.57h-10A192.5,192.5,0,0,1,101,.24Z"/><path id="Path_9761" data-name="Path 9761" class="cls-1" d="M111.77,22.55h-3.93A193,193,0,0,1,113.68.24h7c2.88,0,3.88,1.29,3,4.23q-.37,1.22-.72,2.43a4.8,4.8,0,0,1-3.24,3.6c1,.45,1.87,1.41,1.3,3.69-.47,1.89-.9,3.77-1.3,5.66a6.65,6.65,0,0,0-.17,2.55l0,.15h-3.9a4.81,4.81,0,0,1,.14-2.55q.54-2.58,1.17-5.15c.37-1.53,0-2.19-1.29-2.19H114Q112.76,17.6,111.77,22.55Zm3.08-13.07h1.64c1.35,0,2-.78,2.45-2.22.18-.64.37-1.28.56-1.92.45-1.53.16-2.1-1.19-2.1h-1.66Q115.69,6.36,114.85,9.48Z"/><path id="Path_9762" data-name="Path 9762" class="cls-1" d="M135.29,16.76c-.9,3.93-3.1,6.06-6.88,6.06h-.6c-3.83,0-5.21-2.13-4.31-6.06q1.25-5.39,2.82-10.76c1.12-3.81,3.61-6,7.44-6h.6c4,0,4.86,2.19,3.75,6Q136.54,11.37,135.29,16.76ZM134.07,6c.55-1.86.05-2.55-1.12-2.55s-2.08.69-2.62,2.55q-1.58,5.38-2.82,10.76c-.38,1.68.07,2.52,1.33,2.52s2-.84,2.42-2.52q1.25-5.37,2.82-10.76Z"/><path id="Path_9763" data-name="Path 9763" class="cls-1" d="M152.89.24c-.38,1.16-.74,2.32-1.1,3.48h-5.9c-.56,1.84-1.1,3.68-1.6,5.52h4.91c-.32,1.19-.63,2.38-.93,3.56h-4.92q-.78,3.09-1.46,6.18H148q-.39,1.79-.75,3.57h-10A192.5,192.5,0,0,1,143.09.24Z"/><path id="Path_9764" data-name="Path 9764" class="cls-1" d="M150.17,18.29c.28-1.26.57-2.52.88-3.78H155q-.37,1.53-.72,3.06c-.28,1.23.25,1.83,1.39,1.83s1.93-.75,2.25-2.16l.06-.24a3.17,3.17,0,0,0-.9-3.3c-.75-.86-1.5-1.73-2.24-2.6a5.23,5.23,0,0,1-1.19-5.52c.06-.21.13-.42.19-.63,1-3.36,3.45-4.95,7-4.95h.63c3.27,0,4.68,1.41,3.79,4.32-.29,1-.58,2-.86,2.94h-3.84l.63-2.16c.4-1.35,0-1.89-1-1.89A2.15,2.15,0,0,0,157.82,5l-.06.21a2.78,2.78,0,0,0,.77,3.06q1.07,1.32,2.16,2.64a5.7,5.7,0,0,1,1.44,5.81l-.15.63a6.42,6.42,0,0,1-6.73,5.43h-.66C151.11,22.79,149.54,21.14,150.17,18.29Z"/><path id="Path_9765" data-name="Path 9765" class="cls-1" d="M172.05,22.55h-4A195.12,195.12,0,0,1,173.91.24h4A195.08,195.08,0,0,0,172.05,22.55Z"/><path id="Path_9766" data-name="Path 9766" class="cls-1" d="M175.77,18.29c.28-1.26.57-2.52.88-3.78h3.9q-.37,1.53-.72,3.06c-.28,1.23.25,1.83,1.39,1.83s1.93-.75,2.25-2.16l.05-.24a3.15,3.15,0,0,0-.89-3.3c-.75-.86-1.5-1.73-2.24-2.6a5.23,5.23,0,0,1-1.19-5.52c.06-.21.13-.42.19-.63,1-3.36,3.45-4.95,7-4.95H187c3.27,0,4.68,1.41,3.79,4.32-.29,1-.58,2-.86,2.94h-3.84l.63-2.16c.4-1.35,0-1.89-1.05-1.89A2.15,2.15,0,0,0,183.42,5l-.06.21a2.78,2.78,0,0,0,.76,3.06l2.17,2.64a5.69,5.69,0,0,1,1.44,5.81l-.15.63a6.42,6.42,0,0,1-6.73,5.43h-.66C176.71,22.79,175.13,21.14,175.77,18.29Z"/><path id="Path_9767" data-name="Path 9767" class="cls-1" d="M199,22.82c-4,0-5-2.25-4.25-5.49Q196.65,8.8,199.44.24h4q-2.79,8.52-4.71,17c-.3,1.29.05,2.07,1.28,2.07s1.92-.75,2.23-2.07q1.94-8.5,4.71-17h4q-2.81,8.55-4.73,17.09c-.72,3.18-2.64,5.49-6.63,5.49Z"/><path id="Path_9768" data-name="Path 9768" class="cls-1" d="M218.55,14.78a54.29,54.29,0,0,1,1.38-5.9q1.19-4.32,2.6-8.64H226a195.12,195.12,0,0,0-5.85,22.31h-3.45q-.74-5.27-1.19-10.52a30.81,30.81,0,0,1-.14-4.8c-.23,1.22-.6,2.84-1.4,6s-1.48,6.21-2.1,9.32h-3.48A195.12,195.12,0,0,1,214.22.24h3.9c0,3.28.07,6.56.25,9.84C218.48,12.23,218.55,13.52,218.55,14.78Z"/><path id="Path_9769" data-name="Path 9769" class="cls-1" d="M229.27.24h6.3c3.61,0,4.54,1.44,3.44,5.13q-1.77,6-3.12,11.93c-.82,3.6-2.56,5.25-6.16,5.25h-6.3A193,193,0,0,1,229.27.24Zm-1.15,18.92h1.41c1.44,0,2.09-.78,2.45-2.34q1.28-5.53,2.9-11.06c.47-1.62.22-2.34-1.16-2.34h-1.47q-2.43,7.88-4.13,15.74Z"/><path id="Path_9770" data-name="Path 9770" class="cls-1" d="M253.67.24c-.38,1.16-.74,2.32-1.1,3.48h-5.9q-.85,2.76-1.6,5.52H250c-.32,1.19-.64,2.38-.94,3.56h-4.91q-.78,3.09-1.46,6.18h6.08c-.26,1.19-.5,2.38-.74,3.57H238A194.58,194.58,0,0,1,243.87.24Z"/><path id="Path_9771" data-name="Path 9771" class="cls-1" d="M254.6,22.55h-3.93A195.12,195.12,0,0,1,256.52.24h7c2.89,0,3.88,1.29,3,4.23-.24.81-.48,1.62-.71,2.43a4.79,4.79,0,0,1-3.25,3.6c1.06.45,1.87,1.41,1.31,3.69-.47,1.89-.9,3.77-1.3,5.66a6.65,6.65,0,0,0-.17,2.55l0,.15h-3.9a4.91,4.91,0,0,1,.14-2.55c.36-1.72.76-3.44,1.17-5.15.37-1.53,0-2.19-1.29-2.19h-1.65Q255.6,17.6,254.6,22.55Zm3.08-13.07h1.65c1.35,0,2-.78,2.45-2.22.18-.64.37-1.28.55-1.92.46-1.53.16-2.1-1.19-2.1h-1.65q-1,3.12-1.81,6.24Z"/><path id="Path_9772" data-name="Path 9772" class="cls-1" d="M269.35,22.85c-2.72,0-3.88-2.25-3.2-5.25q1.35-6,3.1-11.9c1-3.42,3.23-5.66,7.16-5.66H277c4.11,0,4.5,2.21,3.52,5.51L280.14,7H276.3l.36-1.26c.44-1.5.21-2.28-1-2.28s-1.95.78-2.39,2.28q-1.65,5.58-2.92,11.15c-.35,1.53,0,2.46,1.31,2.46s2.1-1,2.43-2.42.65-2.78,1-4.17h-2.16q.43-1.71.9-3.42h5.84q-1.8,6.6-3.11,13.19h-2.43a20.59,20.59,0,0,0-.27-2.19,5.52,5.52,0,0,1-4.28,2.49Z"/><path id="Path_9773" data-name="Path 9773" class="cls-1" d="M292.69,16.76c-.9,3.93-3.09,6.06-6.87,6.06h-.6c-3.83,0-5.21-2.13-4.31-6.06q1.24-5.39,2.81-10.76c1.12-3.81,3.61-6,7.44-6h.6c4,0,4.87,2.19,3.76,6Q293.93,11.37,292.69,16.76ZM291.48,6c.55-1.86,0-2.55-1.12-2.55s-2.08.69-2.63,2.55q-1.58,5.38-2.81,10.76c-.39,1.68.07,2.52,1.33,2.52s2-.84,2.42-2.52q1.24-5.37,2.81-10.76Z"/><path id="Path_9774" data-name="Path 9774" class="cls-1" d="M298.64,22.55h-4A197.17,197.17,0,0,1,300.49.24h4A193,193,0,0,0,298.64,22.55Z"/><path id="Path_9775" data-name="Path 9775" class="cls-1" d="M312.1,14.78a59.41,59.41,0,0,1,1.38-5.9c.8-2.88,1.66-5.76,2.6-8.64h3.45a193,193,0,0,0-5.84,22.31h-3.45q-.75-5.27-1.19-10.52a29.62,29.62,0,0,1-.14-4.8c-.23,1.22-.6,2.84-1.4,6s-1.48,6.21-2.1,9.32h-3.48A193.07,193.07,0,0,1,307.78.24h3.9q0,4.92.25,9.84C312,12.23,312.11,13.52,312.1,14.78Z"/><path id="Path_9776" data-name="Path 9776" class="cls-1" d="M321.15,22.85c-2.73,0-3.88-2.25-3.2-5.25q1.35-6,3.09-11.9c1-3.42,3.24-5.66,7.17-5.66h.63c4.11,0,4.5,2.21,3.52,5.51L331.94,7H328.1l.36-1.26c.44-1.5.21-2.28-1-2.28s-1.95.78-2.39,2.28q-1.65,5.58-2.92,11.15c-.35,1.53,0,2.46,1.3,2.46s2.1-1,2.44-2.42.65-2.78,1-4.17h-2.16q.44-1.71.9-3.42h5.84q-1.8,6.6-3.11,13.19h-2.42c0-.27-.13-1.32-.27-2.19a5.55,5.55,0,0,1-4.29,2.49Z"/><path id="Path_9777" data-name="Path 9777" class="cls-1" d="M8.49,48.42H4.42c-.32,1.37-.62,2.74-.91,4.1H0c1.69-7.43,3.72-14.87,6.16-22.3h5a218.66,218.66,0,0,0,1.57,22.3H8.88C8.74,51.15,8.61,49.79,8.49,48.42ZM5.23,45.09h3c-.12-1.67-.22-3.34-.3-5a50.06,50.06,0,0,1,0-5.34c-.29,1.26-.76,2.94-1.39,5.34q-.67,2.49-1.29,5Z"/><path id="Path_9778" data-name="Path 9778" class="cls-1" d="M24,44.76a55.59,55.59,0,0,1,.47-5.91q.51-4.31,1.2-8.63h3.45a222.48,222.48,0,0,0-2.41,22.3H23.26Q21.78,47.27,20.52,42a32.46,32.46,0,0,1-.89-4.8c0,1.23-.15,2.85-.46,6s-.56,6.22-.74,9.33H15q.65-11.22,2.41-22.31h3.9q.81,4.92,1.84,9.83C23.55,42.21,23.82,43.5,24,44.76Z"/><path id="Path_9779" data-name="Path 9779" class="cls-1" d="M46.72,30.22c-.19,1.16-.36,2.32-.53,3.48H40.28c-.26,1.84-.5,3.67-.72,5.51h4.92q-.21,1.78-.39,3.57H39.18q-.32,3.09-.54,6.18h6.08c-.09,1.19-.16,2.37-.23,3.56h-10q.64-11.21,2.41-22.3Z"/><path id="Path_9780" data-name="Path 9780" class="cls-1" d="M45.71,52.52c1.58-3.93,3.24-7.87,5-11.81q-1.22-5.25-2.18-10.49h4.08c.32,2.47.69,4.93,1.1,7.4q1.55-3.69,3.21-7.4h3.93q-2.61,5.3-5,10.58c.86,3.91,1.84,7.82,2.91,11.72h-4c-.7-2.72-1.36-5.45-2-8.18-1.13,2.73-2.2,5.46-3.23,8.18Z"/><path id="Path_9781" data-name="Path 9781" class="cls-1" d="M68.21,46.89c.1-1.21.21-2.42.32-3.63H72.4c-.12,1.28-.24,2.56-.34,3.84-.26,3.09-1.8,5.69-5.68,5.7h-.72c-3.8,0-5.27-2.28-5-5.73q.47-5.67,1.22-11.36C62.37,32.14,64.32,30,68,30h.72c4,0,5.06,1.95,4.56,5.67-.12.9-.23,1.8-.34,2.7H69.07c.1-.84.21-1.68.32-2.52.21-1.56-.12-2.4-1.44-2.4s-1.86.81-2.07,2.4q-.73,5.49-1.18,11c-.13,1.59.29,2.43,1.55,2.43S68.08,48.38,68.21,46.89Z"/><path id="Path_9782" data-name="Path 9782" class="cls-1" d="M78.75,52.52h-4q.64-11.21,2.41-22.3h4A222.48,222.48,0,0,0,78.75,52.52Z"/><path id="Path_9783" data-name="Path 9783" class="cls-1" d="M86.8,33.76H83.17q.26-1.77.54-3.54H94.92q-.28,1.77-.54,3.54h-3.6c-.9,6.25-1.5,12.51-1.87,18.76h-4C85.29,46.27,85.9,40,86.8,33.76Z"/><path id="Path_9784" data-name="Path 9784" class="cls-1" d="M99,52.52h-4a222.48,222.48,0,0,1,2.41-22.3h4A222.48,222.48,0,0,0,99,52.52Z"/><path id="Path_9785" data-name="Path 9785" class="cls-1" d="M111.38,44.76a55.59,55.59,0,0,1,.47-5.91q.51-4.31,1.2-8.63h3.45a222.48,222.48,0,0,0-2.41,22.3h-3.45Q109.16,47.27,107.9,42a31.21,31.21,0,0,1-.89-4.8c0,1.23-.15,2.85-.47,6s-.55,6.22-.73,9.33h-3.48q.65-11.22,2.41-22.31h3.9q.81,4.92,1.84,9.83C110.93,42.21,111.2,43.5,111.38,44.76Z"/><path id="Path_9786" data-name="Path 9786" class="cls-1" d="M121.6,52.82c-2.73,0-4.2-2.25-4-5.24q.48-6,1.26-11.9c.46-3.42,2.31-5.67,6.24-5.67h.63c4.11,0,4.87,2.22,4.43,5.52-.07.49-.13,1-.19,1.47h-3.84c0-.42.11-.84.16-1.26.2-1.5-.16-2.28-1.39-2.28s-1.82.78-2,2.28q-.75,5.58-1.2,11.15c-.13,1.53.32,2.46,1.66,2.46s2-1,2.08-2.43.24-2.78.38-4.17h-2.16c.12-1.14.24-2.27.37-3.41h5.85q-.77,6.6-1.15,13.19h-2.43c0-.27-.31-1.32-.58-2.19a4.62,4.62,0,0,1-3.93,2.49Z"/><path id="Path_9787" data-name="Path 9787" class="cls-1" d="M140.38,52.52h-3.93a222.48,222.48,0,0,1,2.41-22.3h7c2.88,0,4.1,1.29,3.68,4.23l-.33,2.42a3.88,3.88,0,0,1-2.67,3.6c1.12.46,2.08,1.41,1.86,3.69q-.27,2.84-.46,5.67a6.66,6.66,0,0,0,.2,2.55v.15h-3.9A4.93,4.93,0,0,1,144,50q.18-2.58.42-5.16c.14-1.52-.3-2.19-1.62-2.19h-1.65Q140.66,47.58,140.38,52.52Zm1.14-13.07h1.64c1.35,0,1.92-.78,2.1-2.22.09-.64.17-1.28.26-1.92.2-1.52-.19-2.1-1.54-2.1h-1.65q-.45,3.13-.81,6.24Z"/><path id="Path_9788" data-name="Path 9788" class="cls-1" d="M163.17,30.22c-.18,1.16-.36,2.32-.52,3.48h-5.91c-.27,1.84-.51,3.67-.72,5.51h4.92q-.21,1.78-.39,3.57h-4.92q-.3,3.09-.53,6.18h6.08c-.09,1.19-.17,2.37-.23,3.56H151a222.48,222.48,0,0,1,2.41-22.3Z"/><path id="Path_9789" data-name="Path 9789" class="cls-1" d="M166,30.22h6.78c3.45,0,4.38,1.38,4,4.35l-.27,2c-.32,2.5-1.45,3.39-2.52,3.78,1.1.42,2.24,1.35,2,4-.1,1.09-.19,2.18-.28,3.27-.24,3-1.95,4.88-5.28,4.88h-6.78A222.48,222.48,0,0,1,166,30.22Zm3.47,3q-.44,3-.78,5.91h1.8c1.32,0,1.88-.66,2.06-2.13.08-.59.15-1.18.24-1.77.2-1.47-.2-2-1.55-2Zm-1.13,9.11q-.36,3.53-.62,7.05h1.86c1.38,0,1.93-.57,2.05-2.16l.24-2.7c.15-1.56-.32-2.19-1.73-2.19Z"/><path id="Path_9790" data-name="Path 9790" class="cls-1" d="M182.17,52.52h-3.93a222.48,222.48,0,0,1,2.41-22.3h7c2.89,0,4.1,1.29,3.69,4.23-.12.81-.22,1.62-.33,2.42a3.88,3.88,0,0,1-2.68,3.6c1.12.46,2.09,1.41,1.87,3.69q-.27,2.84-.46,5.67a6.86,6.86,0,0,0,.19,2.55v.15H186A5.15,5.15,0,0,1,185.8,50c.13-1.72.26-3.44.42-5.16.14-1.52-.3-2.19-1.62-2.19H183Q182.46,47.58,182.17,52.52Zm1.13-13.07H185c1.35,0,1.92-.78,2.1-2.22.08-.64.17-1.28.25-1.92.21-1.52-.18-2.1-1.53-2.1h-1.65c-.3,2.09-.58,4.17-.82,6.24Z"/><path id="Path_9791" data-name="Path 9791" class="cls-1" d="M200.19,48.42h-4.08c-.31,1.37-.61,2.74-.9,4.1H191.7c1.68-7.43,3.71-14.87,6.16-22.3h5a221.57,221.57,0,0,0,1.58,22.3h-3.84C200.44,51.15,200.31,49.79,200.19,48.42Zm-3.26-3.33h3c-.12-1.67-.22-3.34-.3-5a50.06,50.06,0,0,1,0-5.34c-.29,1.26-.76,2.94-1.39,5.34q-.67,2.49-1.29,5Z"/><path id="Path_9792" data-name="Path 9792" class="cls-1" d="M215.69,44.76a58.35,58.35,0,0,1,.48-5.91q.51-4.31,1.2-8.63h3.44q-1.76,11.09-2.41,22.3H215q-1.5-5.25-2.75-10.52a32.44,32.44,0,0,1-.88-4.8c0,1.23-.15,2.85-.47,6s-.55,6.22-.73,9.33h-3.48a222.36,222.36,0,0,1,2.41-22.31H213c.53,3.28,1.15,6.56,1.83,9.83C215.25,42.21,215.51,43.5,215.69,44.76Z"/><path id="Path_9793" data-name="Path 9793" class="cls-1" d="M224.11,30.22h6.3c3.61,0,4.79,1.44,4.28,5.13q-.8,6-1.28,11.93c-.29,3.6-1.8,5.24-5.4,5.24h-6.3Q222.35,41.32,224.11,30.22Zm1.8,18.92h1.41c1.45,0,2-.78,2.1-2.34q.47-5.53,1.2-11.07c.22-1.61-.15-2.33-1.54-2.33h-1.46q-1.14,7.86-1.71,15.74Z"/><path id="Path_9794" data-name="Path 9794" class="cls-1" d="M242.73,30.22q-1.93,8.07-3.26,16.13h-1.73q.06-8.07.73-16.13Zm-2.47,22.3h-4.2c.09-1.53.2-3.07.32-4.61h4.2c-.12,1.54-.23,3.07-.32,4.61Z"/><path id="Path_9795" data-name="Path 9795" class="cls-1" d="M11.23,98.57c0,1.2-.13,3.17-.26,6.2-.13,2.57-.23,5.14-.32,7.71H6.36C4.22,105,2.24,97.61.48,90.17H4.4q1.08,5.11,2.29,10.22c.67,2.85,1.24,5.4,1.49,6.54,0-1.17,0-3.75.13-6.54q.22-5.1.59-10.22h3.45q1.1,5.11,2.32,10.22c.65,2.73,1.26,5.37,1.48,6.54,0-1.17,0-3.69.14-6.54q.23-5.1.58-10.22h3.72C19.87,97.61,19.38,105,19,112.48H14.75q-1-3.86-2-7.71C11.91,101.74,11.43,99.77,11.23,98.57Z"/><path id="Path_9796" data-name="Path 9796" class="cls-1" d="M32.73,90.17c.08,1.16.17,2.32.26,3.48h-5.9c.14,1.84.3,3.68.47,5.52h4.92c.11,1.19.22,2.37.34,3.56H27.91q.32,3.09.66,6.18h6.09q.2,1.78.42,3.57h-10c-.9-7.44-1.65-14.87-2.17-22.31Z"/><path id="Path_9797" data-name="Path 9797" class="cls-1" d="M49.86,98.57c0,1.2-.12,3.17-.25,6.2q-.2,3.86-.33,7.71H45c-2.14-7.44-4.13-14.87-5.89-22.31H43q1.08,5.11,2.29,10.22c.66,2.85,1.24,5.4,1.48,6.54,0-1.17,0-3.75.14-6.54q.22-5.1.59-10.22H51q1.1,5.11,2.33,10.22c.65,2.73,1.26,5.37,1.48,6.54,0-1.17,0-3.69.13-6.54.16-3.4.35-6.81.59-10.22h3.72C58.51,97.61,58,105,57.68,112.48H53.39q-1.05-3.86-2-7.71C50.55,101.74,50.07,99.77,49.86,98.57Z"/><path id="Path_9798" data-name="Path 9798" class="cls-1" d="M69.82,108.37H65.74l-.15,4.11h-3.5c.34-7.44.85-14.87,1.58-22.31h5c1.85,7.44,3.93,14.87,6.16,22.31H71Q70.38,110.43,69.82,108.37ZM65.92,105h3q-.67-2.49-1.31-5c-.63-2.46-1-4.08-1.17-5.34,0,1.26-.11,2.94-.24,5.34-.11,1.66-.2,3.33-.28,5Z"/><path id="Path_9799" data-name="Path 9799" class="cls-1" d="M84.62,104.71c-.23-1.29-.43-2.58-.74-5.9-.26-2.88-.5-5.76-.7-8.64h3.45c.52,7.44,1.27,14.87,2.17,22.31H85.35q-2.43-5.26-4.76-10.53a40.53,40.53,0,0,1-1.89-4.8c.23,1.23.46,2.85.78,6s.67,6.22,1,9.33H77.05c-.9-7.44-1.65-14.87-2.17-22.31h3.9q1.93,4.92,4,9.84C83.66,102.16,84.18,103.45,84.62,104.71Z"/><path id="Path_9800" data-name="Path 9800" class="cls-1" d="M93.07,93.71H89.44c-.09-1.18-.18-2.36-.26-3.54h11.21c.08,1.18.17,2.36.26,3.54h-3.6c.5,6.26,1.15,12.51,1.9,18.77H95C94.21,106.22,93.56,100,93.07,93.71Z"/><path id="Path_9801" data-name="Path 9801" class="cls-1" d="M110.57,93.71h-3.63c-.09-1.18-.18-2.36-.26-3.54h11.21q.12,1.77.27,3.54h-3.6q.75,9.39,1.9,18.77h-4C111.72,106.22,111.07,100,110.57,93.71Z"/><path id="Path_9802" data-name="Path 9802" class="cls-1" d="M133.33,106.69c.44,3.93-1.1,6.06-4.87,6.06h-.6c-3.84,0-5.88-2.13-6.31-6.06-.4-3.59-.75-7.17-1-10.76-.33-3.81,1.27-6,5.11-6h.6c4,0,5.75,2.19,6.07,6C132.58,99.5,132.93,103.09,133.33,106.69ZM128.26,96c-.15-1.86-.92-2.55-2.1-2.55s-1.8.69-1.64,2.55c.3,3.59.65,7.17,1,10.76.18,1.68.91,2.52,2.17,2.52s1.76-.84,1.57-2.52Q128.72,101.34,128.26,96Z"/><path id="Path_9803" data-name="Path 9803" class="cls-1" d="M139.53,90.17h4q.31,4.42.72,8.84h3.69q-.41-4.41-.72-8.84h4c.52,7.44,1.26,14.87,2.16,22.31h-4q-.6-4.86-1.09-9.72h-3.68q.48,4.86,1.08,9.72h-4C140.8,105,140.05,97.61,139.53,90.17Z"/><path id="Path_9804" data-name="Path 9804" class="cls-1" d="M164.3,90.17c.08,1.16.16,2.32.25,3.48h-5.9q.22,2.76.48,5.52H164c.11,1.19.23,2.37.35,3.56h-4.92q.32,3.09.67,6.18h6.08l.42,3.57h-10c-.9-7.44-1.65-14.87-2.17-22.31Z"/><path id="Path_9805" data-name="Path 9805" class="cls-1" d="M176,108.37h-4.07q-.09,2.05-.15,4.11h-3.51c.35-7.44.85-14.87,1.58-22.31h5c1.85,7.44,3.92,14.87,6.15,22.31h-3.84Zm-3.9-3.33h3q-.66-2.49-1.31-5c-.62-2.46-1-4.08-1.16-5.34,0,1.26-.12,2.94-.25,5.34-.1,1.66-.19,3.33-.28,5Z"/><path id="Path_9806" data-name="Path 9806" class="cls-1" d="M187.15,112.48h-3.93c-.9-7.44-1.65-14.87-2.17-22.31h7c2.88,0,4.4,1.29,4.63,4.23l.2,2.43c.21,2.34-.92,3.3-1.92,3.6a4,4,0,0,1,2.62,3.69q.3,2.82.63,5.66a7.51,7.51,0,0,0,.66,2.55l0,.15H191a5.56,5.56,0,0,1-.69-2.55c-.2-1.72-.39-3.44-.58-5.16-.16-1.52-.73-2.18-2.05-2.18H186Q186.55,107.53,187.15,112.48Zm-1.41-13.07h1.65c1.34,0,1.75-.79,1.62-2.22,0-.64-.11-1.28-.16-1.92-.13-1.53-.65-2.1-2-2.1H185.2q.24,3.12.53,6.24Z"/><path id="Path_9807" data-name="Path 9807" class="cls-1" d="M200.06,90.17h9.8c.08,1.16.16,2.32.26,3.48h-5.91c.15,1.84.3,3.68.47,5.52h4.95c.11,1.19.23,2.37.35,3.56H205q.5,4.88,1.09,9.75h-3.9C201.32,105,200.58,97.61,200.06,90.17Z"/><path id="Path_9808" data-name="Path 9808" class="cls-1" d="M218.56,112.48h-3.93c-.9-7.44-1.64-14.87-2.17-22.31h7c2.88,0,4.4,1.29,4.64,4.23l.2,2.43c.2,2.34-.93,3.3-1.92,3.6a4,4,0,0,1,2.62,3.69q.28,2.82.62,5.66a7.75,7.75,0,0,0,.66,2.55l0,.15h-3.9a5.56,5.56,0,0,1-.69-2.55q-.3-2.58-.57-5.16c-.16-1.52-.74-2.18-2.06-2.18h-1.65Q218,107.53,218.56,112.48Zm-1.41-13.07h1.65c1.35,0,1.75-.79,1.63-2.22-.06-.64-.11-1.28-.17-1.92-.13-1.53-.65-2.1-2-2.1h-1.65q.25,3.12.54,6.24Z"/><path id="Path_9809" data-name="Path 9809" class="cls-1" d="M240.17,106.69c.43,3.93-1.1,6.06-4.88,6.06h-.6c-3.83,0-5.87-2.13-6.31-6.06-.39-3.59-.74-7.17-1-10.76-.32-3.81,1.28-6,5.12-6h.6c4,0,5.74,2.19,6.06,6C239.42,99.5,239.77,103.09,240.17,106.69ZM235.1,96c-.16-1.86-.93-2.55-2.1-2.55s-1.81.69-1.65,2.55c.31,3.59.66,7.17,1.05,10.76.19,1.68.91,2.52,2.17,2.52s1.76-.84,1.58-2.52Q235.57,101.34,235.1,96Z"/><path id="Path_9810" data-name="Path 9810" class="cls-1" d="M252.83,112.48h-2.1q-1.69-5.31-3.27-10.62c-1-3.23-1.44-5.1-1.93-7,.26,2.49.48,4.55.8,7.73s.7,6.6,1.1,9.9H244c-.9-7.44-1.65-14.87-2.17-22.31h5.34c.69,2.65,1.42,5.3,2.17,8s1.1,4.1,1.55,5.78c.1-1.68.12-3.17.4-5.78s.57-5.3.89-8h5.24c.53,7.44,1.27,14.87,2.17,22.31h-3.48c-.4-3.3-.76-6.6-1.1-9.9s-.44-5.24-.59-7.73c-.17,1.86-.36,3.81-.67,6.8Q253.25,107.07,252.83,112.48Z"/><path id="Path_9811" data-name="Path 9811" class="cls-1" d="M269.19,103.93q-2.73-6.87-5.23-13.76h4q1.36,4.45,2.83,8.9c.42-3,.88-5.93,1.37-8.9h3.78q-1.48,6.93-2.72,13.85.45,4.23,1,8.46h-4Q269.63,108.2,269.19,103.93Z"/><path id="Path_9812" data-name="Path 9812" class="cls-1" d="M290.65,106.69c.43,3.93-1.1,6.06-4.88,6.06h-.6c-3.83,0-5.87-2.13-6.31-6.06-.39-3.59-.74-7.17-1.05-10.76-.32-3.81,1.28-6,5.12-6h.6c4,0,5.75,2.19,6.06,6C289.9,99.5,290.25,103.09,290.65,106.69ZM285.58,96c-.16-1.86-.93-2.55-2.1-2.55s-1.81.69-1.65,2.55c.3,3.59.65,7.17,1.05,10.76.19,1.68.91,2.52,2.17,2.52s1.76-.84,1.58-2.52Q286,101.34,285.58,96Z"/><path id="Path_9813" data-name="Path 9813" class="cls-1" d="M299.92,112.75c-4,0-5.71-2.25-6.06-5.49q-1-8.54-1.57-17.09h4q.6,8.52,1.56,17c.14,1.29.74,2.07,2,2.07s1.68-.75,1.53-2.07q-.94-8.52-1.55-17h4q.6,8.55,1.56,17.09c.35,3.18-.83,5.49-4.82,5.49Z"/></g></svg>