<?xml version="1.0" encoding="utf-8"?>
<!-- Generator: Adobe Illustrator 25.4.1, SVG Export Plug-In . SVG Version: 6.00 Build 0)  -->
<svg version="1.1" id="Layer_1" xmlns="http://www.w3.org/2000/svg" xmlns:xlink="http://www.w3.org/1999/xlink" x="0px" y="0px"
	 viewBox="0 0 199.5 199.5" style="enable-background:new 0 0 199.5 199.5;" xml:space="preserve">
<style type="text/css">
	.st0{fill:#E1273A;}
	.st1{fill:#FFFFFF;}
</style>
<g id="Group_250">
	<path id="Path_9826" class="st0" d="M194.8,87.8l0.7-0.9c4.4-5.7,3.3-13.9-2.4-18.2c-0.6-0.4-1.2-0.8-1.8-1.2l-1.1-0.6
		c-5.4-2.9-8-9-6.4-14.9l0,0c1.9-6.9-2.2-14.1-9.1-16c0,0,0,0-0.1,0c-0.7-0.2-1.3-0.3-2-0.4l-2.5-0.3c-5.9-0.7-10.7-5.3-11.5-11.2
		l-0.1-1.1c-1-7.1-7.6-12.1-14.7-11.2c-0.7,0.1-1.3,0.2-2,0.4l-1.2,0.4c-5.8,1.8-12.1-0.7-15.1-6l0,0c-3.6-6.2-11.5-8.4-17.8-4.8
		c-0.6,0.3-1.2,0.7-1.7,1.2l-1.9,1.6c-4.7,3.8-11.3,3.9-16.1,0.2L86.9,4C81.1-0.4,73,0.8,68.6,6.5c0,0,0,0,0,0
		c-0.4,0.5-0.8,1.1-1.1,1.7l-0.6,1.1c-2.9,5.3-9,8-14.9,6.4l0,0c-6.9-1.9-14.1,2.2-16,9.1c0,0,0,0.1,0,0.1c-0.2,0.7-0.3,1.3-0.4,2
		l-0.3,2.5c-0.6,6-5.3,10.8-11.3,11.6l-1.1,0.2c-7.1,1-12.1,7.6-11.2,14.7c0.1,0.7,0.2,1.3,0.4,2l0.4,1.1c1.8,5.8-0.7,12.1-6,15.1
		l0,0c-6.3,3.6-8.5,11.5-4.9,17.8c0,0,0,0.1,0.1,0.1c0.3,0.6,0.7,1.2,1.2,1.7l1.5,1.9c3.8,4.7,3.9,11.3,0.2,16.1L4,112.6
		c-4.4,5.7-3.2,13.9,2.5,18.3c0.6,0.4,1.1,0.8,1.7,1.1l1.1,0.6c5.4,2.9,8,9.1,6.4,14.9l0,0c-1.9,6.9,2.2,14.1,9.2,16
		c0.7,0.2,1.3,0.3,2,0.4l2.5,0.3c6,0.6,10.8,5.2,11.6,11.2l0.2,1.1c1,7.1,7.6,12.1,14.7,11.2c0,0,0,0,0,0c0.7-0.1,1.3-0.2,2-0.4
		l1.2-0.4c5.8-1.8,12.1,0.7,15.1,6l0,0c3.5,6.3,11.5,8.5,17.7,4.9c0,0,0.1,0,0.1-0.1c0.6-0.3,1.2-0.7,1.7-1.2l1.9-1.6
		c4.7-3.8,11.3-3.9,16.1-0.2l0.9,0.7c5.7,4.4,13.9,3.3,18.2-2.4c0,0,0,0,0.1-0.1c0.4-0.5,0.8-1.1,1.1-1.7l0.6-1.1
		c2.9-5.4,9.1-8,14.9-6.4l0,0c6.9,1.9,14.1-2.2,16-9.1c0,0,0,0,0-0.1c0.2-0.7,0.3-1.3,0.4-2l0.3-2.5c0.6-6,5.3-10.7,11.2-11.5
		l1.1-0.1c7.1-1,12.1-7.6,11.2-14.7c0,0,0,0,0,0c-0.1-0.7-0.2-1.3-0.4-2l-0.4-1.2c-1.8-5.8,0.7-12.1,6-15.1l0,0
		c6.2-3.5,8.4-11.5,4.9-17.7c0,0,0-0.1,0-0.1c-0.3-0.6-0.7-1.2-1.2-1.7l-1.5-2C191.2,99.2,191.1,92.6,194.8,87.8z"/>
	<g>
		<path class="st1" d="M29.2,106.6c-0.8-4.1,0.9-6.8,4.7-7.5l0.9-0.2c3.6-0.7,6.3,1.1,7.1,5.1l2.5,13c0.6,3.3-0.9,6.8-4.7,7.5
			l-0.9,0.2c-4.3,0.8-6.5-2-7.1-5.3L29.2,106.6z M36.6,118.2c0.2,1.2,0.8,1.8,1.8,1.7c1-0.2,1.2-1.1,1-2.2L37,105.1
			c-0.3-1.4-0.9-1.8-1.7-1.6c-0.8,0.2-1.3,0.7-1,2.2L36.6,118.2z"/>
		<path class="st1" d="M41.7,88.1l4.9-0.9l2.3,12.3c0.6-1.6,1.7-3.4,3.5-3.7l0.2,0c2.6-0.5,3.7,1.6,4,3.2l4,21.1l-5,0.9l-3.5-18.6
			c-0.2-1.2-0.7-1.8-1.6-1.6c-1,0.2-1.3,1-1,2.3l3.5,18.4l-4.9,0.9L41.7,88.1z"/>
		<path class="st1" d="M66.3,119l-8.5-24.1l4.9-0.9l4.8,15.1l-1-15.8l4.3-0.8l4.8,15.1l-1.1-15.8l4.6-0.9l0.9,25.5l-5,0.9l-4.5-13.8
			l0.9,14.5L66.3,119z"/>
		<path class="st1" d="M83.4,105.8c-0.5-2.4-0.1-4,1.4-5.4c1-0.9,3.2-2.5,3.9-3c0.5-0.4,0.5-0.5,0.4-1.2l-0.3-1.6
			c-0.2-1.2-0.6-1.6-1.5-1.4l-0.1,0c-1,0.2-1.2,0.7-0.9,1.8l0.5,2.6l-4.4,0.8L81.6,95c-0.4-1.8-0.3-4.8,4.3-5.7l0.9-0.2
			c4.7-0.9,6,1.2,6.5,3.8l2.8,14.8c0.1,0.6,0.3,0.8,0.9,0.6l0.9-0.2l0.9,4.6l-4.7,0.9c-1.1,0.2-1.8-0.4-2.1-2.5
			c-0.3,1.3-1.4,3.3-3.5,3.7l-0.1,0c-1.9,0.4-3.5-1.3-3.9-3.3L83.4,105.8z M90.1,101.5c-0.5,0.4-1.1,1-1.5,1.6
			c-0.4,0.6-0.5,1.1-0.3,2.1l0.6,3.4c0.2,1.1,0.6,1.6,1.5,1.4c0.8-0.2,1.1-0.9,0.9-2.1L90.1,101.5z"/>
		<path class="st1" d="M104.8,86l4.9-0.9L107,96.5l7.7,13.3l-5.1,1l-6.1-10.7l2.2,11.5l-4.9,0.9l-6.5-34.3l4.9-0.9l3.5,18.5
			L104.8,86z"/>
		<path class="st1" d="M124.1,88.4l1.4,7.1l-7.3,1.4l1.1,5.7c0.2,1.1,0.7,1.8,1.7,1.6c0.8-0.2,1.1-1,0.9-2l-0.8-4.1l4.8-0.9l0.8,4.3
			c0.8,4.4-1.1,6.7-4.6,7.4l-0.9,0.2c-3.3,0.6-5.8-0.9-6.6-5.2L112,90.4c-0.6-3.4,0.5-6.3,4.5-7l0.9-0.2
			C121.2,82.5,123.3,84.3,124.1,88.4z M117.3,92.8l2.7-0.5l-0.6-3.1c-0.2-1.1-0.6-1.9-1.7-1.7c-1.2,0.2-1.2,1.1-1,2.2L117.3,92.8z"
			/>
		<path class="st1" d="M134.7,106l-4.8,0.9l-1.1-5.9l4.8-0.9L134.7,106z"/>
		<path class="st1" d="M133.4,86.8c-0.8-4.1,0.9-6.8,4.7-7.5l0.9-0.2c3.6-0.7,6.3,1.1,7.1,5.1l2.5,13c0.6,3.3-0.9,6.8-4.7,7.5
			l-0.9,0.2c-4.3,0.8-6.5-2-7.1-5.3L133.4,86.8z M140.8,98.4c0.2,1.2,0.8,1.8,1.8,1.7c1-0.2,1.2-1.1,1-2.2l-2.4-12.5
			c-0.3-1.4-0.9-1.8-1.7-1.6c-0.8,0.2-1.3,0.7-1,2.2L140.8,98.4z"/>
		<path class="st1" d="M153.1,80c0.2-1,0.9-3.6,3.2-4l0.2,0c1.8-0.3,2.8,0.7,3.1,2.3l1.7,9l-4.8,0.9l-1.1-5.5
			c-0.2-1.1-0.3-1.5-1.1-1.4c-0.8,0.1-0.7,0.7-0.5,1.7l3.5,18.7l-4.9,0.9l-4.7-24.8l4.8-0.9L153.1,80z"/>
		<path class="st1" d="M173.3,95.6c-0.4,1.7-1.4,3.6-3.5,4c-1.9,0.4-3.9-1.2-4.5-3.9l-2.8-14.8c-0.7-3.6,0.2-6,2.6-6.4
			c2.1-0.4,3.5,0.8,4.7,2.2l-0.5-2.9l4.8-0.9l5.5,28.8c0.3,1.8,0.5,5.1-4.9,6.1l-1.1,0.2c-4.5,0.9-5.9-1-6.3-3.2l-0.7-3.6l4.7-0.9
			l0.4,2.2c0.2,0.9,0.6,1.4,1.5,1.2l0.2,0c1-0.2,1.2-0.8,1-1.7L173.3,95.6z M170.3,79.8c-0.2-1-0.7-1.7-1.7-1.5
			c-0.9,0.2-1.2,1-0.9,2l2.4,12.6c0.2,1.1,0.8,1.8,1.7,1.6c0.9-0.2,1.2-1,1-2.1L170.3,79.8z"/>
	</g>
</g>
</svg>
