<svg id="Layer_1" data-name="Layer 1" xmlns="http://www.w3.org/2000/svg" viewBox="0 0 141.24 136.27"><defs><style>.cls-1{fill:#2f12d4;stroke:#fff;stroke-miterlimit:10;stroke-width:3px;}</style></defs><path id="Path_14623" data-name="Path 14623" class="cls-1" d="M139.74,71.56l-56.35-.94,52.37,19.79L132.94,97,81.45,75l40.61,37.61-5.25,5.06-38.95-39,22.44,49.53-6.71,2.9L73.09,80.37l1.17,54.4H66.87l1.27-54.4-20.5,50.74-6.8-2.9L63.38,78.68l-39.05,39-5.15-5.07L59.79,75,8.2,97,5.48,90.41,57.75,70.62,1.5,71.74V64.43l56.25,1.22L5.48,45.86,8.2,39.29l51.59,22L19.18,23.54l5.15-5,39.05,39L40.84,8l6.8-2.82L68.14,55.8,66.88,1.5h7.38L73.1,55.8,93.6,5.15,100.31,8,77.86,57.58l39-39,5.25,5L81.46,61.24,132.94,39.3l2.82,6.56L83.39,65.65l56.35-1.22Z"/></svg>