<svg id="Layer_1" data-name="Layer 1" xmlns="http://www.w3.org/2000/svg" viewBox="0 0 179.55 179.42"><defs><style>.cls-1{fill:#2f12d4;stroke:#fff;stroke-miterlimit:10;stroke-width:3px;}</style></defs><path id="Path_14625" data-name="Path 14625" class="cls-1" d="M108.9,85q18.63-4.58,33.25-7.28t19.9-2.7q7.22,0,11.6,4A13.41,13.41,0,0,1,178,89.41a14,14,0,0,1-4.33,10.76q-4.32,4-11.66,4-5.53,0-19.9-2.65t-33.37-7.1c-.09.25-.2.65-.36,1.2a27.59,27.59,0,0,1-1.8,4.09q3.12,2.06,9,5.78,41,25.86,41,36.2a14.17,14.17,0,0,1-4.39,10.22,13.85,13.85,0,0,1-10.16,4.45q-10.46,0-36.56-41.13-3.6-5.78-5.53-8.78a28,28,0,0,1-2.65,1.27,22.23,22.23,0,0,1-2.76.9q4.56,19.11,7.22,33.66t2.64,19.85q0,7.09-4,11.42a13.69,13.69,0,0,1-10.52,4.33q-6.74,0-10.64-4.33T75.34,161.8q0-5.3,2.65-19.66t7.22-33.25a9.44,9.44,0,0,1-2.35-.6A24.12,24.12,0,0,1,80,107L76,113.46q-27.3,43.41-38,43.41a14.79,14.79,0,0,1-14.56-14.43q0-10.22,38.6-34.87l10.83-7c-.4-.73-.8-1.53-1.2-2.41s-.8-1.88-1.2-3Q53.1,99.39,38.55,101.8t-21,2.4q-7.58,0-11.78-3.6T1.51,90.5A15.15,15.15,0,0,1,5.84,79.31Q10.18,75,17.26,75q4.2,0,17.8,2.7t35.12,7.75a21.94,21.94,0,0,1,1-2.94,17.75,17.75,0,0,1,1.32-2.7q-4.81-3-13.47-8.55-36.56-23-36.56-33.31,0-5.52,4.57-10.16a14.1,14.1,0,0,1,10.23-4.63q10.1,0,35.83,40.4,3.84,6.14,6,9.38a26.72,26.72,0,0,1,2.65-1.26,24.3,24.3,0,0,1,2.65-.9q-4.45-19-7.1-33.37T74.62,17.5q0-7.1,4-11.54A13.49,13.49,0,0,1,89.17,1.51,13.75,13.75,0,0,1,99.7,5.83q4,4.34,4,11.43,0,5.05-2.71,19.66T93.86,70.41a26.33,26.33,0,0,1,3.25,1.08,13.82,13.82,0,0,1,2.64,1.45q2.18-3.37,6.14-9.62,25.61-40.65,36-40.65a13.86,13.86,0,0,1,10.1,4.51,14.25,14.25,0,0,1,4.45,10.28q0,10.47-35.95,33.07-9,5.66-14.07,8.78c.8,1.69,1.36,2.88,1.68,3.6S108.66,84.31,108.9,85Z"/></svg>