<svg id="Layer_1" data-name="Layer 1" xmlns="http://www.w3.org/2000/svg" viewBox="0 0 120.7 120.7"><defs><style>.cls-1{fill:#2f12d4;stroke:#fff;stroke-miterlimit:10;stroke-width:3px;}</style></defs><g id="Group_157" data-name="Group 157"><path id="Path_9751" data-name="Path 9751" class="cls-1" d="M118.9,73.79c1.71-7.45-4.05-15.54-13.84-21,7.46-8.36,10.25-17.89,6.19-24.36S97.4,20.33,86.63,23.4C86,12.22,81.23,3.51,73.78,1.8s-15.53,4.05-21,13.84C44.45,8.18,34.92,5.39,28.45,9.45S20.32,23.3,23.4,34.07c-11.19.63-19.89,5.4-21.6,12.84s4.05,15.54,13.84,21C8.18,76.25,5.39,85.78,9.45,92.25s13.85,8.12,24.62,5c.63,11.18,5.4,19.89,12.85,21.6s15.53-4.05,21-13.84c8.36,7.46,17.89,10.25,24.36,6.19s8.12-13.85,5-24.62C108.48,86,117.19,81.23,118.9,73.79ZM54.84,84.37c-9.1-2.08-14-14.53-11-27.8s12.89-22.33,22-20.24,14,14.53,11,27.8-12.88,22.33-22,20.24Z"/></g></svg>