<?xml version="1.0" encoding="utf-8"?>
<!-- Generator: Adobe Illustrator 25.4.1, SVG Export Plug-In . SVG Version: 6.00 Build 0)  -->
<svg version="1.1" id="Layer_1" xmlns="http://www.w3.org/2000/svg" xmlns:xlink="http://www.w3.org/1999/xlink" x="0px" y="0px"
	 viewBox="0 0 402.7 157.4" style="enable-background:new 0 0 402.7 157.4;" xml:space="preserve">
<style type="text/css">
	.st0{fill:#FF6900;}
	.st1{fill:none;stroke:#EDCD49;stroke-width:2;stroke-miterlimit:10;}
	.st2{fill:#EDCD49;}
	.st3{fill:#D64210;}
</style>
<g id="Group_165">
	<path id="Path_9834" class="st0" d="M18.1,0L0,129.6l199,27.8l192.4-23.2l11.3-80.5L18.1,0z"/>
	<g id="SIGN_UP_FOR_OUR_NEWSLETTER_HERE_">
		
			<text transform="matrix(0.9901 0.14 -0.14 0.9901 115.0002 -97.3587)" class="st2" style="font-family:'Druk-Medium'; font-size:19.997px;">SIGN UP </text>
		
			<text transform="matrix(0.9901 0.14 -0.14 0.9901 199.1503 -85.4587)" class="st2" style="font-family:'Druk-Medium'; font-size:19.997px;">FOR OUR</text>
		
			<text transform="matrix(0.9901 0.14 -0.14 0.9901 82.0004 -63.1985)" class="st2" style="font-family:'Druk-Medium'; font-size:19.997px;">NEWSLETTER HERE!</text>
	</g>
	<line id="Line_4" class="st1" x1="35.3" y1="101.1" x2="285.9" y2="134.8"/>
	<g>
		<path class="st2" d="M126.4,32c3.6,0.5,4.8,2.3,4.3,5.7l-0.7,4.7l-4.2-0.6l0.6-4.1c0.1-1,0-1.7-1-1.9c-1-0.1-1.4,0.5-1.6,1.8
			l-0.1,0.5c-0.2,1.6,0,2.6,1.2,4.7l2.3,4c1.6,2.8,2,4.4,1.6,7.6l-0.1,0.9c-0.6,4.2-2.8,6.5-6.6,5.9l-0.9-0.1
			c-3.5-0.5-5.1-2.7-4.6-6.2l0.8-5.8l4.3,0.6l-0.7,5c-0.2,1.3,0.1,2.1,1.1,2.2c1,0.1,1.5-0.5,1.8-2.3l0.1-0.7
			c0.3-2.1,0.2-2.8-1.1-5.1l-2.3-4c-1.5-2.7-1.8-4.6-1.4-7.5l0.1-0.9c0.5-3.8,2.7-5.3,6.2-4.8L126.4,32z"/>
		<path class="st2" d="M134.2,62.8l-4.4-0.6l4.1-28.8l4.4,0.6L134.2,62.8z"/>
		<path class="st2" d="M140.9,64.1c-2.6-0.4-3.9-2.9-3.4-5.9l2.5-18c0.5-3.2,2.1-6,6.3-5.4l0.9,0.1c4.7,0.7,4.8,3.8,4.3,7.2
			l-0.4,2.9l-4.3-0.6l0.5-3.2c0.2-1.3,0-2-1.1-2.2c-0.9-0.1-1.5,0.5-1.6,1.8L142,57.7c-0.2,1.4,0.3,2.1,1.1,2.3
			c1.1,0.2,1.7-0.5,1.9-1.6l1-7.2l-2-0.3l0.6-4.4l6.1,0.9l-2.5,17.5l-2.5-0.3c0-0.2-0.2-1.6-0.3-2.9c-0.4,0.9-2.2,3-4.4,2.6
			L140.9,64.1z"/>
		<path class="st2" d="M158.9,36.9l1.6,16l2.2-15.4l4,0.6l-4.1,28.8l-3.6-0.5l-1.8-17.2l-2.3,16.6l-3.9-0.6l4.1-28.8L158.9,36.9z"/>
		<path class="st2" d="M174,39l4.4,0.6l-3.2,22.8c-0.2,1.2,0.1,2.1,1.1,2.2c1,0.1,1.5-0.6,1.7-1.8l3.2-22.8l4.5,0.6l-3.2,22.5
			c-0.6,4.1-2.6,6.4-6.4,5.8l-0.8-0.1c-3.9-0.5-5.1-3.2-4.5-7.4L174,39z"/>
		<path class="st2" d="M190.3,58.5l-1.7,12l-4.4-0.6l4.1-28.8l6.9,1c3.1,0.4,4.3,2,3.8,5.4l-1,6.8c-0.5,3.4-2.3,5-5.2,4.6
			L190.3,58.5z M190.9,54.3l1.1,0.2c1.3,0.2,1.6-0.7,1.8-1.9l0.7-4.7c0.2-1.1,0-2-1.2-2.2l-1.1-0.2L190.9,54.3z"/>
		<path class="st2" d="M206.9,43.7l9.9,1.4l-0.6,4.2l-5.6-0.8l-1.1,7.6l4.4,0.6l-0.6,4.4l-4.4-0.6l-1.8,12.7l-4.4-0.6L206.9,43.7z"
			/>
		<path class="st2" d="M227.4,69.4c-0.6,4-2.3,6.6-6.5,6l-0.7-0.1c-4.2-0.6-5.3-3.5-4.7-7.6l2.3-16c0.6-4,2.4-6.4,6.5-5.8L225,46
			c4.3,0.6,5.2,3.4,4.7,7.4L227.4,69.4z M225.3,52.5c0.2-1.5-0.2-2.3-1.2-2.4c-1.1-0.2-1.7,0.5-1.9,2l-2.3,16.6
			c-0.2,1.2,0,2.3,1.3,2.4c1.2,0.2,1.6-0.8,1.8-2L225.3,52.5z"/>
		<path class="st2" d="M233.3,76.8l-4.4-0.6l4.1-28.8l7.1,1c2.9,0.4,4.2,1.9,3.7,5.1l-0.7,5.1c-0.3,2.4-1.6,3.2-2.4,3.4
			c0.9,0.6,1.7,1.5,1.5,3.4l-1.4,10.1c-0.2,1.2,0,1.7,0.1,2.2l0,0.2l-4.3-0.6c-0.2-0.3-0.3-0.9-0.1-2.4l1.2-8.7c0.2-1.3,0-1.9-1.4-2
			l-1.1-0.2L233.3,76.8z M235.7,59.8l1.2,0.2c1.2,0.2,1.7-0.5,1.9-1.8l0.6-4c0.2-1.2,0-1.9-1.3-2.1l-1.2-0.2L235.7,59.8z"/>
		<path class="st2" d="M260.6,74.1c-0.6,4-2.3,6.6-6.5,6l-0.7-0.1c-4.2-0.6-5.3-3.5-4.7-7.6l2.3-16c0.6-4,2.4-6.4,6.5-5.8l0.7,0.1
			c4.3,0.6,5.2,3.4,4.7,7.4L260.6,74.1z M258.4,57.2c0.2-1.5-0.2-2.3-1.2-2.4c-1.1-0.2-1.7,0.5-1.9,2L253,73.3
			c-0.2,1.2,0,2.3,1.3,2.4c1.2,0.2,1.6-0.8,1.8-2L258.4,57.2z"/>
		<path class="st2" d="M266.1,52l4.5,0.6l-3.2,22.8c-0.2,1.2,0.1,2.1,1.1,2.2c1,0.1,1.5-0.6,1.7-1.8l3.2-22.8l4.5,0.6l-3.2,22.5
			c-0.6,4.1-2.6,6.4-6.4,5.8l-0.8-0.1c-3.9-0.5-5.1-3.2-4.5-7.4L266.1,52z"/>
		<path class="st2" d="M280.7,83.5l-4.4-0.6l4.1-28.8l7.1,1c2.9,0.4,4.2,1.9,3.7,5.1l-0.7,5.1c-0.3,2.4-1.6,3.2-2.4,3.4
			c0.9,0.6,1.7,1.5,1.5,3.4l-1.4,10.1c-0.2,1.2,0,1.7,0.1,2.2l0,0.2l-4.3-0.6c-0.2-0.3-0.3-0.9-0.1-2.4l1.2-8.7c0.2-1.3,0-1.9-1.4-2
			l-1.1-0.2L280.7,83.5z M283.1,66.5l1.2,0.2c1.2,0.2,1.7-0.5,1.9-1.8l0.6-4c0.2-1.2,0-1.9-1.3-2.1l-1.2-0.2L283.1,66.5z"/>
		<path class="st2" d="M104.4,68.6l1.6,16l2.2-15.4l4,0.6L108,98.5l-3.6-0.5l-1.8-17.2l-2.3,16.6l-3.9-0.6l4.1-28.8L104.4,68.6z"/>
		<path class="st2" d="M124.6,71.5l-0.6,4.2l-5.6-0.8l-1.1,7.5l4.4,0.6l-0.6,4.4l-4.4-0.6l-1.2,8.3l5.8,0.8l-0.6,4.4l-10.2-1.4
			l4.1-28.8L124.6,71.5z"/>
		<path class="st2" d="M138.6,73.5l-0.7,18.9l4.6-18.4l4.1,0.6l-7.7,28.3l-4.7-0.7l0.5-17l-4.2,16.5l-4.8-0.7l0.5-29.3l4.4,0.6
			l-0.7,18.9l4.6-18.3L138.6,73.5z"/>
		<path class="st2" d="M154.4,75.4c3.6,0.5,4.8,2.3,4.3,5.7l-0.7,4.7l-4.2-0.6l0.6-4.1c0.1-1,0-1.7-1-1.9c-1-0.1-1.4,0.5-1.6,1.8
			l-0.1,0.5c-0.2,1.6,0,2.6,1.2,4.7l2.3,4c1.6,2.8,2,4.4,1.6,7.6l-0.1,0.9c-0.6,4.2-2.8,6.5-6.6,5.9l-0.9-0.1
			c-3.5-0.5-5.1-2.7-4.6-6.2l0.8-5.8l4.3,0.6l-0.7,5c-0.2,1.3,0.1,2.1,1.1,2.2c1,0.1,1.5-0.5,1.8-2.3l0.1-0.7c0.3-2,0.2-2.8-1.1-5.1
			l-2.3-4c-1.5-2.7-1.8-4.6-1.4-7.5l0.1-0.9c0.5-3.8,2.7-5.3,6.2-4.9L154.4,75.4z"/>
		<path class="st2" d="M166.4,77.4l-3.4,24.3l5.3,0.8l-0.6,4.5l-9.7-1.4l4.1-28.8L166.4,77.4z"/>
		<path class="st2" d="M183.8,79.9l-0.6,4.2l-5.6-0.8l-1.1,7.5l4.4,0.6l-0.6,4.4l-4.4-0.6l-1.2,8.3l5.8,0.8l-0.6,4.4l-10.2-1.4
			l4.1-28.8L183.8,79.9z"/>
		<path class="st2" d="M197.2,81.8l-0.6,4.2l-3.7-0.5l-3.5,24.6l-4.3-0.6l3.5-24.6l-3.7-0.5l0.6-4.2L197.2,81.8z"/>
		<path class="st2" d="M210.5,83.7l-0.6,4.2l-3.7-0.5l-3.5,24.6l-4.3-0.6l3.5-24.6l-3.7-0.5l0.6-4.2L210.5,83.7z"/>
		<path class="st2" d="M222.5,85.3l-0.6,4.2l-5.6-0.8l-1.1,7.5l4.4,0.6l-0.6,4.4l-4.4-0.6l-1.2,8.3l5.8,0.8l-0.6,4.4l-10.2-1.4
			l4.1-28.8L222.5,85.3z"/>
		<path class="st2" d="M225.2,115.1l-4.4-0.6l4.1-28.8l7.1,1c2.9,0.4,4.2,1.9,3.7,5.1l-0.7,5.1c-0.3,2.4-1.6,3.2-2.4,3.4
			c0.9,0.6,1.7,1.5,1.5,3.4l-1.4,10.1c-0.2,1.2,0,1.7,0.1,2.2l0,0.2l-4.3-0.6c-0.1-0.3-0.3-0.9-0.1-2.4l1.2-8.7c0.2-1.3,0-1.9-1.4-2
			l-1.1-0.2L225.2,115.1z M227.6,98.1l1.2,0.2c1.2,0.2,1.7-0.5,1.9-1.8l0.6-4c0.2-1.2,0-1.9-1.3-2.1l-1.2-0.2L227.6,98.1z"/>
		<path class="st2" d="M244,117.7l-4.4-0.6l4.1-28.8l4.4,0.6l-1.6,11.5l3,0.4l1.6-11.5l4.4,0.6l-4.1,28.8l-4.4-0.6l1.8-12.7l-3-0.4
			L244,117.7z"/>
		<path class="st2" d="M268,91.8l-0.6,4.2l-5.6-0.8l-1.1,7.5l4.4,0.6l-0.6,4.4l-4.4-0.6l-1.2,8.3l5.8,0.8l-0.6,4.4l-10.2-1.4
			l4.1-28.8L268,91.8z"/>
		<path class="st2" d="M270.6,121.5l-4.4-0.6l4.1-28.8l7.1,1c2.9,0.4,4.2,1.9,3.7,5.1l-0.7,5.1c-0.3,2.4-1.6,3.2-2.4,3.4
			c0.9,0.6,1.7,1.5,1.5,3.4l-1.4,10.1c-0.2,1.2,0,1.7,0.1,2.2l0,0.2l-4.3-0.6c-0.1-0.3-0.3-0.9-0.1-2.4l1.2-8.7c0.2-1.3,0-1.9-1.4-2
			l-1.1-0.2L270.6,121.5z M273,104.6l1.2,0.2c1.2,0.2,1.7-0.5,1.9-1.8l0.6-4c0.2-1.2,0-1.9-1.3-2.1l-1.2-0.2L273,104.6z"/>
		<path class="st2" d="M294.2,95.5l-0.6,4.2l-5.6-0.8l-1.1,7.5l4.4,0.6l-0.6,4.4l-4.4-0.6l-1.2,8.3l5.8,0.8l-0.6,4.4l-10.2-1.4
			l4.1-28.8L294.2,95.5z"/>
		<path class="st2" d="M296.4,125.2l-4-0.6l0.7-5l4,0.6L296.4,125.2z M300.9,96.4l-4.9,22.6l-1.4-0.2l1.6-23.1L300.9,96.4z"/>
	</g>
	<path id="Path_9835" class="st3" d="M372.8,87.8l18.6,46.5l-192.5,23.2L372.8,87.8z"/>
</g>
</svg>
