<svg id="Layer_1" data-name="Layer 1" xmlns="http://www.w3.org/2000/svg" viewBox="0 0 352.32 182"><defs><style>.cls-1{fill:#fff;}.cls-2{fill:#2f12d4;}</style></defs><g id="Group_246" data-name="Group 246"><g id="Group_214" data-name="Group 214"><path id="Path_14691" data-name="Path 14691" class="cls-1" d="M23.09,22.93a109,109,0,0,0-3.64,15.88,118.31,118.31,0,0,0-1.2,19.72h-11C.82,39.5-2.06,20.47,4.88,1.44H14.94A68.28,68.28,0,0,0,10.3,27.61a109.14,109.14,0,0,0,1.58,16.73,75.08,75.08,0,0,1,2.56-16.73,86.84,86.84,0,0,1,12-26.17h8.83a68.2,68.2,0,0,0-4.56,26.17,128.66,128.66,0,0,0,1.58,16.73,76.26,76.26,0,0,1,2.56-16.73,86.84,86.84,0,0,1,12-26.17h9.52c-13.29,19-16.75,38.06-16.64,57.09h-11A128.47,128.47,0,0,1,23.9,38.81,60.79,60.79,0,0,1,23.09,22.93Z"/><path id="Path_14692" data-name="Path 14692" class="cls-2" d="M40.56,59.35H28.17L28,58.79a129.28,129.28,0,0,1-4.89-19.85,81.59,81.59,0,0,1-1-9.36c-.63,2.55-1.29,5.64-1.83,9.35a115.66,115.66,0,0,0-1.2,19.59v.83H6.68l-.19-.55C-1.31,35.79-2,18,4.1,1.16L4.3.62H16.13L15.7,1.74A67,67,0,0,0,11.12,27.6,93.56,93.56,0,0,0,11.69,37a79.7,79.7,0,0,1,2-9.65A87.1,87.1,0,0,1,25.76,1L26,.62H36.46L36,1.74a67,67,0,0,0-4.5,25.85c0,3.26.3,6.49.6,9.29a82.93,82.93,0,0,1,1.93-9.48A87.4,87.4,0,0,1,46.17,1l.25-.36H58l-.9,1.29c-11.54,16.52-16.62,34-16.49,56.62Zm-11.2-1.64h9.55c0-22,4.93-39.22,15.9-55.45H47.29A85.48,85.48,0,0,0,35.65,27.82a75.14,75.14,0,0,0-2.54,16.53l-1.63.1-.15-1a121.58,121.58,0,0,1-1.44-15.82A68.86,68.86,0,0,1,34.08,2.27h-7.2A85.59,85.59,0,0,0,15.23,27.82a74.55,74.55,0,0,0-2.54,16.53l-1.62.12A108.22,108.22,0,0,1,9.48,27.62,68.66,68.66,0,0,1,13.75,2.27H5.46C-.29,18.45.45,35.6,7.87,57.72h9.55a117.6,117.6,0,0,1,1.22-19,104.9,104.9,0,0,1,3.3-14.76l.36-1.22,1.6.31a60.52,60.52,0,0,0,.81,15.67,124.46,124.46,0,0,0,4.65,19Z"/></g><g id="Group_215" data-name="Group 215"><path id="Path_14693" data-name="Path 14693" class="cls-1" d="M86.28,1.44a74.94,74.94,0,0,0-4,8.9H67.12A75,75,0,0,0,63.3,24.46H75.89a82.2,82.2,0,0,0-1,9.13H62.3a100.56,100.56,0,0,0,.46,15.81H78.34c.32,3,.75,6.09,1.27,9.13H54.06c-3.28-19-3-38.06,7.12-57.09Z"/><path id="Path_14694" data-name="Path 14694" class="cls-2" d="M80.59,59.35H53.37l-.12-.68c-4-23-1.74-40.78,7.21-57.61l.23-.44h27L87,1.83a76.57,76.57,0,0,0-4,8.8l-.2.53H67.69a73.85,73.85,0,0,0-3.41,12.48H76.86l-.16,1a83,83,0,0,0-1,9l0,.77H63.08a98.6,98.6,0,0,0,.42,14.17H79.08l.07.73c.3,2.89.73,5.95,1.27,9.08ZM54.75,57.71H78.64c-.42-2.57-.77-5.08-1-7.49H62L62,49.49a99.9,99.9,0,0,1-.47-15.94l0-.78H74.11c.16-2.54.44-5.05.82-7.49H62.33l.17-1a76.45,76.45,0,0,1,3.85-14.28l.2-.53H81.67c1-2.47,2-4.89,3.25-7.25H61.68C53.19,18.46,51.05,35.61,54.75,57.71Z"/></g><g id="Group_216" data-name="Group 216"><path id="Path_14695" data-name="Path 14695" class="cls-1" d="M102,1.44c-8.46,15.91-10,31.82-8.42,47.73h14c.32,3.12.76,6.24,1.3,9.36H84.72c-3.28-19-3-38.06,7.12-57.09Z"/><path id="Path_14696" data-name="Path 14696" class="cls-2" d="M109.86,59.35H84l-.11-.68c-4-23-1.75-40.78,7.2-57.61l.24-.44h12.06l-.64,1.21c-7.43,14-10.1,28.76-8.4,46.52h14l.08.74c.3,3,.72,6,1.29,9.3ZM85.41,57.71h22.51c-.45-2.68-.8-5.22-1.07-7.72h-14l-.07-.73c-1.83-17.92.68-32.89,7.88-47H92.33C83.84,18.46,81.7,35.61,85.41,57.71Z"/></g><g id="Group_217" data-name="Group 217"><path id="Path_14697" data-name="Path 14697" class="cls-1" d="M131.19,44.1a92.7,92.7,0,0,1-.09-9.28H141a94.63,94.63,0,0,0,.12,9.82c.49,7.9-1.79,14.58-11.72,14.58h-1.84c-9.7,0-15-5.83-15.61-14.66a83.29,83.29,0,0,1,3-29.08A19.75,19.75,0,0,1,134.55.9h1.84c10.24,0,10.7,5,7.77,14.5q-1,3.47-1.71,6.91h-9.9q.64-3.22,1.57-6.45c1.18-4,1-6.13-2.44-6.13-3.2,0-5.33,2.07-6.53,6.13a83,83,0,0,0-3,28.17c.25,4.06,1.77,6.21,5,6.21C130.56,50.25,131.41,47.94,131.19,44.1Z"/><path id="Path_14698" data-name="Path 14698" class="cls-2" d="M127.55,60c-9.64,0-15.78-5.76-16.42-15.42a83.5,83.5,0,0,1,3.06-29.37A20.66,20.66,0,0,1,134.54.08h1.85c4.56,0,7.4,1,8.91,3,2.17,3,1.11,7.78-.36,12.56-.66,2.22-1.23,4.52-1.69,6.82l-.13.66H131.55l.2-1c.43-2.19,1-4.38,1.59-6.51.7-2.36.8-3.82.31-4.48a2.4,2.4,0,0,0-2-.61c-2.8,0-4.62,1.76-5.74,5.55A81.77,81.77,0,0,0,123,44c.28,4.82,2.37,5.44,4.15,5.44h0a3,3,0,0,0,2.32-.78c.72-.76,1-2.23.87-4.49h0c-.18-3.2-.21-6.35-.09-9.36l0-.79h11.54l0,.85a93.06,93.06,0,0,0,.12,9.74c.34,5.53-.68,9.47-3.12,12.07-2.11,2.24-5.28,3.38-9.41,3.38Zm7-58.32c-9.11,0-16.13,5.24-18.78,14a81.93,81.93,0,0,0-3,28.8c.58,8.83,6,13.89,14.79,13.89h1.84c3.66,0,6.43-1,8.22-2.87,2.11-2.24,3-5.79,2.67-10.84-.19-3.09-.24-6.13-.15-9.05h-8.26c-.08,2.72,0,5.55.12,8.42s-.25,4.59-1.31,5.71a4.59,4.59,0,0,1-3.52,1.29h0c-3.56,0-5.51-2.35-5.79-7a83.58,83.58,0,0,1,3-28.45c1.32-4.46,3.78-6.72,7.32-6.72A3.78,3.78,0,0,1,135,10.18c1.08,1.44.58,3.8,0,5.92-.52,1.76-1,3.57-1.36,5.39h8.22c.45-2.13,1-4.26,1.6-6.32,1.81-5.9,2-9.22.6-11.11-1.16-1.57-3.64-2.34-7.59-2.34Z"/></g><g id="Group_218" data-name="Group 218"><path id="Path_14699" data-name="Path 14699" class="cls-1" d="M176.75,43.72c.62,10.05-2.68,15.5-12.43,15.5h-1.54c-9.74,0-15.56-5.45-16.19-15.5a83.17,83.17,0,0,1,2.87-27.55C152.32,6.43,160.32.82,170,.82h1.53c10.23,0,10.91,5.6,8.07,15.27A82.84,82.84,0,0,0,176.75,43.72Zm-7.44-27.47c1.4-4.76.39-6.53-2.64-6.53s-5.55,1.77-6.95,6.53a83.15,83.15,0,0,0-2.84,27.55c.24,4.3,2.16,6.44,5.37,6.44s4.47-2.15,4.22-6.44a83.15,83.15,0,0,1,2.84-27.55Z"/><path id="Path_14700" data-name="Path 14700" class="cls-2" d="M162.78,60c-10.31,0-16.36-5.77-17-16.27A83.22,83.22,0,0,1,148.67,16,21.55,21.55,0,0,1,170,0h1.53c4.42,0,7.34,1,8.92,3.15,1.92,2.56,1.9,6.5-.07,13.17a82,82,0,0,0-2.85,27.35c.37,6-.67,10.2-3.17,12.87-2.21,2.35-5.51,3.5-10.08,3.5h-1.54ZM170,1.64A20,20,0,0,0,150.25,16.4a81.56,81.56,0,0,0-2.84,27.28c.59,9.49,6.05,14.72,15.37,14.72h1.54c4.09,0,7-1,8.88-3,2.18-2.32,3.07-6.13,2.73-11.65h0a83.44,83.44,0,0,1,2.92-27.9c1.78-6,1.88-9.65.33-11.73-1.26-1.67-3.74-2.49-7.6-2.49Zm-7.79,49.42c-2.16,0-5.83-.94-6.19-7.22A83.46,83.46,0,0,1,158.93,16c1.39-4.72,4-7.11,7.74-7.11a3.9,3.9,0,0,1,3.38,1.35c.92,1.23.94,3.21,0,6.22a82,82,0,0,0-2.81,27.27c.16,2.8-.32,4.75-1.45,6a4.73,4.73,0,0,1-3.59,1.37Zm4.42-40.51c-3,0-5,1.94-6.16,5.93a81.77,81.77,0,0,0-2.82,27.27c.22,3.76,1.75,5.67,4.56,5.67a3.15,3.15,0,0,0,2.4-.85c.8-.84,1.13-2.44,1-4.73A83.46,83.46,0,0,1,168.53,16h0c.7-2.41.77-4,.2-4.78a2.42,2.42,0,0,0-2.06-.69Z"/></g><g id="Group_219" data-name="Group 219"><path id="Path_14701" data-name="Path 14701" class="cls-1" d="M206.89,58.53h-5.37a118.49,118.49,0,0,1-7-27.16,65.09,65.09,0,0,1,.28-18,84.35,84.35,0,0,0-3.48,19.8,110.87,110.87,0,0,0,1.72,25.33H184.4c-3.28-19-3-38.07,7.13-57.1h13.66a65.19,65.19,0,0,0-3.44,20.34,103.33,103.33,0,0,0,.91,14.81,71.59,71.59,0,0,1,4.07-14.81A93.8,93.8,0,0,1,218,1.44h13.43c-10.12,19-10.4,38.06-7.12,57.1h-8.9a110.87,110.87,0,0,1-1.72-25.33,70.16,70.16,0,0,1,4-19.8,98.3,98.3,0,0,0-6.84,17.42A110.91,110.91,0,0,0,206.89,58.53Z"/><path id="Path_14702" data-name="Path 14702" class="cls-2" d="M225.28,59.35H214.71l-.12-.68a111.21,111.21,0,0,1-1.72-25.5A77.61,77.61,0,0,1,214,23.92c-.79,2.14-1.56,4.48-2.34,7.14a109.72,109.72,0,0,0-4,27.5l0,.8h-6.74l-.2-.54a119.1,119.1,0,0,1-7-27.35c-.31-3-.46-5.54-.48-7.78a96.25,96.25,0,0,0-1.08,9.58,109.68,109.68,0,0,0,1.7,25.13l.16,1H183.71l-.12-.68c-4-23-1.74-40.79,7.21-57.62L191,.62h15.3L206,1.71a64.41,64.41,0,0,0-3.4,20.08c0,3.83.12,6.75.35,9.44A66.78,66.78,0,0,1,206,21.48,95,95,0,0,1,217.33,1l.25-.34h15.21l-.64,1.21c-8.77,16.49-10.94,33.94-7,56.57Zm-9.19-1.64h7.24c-3.65-22-1.56-39.2,6.74-55.45H218.42a91.63,91.63,0,0,0-10.93,19.82,67.78,67.78,0,0,0-3.85,13.76l-1.14,5.92-.66-5.07a106.22,106.22,0,0,1-.92-14.91,66.89,66.89,0,0,1,3.13-19.51H192c-8.49,16.2-10.63,33.35-6.93,55.45h7a109.78,109.78,0,0,1-1.56-24.55,85.18,85.18,0,0,1,3.51-20l1.6.34a64,64,0,0,0-.28,17.76,116.53,116.53,0,0,0,6.71,26.43h4a110.5,110.5,0,0,1,4-27.11A98,98,0,0,1,217,13.05l1.51.63a68.68,68.68,0,0,0-4,19.59A108.78,108.78,0,0,0,216.09,57.71Z"/></g><g id="Group_220" data-name="Group 220"><path id="Path_14703" data-name="Path 14703" class="cls-1" d="M262.7,1.44a78.28,78.28,0,0,0-4,8.9H243.55a75,75,0,0,0-3.82,14.12h12.59a79.89,79.89,0,0,0-1,9.13H238.73a99.37,99.37,0,0,0,.46,15.81h15.57c.32,3,.75,6.09,1.28,9.13H230.49c-3.29-19-3-38.06,7.12-57.09Z"/><path id="Path_14704" data-name="Path 14704" class="cls-2" d="M257,59.35H229.79l-.11-.68c-4-23-1.75-40.78,7.2-57.61l.24-.44h26.95l-.64,1.21a74.9,74.9,0,0,0-4,8.8l-.2.53H244.11a74.77,74.77,0,0,0-3.4,12.48h12.57l-.16,1a80.59,80.59,0,0,0-1,9l0,.77H239.51a98.6,98.6,0,0,0,.42,14.17H255.5l.08.73c.3,2.89.73,5.95,1.27,9.08Zm-25.83-1.64h23.89c-.42-2.57-.77-5.08-1-7.49H238.45l-.08-.73a99.89,99.89,0,0,1-.46-15.94l0-.78h12.59c.16-2.53.43-5,.81-7.49H238.76l.16-1a75.72,75.72,0,0,1,3.86-14.28l.2-.53H258.1a77.09,77.09,0,0,1,3.25-7.25H238.1C229.61,18.46,227.47,35.61,231.18,57.71Z"/></g><g id="Group_221" data-name="Group 221"><path id="Path_14705" data-name="Path 14705" class="cls-1" d="M283.24,10.5H274a76.83,76.83,0,0,1,4.1-9.06h28.7a76.83,76.83,0,0,0-4.1,9.06h-9.21c-6,16-5.79,32-3,48H280.21C277.45,42.52,277.21,26.51,283.24,10.5Z"/><path id="Path_14706" data-name="Path 14706" class="cls-2" d="M291.39,59.35H279.52l-.12-.68c-3.17-18.37-2.32-33.45,2.66-47.35h-9.3l.42-1.11a79.27,79.27,0,0,1,4.14-9.15l.23-.44h30.56l-.64,1.21a75.11,75.11,0,0,0-4.05,9l-.2.53H294c-5.06,13.77-5.95,28.75-2.79,47.07ZM280.9,57.71h8.54c-3.05-18.42-2-33.54,3.23-47.5l.2-.53h9.21a79.25,79.25,0,0,1,3.31-7.41H278.54a77.43,77.43,0,0,0-3.4,7.41h9.27L284,10.79C278.83,24.54,277.84,39.47,280.9,57.71Z"/></g><g id="Group_222" data-name="Group 222"><path id="Path_14707" data-name="Path 14707" class="cls-1" d="M332.67,43.72c.62,10.05-2.68,15.5-12.43,15.5h-1.53c-9.75,0-15.57-5.45-16.2-15.5a83.17,83.17,0,0,1,2.87-27.55C308.24,6.43,316.24.82,326,.82h1.53c10.23,0,10.91,5.6,8.07,15.27A82.84,82.84,0,0,0,332.67,43.72Zm-7.44-27.47c1.4-4.76.39-6.53-2.64-6.53s-5.55,1.77-6.95,6.53A83.15,83.15,0,0,0,312.8,43.8c.25,4.3,2.16,6.44,5.37,6.44s4.47-2.15,4.22-6.44a83.15,83.15,0,0,1,2.84-27.55Z"/><path id="Path_14708" data-name="Path 14708" class="cls-2" d="M318.7,60c-10.31,0-16.35-5.77-17-16.27A83.71,83.71,0,0,1,304.59,16,21.55,21.55,0,0,1,326,0h1.53c4.42,0,7.34,1,8.92,3.15,1.92,2.56,1.9,6.5-.06,13.17a81.7,81.7,0,0,0-2.86,27.35c.37,6-.66,10.2-3.17,12.87-2.21,2.35-5.51,3.5-10.08,3.5H318.7ZM326,1.64A20,20,0,0,0,306.17,16.4a81.56,81.56,0,0,0-2.84,27.28c.59,9.49,6.05,14.72,15.37,14.72h1.54c4.09,0,7-1,8.88-3,2.18-2.32,3.07-6.13,2.73-11.65h0a83.41,83.41,0,0,1,2.92-27.9c1.78-6,1.88-9.65.33-11.73-1.26-1.67-3.74-2.49-7.6-2.49Zm-7.79,49.42c-2.16,0-5.83-.94-6.19-7.22A83.72,83.72,0,0,1,314.85,16c1.39-4.72,4-7.11,7.74-7.11A3.9,3.9,0,0,1,326,10.26c.92,1.23.94,3.21,0,6.22a82,82,0,0,0-2.81,27.27c.16,2.8-.31,4.75-1.45,6a4.73,4.73,0,0,1-3.59,1.37Zm4.42-40.51c-3,0-5,1.94-6.16,5.93a81.51,81.51,0,0,0-2.81,27.27c.21,3.76,1.75,5.67,4.55,5.67a3.15,3.15,0,0,0,2.4-.85c.8-.84,1.14-2.44,1-4.73A83.46,83.46,0,0,1,324.45,16h0c.7-2.4.77-4,.2-4.77a2.42,2.42,0,0,0-2.06-.69Z"/></g><g id="Group_223" data-name="Group 223"><path id="Path_14709" data-name="Path 14709" class="cls-1" d="M37.3,103.56c2.51,9.53-.56,14.7-9,14.7H27c-8.6,0-13.51-5.17-16-14.7C8.65,94.86,6.07,86.15,3.8,77.44c-2.41-9.23.51-14.54,9.08-14.55h1.34c8.87,0,13.53,5.32,15.92,14.48C32.42,86.1,35,94.83,37.3,103.56Zm-16.1-26C20,73,18,71.33,15.42,71.33S11.64,73,12.81,77.52c2.27,8.7,4.85,17.41,7.14,26.11,1.06,4.08,2.95,6.12,5.77,6.12s3.68-2,2.61-6.12c-2.29-8.7-4.87-17.41-7.14-26.11Z"/><path id="Path_14710" data-name="Path 14710" class="cls-2" d="M28.31,119.08H27c-8.61,0-14.11-5-16.82-15.31C9,99.59,7.85,95.34,6.71,91.23c-1.24-4.45-2.53-9-3.7-13.58C1.61,72.3,2,68.23,4,65.55c1.78-2.3,4.76-3.47,8.86-3.47h1.35c8.71,0,14,4.8,16.71,15.09,1.18,4.53,2.46,9.14,3.71,13.6,1.15,4.12,2.34,8.39,3.44,12.58,1.43,5.45,1.11,9.57-1,12.27C35.35,117.92,32.39,119.08,28.31,119.08ZM12.88,63.72c-3.56,0-6.11,1-7.56,2.83-1.74,2.26-2,5.86-.73,10.69,1.18,4.51,2.46,9.11,3.7,13.55,1.15,4.12,2.34,8.37,3.44,12.56C14.26,113,19.1,117.44,27,117.44h1.34c3.55,0,6.07-1,7.52-2.82,1.75-2.27,2-5.92.68-10.85h0c-1.1-4.18-2.29-8.44-3.44-12.56-1.24-4.47-2.53-9.09-3.72-13.63-2.46-9.46-7.27-13.86-15.12-13.86Zm12.84,46.85c-3.19,0-5.4-2.27-6.57-6.73-1.1-4.2-2.3-8.48-3.45-12.61-1.24-4.43-2.51-9-3.69-13.5-.73-2.85-.65-4.74.28-5.93a3.7,3.7,0,0,1,3.13-1.28c3.23,0,5.38,2.22,6.57,6.8s2.44,9,3.67,13.45c1.16,4.15,2.35,8.44,3.46,12.66.71,2.72.6,4.62-.34,5.84a3.66,3.66,0,0,1-3.06,1.3ZM15.42,72.16a2.16,2.16,0,0,0-1.83.64c-.39.51-.71,1.7,0,4.51,1.17,4.49,2.44,9.06,3.67,13.48,1.16,4.14,2.35,8.42,3.46,12.64,1,3.7,2.6,5.5,5,5.5a2.11,2.11,0,0,0,1.77-.67c.41-.53.75-1.73.05-4.41-1.11-4.21-2.3-8.5-3.46-12.64-1.23-4.42-2.51-9-3.68-13.48h0c-1.29-5-3.46-5.58-5-5.58Z"/></g><g id="Group_224" data-name="Group 224"><path id="Path_14711" data-name="Path 14711" class="cls-1" d="M59.23,103.93c-.77-2.94-1.57-5.87-2.38-8.8H65.5c.86,3.1,1.71,6.2,2.52,9.31,2,7.49.11,13.82-8.55,13.82H57.86c-8.53,0-13.15-5.53-15.35-13.9C40.11,95.17,37.37,86,35,76.79,32.75,68.13,35.35,63,43.6,63h1.61c8.87,0,12.93,4.72,15.26,13.75q.86,3.27,1.75,6.54H53.56c-.55-2-1.1-4.07-1.63-6.11-1-3.78-2.46-5.82-5.41-5.82s-3.44,2-2.44,5.82c2.31,8.9,5,17.8,7.29,26.7,1,3.86,2.56,5.89,5.38,5.89S60.19,107.56,59.23,103.93Z"/><path id="Path_14712" data-name="Path 14712" class="cls-2" d="M59.47,119.08H57.86c-8.19,0-13.62-4.88-16.14-14.51-1.16-4.45-2.43-9-3.65-13.35-1.3-4.66-2.64-9.48-3.87-14.22-1.32-5.12-1-9,1-11.56,1.69-2.18,4.52-3.3,8.41-3.3H45.2c8.66,0,13.46,4.3,16.06,14.37q.85,3.27,1.74,6.54l.29,1H52.93l-.16-.6c-.56-2-1.1-4.08-1.64-6.12-1-3.75-2.26-5.21-4.62-5.21a2,2,0,0,0-1.68.59c-.52.67-.51,2.09,0,4.21,1.2,4.61,2.51,9.3,3.78,13.84C49.82,95,51,99.36,52.16,103.65c1,3.7,2.34,5.28,4.59,5.28h0a2.1,2.1,0,0,0,1.72-.6c.36-.48.65-1.59,0-4.19h0c-.84-3.21-1.72-6.39-2.38-8.79l-.29-1H66.12l.17.6c.71,2.55,1.63,5.92,2.52,9.32,1.3,4.9.91,8.88-1.11,11.5C66,118,63.22,119.08,59.47,119.08ZM43.59,63.79c-3.35,0-5.75.89-7.11,2.66-1.65,2.13-1.88,5.54-.69,10.13s2.56,9.55,3.86,14.2c1.22,4.39,2.49,8.92,3.65,13.38,2.35,8.94,7.11,13.28,14.56,13.28h1.61c3.22,0,5.55-.91,6.93-2.71,1.68-2.17,2-5.75.83-10.08-.82-3.13-1.67-6.24-2.35-8.7h-7c.63,2.25,1.38,5,2.1,7.77s.62,4.47-.26,5.61a3.6,3.6,0,0,1-3,1.24h0c-4,0-5.45-3.71-6.18-6.5-1.12-4.27-2.33-8.62-3.51-12.83-1.27-4.55-2.58-9.25-3.78-13.87-.7-2.71-.62-4.5.25-5.63a3.56,3.56,0,0,1,3-1.22c4,0,5.43,3.44,6.21,6.44.48,1.83,1,3.66,1.46,5.5h7q-.75-2.76-1.47-5.53C57.26,67.61,53.07,63.8,45.2,63.8Z"/></g><g id="Group_225" data-name="Group 225"><path id="Path_14713" data-name="Path 14713" class="cls-1" d="M84.24,63.48q.86,4.22,1.88,8.44H72.91c1.08,4.46,2.27,8.92,3.5,13.38h11c.8,2.89,1.6,5.77,2.41,8.66h-11c1.39,5,2.76,10,4,15H96.43q1.06,4.34,2,8.66H76.06C72.32,99.56,66,81.52,62.3,63.48Z"/><path id="Path_14714" data-name="Path 14714" class="cls-2" d="M99.41,118.42h-24l-.14-.65c-1.83-8.84-4.34-17.84-6.77-26.55-2.52-9-5.13-18.38-7-27.58l-.2-1H84.91l.13.65c.54,2.65,1.15,5.4,1.88,8.41l.24,1H74C75,77,76.13,81.16,77,84.48H88l.17.6c.54,2,1.09,4,1.64,5.92l1.05,3.78h-11c1.36,4.9,2.5,9.12,3.55,13.34H97.07l.15.63c.77,3.1,1.42,5.94,2,8.68Zm-22.68-1.64H97.39c-.47-2.23-1-4.54-1.61-7H82.17l-.16-.63c-1.16-4.7-2.43-9.38-4-15l-.29-1h11l-.47-1.69c-.49-1.78-1-3.55-1.48-5.33h-11l-.17-.6c-1-3.67-2.32-8.52-3.51-13.41l-.24-1H85.08c-.57-2.4-1.07-4.64-1.51-6.8H63.31c1.83,8.83,4.34,17.8,6.76,26.49C72.44,99.3,74.9,108.1,76.73,116.78Z"/></g><g id="Group_226" data-name="Group 226"><path id="Path_14715" data-name="Path 14715" class="cls-1" d="M117.89,107.64h-9.12c.36,3.32.67,6.64.89,10h-7.85c-1-18-4.52-36.08-5.38-54.12h11.14c6.62,18,16,36.08,22.68,54.12h-8.58C120.48,114.28,119.21,111,117.89,107.64Zm-10-8.08h6.71c-1.7-4-3.45-8.1-5.18-12.15-2.53-6-4-9.89-5-13,.5,3.06,1,7.13,1.86,13,.53,4,1.1,8.1,1.61,12.15Z"/><path id="Path_14716" data-name="Path 14716" class="cls-2" d="M131.43,118.42H121.09l-.2-.54c-1-2.95-2.21-6-3.56-9.42h-7.65c.35,3.26.61,6.24.8,9.09l.06.87H101l0-.77c-.47-8.84-1.58-17.84-2.66-26.54-1.12-9-2.28-18.39-2.72-27.59l0-.86h12.57l.2.53c3.36,9.15,7.49,18.47,11.49,27.48,3.87,8.73,7.88,17.76,11.19,26.65Zm-9.19-1.64h6.83c-3.21-8.48-7-17.1-10.74-25.44-3.93-8.86-8-18-11.33-27H97.3c.46,8.87,1.58,17.88,2.66,26.61,1.05,8.47,2.14,17.23,2.63,25.87h6.19c-.2-2.82-.47-5.8-.83-9l-.1-.91h10.59l.21.51c1.36,3.4,2.54,6.5,3.59,9.45Zm-6.44-16.4h-8.67l-.09-.71q-.56-4.29-1.14-8.57l-1-7.62c-.51-3.69-.92-6.6-1.29-8.88l1.59-.38c1,3.12,2.53,7.09,5,12.87l1.53,3.59c1.22,2.86,2.45,5.71,3.65,8.56Zm-7.22-1.64h4.75q-1.58-3.7-3.16-7.41l-1.54-3.6c-.88-2.06-1.64-3.9-2.3-5.55q.08.52.15,1.08l1,7.61c.36,2.63.72,5.25,1.06,7.87Z"/></g><g id="Group_227" data-name="Group 227"><path id="Path_14717" data-name="Path 14717" class="cls-1" d="M148.61,98.76c-1.05-3.13-2.08-6.26-4.31-14.33-1.92-7-3.74-14-5.15-21h7.71c3.65,18,10,36.08,13.76,54.12h-7.71c-4.45-8.51-9.48-17-14.54-25.53a130.59,130.59,0,0,1-6.43-11.64c1.06,3,2.36,6.91,4.49,14.55s4.11,15.08,5.68,22.62h-7.78c-3.75-18-10.11-36.08-13.76-54.13h8.72c4,8,8.48,15.91,13.06,23.87C145.35,92.58,147.1,95.71,148.61,98.76Z"/><path id="Path_14718" data-name="Path 14718" class="cls-2" d="M161.63,118.42h-9.22l-.23-.44c-4.26-8.16-8.9-16-14.51-25.5-.76-1.24-1.46-2.42-2.12-3.56.49,1.67,1,3.59,1.67,5.83,1.9,6.84,4.05,14.79,5.69,22.68l.2,1h-9.45l-.14-.65c-1.83-8.84-4.34-17.84-6.77-26.55-2.52-9-5.13-18.38-7-27.59l-.2-1h10.23l.23.46c4.09,8.18,8.88,16.58,13,23.81l2.17,3.81c-.49-1.68-1.06-3.66-1.73-6.09-1.71-6.25-3.67-13.64-5.16-21l-.2-1h9.39l.13.66c1.85,9.15,4.45,18.46,7,27.47,2.44,8.73,4.95,17.76,6.8,26.65Zm-8.23-1.64h6.21c-1.81-8.52-4.23-17.17-6.56-25.56-2.46-8.82-5-17.93-6.86-26.92h-6c1.46,7,3.3,14,4.94,19.91,2.17,7.84,3.19,11,4.3,14.29l-1.51.62c-1.48-3-3.19-6.06-6.23-11.37-4.1-7.12-8.8-15.37-12.86-23.45h-7.21c1.83,8.83,4.34,17.8,6.76,26.49,2.37,8.51,4.83,17.31,6.66,26h6.1c-1.6-7.52-3.65-15.06-5.46-21.58-2.2-7.9-3.49-11.76-4.47-14.5l1.52-.62a129.87,129.87,0,0,0,6.38,11.56c5.53,9.31,10.12,17.1,14.34,25.14Z"/></g><g id="Group_228" data-name="Group 228"><path id="Path_14719" data-name="Path 14719" class="cls-1" d="M163,63.48h8.92c1.45,7.15,3.32,14.3,5.29,21.46h8.25c-2-7.16-3.84-14.31-5.29-21.46h8.92c3.65,18,10,36.08,13.77,54.12h-8.93c-1.63-7.85-3.75-15.71-5.94-23.57H179.7c2.18,7.86,4.31,15.72,5.94,23.57h-8.92C173,99.56,166.61,81.52,163,63.48Z"/><path id="Path_14720" data-name="Path 14720" class="cls-2" d="M203.82,118.42h-10.6l-.13-.65c-1.61-7.77-3.72-15.57-5.76-22.92h-6.55c2,7.25,4.07,14.92,5.66,22.59l.2,1H176l-.13-.65c-1.83-8.84-4.34-17.84-6.77-26.54-2.52-9-5.13-18.38-7-27.59l-.2-1h10.6l.13.65c1.45,7.18,3.31,14.23,5.11,20.8h6.55c-1.77-6.47-3.58-13.4-5-20.47l-.2-1h10.6l.13.66c1.86,9.15,4.45,18.46,7,27.47,2.43,8.73,5,17.76,6.8,26.65Zm-9.26-1.64h7.24c-1.81-8.52-4.22-17.17-6.56-25.55-2.46-8.82-5-17.94-6.86-26.93h-7.24c1.47,7.06,3.3,14,5.07,20.42l.29,1h-9.95l-.17-.6c-1.81-6.58-3.68-13.64-5.17-20.86H164c1.83,8.83,4.33,17.8,6.76,26.49,2.37,8.52,4.83,17.31,6.66,26h7.24c-1.63-7.65-3.71-15.31-5.72-22.53l-.29-1h9.95l.17.6c2,7.35,4.17,15.16,5.82,23Z"/></g><g id="Group_229" data-name="Group 229"><path id="Path_14721" data-name="Path 14721" class="cls-1" d="M216.36,63.48c.56,2.81,1.2,5.62,1.88,8.44H205c1.08,4.46,2.27,8.92,3.5,13.38h11c.8,2.89,1.6,5.77,2.41,8.66h-11c1.39,5,2.76,10,4,15h13.61q1.08,4.34,2,8.66H208.19c-3.75-18-10.11-36.08-13.76-54.12Z"/><path id="Path_14722" data-name="Path 14722" class="cls-2" d="M231.53,118.42h-24l-.13-.65c-1.84-8.84-4.35-17.84-6.77-26.55-2.53-9-5.13-18.38-7-27.58l-.2-1H217l.13.65c.53,2.65,1.15,5.4,1.88,8.41l.24,1H206.07c1.05,4.25,2.17,8.42,3.09,11.74h11l.16.6c.55,2,1.09,3.94,1.64,5.9L223,94.77H212c1.35,4.88,2.49,9.1,3.55,13.35h13.62l.15.62c.77,3.11,1.42,6,2,8.69Zm-22.68-1.64H229.5c-.47-2.23-1-4.54-1.6-7H214.28l-.15-.63c-1.17-4.74-2.44-9.41-4-15l-.29-1h11l-.48-1.71-1.47-5.31h-11l-.17-.6c-1-3.68-2.33-8.53-3.51-13.41l-.25-1H217.2c-.57-2.4-1.06-4.64-1.51-6.8H195.43c1.83,8.83,4.33,17.8,6.76,26.48C204.56,99.3,207,108.1,208.85,116.78Z"/></g><g id="Group_230" data-name="Group 230"><path id="Path_14723" data-name="Path 14723" class="cls-1" d="M243.77,117.6H235c-3.74-18-10.11-36.08-13.76-54.12h15.7c6.46,0,10.23,3.12,12,10.25.49,2,1,3.93,1.52,5.9,1.52,5.67-.56,8-2.64,8.73,2.91,1.09,6,3.42,7.51,9,1.26,4.58,2.48,9.16,3.57,13.74a24.17,24.17,0,0,0,2.2,6.19l.07.36h-8.72c-.65-.87-1.38-2.47-2.25-6.18-1-4.17-2.08-8.34-3.22-12.51-1-3.71-2.61-5.31-5.56-5.32H237.7C239.93,101.6,242.11,109.6,243.77,117.6Zm-8.21-31.72h3.69c3,0,3.56-1.89,2.62-5.38-.41-1.55-.82-3.1-1.22-4.66-.94-3.71-2.32-5.09-5.35-5.09h-3.69C232.81,75.8,234.16,80.84,235.56,85.88Z"/><path id="Path_14724" data-name="Path 14724" class="cls-2" d="M262.15,118.42H252l-.24-.32c-.88-1.16-1.62-3.16-2.4-6.49-.86-3.63-1.88-7.6-3.21-12.49-1.07-3.9-2.68-4.7-4.77-4.7h-2.61c2.15,7.72,4.19,15.3,5.79,23l.2,1H234.31l-.13-.65c-1.84-8.84-4.35-17.84-6.77-26.54-2.53-9-5.13-18.38-7-27.59l-.2-1h16.7c6.89,0,11,3.45,12.79,10.88.49,2,1,3.92,1.52,5.88,1.39,5.18-.09,7.67-1.61,8.86,3.18,1.68,5.31,4.58,6.48,8.81,1,3.77,2.38,8.75,3.58,13.78a23.29,23.29,0,0,0,2.1,5.95l.07.12Zm-9.3-1.64h7a29.73,29.73,0,0,1-1.83-5.54c-1.19-5-2.53-9.95-3.56-13.72-1.2-4.33-3.49-7.08-7-8.4l-2.12-.79,2.14-.75c1.43-.5,3.62-2.17,2.12-7.74q-.78-3-1.52-5.91c-1.65-6.66-5.1-9.63-11.2-9.63H222.22c1.84,8.83,4.34,17.8,6.77,26.49,2.37,8.52,4.82,17.31,6.66,26h7.11c-1.64-7.67-3.7-15.25-5.85-23l-.29-1h4.77c3.32,0,5.22,1.77,6.35,5.92,1.34,4.91,2.36,8.89,3.23,12.54A20.55,20.55,0,0,0,252.85,116.78ZM239.25,86.7h-4.32l-.16-.6c-1.24-4.49-2.68-9.8-4-15.16l-.24-1h4.73c3.9,0,5.28,2.28,6.15,5.71.39,1.55.8,3.1,1.22,4.65.66,2.45.58,4.09-.23,5.16A3.78,3.78,0,0,1,239.25,86.7Zm-3.07-1.64h3.07a2.25,2.25,0,0,0,1.88-.61c.47-.61.45-1.87,0-3.74-.42-1.55-.82-3.11-1.22-4.66-.86-3.39-2-4.48-4.56-4.48h-2.65c1.15,4.75,2.41,9.44,3.53,13.49Z"/></g><g id="Group_231" data-name="Group 231"><path id="Path_14725" data-name="Path 14725" class="cls-1" d="M288.27,103.56c2.51,9.53-.55,14.7-9,14.7h-1.34c-8.6,0-13.52-5.17-16-14.7-2.29-8.7-4.87-17.41-7.13-26.12-2.42-9.23.51-14.54,9.08-14.55h1.34c8.87,0,13.53,5.32,15.92,14.48C283.39,86.1,286,94.83,288.27,103.56Zm-16.1-26C271,73,269,71.33,266.4,71.33s-3.78,1.68-2.61,6.19c2.27,8.7,4.84,17.41,7.13,26.11,1.07,4.08,3,6.12,5.78,6.12s3.68-2,2.61-6.12c-2.3-8.7-4.87-17.41-7.14-26.11Z"/><path id="Path_14726" data-name="Path 14726" class="cls-2" d="M279.28,119.08h-1.34c-8.61,0-14.11-5-16.83-15.31-1.1-4.18-2.28-8.44-3.43-12.56-1.24-4.44-2.52-9-3.7-13.56-1.4-5.35-1.06-9.42,1-12.1,1.78-2.3,4.76-3.47,8.86-3.47h1.35c8.71,0,14,4.8,16.71,15.09,1.18,4.54,2.47,9.16,3.72,13.63,1.14,4.12,2.33,8.37,3.43,12.56,1.44,5.44,1.11,9.57-1,12.26C286.33,117.92,283.36,119.08,279.28,119.08ZM263.86,63.72c-3.57,0-6.11,1-7.57,2.83-1.74,2.26-2,5.86-.72,10.69,1.17,4.51,2.45,9.1,3.69,13.53,1.15,4.12,2.34,8.39,3.44,12.58,2.53,9.61,7.38,14.09,15.24,14.09h1.34c3.55,0,6.08-1,7.52-2.82,1.75-2.27,2-5.92.68-10.85h0c-1.1-4.17-2.28-8.42-3.43-12.53-1.25-4.47-2.54-9.1-3.72-13.66-2.47-9.46-7.28-13.86-15.13-13.86Zm12.83,46.85c-3.19,0-5.4-2.27-6.57-6.73-1.1-4.2-2.3-8.48-3.45-12.61-1.23-4.43-2.51-9-3.68-13.5-.74-2.85-.65-4.74.27-5.93a3.7,3.7,0,0,1,3.13-1.28c3.24,0,5.39,2.22,6.57,6.8s2.44,9,3.67,13.45c1.16,4.15,2.36,8.44,3.47,12.66.71,2.71.6,4.62-.34,5.84a3.66,3.66,0,0,1-3.07,1.3Zm-10.3-38.41a2.17,2.17,0,0,0-1.83.64c-.39.51-.71,1.7,0,4.51,1.17,4.49,2.44,9.06,3.68,13.48,1.15,4.14,2.35,8.42,3.45,12.64,1,3.7,2.6,5.5,5,5.5a2.09,2.09,0,0,0,1.76-.67c.41-.53.75-1.73.05-4.41-1.11-4.21-2.3-8.5-3.46-12.64-1.23-4.42-2.5-9-3.67-13.48h0c-1.3-5-3.47-5.58-5-5.58Z"/></g><g id="Group_232" data-name="Group 232"><path id="Path_14727" data-name="Path 14727" class="cls-1" d="M305,63.48q.86,4.22,1.89,8.44H293.65c1.08,4.46,2.28,8.92,3.51,13.38h11l2.4,8.66h-11c1.39,5,2.76,10,4,15h13.62q1.06,4.34,2,8.66H296.81c-3.75-18-10.11-36.08-13.76-54.12Z"/><path id="Path_14728" data-name="Path 14728" class="cls-2" d="M320.15,118.42h-24l-.14-.65c-1.83-8.84-4.34-17.84-6.77-26.54-2.52-9-5.13-18.38-7-27.59l-.2-1h23.61l.13.65c.54,2.67,1.16,5.42,1.88,8.41l.25,1H294.69c1.05,4.25,2.18,8.42,3.09,11.74h11l.17.6c.54,2,1.09,4,1.64,5.92l1.06,3.78h-11c1.35,4.87,2.49,9.1,3.55,13.34h13.61l.15.63c.77,3.1,1.42,5.94,2,8.68Zm-22.68-1.64h20.66c-.47-2.23-1-4.54-1.61-7H302.91l-.15-.63c-1.17-4.74-2.44-9.41-4-15l-.29-1h11L309,91.45c-.49-1.78-1-3.55-1.48-5.33h-11l-.16-.6c-1-3.68-2.33-8.53-3.51-13.41l-.25-1h13.22c-.57-2.38-1.07-4.62-1.52-6.8H284.05c1.84,8.83,4.34,17.8,6.76,26.49,2.38,8.51,4.83,17.31,6.66,26Z"/></g><g id="Group_233" data-name="Group 233"><path id="Path_14729" data-name="Path 14729" class="cls-1" d="M320.73,107.27c-.77-3-1.59-6.11-2.43-9.16H327q1,3.7,2,7.42c.77,3,2.59,4.43,5.14,4.43s3.53-1.82,2.64-5.23l-.15-.59c-.94-3.56-2.52-5.38-5.92-8l-8.27-6.33c-5-3.85-8.18-7.42-9.73-13.38l-.39-1.53c-2.05-8.15,1.5-12,9.4-12h1.41c7.32,0,12.16,3.42,13.9,10.48q.89,3.56,1.84,7.13h-8.59q-.69-2.62-1.37-5.24c-.82-3.28-2.33-4.59-4.75-4.59-2.61,0-3.52,1.31-2.75,4.37l.13.51c.8,3.13,2.17,4.73,5.65,7.42l8.21,6.4c5.73,4.44,8.62,7.71,10.31,14.11.14.51.27,1,.4,1.53,1.95,7.42-.46,13.17-9.38,13.17h-1.48C327.46,118.18,322.47,114.18,320.73,107.27Z"/><path id="Path_14730" data-name="Path 14730" class="cls-2" d="M335.25,119c-8,0-13.44-4.1-15.32-11.53h0c-.68-2.7-1.45-5.61-2.42-9.15l-.28-1h10.42l.17.6c.77,2.84,1.4,5.2,2,7.43.65,2.53,2.11,3.82,4.34,3.82h0a2,2,0,0,0,1.72-.65c.51-.66.55-1.9.12-3.56l-.15-.58c-.91-3.47-2.47-5.14-5.62-7.56l-6.8-5.21-1.47-1.12c-5-3.81-8.37-7.45-10-13.83l-.39-1.53c-1-4.18-.7-7.43,1-9.66s4.82-3.37,9.16-3.37h1.41c7.82,0,12.9,3.84,14.69,11.1.56,2.23,1.16,4.56,1.84,7.12l.28,1H329.65l-.16-.61c-.47-1.75-.92-3.5-1.37-5.25-.88-3.48-2.42-4-4-4h0a2.37,2.37,0,0,0-1.9.58c-.37.48-.39,1.43-.05,2.76l.13.51c.72,2.8,1.82,4.24,5.36,7q4.1,3.21,8.21,6.4c5.62,4.37,8.81,7.82,10.6,14.55l.4,1.54c1.16,4.46.76,8.14-1.17,10.64-1.81,2.35-4.85,3.55-9,3.55ZM319.38,98.93c.84,3.08,1.53,5.7,2.15,8.14h0c1.69,6.73,6.44,10.29,13.72,10.29h1.47c3.64,0,6.23-1,7.72-2.9,1.61-2.09,1.91-5.28.88-9.23l-.4-1.53c-1.68-6.32-4.57-9.45-10-13.68q-4.11-3.19-8.21-6.4c-3.39-2.61-5.05-4.37-5.95-7.86l-.13-.51c-.47-1.89-.36-3.26.36-4.17a3.77,3.77,0,0,1,3.19-1.22h0c2.88,0,4.65,1.65,5.54,5.2q.58,2.31,1.2,4.62h6.89c-.57-2.16-1.09-4.17-1.57-6.11-1.61-6.54-6-9.86-13.1-9.86h-1.41c-3.8,0-6.45.93-7.87,2.74s-1.65,4.59-.73,8.25l.38,1.52c1.54,5.93,4.75,9.35,9.44,12.94l1.46,1.12,6.81,5.21c3.39,2.61,5.19,4.54,6.21,8.45l.15.58c.58,2.21.44,3.89-.41,5a3.56,3.56,0,0,1-3,1.28h0c-3,0-5.09-1.8-5.93-5-.53-2.06-1.11-4.24-1.81-6.8Z"/></g><g id="Group_234" data-name="Group 234"><path id="Path_14731" data-name="Path 14731" class="cls-1" d="M15.73,124.3h8.42A117.83,117.83,0,0,1,25.87,143h7.78a116.66,116.66,0,0,0-1.72-18.66h8.42C43,140,43.1,155.68,37.23,171.37H28.82a76.26,76.26,0,0,0,4.54-20.5H25.57A75.89,75.89,0,0,1,21,171.37H12.62C18.48,155.68,18.35,140,15.73,124.3Z"/><path id="Path_14732" data-name="Path 14732" class="cls-2" d="M37.8,172.19H27.63l.42-1.1a74.64,74.64,0,0,0,4.41-19.4H26.33a76,76,0,0,1-4.52,20l-.2.53H11.43l.42-1.1c5.12-13.7,6.1-28.53,3.07-46.66l-.16-1H24.84l.11.68a119.11,119.11,0,0,1,1.73,18h6.14a118.37,118.37,0,0,0-1.7-17.71l-.16-1H41l.11.68c3.08,18.43,2.08,33.52-3.15,47.5ZM30,170.55h6.67c4.89-13.38,5.84-27.85,3-45.43H32.9A115.94,115.94,0,0,1,34.47,143v.83H25.05V143a116.11,116.11,0,0,0-1.6-17.85H16.69c2.81,17.51,1.88,32-2.9,45.43h6.67a75,75,0,0,0,4.3-19.74l.06-.76h9.43l-.08.89A76.5,76.5,0,0,1,30,170.55Z"/></g><g id="Group_235" data-name="Group 235"><path id="Path_14733" data-name="Path 14733" class="cls-1" d="M66.1,124.3q.62,3.66,1,7.34H54.66a105.24,105.24,0,0,1,.7,11.64H65.73c0,2.51-.08,5-.29,7.53H55.06a77.56,77.56,0,0,1-2.17,13H65.73a70.69,70.69,0,0,1-2.37,7.53H42.29C48.16,155.68,48,140,45.41,124.3Z"/><path id="Path_14734" data-name="Path 14734" class="cls-2" d="M63.94,172.19H41.11l.41-1.1c5.13-13.7,6.1-28.53,3.08-46.66l-.16-1H66.79l.12.68c.42,2.53.77,5,1,7.39l.1.91H55.58c.36,3.44.56,6.8.6,10H66.56v.82c0,2.58-.1,5.13-.3,7.6l-.07.75H55.81A78.18,78.18,0,0,1,53.94,163H66.79l-.27,1a74.58,74.58,0,0,1-2.39,7.61Zm-20.47-1.64H62.8c.7-1.93,1.33-3.9,1.87-5.88H51.83l.26-1a78.26,78.26,0,0,0,2.16-12.9l.06-.75H64.68c.14-1.92.22-3.9.23-5.89H54.54v-.82a106.07,106.07,0,0,0-.69-11.55l-.1-.91H66.21c-.22-1.85-.49-3.76-.81-5.7h-19c2.81,17.51,1.88,32-2.9,45.43Z"/></g><g id="Group_236" data-name="Group 236"><path id="Path_14735" data-name="Path 14735" class="cls-1" d="M86.56,162.71H78a83.6,83.6,0,0,1-4,8.66h-7.4c8.5-15.69,11-31.38,11-47.07h10.5c5.42,15.69,8.36,31.38,5.3,47.07h-8.1A68.42,68.42,0,0,0,86.56,162.71Zm-6.12-7h6.33a85,85,0,0,0-.88-10.57c-.75-5.18-1.49-8.6-1.91-11.26a72,72,0,0,1-1.06,11.26,91.09,91.09,0,0,1-2.48,10.57Z"/><path id="Path_14736" data-name="Path 14736" class="cls-2" d="M94.08,172.19H84.29l.21-1a66,66,0,0,0,1.17-7.67H78.52a90.09,90.09,0,0,1-3.81,8.23l-.23.43H65.2l.66-1.21c7.43-13.71,10.9-28.55,10.92-46.68v-.82H88.69l.19.55c6.36,18.42,8.06,33.51,5.33,47.5Zm-7.77-1.64h6.41c2.47-13.37.8-27.84-5.2-45.43h-9.1c-.12,17.52-3.46,32-10.48,45.43h5.54a87.73,87.73,0,0,0,3.72-8.14l.2-.52h10l-.07.88A68,68,0,0,1,86.31,170.55Zm1.3-14.05H79.35l.31-1.05A87.84,87.84,0,0,0,82.11,145a71.69,71.69,0,0,0,1.06-11.13l1.63-.13c.15,1,.34,2,.56,3.23.39,2.11.87,4.73,1.35,8.05a86.58,86.58,0,0,1,.89,10.67Zm-6.07-1.64h4.4a84,84,0,0,0-.86-9.63c-.24-1.67-.48-3.17-.71-4.51-.17,1.44-.38,2.95-.64,4.53a92.78,92.78,0,0,1-2.19,9.61Z"/></g><g id="Group_237" data-name="Group 237"><path id="Path_14737" data-name="Path 14737" class="cls-1" d="M100.36,124.3h13.29c7.54,0,11.29,3,12,10.82a87.91,87.91,0,0,1-1.3,25.18c-1.64,7.59-6.3,11.07-13.82,11.07H97.25C103.11,155.68,103,140,100.36,124.3Zm7.57,39.92h3c3,0,4.52-1.64,5.17-4.93a87.88,87.88,0,0,0,1.15-23.35c-.26-3.42-1.5-4.94-4.4-4.94h-3.1c1.3,11.08,1.11,22.15-1.8,33.22Z"/><path id="Path_14738" data-name="Path 14738" class="cls-2" d="M110.54,172.19H96.07l.41-1.1c5.12-13.7,6.1-28.53,3.07-46.66l-.16-1h14.26c8.13,0,12.09,3.57,12.82,11.56a88.55,88.55,0,0,1-1.31,25.43C123.48,168.25,118.56,172.19,110.54,172.19Zm-12.12-1.64h12.12c7.24,0,11.5-3.41,13-10.42a86.6,86.6,0,0,0,1.28-24.94c-.65-7.15-3.89-10.07-11.18-10.07H101.33C104.13,142.63,103.21,157.12,98.42,170.55ZM110.91,165h-4l.27-1c2.63-10,3.21-20.75,1.78-32.92l-.11-.92h4c4.23,0,5,3,5.22,5.7a88.6,88.6,0,0,1-1.17,23.56c-.75,3.83-2.65,5.6-6,5.6ZM109,163.4h1.92c2.5,0,3.77-1.23,4.36-4.27A86.63,86.63,0,0,0,116.41,136c-.27-3.49-1.52-4.17-3.58-4.17h-2.18C111.92,143.41,111.38,153.76,109,163.4Z"/></g><g id="Group_238" data-name="Group 238"><path id="Path_14739" data-name="Path 14739" class="cls-1" d="M135,171.75c-6-.88-7.11-5.25-5.68-12.59a88.2,88.2,0,0,0,1.17-22.71c-.62-8,2.07-12.66,10.21-12.66H142c8.3,0,12.77,4.62,13.38,12.59a87.85,87.85,0,0,1-1.17,22.78c-1.4,7.21-6.12,11.58-12.47,12.59a59.37,59.37,0,0,1-.1,9.43h-11A75.83,75.83,0,0,0,135,171.75Zm11.88-35.24c-.29-3.92-2.1-5.38-4.49-5.38-2.54,0-3.71,1.46-3.42,5.38a88.28,88.28,0,0,1-1.18,22.72c-.7,3.54.1,5.31,2.76,5.31s4.45-1.77,5.14-5.31a87.84,87.84,0,0,0,1.19-22.72Z"/><path id="Path_14740" data-name="Path 14740" class="cls-2" d="M142.4,182H129.33l.65-1.21a76.58,76.58,0,0,0,3.94-8.41,7.18,7.18,0,0,1-4.51-2.78c-1.56-2.2-1.83-5.57-.85-10.59a86.6,86.6,0,0,0,1.15-22.5c-.37-4.86.46-8.31,2.53-10.55,1.86-2,4.65-3,8.5-3H142c8.5,0,13.54,4.74,14.2,13.35a88.21,88.21,0,0,1-1.18,23c-1.37,7.05-5.88,11.79-12.42,13.11a59.18,59.18,0,0,1-.15,8.83Zm-10.33-1.64h8.83a58.09,58.09,0,0,0,0-8.55l-.06-.75.75-.12c6.22-1,10.52-5.34,11.8-11.93a87.11,87.11,0,0,0,1.15-22.57c-.6-7.73-4.94-11.83-12.57-11.83h-1.26c-3.38,0-5.77.81-7.3,2.47-1.75,1.88-2.43,4.92-2.1,9.31a88.13,88.13,0,0,1-1.18,22.93c-.89,4.56-.7,7.52.58,9.33a6.16,6.16,0,0,0,4.41,2.29l1,.15-.37,1A79.25,79.25,0,0,1,132.07,180.36Zm8.52-15a3.67,3.67,0,0,1-3-1.19c-.86-1-1.05-2.68-.57-5.1a86.59,86.59,0,0,0,1.17-22.5c-.18-2.46.17-4.08,1.12-5.1a4,4,0,0,1,3.12-1.16c1.81,0,4.91.8,5.31,6.14h0a88.57,88.57,0,0,1-1.2,22.93C145.53,164.58,142.38,165.36,140.59,165.36ZM142.43,132a2.5,2.5,0,0,0-1.92.63c-.6.65-.82,1.95-.68,3.87a88.14,88.14,0,0,1-1.2,22.93c-.37,1.86-.29,3.12.23,3.75a2.16,2.16,0,0,0,1.73.59c2.83,0,3.92-2.53,4.34-4.65a86.59,86.59,0,0,0,1.17-22.5c-.34-4.62-2.85-4.62-3.67-4.62Z"/></g><g id="Group_239" data-name="Group 239"><path id="Path_14741" data-name="Path 14741" class="cls-1" d="M166.8,171.94c-8.45,0-9.48-4.74-8.06-11.58,2.49-12,1.94-24-.07-36.06h8.48c2,12,2.55,24,.09,35.94-.56,2.72,0,4.36,2.64,4.36s4.19-1.58,4.76-4.36c2.46-12,1.91-24-.09-35.94H183c2,12,2.56,24,.07,36.06-1.38,6.71-6.52,11.58-14.91,11.58Z"/><path id="Path_14742" data-name="Path 14742" class="cls-2" d="M168.19,172.76H166.8c-3.77,0-6.34-.9-7.85-2.76-1.66-2-2-5.15-1-9.8,2.23-10.76,2.21-22.13-.07-35.77l-.16-1h10.15l.11.68c2.3,13.8,2.33,25.31.08,36.24-.28,1.39-.22,2.34.18,2.84a2,2,0,0,0,1.66.54c2.17,0,3.43-1.18,4-3.71,2.2-10.72,2.17-22-.1-35.64l-.16-1h10.14l.12.68c2.31,13.85,2.33,25.4.06,36.37C182.32,168.19,176.45,172.76,168.19,172.76Zm-8.55-47.64c2.15,13.43,2.12,24.7-.1,35.41-.86,4.13-.64,6.81.68,8.43,1.18,1.46,3.33,2.16,6.58,2.16h1.39c7.42,0,12.69-4.08,14.1-10.92,2.19-10.58,2.21-21.74,0-35.08h-6.81c2.14,13.37,2.12,24.61-.08,35.28-.69,3.34-2.56,5-5.57,5a3.59,3.59,0,0,1-2.93-1.14c-.74-.91-.9-2.29-.51-4.2,2.17-10.55,2.18-21.67,0-35Z"/></g><g id="Group_240" data-name="Group 240"><path id="Path_14743" data-name="Path 14743" class="cls-1" d="M202.93,162.71h-8.6a83.6,83.6,0,0,1-4,8.66H183c8.5-15.69,11-31.38,11-47.07h10.5c5.43,15.69,8.37,31.38,5.3,47.07h-8.1A66.68,66.68,0,0,0,202.93,162.71Zm-6.12-7h6.33a85,85,0,0,0-.88-10.57c-.76-5.18-1.49-8.6-1.91-11.26a70.83,70.83,0,0,1-1.07,11.26A89,89,0,0,1,196.81,155.68Z"/><path id="Path_14744" data-name="Path 14744" class="cls-2" d="M210.45,172.19h-9.79l.21-1a66,66,0,0,0,1.17-7.67h-7.16a87.49,87.49,0,0,1-3.81,8.23l-.23.43h-9.27l.65-1.21c7.44-13.71,10.9-28.55,10.93-46.68v-.82h11.9l.19.55c6.37,18.42,8.07,33.51,5.34,47.5Zm-7.77-1.64h6.41c2.47-13.37.8-27.84-5.21-45.43h-9.1c-.12,17.52-3.46,32-10.47,45.43h5.54a85.1,85.1,0,0,0,3.71-8.14l.21-.52h10l-.07.88a70.28,70.28,0,0,1-1.07,7.78ZM204,156.5h-8.27l.32-1.05A91.9,91.9,0,0,0,198.48,145a71.67,71.67,0,0,0,1.05-11.13l1.63-.13c.16,1,.35,2,.56,3.2.39,2.12.87,4.75,1.35,8.08a84.83,84.83,0,0,1,.89,10.67Zm-6.07-1.64h4.39a86.31,86.31,0,0,0-.85-9.63c-.25-1.67-.49-3.17-.72-4.51-.16,1.44-.38,2.95-.63,4.53a92.78,92.78,0,0,1-2.19,9.61Z"/></g><g id="Group_241" data-name="Group 241"><path id="Path_14745" data-name="Path 14745" class="cls-1" d="M221.9,171.37h-8.28c5.86-15.69,5.73-31.38,3.11-47.07h14.81c6,0,9.65,2.72,10.3,8.92q.25,2.57.39,5.13c.24,4.93-2.49,7-4.63,7.59,2.41.95,4.72,3,4.19,7.78a77.41,77.41,0,0,1-2.38,12,19.74,19.74,0,0,0-1,5.38l-.12.31h-8.22c-.17-.76,0-2.15,1-5.37a76.36,76.36,0,0,0,2.29-10.89c.43-3.22-.59-4.61-3.36-4.62h-3.48A76.28,76.28,0,0,1,221.9,171.37Zm4.84-27.58h3.48c2.84,0,3.89-1.65,3.76-4.69-.06-1.35-.15-2.7-.26-4-.28-3.23-1.47-4.43-4.31-4.43h-3.48a107.13,107.13,0,0,1,.81,13.16Z"/><path id="Path_14746" data-name="Path 14746" class="cls-2" d="M238.86,172.19h-9.45l-.14-.63c-.19-.85-.1-2.16,1-5.79A76.08,76.08,0,0,0,232.51,155c.19-1.47.05-2.49-.42-3a2.68,2.68,0,0,0-2.13-.66h-2.73a76,76,0,0,1-4.56,20.34l-.2.53h-10l.42-1.1c5.12-13.7,6.1-28.53,3.07-46.66l-.16-1h15.78c6.71,0,10.45,3.25,11.12,9.65.17,1.75.31,3.49.39,5.17.22,4.49-1.87,6.67-3.55,7.68,2.46,1.59,3.51,4.22,3.1,7.83a77.67,77.67,0,0,1-2.4,12.09,18.26,18.26,0,0,0-1,5.12v.17Zm-8-1.64h6.75a24,24,0,0,1,1-5.1A76.67,76.67,0,0,0,241,153.62c.39-3.53-.81-5.8-3.67-6.92l-2.23-.87,2.29-.68c1.3-.38,4.29-1.81,4-6.77-.08-1.65-.21-3.36-.38-5.08-.59-5.58-3.6-8.18-9.5-8.18H217.69c2.81,17.5,1.88,32-2.9,45.43h6.54a75,75,0,0,0,4.33-20.12l.06-.76H230a4.24,4.24,0,0,1,3.37,1.22c.81.93,1.07,2.31.8,4.33a76.55,76.55,0,0,1-2.32,11A23,23,0,0,0,230.84,170.55Zm-.62-25.94h-4.3v-.82a107.77,107.77,0,0,0-.8-13.07l-.11-.92h4.4c3.28,0,4.82,1.55,5.13,5.18.11,1.37.2,2.75.26,4.09.09,2-.3,3.39-1.2,4.32A4.48,4.48,0,0,1,230.22,144.61ZM227.56,143h2.66a2.94,2.94,0,0,0,2.2-.71,4.23,4.23,0,0,0,.74-3.12c0-1.32-.14-2.67-.25-4-.24-2.78-1.09-3.67-3.5-3.67h-2.56A105.54,105.54,0,0,1,227.56,143Z"/></g><g id="Group_242" data-name="Group 242"><path id="Path_14747" data-name="Path 14747" class="cls-1" d="M253.33,131.76h-7.65q-.42-3.72-1.05-7.46H268.3q.61,3.74,1,7.46h-7.59c1.46,13.2.78,26.41-4.16,39.61h-8.41C254.11,158.17,254.8,145,253.33,131.76Z"/><path id="Path_14748" data-name="Path 14748" class="cls-2" d="M258.16,172.19H248l.42-1.1c4.32-11.56,5.69-24.16,4.19-38.5h-7.66l-.08-.73c-.26-2.39-.61-4.89-1-7.42l-.16-1H269l.12.69c.43,2.58.78,5.11,1.05,7.51l.1.91h-7.6c1.5,14.53.09,27.32-4.3,39.07Zm-7.81-1.64H257c4.23-11.6,5.51-24.27,3.91-38.7l-.1-.91h7.59c-.22-1.88-.5-3.83-.82-5.82h-22c.32,2,.59,3.93.81,5.82h7.66l.08.73c1.6,14.46.36,27.19-3.8,38.88Z"/></g><g id="Group_243" data-name="Group 243"><path id="Path_14749" data-name="Path 14749" class="cls-1" d="M293.08,124.3q.62,3.66,1,7.34H281.64a105.24,105.24,0,0,1,.7,11.64h10.38c0,2.51-.09,5-.3,7.53H282.05a78.6,78.6,0,0,1-2.18,13h12.84a70.69,70.69,0,0,1-2.37,7.53H269.27c5.87-15.69,5.74-31.38,3.12-47.07Z"/><path id="Path_14750" data-name="Path 14750" class="cls-2" d="M290.91,172.19H268.09l.42-1.1c5.12-13.7,6.1-28.53,3.07-46.66l-.16-1h22.35l.12.68c.42,2.53.77,5,1,7.39l.1.91H282.56c.36,3.44.56,6.79.6,10h10.38v.82c0,2.57-.09,5.13-.3,7.6l-.06.75H282.8A79.58,79.58,0,0,1,280.92,163h12.85l-.26,1a74.58,74.58,0,0,1-2.39,7.61Zm-20.46-1.64h19.32c.7-1.93,1.34-3.9,1.88-5.88H278.81l.26-1a76.21,76.21,0,0,0,2.16-12.9l.06-.75h10.37c.14-1.92.22-3.9.23-5.89H281.52v-.82a106.07,106.07,0,0,0-.69-11.55l-.1-.91h12.46c-.22-1.85-.49-3.76-.8-5.7h-19C276.16,142.63,275.23,157.12,270.45,170.55Z"/></g><g id="Group_244" data-name="Group 244"><path id="Path_14751" data-name="Path 14751" class="cls-1" d="M302.84,171.37h-8.29c5.87-15.69,5.74-31.38,3.12-47.07h14.8c6,0,9.66,2.72,10.31,8.92q.25,2.57.39,5.13c.23,4.93-2.49,7-4.64,7.59,2.42.95,4.73,3,4.19,7.78a76.25,76.25,0,0,1-2.38,12,19.73,19.73,0,0,0-1,5.38l-.12.31H311c-.18-.76,0-2.15.95-5.37a76.39,76.39,0,0,0,2.3-10.89c.43-3.22-.59-4.61-3.36-4.62h-3.48A76.28,76.28,0,0,1,302.84,171.37Zm4.84-27.58h3.48c2.84,0,3.89-1.65,3.76-4.69-.06-1.35-.15-2.7-.26-4-.28-3.23-1.47-4.43-4.31-4.43h-3.48A107.13,107.13,0,0,1,307.68,143.79Z"/><path id="Path_14752" data-name="Path 14752" class="cls-2" d="M319.8,172.19h-9.45l-.15-.63c-.19-.85-.1-2.16,1-5.79A74.7,74.7,0,0,0,313.44,155c.2-1.47.06-2.49-.41-3a2.7,2.7,0,0,0-2.14-.66h-2.72a76.4,76.4,0,0,1-4.56,20.34l-.2.53h-10l.41-1.1c5.13-13.7,6.1-28.53,3.08-46.66l-.16-1h15.77c6.71,0,10.45,3.25,11.13,9.65.17,1.75.3,3.49.39,5.17.21,4.49-1.87,6.67-3.56,7.68,2.47,1.59,3.51,4.22,3.11,7.83a77.69,77.69,0,0,1-2.41,12.09,18.25,18.25,0,0,0-1,5.12v.17Zm-8-1.64h6.76a24.66,24.66,0,0,1,1-5.1,75.53,75.53,0,0,0,2.36-11.83c.39-3.53-.81-5.8-3.68-6.92l-2.23-.87,2.3-.68c1.3-.38,4.28-1.81,4.05-6.77-.09-1.65-.22-3.36-.39-5.08-.58-5.58-3.6-8.18-9.49-8.18H298.63c2.81,17.5,1.88,32-2.9,45.43h6.54a75,75,0,0,0,4.32-20.12l.06-.76h4.24a4.22,4.22,0,0,1,3.37,1.22c.82.93,1.08,2.31.81,4.33a76.55,76.55,0,0,1-2.32,11A22.24,22.24,0,0,0,311.77,170.55Zm-.61-25.94h-4.3v-.82a105.79,105.79,0,0,0-.81-13.07l-.11-.92h4.41c3.28,0,4.81,1.55,5.13,5.18.11,1.37.2,2.75.26,4.09a5.66,5.66,0,0,1-1.2,4.32A4.48,4.48,0,0,1,311.16,144.61ZM308.5,143h2.66a2.94,2.94,0,0,0,2.2-.71,4.23,4.23,0,0,0,.74-3.12c-.06-1.32-.15-2.67-.26-4-.24-2.78-1.09-3.67-3.49-3.67h-2.56A108.1,108.1,0,0,1,308.5,143Z"/></g><g id="Group_245" data-name="Group 245"><path id="Path_14753" data-name="Path 14753" class="cls-1" d="M325.47,162.39a76.93,76.93,0,0,0,1.44-8h8.22q-.4,3.22-1.1,6.45c-.56,2.6.45,3.86,2.86,3.86s4.2-1.58,4.82-4.56c0-.16.07-.33.1-.5.59-3.1-.22-4.68-2.49-7q-2.79-2.76-5.74-5.5c-3.62-3.36-5.63-6.46-6-11.65,0-.44-.07-.88-.11-1.32-.69-7.09,2.57-10.44,10.07-10.44h1.33c6.87,0,11.48,3,12.14,9.11.21,2.07.36,4.13.46,6.2h-8.1q-.11-2.28-.3-4.56c-.26-2.84-1.57-4-3.84-4-2.47,0-3.45,1.13-3.2,3.8,0,.14,0,.29,0,.44.22,2.72,1.17,4.11,3.83,6.45,2.07,1.86,4.08,3.71,6,5.57,4.06,3.86,5.73,6.71,4.73,12.28l-.27,1.32c-1.32,6.46-6.72,11.46-15.12,11.46h-1.39C326.49,171.88,324,168.4,325.47,162.39Z"/><path id="Path_14754" data-name="Path 14754" class="cls-2" d="M333.87,172.7c-3.95,0-6.72-1-8.25-2.92-1.41-1.79-1.73-4.34-.95-7.58a74.91,74.91,0,0,0,1.42-7.89l.09-.71h9.88l-.11.92c-.28,2.2-.66,4.39-1.11,6.52a2.9,2.9,0,0,0,.19,2.27,2.37,2.37,0,0,0,1.87.6c2.06,0,3.49-1.39,4-3.9l.1-.5c.54-2.86-.22-4.17-2.27-6.22-1.81-1.8-3.74-3.64-5.72-5.49-3.46-3.2-5.84-6.5-6.26-12.18,0-.44-.08-.88-.11-1.32-.36-3.71.3-6.45,2-8.36s4.72-3,8.86-3h1.32c7.68,0,12.28,3.5,12.95,9.84.22,2.13.38,4.23.47,6.25l0,.86h-9.75l0-.78c-.07-1.49-.17-3-.3-4.52-.26-2.85-1.6-3.24-3-3.24a2.56,2.56,0,0,0-2,.58,3.1,3.1,0,0,0-.42,2.32l0,.45c.19,2.37.93,3.59,3.56,5.91,2.12,1.9,4.15,3.77,6.07,5.58,4.13,3.94,6,7,5,13-.09.46-.18.9-.27,1.35-1.51,7.35-7.76,12.11-15.92,12.11Zm-6.24-17.46c-.34,2.48-.8,4.95-1.36,7.34h0c-.66,2.73-.44,4.8.64,6.18s3.54,2.3,7,2.3h1.4c7.46,0,13-4.14,14.32-10.8.09-.44.18-.88.26-1.32.95-5.31-.61-7.84-4.48-11.53-1.9-1.8-3.93-3.67-6-5.55-2.63-2.32-3.85-3.88-4.1-7l0-.44a4.49,4.49,0,0,1,.85-3.57,4,4,0,0,1,3.17-1.11c2.81,0,4.37,1.59,4.65,4.73.12,1.27.2,2.55.27,3.81h6.46c-.1-1.73-.23-3.5-.42-5.3-.74-6.92-6.56-8.38-11.31-8.38h-1.33c-3.65,0-6.15.8-7.64,2.44s-1.93,3.87-1.62,7.1c0,.46.08.9.11,1.35.39,5.16,2.49,8.08,5.75,11.1,2,1.85,3.93,3.71,5.76,5.52,2.34,2.34,3.4,4.17,2.72,7.7l-.1.52c-.68,3.26-2.77,5.21-5.62,5.21a3.83,3.83,0,0,1-3.15-1.22,4.19,4.19,0,0,1-.51-3.64c.38-1.78.7-3.61,1-5.45Z"/></g></g></svg>